<svg height="700pt" viewBox="0 0 933.333 933.333" width="700pt" xmlns="http://www.w3.org/2000/svg" xmlns:xlink="http://www.w3.org/1999/xlink"><linearGradient id="a" gradientTransform="matrix(.64593413 0 0 .64727111 -26.812058 91.209595)" gradientUnits="userSpaceOnUse" x1="462.12891" x2="1135.1661" y1="776.05182" y2="839.35919"><stop offset="0" stop-color="#7f899b"/><stop offset="1" stop-color="#1c1c2f"/></linearGradient><g stroke="#000" stroke-linecap="round" stroke-linejoin="round"><path d="m464.0575 199.74039c-72.15846.81417-129.80919 57.83356-134.58788 124.16971-2.36973 32.901 45.30036 89.02327 73.2071 106.57202-137.42662 30.97766-2.67542 70.59147-2.67493 127.68933 0 39.45432-53.46146 65.73995-24.19067 91.06165-15.91384 64.13115-62.56659 87.32876-119.22845 113.51068-27.87732 35.67682-12.92202 95.24899 39.38116 98.67212 36.7384 2.40438 307.5307 3.06172 345.47922-1.12619 58.22843-6.42623 67.32145-67.31008 40.45166-100.9358-57.0767-17.68383-118.66052-42.65229-131.13967-108.71293 30.29466-25.40156-31.51034-52.2607-31.51084-92.46942 0-57.08924 150.11814-90.33556 6.33503-127.68933 27.90626-17.54879 72.3951-73.59576 73.20665-106.57204 1.59322-64.74342-65.73621-124.94826-134.72838-124.16971z" fill="none" stroke-width="35"/><g stroke-width="20"><path d="m464.0575 199.74039c-72.15846.81417-129.80919 57.83356-134.58788 124.16971-2.36973 32.901 45.30036 89.02327 73.2071 106.57202-137.42662 30.97766-2.67542 70.59147-2.67493 127.68933 0 39.45432-53.46146 65.73995-24.19067 91.06165-15.91384 64.13115-62.56659 87.32876-119.22845 113.51068-27.87732 35.67682-12.92202 95.24899 39.38116 98.67212 36.7384 2.40438 307.5307 3.06172 345.47922-1.12619 58.22843-6.42623 67.32145-67.31008 40.45166-100.9358-57.0767-17.68383-118.66052-42.65229-131.13967-108.71293 30.29466-25.40156-31.51034-52.2607-31.51084-92.46942 0-57.08924 150.11814-90.33556 6.33503-127.68933 27.90626-17.54879 72.3951-73.59576 73.20665-106.57204 1.59322-64.74342-65.73621-124.94826-134.72838-124.16971z" fill="url(#a)" fill-rule="evenodd"/><path d="m617.83945 863.58331c58.22846-6.42619 67.32145-57.99418 40.4517-91.61985-57.07628-17.68391-118.66052-51.96824-131.13971-118.02885 30.29515-25.40163-31.51031-52.26073-31.5108-92.46952 0-57.08917 150.11859-90.33545 6.33503-127.68926 27.90626-17.54875 72.39556-73.59577 73.20661-106.57207 1.59326-64.74338-58.20326-120.00602-127.19539-119.22749" fill="none" opacity=".5"/><path d="m416.62074 465.93474h94.74631zm-8.70446 161.87536h112.15523zm-99.41294 153.47168h319.99549z" fill="none" opacity=".5"/></g></g></svg>