<svg height="700pt" viewBox="0 0 933.333 933.333" width="700pt" xmlns="http://www.w3.org/2000/svg" xmlns:xlink="http://www.w3.org/1999/xlink"><linearGradient id="a" gradientTransform="matrix(6.2484782 0 0 7.110584 -3961.4887 -264.99345)" gradientUnits="userSpaceOnUse" x1="660.51819" x2="757.72223" y1="90.376785" y2="103.71878"><stop offset="0" stop-color="#7f899b"/><stop offset="1" stop-color="#1c1c2f"/></linearGradient><g stroke="#000" stroke-linecap="round" stroke-linejoin="round"><path d="m774.96589 111.75203-126.20102.58226v80.34943l-114.11953 9.31589v-79.91277l-130.42235.72781v81.51395l-109.4615-11.64488v-81.07724l-117.1763 2.91121c-11.46947 98.78288 48.60313 121.46887 7.4236 191.55778l101.06573 53.31092c4.85217 106.7786 28.33619 246.63655 19.21451 314.51341-35.62618 27.13489 31.82559 52.82536-55.06913 70.60421-10.41661 2.13128-57.89273 9.21779-62.17772 14.70162-32.07746 41.05269-14.91506 109.59841 45.2694 113.53733 42.27422 2.76665 432.00271 3.50895 475.66883-1.31014 67.00262-7.39451 77.35238-77.31942 46.43383-116.01182-4.73575-5.92608-42.3108-12.30026-59.77889-15.28379-77.68358-13.26831-18.74596-43.52881-53.6597-61.85459-11.19898-74.12031 8.74596-209.80328 20.47181-320.76826l103.34808-50.71112c-31.88596-76.66462 19.86866-88.18561 9.17035-195.05121z" fill="none" stroke-width="35"/><g stroke-width="20"><path d="m774.96589 111.75203-126.20102.58226v80.34943l-114.11953 9.31589v-79.91277l-130.42235.72781v81.51395l-109.4615-11.64488v-81.07724l-117.1763 2.91121c-11.46947 98.78288 48.60313 121.46887 7.4236 191.55778l101.06573 53.31092c4.85217 106.7786 28.33619 246.63655 19.21451 314.51341-35.62618 27.13489 31.82559 52.82536-55.06913 70.60421-10.41661 2.13128-57.89273 9.21779-62.17772 14.70162-32.07746 41.05269-14.91506 109.59841 45.2694 113.53733 42.27422 2.76665 432.00271 3.50895 475.66883-1.31014 67.00262-7.39451 77.35238-77.31942 46.43383-116.01182-4.73575-5.92608-42.3108-12.30026-59.77889-15.28379-77.68358-13.26831-18.74596-43.52881-53.6597-61.85459-11.19898-74.12031 8.74596-209.80328 20.47181-320.76826l103.34808-50.71112c-31.88596-76.66462 19.86866-88.18561 9.17035-195.05121z" fill="url(#a)" fill-rule="evenodd"/><path d="m239.01479 277.47243 388.95622 1.64062zm100.45198 80.12642h214.40256zm0 331.10591h242.34794zm-80.60038 86.06004h428.66851z" fill="none" opacity=".5"/><path d="m670.36615 871.43286c67.00261-7.39447 99.49013-60.99205 68.57158-99.68441-4.73572-5.9262-42.4486-15.99594-59.91666-18.9795-77.68361-13.26832-20.74599-56.16055-55.65969-74.48633-11.19895-74.12031 10.60257-222.79595 22.32842-333.76096l99.34812-50.71105c-28.04629-58.80649 20.62871-99.96237 9.31366-182.05858" fill="none" opacity=".5"/></g></g></svg>