<svg height="933.33331" viewBox="0 0 933.333 933.333" width="933.33331" xmlns="http://www.w3.org/2000/svg" xmlns:xlink="http://www.w3.org/1999/xlink"><linearGradient id="a" gradientTransform="matrix(6.2602336 0 0 7.1239612 -3967.3024 -261.70543)" gradientUnits="userSpaceOnUse" x1="683" x2="739.5" y1="74" y2="69"><stop offset="0" stop-color="#fff"/><stop offset="1" stop-color="#bfd3d7"/></linearGradient><g stroke="#000" stroke-linecap="round" stroke-linejoin="round"><path d="m468.08948 49.90709c-34.40237 0-62.32311 23.26734-62.32311 51.93597 0 8.29319 2.33806 16.0899 6.49188 23.0466-71.16199 19.98405-122.53638 78.92362-122.53647 164.08523 2.82128 77.63548 42.10427 149.5842 105.17042 194.27302-62.94808 24.69512-3.08417 52.26818-3.08368 118.09324-45.76639 82.55914-61.51832 90.39543-139.41569 148.34218-6.07036 4.29105-52.83653 9.27505-57.1296 14.7692-32.13784 41.12994-14.85369 109.82601 45.44397 113.7723 42.35375 2.77195 416.859 3.52967 460.60725-1.29831 67.1287-7.40841 77.55681-77.60387 46.58006-116.36902-4.74445-5.93731-51.95547-11.13182-58.59021-15.2562-61.27632-33.46353-138.92785-82.45248-160.02777-143.96007-.00008-65.81501 70.2354-93.39219 7.30349-118.09325 65.0582-44.86332 102.539-110.14166 109.87707-194.273 4.01069-45.98284-21.39801-92.01673-60.70013-124.80859l-64.27081 145.58298c-6.55488 14.87016-23.75719 21.64875-38.62739 15.0939-14.87016-6.55487-21.64879-23.91951-15.09387-38.78968l67.51675-153.04878c-4.39503-1.90718-8.79059-3.60902-13.30857-5.19363 5.34354-7.65946 8.43959-16.47579 8.43959-25.96803 0-28.66863-27.92078-51.93597-62.32318-51.93597z" fill="none" stroke-width="35"/><g stroke-width="20"><path d="m468.08948 49.90709c-34.40237 0-62.32311 23.26734-62.32311 51.93597 0 8.29319 2.33806 16.0899 6.49188 23.0466-71.16199 19.98405-122.53638 78.92362-122.53647 164.08523 2.82128 77.63548 42.10427 149.5842 105.17042 194.27302-62.94808 24.69512-3.08417 52.26818-3.08368 118.09324-45.76639 82.55914-61.51832 90.39543-139.41569 148.34218-6.07036 4.29105-52.83653 9.27505-57.1296 14.7692-32.13784 41.12994-14.85369 109.82601 45.44397 113.7723 42.35375 2.77195 416.859 3.52967 460.60725-1.29831 67.1287-7.40841 77.55681-77.60387 46.58006-116.36902-4.74445-5.93731-51.95547-11.13182-58.59021-15.2562-61.27632-33.46353-138.92785-82.45248-160.02777-143.96007-.00008-65.81501 70.2354-93.39219 7.30349-118.09325 65.0582-44.86332 102.539-110.14166 109.87707-194.273 4.01069-45.98284-21.39801-92.01673-60.70013-124.80859l-64.27081 145.58298c-6.55488 14.87016-23.75719 21.64875-38.62739 15.0939-14.87016-6.55487-21.64879-23.91951-15.09387-38.78968l67.51675-153.04878c-4.39503-1.90718-8.79059-3.60902-13.30857-5.19363 5.34354-7.65946 8.43959-16.47579 8.43959-25.96803 0-28.66863-27.92078-51.93597-62.32318-51.93597z" fill="url(#a)" fill-rule="evenodd"/><path d="m413.26262 509.51989h105.04574zm-19.97921 200.46647h145.00413zm-99.90513 79.9259h354.80394z" fill="none" opacity=".5"/><path d="m350.38266 409.69887c40.11364 48.51488 236.33835 35.49352 286.90109-128.69442" fill="none" opacity=".5"/><path d="m684.65525 867.42655c67.12874-7.40838 77.55677-49.60357 46.58006-88.36877-4.74449-5.93731-51.95547-11.13182-58.59025-15.2562-61.27628-33.46353-138.92785-91.78588-160.02769-153.29343-.00012-65.81505 70.23536-112.059 7.30349-136.76006 65.05812-44.86329 102.53892-110.14171 109.877-194.273 4.01072-45.98288-4.89869-52.41846-44.20089-85.21038" fill="none" opacity=".5"/></g></g></svg>