<svg height="700pt" viewBox="0 0 933.333 933.333" width="700pt" xmlns="http://www.w3.org/2000/svg" xmlns:xlink="http://www.w3.org/1999/xlink"><linearGradient id="a" gradientTransform="matrix(6.2484827 0 0 7.1239662 -3962.8304 -234.96453)" gradientUnits="userSpaceOnUse" x1="660.51819" x2="757.72223" y1="90.376785" y2="103.71878"><stop offset="0" stop-color="#fff"/><stop offset="1" stop-color="#bfd3d7"/></linearGradient><g stroke="#000" stroke-linecap="round" stroke-linejoin="round"><path d="m421.50875 55.78078c-6.47786 24.590211 3.73305 52.99637 2 83.14644l-93.80517-4.14109v93.00061l91.80517-3.85891-4.92842 104.77575-42.29975-3.07992c-185.64928-78.46789-336.395674-136.51789-197.2818 118.88945 13.05158 23.96224 75.00436 75.81517 39.0103 110.3968 13.76616 37.34583 45.20895 29.36221 62.59104 72.04224 7.58268 18.61832 11.24217 92.30285-28.23871 116.81361-5.9824 3.71404-66.57694 18.56862-70.86193 24.06263-32.07749 41.13001-14.9151 109.80465 45.2694 113.75094 42.27419 2.77198 453.37139 3.51561 497.03766-1.31225 67.00269-7.40842 77.35238-77.46501 46.43398-116.23013-4.73575-5.93742-57.62109-13.66615-72.46332-24.64607-27.1062-20.05247-40.41428-87.47888-34.0613-112.87598 9.64877-38.57165 45.58638-35.5704 55.31313-67.81303-56.81236-40.21869 30.51942-83.06045 44.54172-109.52179 133.64942-252.20642 2.57121-201.86734-188.42095-122.18172l-47.9756 1.1808-5.63905-104.25116 91.80516 4.14109v-92.8549l-93.80516 3.85891c-2.54564-28.0431 10.87554-62.968433 2-83.29231z" fill="none" stroke-width="35"/><g stroke-width="20"><path d="m421.50875 55.78078c-6.47786 24.590211 3.73305 52.99637 2 83.14644l-93.80517-4.14109v93.00061l91.80517-3.85891-4.92842 104.77575-42.29975-3.07992c-185.64928-78.46789-336.395674-136.51789-197.2818 118.88945 13.05158 23.96224 75.00436 75.81517 39.0103 110.3968 13.76616 37.34583 45.20895 29.36221 62.59104 72.04224 7.58268 18.61832 11.24217 92.30285-28.23871 116.81361-5.9824 3.71404-66.57694 18.56862-70.86193 24.06263-32.07749 41.13001-14.9151 109.80465 45.2694 113.75094 42.27419 2.77198 453.37139 3.51561 497.03766-1.31225 67.00269-7.40842 77.35238-77.46501 46.43398-116.23013-4.73575-5.93742-57.62109-13.66615-72.46332-24.64607-27.1062-20.05247-40.41428-87.47888-34.0613-112.87598 9.64877-38.57165 45.58638-35.5704 55.31313-67.81303-56.81236-40.21869 30.51942-83.06045 44.54172-109.52179 133.64942-252.20642 2.57121-201.86734-188.42095-122.18172l-47.9756 1.1808-5.63905-104.25116 91.80516 4.14109v-92.8549l-93.80516 3.85891c-2.54564-28.0431 10.87554-62.968433 2-83.29231z" fill="url(#a)" fill-rule="evenodd"/><path d="m695.85875 880.26692c67.0028-7.40841 81.35252-68.1316 50.43409-106.89675-4.73575-5.93742-52.30515-8.99953-67.14737-19.97941-27.10617-20.05231-42.39682-101.47895-36.04366-126.87601 9.64858-38.57165 36.25279-35.5704 45.97953-67.81306-47.4964-44.88547 30.51932-73.72705 44.5418-100.18836 133.64935-252.20644 40.93488-193.77459-170.61863-118.63848l-51.78661-1.02992-5.63043-129.58481 87.13856 4.14109 2-67.52127-89.80512 1.85891c-5.4615-28.42289 10.60597-57.858364 2.97792-81.576926m-91.22791 145.549896-74.54-.52737" fill="none" opacity=".5"/><path d="m258.04251 560.06527c151.83971 16.95577 275.36221 15.03626 382.08413 0m-329.31068 167.91834h242.33905zm-55.89975 65.33353h428.65964z" fill="none" opacity=".5"/><path d="m375.71206 335.27323c-54.89616-13.01231-169.37468-60.57824-215.37812-59.71363-12.881.24162-21.12316 4.12372-22.33078 13.38023m72.09655 175.76842c57.80676 71.05012 493.5681 59.0303 554.62377-94.26302" fill="none" opacity=".5"/></g></g></svg>