<svg height="700pt" viewBox="0 0 933.333 933.333" width="700pt" xmlns="http://www.w3.org/2000/svg" xmlns:xlink="http://www.w3.org/1999/xlink"><linearGradient id="a" gradientTransform="matrix(6.2484782 0 0 7.1239612 -3974.8438 -259.44797)" gradientUnits="userSpaceOnUse" x1="660.51819" x2="757.72223" y1="90.376785" y2="103.71878"><stop offset="0" stop-color="#fff"/><stop offset="1" stop-color="#bfd3d7"/></linearGradient><g stroke="#000" stroke-linecap="round" stroke-linejoin="round"><path d="m592.72777 82.443279c-29.08963 0-52.69293 21.421661-52.69293 47.833731 0 17.11582 9.99528 32.08487 24.89084 40.54195-42.47587 104.89034-75.82701 239.61663-107.60974 240.03382-44.69466.58667-70.13868-136.43963-99.75012-235.8046 15.84826-8.25324 26.49195-23.64995 26.49202-41.417 0-26.41202-23.60335-47.979521-52.69296-47.979521-29.08962 0-52.6929 21.567501-52.69294 47.979521 0 23.2005 18.21188 42.44759 42.35813 46.8129 10.12634 108.96816 28.23918 236.24119-10.17284 258.76139-38.38079 22.50188-84.20047-107.74048-149.74589-212.40682 8.20247-8.43637 13.24602-19.51664 13.24602-31.64612 0-26.41202-23.60333-47.83367-52.69296-47.83367-29.089664 0-51.493447 21.4489-52.692954 47.83367-1.874605 41.23447 43.862084 47.79798 52.984164 47.83374 49.93967 127.22252 52.39496 173.67946 80.4927 292.12089 9.18724 38.7273 45.29236 38.64973 62.67455 81.32977 7.58259 18.61828 11.22214 92.33399-28.25872 116.84476-5.98234 3.71403-64.57684 18.56858-68.86182 24.06273-32.07745 41.12986-14.91511 109.80455 45.26934 113.75083 42.27423 2.77191 449.37108 3.51557 493.0372-1.3124 67.00258-7.40842 77.35234-77.4649 46.43379-116.23009-4.73575-5.93731-55.62071-13.66615-70.46297-24.646-27.10614-20.05242-40.41708-87.51017-34.06395-112.90727 9.64869-38.57165 46.43792-35.27115 55.33039-67.7538 38.28051-139.83212 36.4739-179.44972 97.09655-305.49417 1.44454.1076 2.89169.29174 4.36684.29174 29.08959 0 52.693-21.42166 52.69292-47.83374 0-26.41202-23.60341-47.83367-52.69292-47.83367-29.08963 0-52.69297 21.42165-52.69297 47.83367 0 12.3448 5.21871 23.59359 13.68271 32.08362-76.15879 94.624-128.15441 229.27761-164.79121 208.50271-44.16514-25.04385-10.25139-143.6978 5.20251-259.435 22.46675-5.47252 39.01026-23.96566 39.01026-46.08369 0-26.41206-23.60341-47.833731-52.69293-47.833731z" fill="none" stroke-width="35"/><g stroke-width="20"><path d="m592.72777 82.443279c-29.08963 0-52.69293 21.421661-52.69293 47.833731 0 17.11582 9.99528 32.08487 24.89084 40.54195-42.47587 104.89034-75.82701 239.61663-107.60974 240.03382-44.69466.58667-70.13868-136.43963-99.75012-235.8046 15.84826-8.25324 26.49195-23.64995 26.49202-41.417 0-26.41202-23.60335-47.979521-52.69296-47.979521-29.08962 0-52.6929 21.567501-52.69294 47.979521 0 23.2005 18.21188 42.44759 42.35813 46.8129 10.12634 108.96816 28.23918 236.24119-10.17284 258.76139-38.38079 22.50188-84.20047-107.74048-149.74589-212.40682 8.20247-8.43637 13.24602-19.51664 13.24602-31.64612 0-26.41202-23.60333-47.83367-52.69296-47.83367-29.089664 0-51.493447 21.4489-52.692954 47.83367-1.874605 41.23447 43.862084 47.79798 52.984164 47.83374 49.93967 127.22252 52.39496 173.67946 80.4927 292.12089 9.18724 38.7273 45.29236 38.64973 62.67455 81.32977 7.58259 18.61828 11.22214 92.33399-28.25872 116.84476-5.98234 3.71403-64.57684 18.56858-68.86182 24.06273-32.07745 41.12986-14.91511 109.80455 45.26934 113.75083 42.27423 2.77191 449.37108 3.51557 493.0372-1.3124 67.00258-7.40842 77.35234-77.4649 46.43379-116.23009-4.73575-5.93731-55.62071-13.66615-70.46297-24.646-27.10614-20.05242-40.41708-87.51017-34.06395-112.90727 9.64869-38.57165 46.43792-35.27115 55.33039-67.7538 38.28051-139.83212 36.4739-179.44972 97.09655-305.49417 1.44454.1076 2.89169.29174 4.36684.29174 29.08959 0 52.693-21.42166 52.69292-47.83374 0-26.41202-23.60341-47.83367-52.69292-47.83367-29.08963 0-52.69297 21.42165-52.69297 47.83367 0 12.3448 5.21871 23.59359 13.68271 32.08362-76.15879 94.624-128.15441 229.27761-164.79121 208.50271-44.16514-25.04385-10.25139-143.6978 5.20251-259.435 22.46675-5.47252 39.01026-23.96566 39.01026-46.08369 0-26.41206-23.60341-47.833731-52.69293-47.833731z" fill="url(#a)" fill-rule="evenodd"/><path d="m283.85718 578.36528h316.87809zm12.6146 139.13432h242.33894zm-55.89983 74.66676h428.66864z" fill="none" opacity=".5"/><path d="m590.4033 439.92793c-53.06753-46.89087-15.38198-145.83412-2.81973-264.16781 22.46667-5.47253 39.01026-23.96567 39.01026-46.0837 0-26.41206-23.60345-38.50029-52.69297-38.50029m111.58098 780.00605c67.00258-7.40838 77.35234-68.13145 46.43383-106.89668-4.73575-5.93727-55.62075-13.66611-70.46301-24.646-27.10613-20.05242-40.41708-106.17694-34.06399-131.57408 9.64877-38.57165 43.60362-35.51117 53.3304-67.7538 42.40182-140.55452 38.58455-170.06832 99.20724-296.11277 1.44454.1076 2.89169.29174 4.3668.29174 29.08963 0 54.693-21.42166 54.69296-47.83374 0-26.41202-23.60341-38.50029-52.69296-38.50029" fill="none" opacity=".5"/></g></g></svg>