<svg height="700pt" viewBox="0 0 933.333 933.333" width="700pt" xmlns="http://www.w3.org/2000/svg" xmlns:xlink="http://www.w3.org/1999/xlink"><linearGradient id="a"><stop offset="0" stop-color="#7f899b"/><stop offset="1" stop-color="#1c1c2f"/></linearGradient><linearGradient id="b" gradientTransform="matrix(1.2050933 0 0 1.1853203 -52.883244 -98.26578)" gradientUnits="userSpaceOnUse" x1="136.09714" x2="784.78107" xlink:href="#a" y1="629.62048" y2="865.10339"/><linearGradient id="c" gradientTransform="matrix(1.0733777 0 0 1.0557659 6.200047 -.710041)" gradientUnits="userSpaceOnUse" x1="321.15759" x2="395.43152" xlink:href="#a" y1="90.161285" y2="128.46291"/><linearGradient id="d" gradientTransform="matrix(1.0733777 0 0 1.0557659 155.71791 -4.819669)" gradientUnits="userSpaceOnUse" x1="321.15759" x2="395.43152" xlink:href="#a" y1="90.161285" y2="128.46291"/><linearGradient id="e" gradientTransform="matrix(1.0733777 0 0 1.0557659 6.200047 -.710041)" gradientUnits="userSpaceOnUse" x1="192.30013" x2="825.77911" xlink:href="#a" y1="446.01318" y2="717.33643"/><linearGradient id="f" gradientTransform="matrix(1.0733777 0 0 1.0557659 6.200047 -.710041)" gradientUnits="userSpaceOnUse" x1="721.62231" x2="541.26611" xlink:href="#a" y1="220.04175" y2="599.38"/><g stroke="#000" stroke-linecap="round" stroke-linejoin="round"><path d="m560.57227 141.41602c-18.93211-19.68132 19.54572-33.9196 5.48046-50.333989-4.87759-5.692243-11.65962-8.319331-18.49218-8.425781-6.83258-.10645-13.71496 2.306935-18.79297 6.695312-18.08511 15.628998 16.48918 29.905518 3.09375 52.283208m-120.8086 3.89257c-18.93211-19.68135 19.54769-33.92152 5.48243-50.335934-4.8776-5.692248-11.65962-8.319332-18.49219-8.425781-6.83258-.106449-13.71495 2.306927-18.79297 6.695313-18.08513 15.629022 16.48921 29.905492 3.09375 52.283202m226.44141 633.58008s-2.1048-38.02683 4.37695-54.66211c.39419-3.4331-.44831-6.63625-2.33594-9.62305 4.53924.70718 8.62265 1.42423 12.17188 2.14453 4.68277-16.45606 7.96196-32.76463 10.05273-48.9082l1.59961 4.42773c21.987-24.41409 57.80862-90.4112 56.74414-157.40624-1.06446-66.9951-5.30451-95.17343-25.75-157.88672-5.64101-17.30302-12.57284-34.73594-20.28515-51.83399 9.79931-19.12185 19.48233-38.30552 29.35351-57.38867 14.57991-21.22534 42.25431-28.33717 58.60156-47.94336 10.41004-11.23861 17.07022-26.11695 15.39453-41.5332-1.07394-25.65277-16.17586-53.41635-43.16992-59.519534-5.53966-1.380892-11.27009-1.802623-17.00586-1.550781-22.09618.208324-38.57952 18.045295-47.74414 36.175785-6.06297 11.51349-16.75602 19.89701-22.69726 31.39453-1.25019 6.92531 8.79038 9.18016 14.08789 7.68554 12.93211-2.69158 23.17778-12.7461 27.54492-24.83203 5.18233-12.44484 16.88425-22.2367 30.75391-23.13867 13.62136-2.35547 26.20361 8.17739 28.94726 20.98438 3.96481 13.42555 2.1705 29.25004-8.82226 38.99609-17.15794 17.70201-43.18431 25.62526-57.62696 46.1582-7.51987 14.59626-15.0064 29.21222-22.52344 43.81055-26.07996-50.1116-57.5284-94.10928-82.96484-117.625-31.36471 17.69755-61.78287 51.72895-73.39648 71.00391l.89062 2.46679c-23.40736-26.74767-49.23202-50.48469-78.1582-71.03125-80.28767 69.50424-158.69438 226.19494-173.1211 307.28321-14.42666 81.08828.097 153.40185 24.73047 188.17382 15.43262 21.78432 33.24246 55.94098 57.70508 64.47657 1.92283-.72326 3.97695-1.40836 6.10547-2.07227-1.854 3.20616-2.47944 6.63095-1.61133 10.28516 10.64474 23.10762 2.25 52.82617 2.25 52.82617s25.51397-3.48322 62.80469-6.16602m-9.47461 19.61719c-6.31214.78265-12.64657 1.53921-18.82617 2.47852-31.80871 4.83492-42.25816 13.35579-62.66406 20.08008-36.01284 11.86712-163.07533-17.53126-173.06641 11.61132-9.99108 29.14257 136.77481 26.50606 218.51953 25.60547 2.94107-.0324 5.73256-.21948 8.54297-.38672-1.24862 2.88467-2.53987 5.7511-3.76367 8.64649-1.89177 7.17794-7.56885 15.13669-4.52735 22.59961 4.79755 3.66663 10.84051-2.00503 14.99415-4.48828 9.86952-8.86116 17.12493-19.8801 23.73828-31.33399 42.08835-10.35726 67.11357-33.42803 90.45312-33.46289 29.77689-.0444 56.94276 37.50583 129.36719 37.63086 38.85907.067 243.4279 4.08396 232.05859-26.41406-11.36906-30.49804-140.56239 10.45859-183.82031-11.23242-22.64303-11.354-29.28526-14.04524-58.57617-18.41016" fill="none" stroke-width="35"/><g stroke-width="20"><path d="m330.17664 853.88873c67.27214-.74115 99.6588-38.38226 129.43579-38.42673 29.77698-.0444 56.9443 37.50768 129.36894 37.63271 38.85919.067 243.4275 4.08292 232.05816-26.41519-11.36909-30.49813-140.56218 10.45859-183.82022-11.23251-22.64309-11.35403-29.28605-14.04485-58.57705-18.40977-79.0167-11.77502-159.80633-11.3056-231.25637-.44518-31.8088 4.83495-42.2563 13.35489-62.66226 20.07918-36.01293 11.86718-163.07605-17.53138-173.06716 11.61129-9.99111 29.14266 136.77521 26.50679 218.52017 25.6062z" fill="url(#b)" fill-rule="evenodd"/><path d="m613.16231 724.6626c6.48181-56.45084-315.70332-52.28411-302.52854 3.17373 10.6448 23.1078 2.24919 52.82531 2.24919 52.82531s74.361-10.37857 157.12434-9.08523c82.76335 1.29335 138.77692 7.74784 138.77692 7.74784s-2.10372-38.02625 4.37809-54.66165z" fill="url(#e)" fill-rule="evenodd"/><path d="m474.09229 228.25314c11.61366-19.27506 42.03033-53.30498 73.39519-71.00263 38.89181 35.95508 91.92418 119.69307 118.1572 200.15882 20.44559 62.71364 24.68565 90.8928 25.75011 157.8882 1.06448 66.99539-34.75694 132.99052-56.74404 157.40476" fill="url(#f)" fill-rule="evenodd"/><path d="m306.13851 719.62229c-24.4628-8.53565-42.27205-42.69085-57.70473-64.47529-24.63358-34.77221-39.15695-107.08527-24.73017-188.17403 14.42678-81.08875 92.83316-237.77903 173.12131-307.28369 97.85117 69.50466 160.95517 174.584 210.75636 314.59997 26.651 74.92918 39.8791 156.928 15.41628 242.89428-57.07986-11.58411-250.36531-22.57237-316.85905 2.43876z" fill="url(#e)" fill-rule="evenodd"/><path d="m468.52791 751.36339c-10.23226-2.71721-13.35806 2.06586-17.10984-.99196-4.60378-3.75221-4.33424-19.36331-1.28624-23.32616 2.60609-3.38833 36.09925-3.81126 39.38578-.68979 3.06381 2.90499-.0888 21.81726-2.92732 26.60264" fill="none"/><path d="m415.49237 367.29036c-12.26638 1.91342-18.37139 15.14213-16.83579 26.36055-.21129 9.59055 4.05979 21.9472-3.9609 29.46307-10.85031 3.55071-22.59243-.8959-33.64837-1.82546-9.10235-.81802-20.0791-4.20249-28.17148 1.56152-6.19393 7.21694 1.04125 18.12237 9.02308 20.55444 16.05014 6.8674 35.10551 3.28533 50.54938 11.41547 5.33122 4.83753 4.24103 13.26303 5.87004 19.69664 5.02071 38.32655 4.75548 77.7237 16.53673 114.84753 3.0838 8.15071 7.90061 19.45955 18.21387 19.53167 7.96146-2.67963 6.95633-13.08089 7.37947-19.79562-.96428-42.09537-12.84164-83.12681-14.7254-125.14124-.21172-4.13619.16425-9.32702 5.60169-9.76584 19.28006-5.45804 41.8071.61318 59.33766-10.92058 7.19938-3.83725 13.20855-18.15433 1.54298-20.02656-20.56255-2.97664-41.34724 5.7403-61.7863 1.94657-6.32741-2.20342-5.77331-10.81855-6.50736-16.2324-1.19793-12.754 2.74253-26.32951-2.18029-38.50246-1.23445-2.12315-3.71511-3.47417-6.23901-3.1673z" fill="#7f899b" fill-rule="evenodd"/><path d="m382.34288 145.74443c13.39547-22.37773-21.17875-36.65435-3.0936-52.283384 10.15606-8.77678 27.53075-9.654847 37.28596 1.729661 14.06528 16.414433-24.41383 30.654383-5.4817 50.335753" fill="url(#c)" fill-rule="evenodd"/><path d="m531.86071 141.6348c13.39547-22.37773-21.17875-36.65435-3.0936-52.283387 10.15606-8.776774 27.53075-9.654843 37.28596 1.729667 14.06528 16.41443-24.41383 30.65438-5.4817 50.33574" fill="url(#d)" fill-rule="evenodd"/><path d="m688.53282 97.64115c-22.0963.208324-38.58005 18.0455-47.74471 36.17603-6.06301 11.51357-16.75442 19.89543-22.6957 31.39299-1.25019 6.92535 8.79057 9.18191 14.08808 7.68729 12.93219-2.69162 23.17637-12.74784 27.54351-24.83381 5.18237-12.44492 16.88462-22.23558 30.75432-23.13755 13.62144-2.35547 26.204 8.17632 28.94765 20.98335 3.96481 13.42563 2.17101 29.25126-8.82183 38.99735-17.15798 17.70209-43.18427 25.62374-57.62696 46.15676-79.2651 153.8551-158.40974 307.80999-236.61049 462.19535-27.76125 55.99548-57.09509 111.35925-81.41119 168.88872-1.89177 7.17798-7.56985 15.13707-4.52831 22.59999 4.79755 3.66667 10.8401-2.00372 14.99374-4.48701 17.09595-15.34921 26.57361-37.03227 37.90365-56.58245 47.73879-91.10148 92.47932-183.7065 138.94463-275.44927 50.45139-100.18814 100.90619-200.40848 152.44387-300.04212 14.57995-21.22542 42.25334-28.33608 58.60067-47.94235 10.41008-11.23865 17.07099-26.11748 15.3953-41.53381-1.07398-25.65285-16.17577-53.41558-43.16991-59.518803-5.5397-1.3809-11.27055-1.802499-17.00632-1.550657z" fill="#7f899b" fill-rule="evenodd"/></g></g></svg>