<svg height="700pt" viewBox="0 0 933.333 933.333" width="700pt" xmlns="http://www.w3.org/2000/svg" xmlns:xlink="http://www.w3.org/1999/xlink"><linearGradient id="a"><stop offset="0" stop-color="#7f899b"/><stop offset="1" stop-color="#1c1c2f"/></linearGradient><linearGradient id="b" gradientUnits="userSpaceOnUse" x1="324.18876249321" x2="396.8508649993" xlink:href="#a" y1="437.04660950729" y2="533.40613793537"/><linearGradient id="c" gradientUnits="userSpaceOnUse" x1="526.53597883763" x2="629.55562252042" xlink:href="#a" y1="459.04484673399" y2="540.9078454326"/><linearGradient id="d" gradientUnits="userSpaceOnUse" x1="246.41605722358" x2="667.94887356749" xlink:href="#a" y1="793.0353800428" y2="879.41489171329"/><linearGradient id="e" gradientUnits="userSpaceOnUse" x1="407.7330618286" x2="613.05705104554" xlink:href="#a" y1="164.03691644462" y2="293.65328585558"/><linearGradient id="f" gradientUnits="userSpaceOnUse" x1="396.75543224435" x2="525.77370057823" xlink:href="#a" y1="326.76275303031" y2="326.76275303031"/><linearGradient id="g" gradientUnits="userSpaceOnUse" x1="152.69431735039" x2="850.99197319496" xlink:href="#a" y1="438.69343660167" y2="855.84087421556"/><linearGradient id="h" gradientUnits="userSpaceOnUse" x1="152.69431635039" x2="850.99197219496" xlink:href="#a" y1="438.69343660167" y2="855.84087421556"/><g stroke="#000" stroke-linecap="round" stroke-linejoin="round"><path d="m479.85515 63.915779c-16.08056-.245604-32.78893 1.81952-42.38247 6.405538-4.04597 18.817214 16.84025 70.785383 10.78648 88.030673-17.07665-2.28814-78.85932-17.22182-106.85155-8.70394-12.50955 18.59705-7.0718 52.47644 1.63686 68.22048 30.92037 6.70973 78.62784-14.23421 101.46131-12.42735 3.62978 11.98913-2.38254 44.22271-8.09436 67.463-16.25122 4.99987-28.93526 15.03016-30.33687 30.68062-.48032 5.36319-.76035 10.06849-.93534 14.45793-4.83334 3.76103-8.49205 8.13505-10.26885 13.22679-.98414 2.82018-1.79729 5.49796-2.51625 8.10035.046-.16651.0689-.31428.11592-.48166-18.65254-12.00502-43.47752-20.6135-71.75801-22.28847-8.44379-.50011-17.01851-.71342-25.61415-.60758-83.09134 1.02309-169.30423 31.24755-181.53752 107.70096-17.85492 111.58672 80.93445 177.35221 116.49484 295.37821 112.87538-64.37281 373.15751-60.27393 481.29668-4.63676 28.7007-91.23769 143.1073-197.86416 117.51812-290.86936-23.69752-86.12957-138.90393-111.33499-214.92226-107.02943-30.80951 1.745-60.38699 11.71907-82.59846 25.42229.0127.0725.0155.1414.0279.21384-.54127-3.14006-1.27655-6.34665-2.27441-9.64527-1.86051-6.15015-5.95946-11.31019-11.57593-15.53518.11659-4.65162.0389-9.75085-.2878-15.44323-.86971-15.15588-14.86419-25.09915-32.58331-29.61137-5.35651-22.13441-11.0821-52.45281-3.93726-66.86342 24.03818-4.76831 81.73125 11.62737 103.52188 4.36895 14.22377-19.52512 12.31049-50.07568 3.49357-67.17519-20.43938-3.97671-80.31127 12.30724-99.53266 13.29273.70024-16.41249 29.5477-64.416002 30.26891-84.179351-7.08055-4.661615-22.53451-7.219196-38.61509-7.4648zm113.1032 341.526061c19.46278.15122 37.2166 1.8651 47.75473 7.82655 49.01585 27.72851 56.43219 121.52233-29.1417 163.97775 2.20518-40.58917 13.33387-89.64267 8.67396-117.46816-3.46356-20.68121-13.94653-39.32693-27.28699-54.33614zm-257.59053 3.63747c-9.929 13.31582-17.45737 28.85477-20.28788 45.75611-4.49522 26.84174 5.74235 73.47603 8.45212 113.17516-84.82097-55.95732-76.26902-140.76364-2.05257-157.71612 3.24876-.74209 8.10219-1.08542 13.88833-1.21515zm179.16917 16.03482c15.47556 15.63848 40.75573 26.9651 50.6607 51.16236 10.90308 26.63534 12.20118 66.11263 1.09324 100.02032-2.20939-1.2547-4.85878-2.69618-7.18499-4.01121-40.08007-30.45102-41.29388-64.78245-47.02724-112.72146-1.49662-12.51366-.1293-23.78343 2.45829-34.45001zm-106.70765 6.17969c1.92997 8.49793 3.36086 18.05882 3.76137 29.33357 1.35323 38.09549-12.4428 84.08705-41.67296 113.37501-12.06818-34.47956-10.97975-75.34005.20785-102.67046 7.45136-18.20305 23.54881-29.09696 37.70374-40.03812zm64.37314 265.09132c-79.44124-.0486-159.75176 12.71463-211.15489 39.39456 14.40145 45.50834 20.16195 96.16299 20.16195 96.16299 93.80114-29.12655 284.34608-30.28906 376.44174 4.23905 0 0 9.49602-68.23305 20.49572-102.3207-47.92881-24.56617-126.50327-37.42725-205.94452-37.4759zm-2.04057 136.4909c-65.91555-.26286-132.11475 6.29168-168.34472 19.2446 89.91009 10.72864 233.52668 12.4899 334.99061 2.41432-35.09719-14.31579-100.73035-21.39604-166.64589-21.65892z" fill="none" stroke-width="35"/><g fill-rule="evenodd" stroke-width="20"><path d="m315.06197 626.80043c23.73248-34.29055-7.2153-128.76932.0188-171.96513 11.74028-70.10345 103.85269-117.15654 116.14779-76.51291 14.58502 48.21319-44.62749 52.76426-61.102 93.01034-15.13227 36.96697-11.8949 98.72899 17.56585 135.90245" fill="url(#b)"/><path d="m620.26317 631.74383c-23.73248-34.29055 7.2153-128.76932-.0187-171.96513-11.74037-70.10335-103.85279-117.1565-116.14789-76.51292-14.58501 48.2132 44.62749 52.76427 61.10201 93.01045 15.13226 36.96697 11.89499 98.72899-17.56585 135.90245" fill="url(#c)"/><path d="m430.26558 294.8769c5.38003-15.3498 19.34452-72.5767 14.24027-89.43605-22.83353-1.80689-70.54061 19.13764-101.46107 12.42787-8.70868-15.74407-14.14612-49.62256-1.63654-68.21967 27.99232-8.51788 89.77369 6.41446 106.85041 8.70261 6.05377-17.24533-14.83183-69.212558-10.78586-88.029825 19.18715-9.17206 66.83549-8.265243 80.99666 1.058017-.72122 19.763409-29.56788 67.766988-30.26812 84.179538 19.22143-.98548 79.09354-17.26812 99.53299-13.29141 8.81695 17.09957 10.72998 47.64933-3.49381 67.17452-21.7907 7.25845-79.48383-9.1378-103.52207-4.3695-10.13023 20.43191 5.61877 73.18857 9.49365 88.62217" fill="url(#e)"/><path d="m437.62618 380.54323c-25.31121-21.91707-36.46371-22.09911-31.5507-76.9575 4.19548-46.84737 108.73132-44.4301 111.16398-2.03725 3.05031 53.15664-14.62329 57.13744-26.91205 82.87516" fill="url(#f)"/><path d="m296.97737 849.68669-65.46499-200.81273 482.20688-2.11585-76.63397 209.08273z" fill="url(#g)"/><path d="m586.12712 587.45105c-29.43079-15.90881-91.2467-54.78611-124.80451-56.17387-25.64964-1.06073-78.5945 33.23556-105.81882 54.31916-117.95727-53.68873-116.54778-156.45188-34.02429-175.30187 13.4408-3.07015 53.44801.47437 79.88035-.73549-8.41685-23.24457-17.59206-39.72784-8.88981-70.67077-18.6527-12.0051-43.47728-20.61349-71.75801-22.28847-8.44388-.5001-17.01843-.71341-25.61415-.60758-83.092 1.0231-169.30415 31.24699-181.53753 107.70097-17.855082 111.58762 80.93421 177.35123 116.49484 295.37822 112.87628-64.3733 373.15662-60.27434 481.29669-4.63677 28.70095-91.23843 143.10755-197.86342 117.51813-290.86936-23.69769-86.13023-138.90337-111.335-214.92227-107.02943-30.80975 1.745-60.38682 11.71899-82.59846 25.42229 4.29987 24.52935-4.41537 44.58402-11.63989 65.77817 35.14491.0153 96.80454-8.15745 121.0037 5.53214 53.44578 30.23456 57.52092 139.06125-54.58597 174.18266z" fill="url(#h)"/><path d="m355.84324 585.91286c38.87989-27.29946 57.30234-81.51617 55.74755-125.28595-2.24192-63.11236-35.99862-74.11321-16.72051-129.35792 13.07198-37.45992 121.93827-39.38522 134.23347 1.25838 14.58491 48.21315-22.86238 78.22944-17.02514 127.03655 6.80936 56.9358 7.23157 94.67667 73.97813 129.5198" fill="url(#h)"/><path d="m678.14602 733.86092c-95.85782-49.1324-314.29131-51.44077-417.09778 1.91918 14.40146 45.50844 20.16212 96.16166 20.16212 96.16166 93.80132-29.12662 284.3444-30.28892 376.44024 4.23928 0 0 9.4957-68.23238 20.49542-102.32012z" fill="url(#g)"/><path d="m301.81727 852.12068c89.91018 10.72865 233.52566 12.48993 334.98969 2.41434-70.19446-28.63159-262.52967-28.3202-334.98969-2.41434z" fill="url(#d)"/><path d="m466.58984 737.77148a17.302036 16.478127 0 0 0 -17.30273 16.47852 17.302036 16.478127 0 0 0 17.30273 16.47852 17.302036 16.478127 0 0 0 17.30078-16.47852 17.302036 16.478127 0 0 0 -17.30078-16.47852z" fill="#7f899b"/><path d="m562.95312 753.42578a18.849028 12.358582 9.2178939 0 0 -15.70117 9.54492 18.849028 12.358582 9.2178939 0 0 16.625 15.21875 18.849028 12.358582 9.2178939 0 0 20.58594-9.17968 18.849028 12.358582 9.2178939 0 0 -16.62695-15.21875 18.849028 12.358582 9.2178939 0 0 -4.88282-.36524z" fill="#7f899b"/><path d="m367.88867 753.35156a12.358595 19.338415 79.734797 0 0 -5 .47852 12.358595 19.338415 79.734797 0 0 -16.82812 15.60742 12.358595 19.338415 79.734797 0 0 21.23242 8.71289 12.358595 19.338415 79.734797 0 0 16.82617-15.60547 12.358595 19.338415 79.734797 0 0 -16.23047-9.19336z" fill="#7f899b"/></g></g></svg>