<svg height="700pt" viewBox="0 0 933.333 933.333" width="700pt" xmlns="http://www.w3.org/2000/svg" xmlns:xlink="http://www.w3.org/1999/xlink"><linearGradient id="a"><stop offset="0" stop-color="#7f899b"/><stop offset="1" stop-color="#1c1c2f"/></linearGradient><linearGradient id="b" gradientUnits="userSpaceOnUse" x1="815.14124" x2="870.91125" xlink:href="#a" y1="314.75864" y2="383.08893"/><linearGradient id="c" gradientUnits="userSpaceOnUse" x1="679.86255" x2="741.11725" xlink:href="#a" y1="191.18027" y2="247.74881"/><linearGradient id="d" gradientUnits="userSpaceOnUse" x1="436.01202" x2="500.8349" xlink:href="#a" y1="123.53159" y2="152.99438"/><linearGradient id="e" gradientUnits="userSpaceOnUse" x1="197.87183" x2="264.62003" xlink:href="#a" y1="194.99733" y2="194.99733"/><linearGradient id="f" gradientUnits="userSpaceOnUse" x1="53.458433" x2="117.371216" xlink:href="#a" y1="357.85495" y2="335.46323"/><linearGradient id="g" gradientUnits="userSpaceOnUse" x1="196.11809359636" x2="345.61432066816" xlink:href="#a" y1="253.59160904634" y2="288.59162771502"/><linearGradient id="h" gradientUnits="userSpaceOnUse" x1="407.11832359636" x2="539.94785356018" xlink:href="#a" y1="201.59160904634" y2="247.83334148426"/><linearGradient id="i" gradientUnits="userSpaceOnUse" x1="615.11829359636" x2="741.28116350336" xlink:href="#a" y1="261.59160904634" y2="307.83334148426"/><linearGradient id="j" gradientUnits="userSpaceOnUse" x1="737.73329359636" x2="873.89617493674" xlink:href="#a" y1="387.34900904634" y2="433.59074148426"/><linearGradient id="k" gradientUnits="userSpaceOnUse" x1="70.77489359636" x2="216.9377692916" xlink:href="#a" y1="404.17740904634" y2="450.41914148426"/><linearGradient id="l" gradientUnits="userSpaceOnUse" x1="183.6037" x2="791.36395" xlink:href="#a" y1="400.53995" y2="702.2066"/><path d="m660.68164 718.32617c10.93697-94.73524 43.19865-209.41283 102.47461-299.24805 6.45205 4.22921 14.04806 6.49564 21.82422 6.51172 21.6755-.00002 39.2472-17.12051 39.24805-38.24023-.003-5.26652-1.1231-10.4756-3.28907-15.30078 21.52728.22166 36.22301 4.98135 54.6211-.15821 2.67429-13.82722-12.17153-18.26836-26.41211-37.32421-13.28019 5.43759-27.96676 11.58388-41.08399 21.86328-6.70712-4.75639-14.78849-7.31981-23.08398-7.32227-21.67629.00002-39.24831 17.1217-39.24805 38.24219.0364 8.34392 2.87267 16.44726 8.07617 23.07422-51.18687 44.94697-112.71502 143.42357-151.2207 164.96094-29.60194-62.18413 12.69256-205.2103 44.46484-278.64844 4.83982 2.02322 10.04805 3.07669 15.31446 3.09765 21.67628-.00003 39.24829-17.1217 39.24804-38.24218-.002-8.27866-2.76143-16.33308-7.86328-22.95313 20.20789-5.82787 40.25935-11.12155 51.15039-12.63476-4.71759-5.65293-1.71044-15.99859-40.0039-37.05274l-29.32422 36.63086c-4.23839-1.47654-8.70588-2.23169-13.20703-2.23242-21.67629.00002-39.24831 17.1217-39.24805 38.24219.0364 10.30262 4.33765 20.15511 11.92969 27.32617-50.56923 60.70454-120.6146 188.64818-144.45117 255.12109-35.85038-80.10883-34.17286-218.79786-33.45508-304.39844 20.50931-1.41662 36.4204-18.0153 36.47265-38.04882-.004-14.97143-8.97459-28.56348-22.95312-34.7793 15.34673-22.31882 32.58793-48.04477 33.95703-64.29492-8.55999.18763-34.94199 4.62106-50.79687 12.5293-3.30695 8.32615-3.13309 27.7399-1.92383 48.4746-20.63877 1.26739-36.72755 17.92091-36.7793 38.07032.0369 16.36637 10.75875 30.89557 26.66992 36.14062-28.47873 79.65403-58.75856 208.18244-62.36328 303.51367-68.44557-51.30864-99.41868-175.63583-120.47266-252.60742 14.34661-6.04852 23.64158-19.81566 23.66211-35.04687-.0009-19.69406-15.35221-36.16706-35.4707-38.0625 6.2236-12.2787 5.72344-18.25329 9.47461-41.01172-10.55999-11.81236-22.89317-10.11723-50.74805-14.20899.79932 27.71786 14.53788 39.01882 26.05664 56.72852-16.51111 4.90096-27.79826 19.73699-27.81054 36.55469-.00025 21.12048 17.57176 38.24215 39.24804 38.24218.49346-.0254.98639-.0599 1.47852-.10351-3.38296 94.80011 13.79761 225.08816 25.70508 282.33594-41.71372-28.12346-88.76553-82.83768-132-137.34961 11.61526-6.94386 18.70255-19.26123 18.72265-32.53907.00025-21.12048-17.57176-38.24215-39.24804-38.24218-3.70198.003-7.38496.51547-10.93946 1.52343-4.97697-22.39555-17.151718-46.03575-26.820308-57.67578-13.446987 2.79993-14.585092 30.30987-18.804688 44.42383 8.716468 9.60709 17.514833 16.83708 25.933594 26.18945-5.549629 6.74961-8.587298 15.1328-8.617187 23.78125-.000258 21.12049 17.57176 38.24216 39.248049 38.24219 2.38711-.0265 4.76676-.26508 7.10937-.71289 49.01462 116.08008 72.22522 169.42442 99.97071 276.20899m15.21679 18.25976c12.58419 30.52962 15.91797 92.99805 15.91797 92.99805m371.88477 4.1875s2.30905-66.7066 14.58984-97.08203m-368.13867 108.99414c88.82211 10.59881 232.72083 14.35993 332.95703 4.40625" fill="none" stroke="#000" stroke-linecap="round" stroke-linejoin="round" stroke-width="35"/><path d="m875.56013 371.89137c2.6743-13.82724-12.1705-18.26833-26.4111-37.3242-19.8365 8.12208-42.8171 17.80963-59.0061 40.52175 40.8671-8.42805 59.4442 4.05808 85.4172-3.19755z" style="fill-rule:evenodd;stroke-linecap:round;stroke-linejoin:round;stroke-width:20;stroke:#000;fill:url(#b)"/><path d="m744.90233 226.00453c-4.7176-5.65293-1.7102-15.99991-40.0037-37.05408l-48.8559 61.02818c27.4111-8.54969 70.7645-21.45995 88.8596-23.9741z" style="fill-rule:evenodd;stroke-linecap:round;stroke-linejoin:round;stroke-width:20;stroke:#000;fill:url(#c)"/><path d="m504.62003 102.51849c-8.56.18763-34.9435 4.61933-50.7984 12.52757-4.8098 12.11003-2.3113 47.60593.1318 76.63909 15.1844-24.36997 48.7361-66.25322 50.6666-89.16666z" style="fill-rule:evenodd;stroke-linecap:round;stroke-linejoin:round;stroke-width:20;stroke:#000;fill:url(#d)"/><path d="m256.62003 174.51849c-10.56-11.81237-22.8933-10.11721-50.7482-14.20897.9726 33.72662 21.1045 43.13567 33.0816 69.37563 15.1844-24.36997 12.7361-25.25322 17.6666-55.16666z" style="fill-rule:evenodd;stroke-linecap:round;stroke-linejoin:round;stroke-width:20;stroke:#000;fill:url(#e)"/><path d="m80.262833 309.78227c-13.447 2.79993-14.5848 30.3115-18.8044 44.42548 15.0567 16.59515 30.366597 26.04969 43.520497 51.7199 14.0644-25.03312-8.7596-76.93534-24.716097-96.14538z" style="fill-rule:evenodd;stroke-linecap:round;stroke-linejoin:round;stroke-width:20;stroke:#000;fill:url(#f)"/><path d="m273.93513 844.89024-50.3782-166.21213 433.768 1.31797-49.5186 169.68094z" fill="url(#l)"/><g stroke="#000" stroke-linecap="round" stroke-linejoin="round"><path d="m642.71323 736.27973c-122.19969-43.66874-283.40651-43.92234-402.3938-.10406 12.5842 30.52965 15.9181 92.9981 15.9181 92.9981 100.71924-28.17327 271.95456-27.31675 371.8851 4.18794 0 0 2.3098-66.70652 14.5906-97.08198z" fill="url(#l)" fill-rule="evenodd" stroke-width="20"/><path d="m225.10383 717.9154c121.85053-52.6869 312.5811-53.51948 435.5773.4102 12.1262-105.03629 50.3474-234.69665 122.6828-327.69946-54.8478 21.46219-134.4792 158.86301-180.7753 184.75779-36.3041-76.26321 35.5444-274.20397 63.4788-316.12887-46.899 28.2188-146.1479 203.01599-175.4695 284.78496-42.2659-94.44453-32.3727-271.08171-33.3838-345.10831-31.7959 69.55338-73.518 229.37307-77.7886 342.31448-81.1924-60.86401-109.8457-225.27108-131.5008-290.40573-11.9234 93.79771 8.8842 257.1722 22.6234 323.22644-52.7923-35.59265-114.4396-113.91944-165.6111-180.30497 65.0593 155.57362 88.6081 202.69291 120.1668 324.15347z" fill="url(#l)" fill-rule="evenodd" stroke-width="20"/><path d="m437.76343 719.78166c-18.9981-.0977-8.5854 14.63567-12.3189 21.11517-8.5375 4.94888-36.2454-3.83174-27.3263 14.33995 6.3188 12.87402 15.7661 6.81362 26.3771 10.96161 5.2752 7.26656-3.643 29.36578 15.0365 28.90214 15.4275-.3829 7.0183-22.43093 10.3158-28.37149 9.3262-6.09407 21.5622 2.16475 27.7344-13.45201 4.6858-11.85598-18.5125-7.45842-27.6731-12.56408-3.8372-5.73128 7.6207-20.82776-12.1455-20.93129z" fill="url(#l)" fill-rule="evenodd" stroke-width="20"/><path d="m274.57333 845.27293c88.8222 10.59882 232.7216 14.36057 332.9579 4.40688-56.56854-25.28122-259.8902-25.06744-332.9579-4.40688z" fill="url(#l)" fill-rule="evenodd" stroke-width="20"/><ellipse cx="243.3662" cy="253.59161" fill="url(#g)" fill-rule="evenodd" rx="39.248096" ry="38.241734" stroke-width="20"/><ellipse cx="118.02298" cy="404.1774" fill="url(#k)" fill-rule="evenodd" rx="39.248096" ry="38.241734" stroke-width="20"/><ellipse cx="454.36642" cy="201.59161" fill="url(#h)" fill-rule="evenodd" rx="39.248096" ry="38.241734" stroke-width="20"/><ellipse cx="662.36639" cy="261.59161" fill="url(#i)" fill-rule="evenodd" rx="39.248096" ry="38.241734" stroke-width="20"/><ellipse cx="784.98138" cy="387.349" fill="url(#j)" fill-rule="evenodd" rx="39.248096" ry="38.241734" stroke-width="20"/></g></svg>