<svg height="700pt" viewBox="0 0 933.333 933.333" width="700pt" xmlns="http://www.w3.org/2000/svg" xmlns:xlink="http://www.w3.org/1999/xlink"><linearGradient id="a"><stop offset="0" stop-color="#7f899b"/><stop offset="1" stop-color="#1c1c2f"/></linearGradient><linearGradient id="b" gradientTransform="matrix(1.1035188 0 0 1.0675738 -32.261862 -16.13722)" gradientUnits="userSpaceOnUse" x1="7.337575" x2="689.74506" xlink:href="#a" y1="207.66478" y2="274.33145"/><linearGradient id="c" gradientTransform="matrix(1.1035188 0 0 1.0675738 -32.261862 -16.13722)" gradientUnits="userSpaceOnUse" x1="218.50157" x2="906.09503" xlink:href="#a" y1="521.53015" y2="643.19684"/><linearGradient id="d" gradientTransform="matrix(1.1035188 0 0 1.0675738 -32.261862 -16.13722)" gradientUnits="userSpaceOnUse" x1="153.41434" x2="966.58569" xlink:href="#a" y1="229.06763" y2="400.73428"/><linearGradient id="e" gradientTransform="matrix(1.1035188 0 0 1.0675738 -32.261862 -16.13722)" gradientUnits="userSpaceOnUse" x1="193.1496" x2="878.59479" xlink:href="#a" y1="715.4057" y2="782.07239"/><g stroke="#000" stroke-linecap="round" stroke-linejoin="round"><path d="m468.91106 119.07973c-30.67592-.25198-61.61905 1.07257-71.44191 4.27715-3.38595 33.65158.8935 51.98501-1.82012 81.90504-10.27843 2.89788-20.41625 4.66778-30.64285 5.88109.91583-16.50641 1.94529-32.57809 1.75872-43.34235-22.8378-3.32214-53.78755-3.51868-81.93678-1.77678.77821-7.47372 1.46388-14.92391 1.17248-23.98662-17.51602-4.77332-126.912 18.92758-143.45024 23.99666 5.44379 29.69956 9.55922 57.87602 14.83421 100.5392 33.86657 23.53576 52.82283 31.75561 56.44924 71.19606.83179-.14937 1.93755-.26766 2.79653-.41404 10.95905 5.29259 29.16672 9.84288 52.38915 13.59322-2.91624 92.32362-3.70364 349.07195-2.76682 386.38072-25.9751 24.61179-77.23197 48.97752-114.08088 56.75264-5.47297 18.00708-10.85796 38.82983.25351 61.21875 134.50367 1.215 489.66369-.34134 618.18087-.78589 6.93473-24.9734 12.17731-43.03718 5.24247-62.6659-38.89999-7.67558-85.71583-19.25774-120.89985-54.51156-2.93795-65.38402-2.60389-320.39272-2.47171-385.92446 23.79285-3.70925 44.08633-8.30705 59.01602-13.88466l.095-.50852c.9358.13109 2.16619.24698 3.06192.37988 6.4292-35.55022 16.94888-41.62484 66.65098-71.4634 6.27923-46.68317 11.7912-69.1906 12.14663-97.10218-14.89408-3.60977-121.90885-35.5516-135.12803-30.96313-4.70181 27.77353 1.9472 51.63498-4.23835 77.75452-4.27091.21337-8.4718.36402-12.65563.49042-.0821-14.69476.25819-30.25213 1.60226-44.1644-24.97951-10.69902-73.23522-11.03649-105.78838-9.62762.22632-12.68693.63917-24.39647 1.50917-38.05418-8.75427-3.10761-39.16174-4.9377-69.83767-5.18966z" fill="none" stroke-width="35"/><g stroke-width="20"><path d="m214.931 336.59104s3.43172-123.36652 18.63965-164.37896c31.77766-6.83776 94.3341-10.06341 133.19391-4.41059.43487 25.08997-5.7353 77.8612-1.67984 101.98617 35.3113-1.66746 106.8458 2.60647 152.36777-2.49529 1.01387-29.43246-7.67601-71.10619.94181-103.91616 28.89512-2.16414 94.21729-4.4532 124.63319 8.57429-4.05545 41.97743.5939 99.68682.5939 99.68682l79.74569 2.75047-11.87452 63.13985c-99.56469 37.19663-434.27602 31.67383-496.56156-.9366z" fill="url(#b)" fill-rule="evenodd"/><path d="m268.15764 735.54931c-25.32605 25.20723-78.24879 50.57076-115.98566 58.53325-5.47297 18.00708-10.85796 38.82851.25353 61.21745 134.5038 1.215 489.66237-.3413 618.17968-.78584 6.93473-24.97344 12.17887-43.03774 5.24402-62.66647-39.56953-7.8077-87.3589-19.59776-122.73432-56.2952" fill="url(#e)" fill-rule="evenodd"/><path d="m212.54313 805.15757c157.79591.0765 329.05007-5.80151 497.81623.61086" fill="none"/><path d="m270.2971 323.45388c-3.97909 47.19749-5.12481 375.98219-4.03063 415.14527 58.25547-4.90998 328.99591-5.21841 388.70083-.59677-3.38073-73.69387-2.44537-413.51319-2.44537-413.51319" fill="url(#c)" fill-rule="evenodd"/><path d="m372.02916 395.7278c-20.05029-.0819-34.74277 1.05207-60.47766 3.84501l69.44552-3.73647c-3.13089-.06-6.10353-.0969-8.96786-.10854zm22.20379 60.59766c-31.60656-.0957-52.5427 1.48473-84.01237 4.07817l107.86001-3.73648c-8.69088-.20882-16.55381-.31959-23.84764-.34169zm-37.08356 30.68173c.42124 15.17564-.32878-7.03706.48326 16.79907zm114.09672 34.79407c-82.57531 1.18676-84.7255.62841-161.02553 5.8871zm-55.29064 32.72784c.3657 13.36655-.33163-7.19091.46345 16.14786zm47.32492 35.53975c-61.19232-.12977-106.73832 1.72986-153.62426 6.22881l180.85664-6.05193c-9.4299-.0978-18.49061-.15835-27.23238-.17688zm16.91775 20.27828.3862 14.57809c-.0188-1.42701-.1025-4.94899-.3862-14.57809zm.3862 14.57809c.0426 3.24093-.28786-5.52126.3565 13.39224zm-123.43495-3.40685c.42124 15.17561-.32878-7.03701.48326 16.79909zm110.81497 38.17479c-67.75639-.18769-125.28928 2.35426-156.87432 4.67511l227.45667-3.46714c-24.2748-.77804-47.99688-1.14541-70.58235-1.20797zm-52.28814 22.98366.38621 14.57808c-.0188-1.427-.1025-4.94898-.38621-14.57808zm.38621 14.57808c.0426 3.24093-.28784-5.52125.35649 13.39223z" fill="none"/><path d="m142.55131 166.03405c5.44381 29.69958 9.55729 57.87643 14.83228 100.53964 33.8666 23.53579 52.82401 31.75557 56.45044 71.19606 101.72749-18.2696 408.55559-14.05787 500.81614-.37002 6.42921-35.55025 16.94828-41.62432 66.65044-71.46291 6.27923-46.68321 11.79253-69.19044 12.14796-97.10205-14.89409-3.60976-121.90962-35.55163-135.12882-30.96315-4.70181 27.77356 1.94637 51.63461-4.23919 77.75417-40.05966 2.00141-75.74787.48136-117.20665-10.27359.20624-34.91406.15431-54.06161 1.87563-81.08365-17.50856-6.21523-121.63525-7.32007-141.28098-.91089-3.38596 33.6516.89436 51.98349-1.81926 81.90354-35.56266 10.02647-69.28822 7.42571-111.74219 9.80238-3.42044-35.57366 2.89542-48.05642 2.09251-73.02728-17.51604-4.77332-126.91005 18.92865-143.44831 23.99775z" fill="url(#d)" fill-rule="evenodd"/><path d="m202.72334 272.28638c156.94706-15.46461 389.07039-16.42622 523.77123 3.72923" fill="none"/></g></g></svg>