<svg height="700pt" viewBox="0 0 933.333 933.333" width="700pt" xmlns="http://www.w3.org/2000/svg" xmlns:xlink="http://www.w3.org/1999/xlink"><linearGradient id="a"><stop offset="0" stop-color="#fff"/><stop offset="1" stop-color="#bfd3d7"/></linearGradient><linearGradient id="b" gradientUnits="userSpaceOnUse" x1="735.7126928078" x2="820.26120525451" xlink:href="#a" y1="405.20720030054" y2="495.43986861832"/><linearGradient id="c" gradientUnits="userSpaceOnUse" x1="700.31807630417" x2="774.83078387059" xlink:href="#a" y1="323.62806233238" y2="374.34936525463"/><linearGradient id="d" gradientUnits="userSpaceOnUse" x1="625.5646606202" x2="735.96139684025" xlink:href="#a" y1="231.09051141671" y2="254.36508445073"/><linearGradient id="e" gradientUnits="userSpaceOnUse" x1="521.33098510977" x2="657.77193693998" xlink:href="#a" y1="171.31714399053" y2="172.95251351468"/><linearGradient id="f" gradientUnits="userSpaceOnUse" x1="281.48548325907" x2="785.2190839703" xlink:href="#a" y1="278.80146444527" y2="897.0368643463"/><g stroke="#000" stroke-linecap="round" stroke-linejoin="round"><path d="m392.06326 80.140287c-18.36775-2.994925-11.42678 61.278433-21.75908 85.197973-17.72474-16.26314-32.58197-55.01527-71.12712-61.88915-9.75805 32.49508 17.0889 82.27701 6.8629 95.09982-54.4334 68.25633-43.28799 69.90053-71.69213 145.16607-14.1218 37.42008-50.60562 102.29959-86.53584 144.43154-34.50068 40.4557-39.45337 90.11551-23.43593 107.3808 33.01766 35.58996 72.53236 20.2493 92.67632-3.12776-6.86579 14.01182-12.93138 31.9805-4.27797 38.67921 20.06972 15.53618 145.29787-98.01476 159.0997-92.74291 90.12277 34.42389 181.49809-33.93119 181.27647-112.96031 2.60522 58.75576-8.30984 98.13965-67.92065 138.21641-58.03796 39.01929-176.51954 117.7558-204.57521 230.24496-5.88257 23.58615 8.24102 63.05374 38.74781 63.5398 125.90615 2.00601 275.78559 2.53223 400.97587.20985 101.42564-1.88152 104.39266-582.63367-258.51985-694.31467-30.30033-24.45575-51.42754-80.13673-69.79529-83.131633zm237.7778 99.908483c18.82709 1.179-51.65901-28.12381-60.85195-39.84151-3.98827-5.08363-15.79374-6.82749-29.73987-6.7055-30.68149.26838-71.72621 9.56709-62.70438 12.21236m227.08291 126.65785c15.36629 9.77889 30.78027-29.66925 21.00639-29.66925-14.70464 0-39.67369 6.89876-35.15593-9.70614 4.95826-18.224-17.97812-23.85907-41.14508-24.17247-23.16699-.31342-46.56597 4.69562-42.53139 7.76287m161.56154 163.7308c21.99416 7.32669-1.02581-18.93128-12.12357-32.43178-11.09786-13.50049 7.58359-19.54622 6.27567-28.10941-3.16309-20.70953-37.8675-24.10221-58.32148-23.87585m72.26522 181.66592c7.76847 15.3535 39.02548 13.35061 52.50386 8.84448 18.1609-6.0716-43.90623-24.92688-29.92149-53.67426 7.74484-15.92047-43.91105-31.70253-55.05652-32.10486" fill="none" stroke-width="35"/><g stroke-width="20"><path d="m553.15048 425.37547c.22162 79.0292-91.15263 147.38391-181.27548 112.95996-13.80185-5.27185-139.03133 108.27933-159.10107 92.74312-15.83319-12.25665 17.54165-62.78408 15.11533-56.33055-11.5526 30.72736-62.55505 64.92844-103.51312 20.77948-16.01745-17.2653-11.06428-66.92453 23.43646-107.38027 35.93023-42.132 72.41294-107.01243 86.53475-144.43255 28.40417-75.26559 17.25952-76.90961 71.69298-145.166 10.22599-12.82282-16.62221-62.60543-6.86414-95.10053 38.54518 6.87389 53.40409 45.62724 71.12883 61.89038 10.33231-23.91956 3.38973-88.192229 21.75749-85.197303 18.36778 2.994903 39.49553 58.675223 69.79587 83.130973 362.91289 111.68111 359.94629 692.43258 258.52055 694.3141-125.19041 2.32238-275.07094 1.7968-400.97722-.20922-30.50682-.48604-44.62912-39.95394-38.74654-63.54012 28.0557-112.48928 146.53741-191.2255 204.57543-230.24484 59.61087-40.07678 70.5251-79.46082 67.91988-138.21663z" fill="url(#f)" fill-rule="evenodd"/><path d="m363.47803 314.09322c-30.03707-5.54327-56.37441 3.18026-78.12501 24.82792" fill="none"/><path d="m315.05506 346.84865c10.78941 10.99341 24.52106 11.45181 26.78335-7.22867" fill="none"/><path d="m162.80065 545.71992c-14.31431-4.94403-24.67016 18.11861-15.53698 19.05952" fill="none"/><path d="m334.41487 500.2758 9.8022 12.18157" fill="none"/><path d="m553.31923 391.72256.30041-25.74435" fill="none"/><path d="m343.71608 178.28413-10.44855 5.45615" fill="none"/><path d="m398.87833 122.7247c31.15229 43.51713 42.40023 52.31996 5.3585 46.07611" fill="none"/><path d="m459.70807 763.9368-26.63483 63.53183" fill="none"/><path d="m476.5452 145.71509c89.44408 26.22585 74.35792 7.29652 93.22191 38.01629 10.56858 17.2108 25.21295-5.86615 60.07455-3.68305 18.82711 1.17898-51.65927-28.12402-60.85219-39.84173-12.76255-16.26767-105.56694 1.6608-92.44427 5.50849z" fill="url(#e)" fill-rule="evenodd"/><path d="m605.80232 216.58684c28.09405 21.35829 48.67228-.33539 47.56249 36.7248-.762 25.4464 33.58416 8.44491 50.26369 19.05955 15.3663 9.77889 30.77884-29.66768 21.00495-29.66768-14.70465 0-39.67373 6.89865-35.15598-9.70627 9.91654-36.44804-91.74431-22.54492-83.67515-16.4104z" fill="url(#d)" fill-rule="evenodd"/><path d="m688.43523 297.16683c5.4684 1.91308 35.25235 22.07846 33.87329 31.66783-7.11304 49.46064 29.35817 46.25463 45.05388 51.48319 21.99418 7.3267-1.02494-18.93152-12.12271-32.43202-11.09787-13.50051 7.58348-19.5453 6.27557-28.10851-4.60087-30.12298-75.93504-23.60928-73.08003-22.61049z" fill="url(#c)" fill-rule="evenodd"/><path d="m740.98028 401.446c5.22587 9.11228 17.47928 19.43292 21.36347 33.72757 3.8843 14.29466 5.34654 27.03891 13.11503 42.39242s39.02509 13.35213 52.50347 8.84599c18.16093-6.07161-43.90571-24.92721-29.92097-53.67461 8.85126-18.19486-59.88123-36.20904-57.061-31.29137z" fill="url(#b)" fill-rule="evenodd"/></g></g></svg>