<svg height="700pt" viewBox="0 0 933.333 933.333" width="700pt" xmlns="http://www.w3.org/2000/svg" xmlns:xlink="http://www.w3.org/1999/xlink"><linearGradient id="a"><stop offset="0" stop-color="#fff"/><stop offset="1" stop-color="#bfd3d7"/></linearGradient><linearGradient id="b" gradientTransform="matrix(.734473 0 0 .735993 -84.6603 58.4359)" gradientUnits="userSpaceOnUse" x1="586.52576" x2="1126.0223" xlink:href="#a" y1="328.04306" y2="534.203"/><linearGradient id="c" gradientUnits="userSpaceOnUse" x1="311.24356" x2="898.65161" xlink:href="#a" y1="486.6561" y2="588.7475"/><linearGradient id="d" gradientUnits="userSpaceOnUse" x1="336.27295" x2="810.0462" xlink:href="#a" y1="651.78223" y2="792.89874"/><g stroke="#000" stroke-linecap="round" stroke-linejoin="round"><path d="m473.53906 222.80859a122.41217 110.39895 0 0 0 -122.41211 110.39844 122.41217 110.39895 0 0 0 122.41211 110.39844 122.41217 110.39895 0 0 0 122.41211-110.39844 122.41217 110.39895 0 0 0 -122.41211-110.39844zm-3.71875 223.76563c-30.33058.30853-58.6975 5.22557-93.46679 14.16016-74.19471 19.06565-100.10938 66.01953-100.10938 66.01953h156.33789c-9.00732 144.9484-88.58355 191.25298-127.13086 218.50195-34.19189 24.17014-25.46449 82.34132 19.9043 85.31055 28.11282 1.83988 276.61428 2.36287 305.65234-.8418 51.3807-5.67042 52.84588-66.70055 19.6875-87.3125-49.34642-30.67478-125.94103-64.99171-137.15429-215.6582h171.54882s-43.43291-51.83472-110.02539-66.6836c-42.62004-9.50347-74.91355-13.80462-105.24414-13.49609z" fill="none" stroke-width="35"/><g stroke-width="20"><ellipse cx="473.53918" cy="333.20663" fill="url(#b)" fill-rule="evenodd" rx="122.41217" ry="110.39895"/><path d="m433.41688 495.01055c1.4689 170.17424-86.73292 221.0978-127.96659 250.24575-34.19193 24.17016-25.46292 82.34183 19.90591 85.31106 28.11285 1.83989 276.61278 2.36096 305.65087-.84371 51.38075-5.67043 52.8459-66.69909 19.68749-87.31106-52.60851-32.70256-136.19074-69.53762-138.49775-247.08944-.44112-33.31211-79.04138-30.00907-78.77993-.3126z" fill="url(#d)" fill-rule="evenodd"/><path d="m376.35321 460.73487c-74.19478 19.06567-100.10965 66.01908-100.10965 66.01908h408.84622s-43.43216-51.83544-110.0247-66.68433c-85.24018-19.00696-129.17322-17.20394-198.71187.66525z" fill="url(#c)" fill-rule="evenodd"/><path d="m379.12098 739.67467h187.90283" fill="none"/></g></g></svg>