<?xml version="1.0" encoding="UTF-8"?><svg id="Layer_2" xmlns="http://www.w3.org/2000/svg" viewBox="0 0 100 100"><defs><style>.cls-1{fill:none;}.cls-2{fill:#459b45;}.cls-3{fill:#337233;}</style></defs><g id="black"><path class="cls-2" d="m72.5,82.75c0,1.24-1.01,2.25-2.25,2.25H29.75c-1.24,0-2.25-1.01-2.25-2.25,0-3.73,3.02-6.75,6.75-6.75h31.5c3.73,0,6.75,3.02,6.75,6.75Z"/><path class="cls-2" d="m50,15c2.6,0,3.63,2.02,3.62,4.5v2.25h2.25c2.48,0,4.37,1.02,4.51,3.5,0,2.47-2.02,3.5-4.5,3.5h-2.25v6.75h20.11c1.97,0,4.49,1.63,4.49,4.5,0,.45-.07.9-.2,1.34l-10.27,30.16h-35.54s-10.27-30.16-10.27-30.16c-.13-.44-.2-.89-.2-1.34,0-2.87,2.52-4.5,4.49-4.5h20.11s0-6.75,0-6.75h-2.25c-2.48,0-4.5-1.03-4.5-3.5.14-2.48,2.04-3.5,4.51-3.5h2.25s0-2.25,0-2.25c0-2.48,1.02-4.5,3.63-4.5"/></g><g id="black_notches"><g id="pieces_white_copy_3"><path class="cls-3" d="m63.94,73.75c0-1.24,1.01-2.25,2.25-2.25h-32.26c1.24,0,2.25,1.01,2.25,2.25s-1.01,2.25-2.25,2.25h32.26c-1.24,0-2.25-1.01-2.25-2.25Z"/></g></g><g id="black_bounding_boxes"><rect class="cls-1" width="100" height="100"/></g></svg>