<svg viewBox="0 0 100 100" xmlns="http://www.w3.org/2000/svg"><path d="m66.19 71.5h1.58l10.27-30.16c.13-.44.2-.89.2-1.34 0-2.87-2.52-4.5-4.49-4.5h-20.11v-6.75h2.25c2.48 0 4.5-1.03 4.5-3.5-.14-2.48-2.04-3.5-4.51-3.5h-2.25v-2.25c0-2.48-1.02-4.5-3.62-4.5s-3.63 2.02-3.62 4.5v2.25h-2.25c-2.48 0-4.37 1.02-4.51 3.5 0 2.47 2.02 3.5 4.5 3.5h2.25v6.75h-20.11c-1.97 0-4.49 1.63-4.49 4.5 0 .45.07.9.2 1.34l10.27 30.16h1.7c1.24 0 2.25 1.01 2.25 2.25s-1.01 2.25-2.25 2.25h.32c-3.73 0-6.75 3.02-6.75 6.75 0 1.24 1.01 2.25 2.25 2.25h40.5c1.24 0 2.25-1.01 2.25-2.25 0-3.73-3.02-6.75-6.75-6.75h.44c-1.24 0-2.25-1.01-2.25-2.25s1.01-2.25 2.25-2.25z" fill="#2b2c2d"/><path d="m63.94 73.75c0-1.24 1.01-2.25 2.25-2.25h-32.26c1.24 0 2.25 1.01 2.25 2.25s-1.01 2.25-2.25 2.25h32.26c-1.24 0-2.25-1.01-2.25-2.25z" fill="#0e0f0f"/><path d="m0 0h100v100h-100z" fill="none"/></svg>