<?xml version="1.0" encoding="UTF-8"?><svg id="Layer_2" xmlns="http://www.w3.org/2000/svg" viewBox="0 0 100 100"><defs><style>.cls-1{fill:none;}.cls-2{fill:#459b45;}.cls-3{fill:#337233;}</style></defs><g id="black"><path class="cls-2" d="m72.5,82.75c0,1.24-1.01,2.25-2.25,2.25H29.75c-1.24,0-2.25-1.01-2.25-2.38,0-3.6,3.02-6.62,6.62-6.62h31.63c3.73,0,6.75,3.02,6.75,6.75Z"/><path class="cls-2" d="m61.19,48.99l-4.07-3c3.76-2.35,6.27-6.48,6.27-11.23,0-7.34-5.94-13.28-13.39-13.28s-13.39,5.94-13.39,13.28c0,4.75,2.52,8.88,6.27,11.23l-4.07,3s-2.04.91-2.04,2.16v1.08c0,1.02.91,1.93,2.04,1.93h2.9v.7c0,5.62-5.25,12.05-7.79,16.64h32.14c-2.54-4.58-7.79-11.02-7.79-16.64v-.7h2.9c1.13,0,2.04-.91,2.04-1.93v-1.08c0-1.25-2.04-2.16-2.04-2.16Z"/></g><g id="black_notches"><path class="cls-3" d="m63.94,73.75c0-1.24,1.01-2.25,2.25-2.25h-32.26c1.24,0,2.25,1.01,2.25,2.25s-1.01,2.25-2.25,2.25h32.26c-1.24,0-2.25-1.01-2.25-2.25Z"/></g><g id="black_bounding_boxes"><rect class="cls-1" width="100" height="100"/></g></svg>