<?xml version="1.0" encoding="UTF-8"?><svg id="Layer_2" xmlns="http://www.w3.org/2000/svg" viewBox="0 0 100 100"><defs><style>.cls-1{fill:none;}.cls-2{fill:#459b45;}.cls-3{fill:#337233;}</style></defs><g id="black"><path class="cls-2" d="m72.5,82.75c0,1.24-1.01,2.25-2.25,2.25H29.75c-1.24,0-2.25-1.01-2.25-2.25,0-3.73,3.02-6.75,6.75-6.75h31.5c3.73,0,6.75,3.02,6.75,6.75Z"/><path class="cls-2" d="m79.32,41.77l-11.8,29.73h-34.95l-11.8-29.73c-.13-.32-.2-.66-.2-1.01,0-.72.29-1.43.72-1.85l3.3-2.25c.3-.25.64-.37.97-.37,1.96,0,1.99,3.71,5.97,3.71s5.52-4.52,5.52-7.12c0-1.04.69-1.88,1.64-1.88h4.46c.7,0,1.34.56,1.38,1.39.55,3.13,2.79,5.36,5.41,5.36s4.96-2.24,5.51-5.36c.14-.83.79-1.39,1.48-1.39h4.46c.75,0,1.44.84,1.54,1.87,0,3.55,2.14,7.12,5.52,7.12,3.98,0,4-3.71,5.98-3.71.33,0,.67.12.98.37l3.18,2.24c.53.43.82,1.14.82,1.86,0,.34.03.69-.1,1.01Z"/><path class="cls-2" d="m44.06,20c0-3.31,2.76-6,6.05-6s5.95,2.69,5.95,6-2.67,6-5.95,6-6.05-2.69-6.05-6Z"/></g><g id="black_notches"><g id="pieces_white_copy_3"><path class="cls-3" d="m63.94,73.75c0-1.24,1.01-2.25,2.25-2.25h-32.26c1.24,0,2.25,1.01,2.25,2.25s-1.01,2.25-2.25,2.25h32.26c-1.24,0-2.25-1.01-2.25-2.25Z"/></g></g><g id="black_bounding_boxes"><rect class="cls-1" width="100" height="100"/></g></svg>