<?xml version="1.0" encoding="UTF-8"?><svg id="Layer_2" xmlns="http://www.w3.org/2000/svg" viewBox="0 0 100 101"><defs><style>.cls-1{fill:none;}.cls-2{fill:#459b45;}.cls-3{fill:#337233;}</style></defs><g id="black"><path class="cls-2" d="m71.01,25.32v20.18l-7.34,3.67c0,5.48,1.17,14.89,2.52,22.34h-32.38c1.35-7.45,2.52-16.79,2.52-22.34l-7.34-3.67v-20.18c0-1.02.82-1.83,1.83-1.83h6.43c1,0,1.83.82,1.83,1.83v5.5h5.49v-5.5c0-1.02.82-1.83,1.83-1.83h7.17c1.02,0,1.83.82,1.83,1.83v5.5h5.5v-5.5c0-1.02.82-1.83,1.83-1.83h6.42c1.02,0,1.83.82,1.83,1.83Z"/><path class="cls-2" d="m72.5,82.75c0,1.24-1.01,2.25-2.25,2.25H29.75c-1.24,0-2.25-1.01-2.25-2.25,0-3.73,3.02-6.75,6.75-6.75h31.5c3.73,0,6.75,3.02,6.75,6.75Z"/></g><g id="black_notches"><g id="pieces_white_copy_3"><path class="cls-3" d="m63.94,73.75c0-1.24,1.01-2.25,2.25-2.25h-32.26c1.24,0,2.25,1.01,2.25,2.25s-1.01,2.25-2.25,2.25h32.26c-1.24,0-2.25-1.01-2.25-2.25Z"/></g></g><g id="black_bounding_boxes"><polygon class="cls-1" points="100 100 0 101 0 1 100 0 100 100"/></g></svg>