<?xml version="1.0" encoding="UTF-8"?><svg id="Layer_2" xmlns="http://www.w3.org/2000/svg" viewBox="0 0 100 100"><defs><style>.cls-1{fill:none;}.cls-2{fill:#fff;}.cls-3{fill:#bfbfbf;}</style></defs><g id="white"><g id="pieces_white_copy_4"><path class="cls-2" d="m72.5,82.75c0,1.24-1.01,2.25-2.25,2.25H29.75c-1.24,0-2.25-1.01-2.25-2.25,0-3.73,3.02-6.75,6.75-6.75h31.5c3.73,0,6.75,3.02,6.75,6.75Z"/><path class="cls-2" d="m46.14,23.88c-1.73-.42-3.04-.91-3.04-2.76,0-2.17,1.78-3.95,3.95-3.95h5.9c2.17,0,3.95,1.77,3.95,3.95,0,1.85-1.31,2.35-3.04,2.76,3.01,2.53,7.18,6.76,9.75,11.42l-13.31,13.31c-.19.19-.29.45-.29.7s.1.51.29.7l1.4,1.39c.19.19.44.29.69.29s.5-.1.7-.29l12.37-12.37c1.97,4.36,3.3,8.87,3.3,12.65,0,6.37-2.73,12.12-6.91,13.44l4.35,6.37h-32.26l4.23-6.36c-4.18-1.33-6.91-7.07-6.91-13.44,0-9.06,8.37-22.35,14.9-27.81Z"/></g></g><g id="white_notches"><path class="cls-3" d="m63.94,73.75c0-1.24,1.01-2.25,2.25-2.25h-32.26c1.24,0,2.25,1.01,2.25,2.25s-1.01,2.25-2.25,2.25h32.26c-1.24,0-2.25-1.01-2.25-2.25Z"/></g><g id="white_bounding_boxes"><rect class="cls-1" width="100" height="100"/></g></svg>