<svg viewBox="0 0 100 100" xmlns="http://www.w3.org/2000/svg"><path d="m65.75 76h.44c-1.24 0-2.25-1.01-2.25-2.25s1.01-2.25 2.25-2.25l-4.35-7.37c4.18-1.33 6.91-7.07 6.91-13.44 0-3.78-1.33-8.28-3.3-12.65l-12.37 12.37c-.19.19-.45.29-.7.29s-.5-.1-.69-.29l-1.4-1.39c-.19-.19-.29-.45-.29-.7s.1-.51.29-.7l13.31-13.31c-2.56-4.66-6.74-8.89-9.75-11.42 1.73-.42 3.04-.91 3.04-2.76 0-2.17-1.77-3.95-3.95-3.95h-5.9c-2.17 0-3.95 1.77-3.95 3.95 0 1.85 1.31 2.35 3.04 2.76-6.52 5.47-14.9 18.76-14.9 27.81 0 6.37 2.73 12.12 6.91 13.44l-4.23 7.36c1.24 0 2.25 1.01 2.25 2.25s-1.01 2.25-2.25 2.25h.32c-3.73 0-6.75 3.02-6.75 6.75 0 1.24 1.01 2.25 2.25 2.25h40.5c1.24 0 2.25-1.01 2.25-2.25 0-3.73-3.02-6.75-6.75-6.75z" fill="#2b2c2d"/><path d="m63.94 73.75c0-1.24 1.01-2.25 2.25-2.25h-32.26c1.24 0 2.25 1.01 2.25 2.25s-1.01 2.25-2.25 2.25h32.26c-1.24 0-2.25-1.01-2.25-2.25z" fill="#0e0f0f"/><path d="m0 0h100v100h-100z" fill="none"/></svg>