<?xml version="1.0" encoding="UTF-8"?><svg id="Layer_2" xmlns="http://www.w3.org/2000/svg" viewBox="0 0 100 100"><defs><style>.cls-1{fill:none;}.cls-2{fill:#0e0f0f;}.cls-3{fill:#2b2c2d;}</style></defs><g id="black"><path class="cls-3" d="m65.75,76h.44c-1.24,0-2.25-1.01-2.25-2.25s1.01-2.25,2.25-2.25h1.06c.19-.61.38-1.21.57-1.81.49-1.43.96-2.87,1.45-4.31.92-2.75,1.78-5.53,2.4-8.38.67-3.1,1.05-6.28.92-9.45-.12-3.12-.72-6.22-1.8-9.13-.46-1.27-1.01-2.51-1.63-3.71-1.17-2.28-2.59-4.42-4.26-6.33-1.55-1.78-3.3-3.37-5.23-4.69-1.7-1.17-3.54-2.14-5.45-2.86-2.58-.99-5.3-1.57-8.05-1.78-.17-.01-.33-.11-.48-.19-1.46-.8-2.93-1.57-4.38-2.37-.26-.14-1.13-.43-1.41-.53-.04.23-.04.46-.06.69,0,.12,0,.25,0,.38-.02.13-.04.26-.04.39-.01.31,0,.62,0,.93,0,.21.03.41.03.61,0,.14,0,.28.02.42-.17.06-.35.11-.53.16-1.42.44-2.78,1.09-4,1.95.09.22.22.41.33.61.75,1.34,1.5,2.67,2.24,4,.03.05.06.11.08.17-.2.14-.42.25-.62.37-1.17.7-2.33,1.43-3.41,2.27-.19.15-.42.29-.54.52-.17.31-.24.66-.32,1-.21.99-.27,2.01-.45,3.01-.05.21-.08.44-.2.62-.23.32-.48.61-.72.92-1.17,1.53-2.34,3.06-3.44,4.64-.76,1.08-1.51,2.18-2.21,3.3-.52.82-1.02,1.65-1.54,2.48-.46.67-.93,1.41-.99,2.26-.02.17-.02.34,0,.51.02.27.1.54.19.79.34.99.85,1.94,1.57,2.69.68.74,1.54,1.29,2.46,1.63.1.04.21.06.32.08.41.16.85.24,1.29.3.45.06.91.09,1.36.09.43-.67.94-1.3,1.46-1.9.95-1.08,1.97-2.09,3.04-3.04.1-.11,1.25-.04,1.38-.05,2.13.1,4.29.03,6.37-.5,1.63-.41,3.22-1.14,4.5-2.28.59-.52,1.1-1.13,1.56-1.78-.01.16-.01.33-.1.47-.06.14-.17.26-.17.42-.13,1.49-.55,2.93-1.12,4.3-.56,1.36-1.26,2.64-2.03,3.88-1.39,2.21-3.01,4.25-4.73,6.19-.81.92-1.67,1.79-2.5,2.69-1.79,1.97-3.34,4.17-4.52,6.58-.44.9-.83,1.83-1.16,2.78h1.24c1.24,0,2.25,1.01,2.25,2.25s-1.01,2.25-2.25,2.25h.32c-3.73,0-6.75,3.02-6.75,6.75,0,1.24,1.01,2.25,2.25,2.25h40.5c1.24,0,2.25-1.01,2.25-2.25,0-3.73-3.02-6.75-6.75-6.75Z"/></g><g id="black_notches"><path class="cls-2" d="m63.94,73.75c0-1.24,1.01-2.25,2.25-2.25h-32.26c1.24,0,2.25,1.01,2.25,2.25s-1.01,2.25-2.25,2.25h32.26c-1.24,0-2.25-1.01-2.25-2.25Z"/><path class="cls-2" d="m40.29,31.48c-2.43.19-3.17,1.64-3.48,2.63-.38,1.2.48,2.06,1.28,2.26.84.2,2.79.15,4.04-.7s1.8-2.21,1.52-2.99-2-1.31-3.35-1.2Z"/></g><g id="black_bounding_boxes"><rect class="cls-1" width="100" height="100"/></g></svg>