<?xml version="1.0" encoding="UTF-8"?><svg id="Layer_2" xmlns="http://www.w3.org/2000/svg" viewBox="0 0 100 100"><defs><style>.cls-1{fill:none;}.cls-2{fill:#0e0f0f;}.cls-3{fill:#2b2c2d;}</style></defs><g id="black"><path class="cls-3" d="m50.11,26c3.28,0,5.95-2.69,5.95-6s-2.67-6-5.95-6-6.05,2.69-6.05,6,2.76,6,6.05,6Z"/><path class="cls-3" d="m66.19,71.5h1.33l11.8-29.73c.14-.32.1-.67.1-1.01,0-.73-.29-1.43-.82-1.86l-3.18-2.24c-.31-.25-.65-.37-.98-.37-1.98,0-2,3.71-5.98,3.71-3.38,0-5.52-3.57-5.52-7.12-.11-1.03-.8-1.87-1.54-1.87h-4.46c-.69,0-1.34.56-1.48,1.39-.55,3.12-2.79,5.36-5.51,5.36s-4.87-2.23-5.41-5.36c-.05-.83-.68-1.39-1.38-1.39h-4.46c-.95,0-1.64.84-1.64,1.88,0,2.59-1.58,7.12-5.52,7.12s-4.02-3.71-5.97-3.71c-.34,0-.67.12-.97.37l-3.3,2.25c-.43.41-.72,1.13-.72,1.85,0,.35.06.69.2,1.01l11.8,29.73h1.36c1.24,0,2.25,1.01,2.25,2.25s-1.01,2.25-2.25,2.25h.32c-3.73,0-6.75,3.02-6.75,6.75,0,1.24,1.01,2.25,2.25,2.25h40.5c1.24,0,2.25-1.01,2.25-2.25,0-3.73-3.02-6.75-6.75-6.75h.44c-1.24,0-2.25-1.01-2.25-2.25s1.01-2.25,2.25-2.25Z"/></g><g id="black_notches"><g id="pieces_white_copy_3"><path class="cls-2" d="m63.94,73.75c0-1.24,1.01-2.25,2.25-2.25h-32.26c1.24,0,2.25,1.01,2.25,2.25s-1.01,2.25-2.25,2.25h32.26c-1.24,0-2.25-1.01-2.25-2.25Z"/></g></g><g id="black_bounding_boxes"><rect class="cls-1" width="100" height="100"/></g></svg>