<svg viewBox="0 0 100 100" xmlns="http://www.w3.org/2000/svg"><path d="m65.75 76h.44c-1.24 0-2.25-1.01-2.25-2.25s1.01-2.25 2.25-2.25c-1.35-7.45-2.52-16.86-2.52-22.34l7.34-3.67v-20.18c0-1.02-.81-1.83-1.83-1.83h-6.42c-1.02 0-1.83.82-1.83 1.83v5.5h-5.5v-5.5c0-1.02-.82-1.83-1.83-1.83h-7.17c-1.02 0-1.83.82-1.83 1.83v5.5h-5.49v-5.5c0-1.02-.83-1.83-1.83-1.83h-6.43c-1.02 0-1.83.82-1.83 1.83v20.18l7.34 3.67c0 5.55-1.17 14.89-2.52 22.34h.12c1.24 0 2.25 1.01 2.25 2.25s-1.01 2.25-2.25 2.25h.32c-3.73 0-6.75 3.02-6.75 6.75 0 1.24 1.01 2.25 2.25 2.25h40.5c1.24 0 2.25-1.01 2.25-2.25 0-3.73-3.02-6.75-6.75-6.75z" fill="#fff"/><path d="m63.94 73.75c0-1.24 1.01-2.25 2.25-2.25h-32.26c1.24 0 2.25 1.01 2.25 2.25s-1.01 2.25-2.25 2.25h32.26c-1.24 0-2.25-1.01-2.25-2.25z" fill="#b2b2b2" opacity=".5"/><path d="m0 0h100v100h-100z" fill="none"/></svg>