<?xml version="1.0" encoding="utf-8"?>
<!-- Generator: Adobe Illustrator 27.3.1, SVG Export Plug-In . SVG Version: 6.00 Build 0)  -->
<svg version="1.1"
	 id="Layer_1" text-rendering="geometricPrecision" shape-rendering="geometricPrecision" image-rendering="optimizeQuality"
	 xmlns="http://www.w3.org/2000/svg" xmlns:xlink="http://www.w3.org/1999/xlink" x="0px" y="0px" viewBox="0 0 141.7 141.7"
	 style="enable-background:new 0 0 141.7 141.7;" xml:space="preserve">
<style type="text/css">
	.st0{fill-rule:evenodd;clip-rule:evenodd;fill:#889599;}
	.st1{fill-rule:evenodd;clip-rule:evenodd;}
</style>
<path class="st0" d="M79.7,29.7h11v-8.8h17.8v24.3l-14.4,11v30.9l11,11v13.2h9.9v15.5H26.8v-15.5h9.9V98.1l11-11V56.2l-14.4-11V20.8
	h17.7v8.8h11v-8.8h17.7L79.7,29.7L79.7,29.7z"/>
<path class="st1" d="M92,51.8l8.2-6.6H41.6l8.3,6.6H92z M110.7,115.7H31.2v6.6h79.6V115.7z M100.7,102.5H41.2v8.8h59.5L100.7,102.5z
	 M89.7,56.2H52.1v30.9h37.5V56.2z M104,40.7V25.3h-8.8v8.8h-20v-8.8h-8.7v8.8H46.6v-8.8h-8.8v15.5H104z M99,98.1l-6.6-6.6h-43
	l-6.8,6.6H99z"/>
</svg>
