<svg enable-background="new 0 0 141.7 141.7" image-rendering="optimizeQuality" shape-rendering="geometricPrecision" text-rendering="geometricPrecision" viewBox="0 0 141.7 141.7" xmlns="http://www.w3.org/2000/svg"><g clip-rule="evenodd" fill-rule="evenodd"><path d="m72 115.2c-.6 2.5-1.4 4.1-2.2 5.1-.8.9-2 1.9-3.4 2.9-1.6 1.1-3.4 2-5.5 2.8-2.1.7-4.4.9-7.1.6l-18.2-2.5c-.6-.1-1.3-.1-2 0-.6.1-1.1.1-1.7.1-.9 0-2 .2-3.4.6s-2.5 1-3.3 1.7l-6.3-10.3c.7-.8 1.5-1.5 2-1.8.6-.4 1.3-.7 2.1-1.1 2.5-1.2 5.2-1.9 8-2.1 1.2-.1 2.4-.1 3.6-.1s2.4 0 3.7-.1c2.3.4 4.7.7 7 1.1 2.4.4 4.7.6 7.1 1 2.6 0 4.3-.3 5.2-.7.5-.3 1.2-.7 2.3-1.5 1-.6 2.1-1.7 3.1-3-2.3-.3-4.6-.6-7-1.3-2.1-.6-4.2-1.2-6.3-1.9l6.8-16.7c-3.4-1.9-5.7-3.5-7.1-4.7-1.3-1.2-2.4-2.6-3.1-4.1-1.1-2-1.8-3.9-2.2-5.8-.3-1.7-.5-3.3-.5-5 0-2.6.6-5.4 1.8-8.6 1.2-3.1 3.4-5.9 6.7-8.4 2.7-2 5.3-4.2 8-6.4 2.8-2.4 5.3-5 7.7-7.7-3.2-1.7-4.8-4.2-4.8-7.8 0-2.4.8-4.5 2.6-6.3 1.7-1.7 3.8-2.6 6.3-2.6 2.4 0 4.5.8 6.2 2.6 1.7 1.7 2.6 3.8 2.6 6.3 0 3.5-1.6 6.2-4.8 7.8 2.3 2.8 4.9 5.3 7.6 7.7 2.6 2.2 5.2 4.3 8.1 6.4 3.2 2.5 5.4 5.2 6.6 8.4 1.2 3.1 1.8 6 1.8 8.6 0 1.5-.1 3.1-.5 5-.3 1.8-1 3.8-2.1 5.8-.8 1.6-1.9 2.9-3.3 4.1-1.3 1.2-3.6 2.8-7 4.7l6.7 16.7c-2.1.7-4.2 1.4-6.4 1.9-2.4.6-4.7 1.1-6.9 1.3 1 1.4 2 2.4 3 3s1.8 1.2 2.3 1.5c.9.6 2.7.7 5.2.7 2.3-.4 4.7-.7 7-1 2.4-.3 4.7-.6 7.1-1.1 1.1.1 2.3.2 3.5.1 1.2 0 2.5 0 3.7.1 2.8.3 5.5 1 8 2.1.7.4 1.5.7 2.1 1.1s1.3.9 2.1 1.8l-6.3 10.3c-.7-.7-1.8-1.4-3.3-1.7-1.4-.5-2.5-.6-3.4-.6-.6 0-1.1 0-1.7-.1s-1.3-.1-1.9 0l-18.1 2.5c-2.6.4-5 .2-7.2-.5s-4-1.7-5.5-2.9c-1.2-.9-2.3-1.9-3.4-3-.4-.9-1.1-2.6-1.7-5z" fill="#889599"/><path d="m74.3 107.9c0 2.9.6 5.2 1.9 7.3 1.3 2 2.8 3.6 4.2 4.7 2.4 1.7 5.8 2.6 10.4 2.6 1.1 0 3.3-.3 6.6-.7 2.1-.4 4.3-.6 6.4-.9 1.7-.2 2.8-.4 3.3-.5 1.7-.2 3.5-.2 5.2.1.6.2 1.5.4 2.3.5.7.1 1.5.5 2.1 1l3.1-5.1c-1.7-.9-3.7-1.6-5.6-1.8-3.2-.6-6.2-.6-8.6-.4-.7.1-1.7.3-2.9.6-1.2.4-2.8.6-4.8 1-4.4.7-6.6 1-6.9 1-1.7 0-3.1-.2-4.4-.6-1.1-.4-2.3-.8-3.3-1.4-2.3-1-4.6-3.5-7-7.4zm-4.6 0h-2.1c-2.4 3.9-4.7 6.3-6.9 7.4-1 .6-2.2 1-3.4 1.4-1.3.5-2.7.6-4.3.6-.3 0-2.6-.4-6.9-1-2-.3-3.7-.6-4.9-1-.9-.3-1.8-.5-2.9-.6-2.5-.3-5.3-.2-8.6.4-1.9.4-3.9.9-5.5 1.8l3.1 5.1c.6-.6 1.2-.8 2-1s1.7-.3 2.3-.5c1.7-.3 3.4-.4 5.2-.1.6.1 1.7.3 3.3.5 1.7.2 3.9.6 6.5.9 3.2.5 5.4.7 6.6.7 4.5 0 8-.8 10.4-2.6 1.5-1.1 2.9-2.7 4.1-4.7 1.4-2.1 2-4.5 2-7.3zm2.3-24.4c4.1 0 8.2.4 12.1 1 4.2-1.5 7.3-3.9 9.2-7.1 1.7-2.8 2.5-5.9 2.5-9.1 0-2-.5-4.1-1.5-6.6-1-2.4-2.6-4.5-4.9-6.5-2.6-2.1-5.3-4.4-8.4-7-3.2-2.8-6.3-5.7-9-8.8-3 3.3-6.1 6.3-9 8.8-2.8 2.3-5.5 4.6-8.3 7-2.3 2-4 4.2-4.9 6.6-1 2.4-1.5 4.6-1.5 6.6 0 3.3.8 6.3 2.4 9.1 1.8 3.2 5 5.5 9.3 7.1 4-.7 8-1.1 12-1.1zm0 11.8c5.1 0 9.9.5 14.5 1.5l-3.1-8c-3.8-.6-7.6-.9-11.5-.9-4 0-7.7.3-11.5.9l-3 8c4.7-1 9.5-1.5 14.6-1.5zm0-61.4c2.9 0 4.4-1.5 4.4-4.4s-1.5-4.4-4.4-4.4-4.4 1.5-4.4 4.4 1.5 4.4 4.4 4.4zm0 70.4c2.9 0 5.7-.3 8.6-.7 2.8-.5 5.5-1.1 8.1-1.7-5.1-1.3-10.6-2-16.7-2s-11.7.6-16.7 2c2.5.6 5.2 1.3 7.9 1.7 3 .5 5.9.8 8.8.7zm-2.3-37.4-5.4-.1c-1.5 0-2.2-.7-2.2-2.2s.7-2.2 2.2-2.2h5.4v-5.5c0-1.5.7-2.3 2.3-2.3 1.5 0 2.3.7 2.3 2.3v5.5h5.5c1.4 0 2.1.7 2.1 2.2s-.7 2.2-2.1 2.2h-5.5v5.3c0 1.6-.7 2.3-2.3 2.3s-2.3-.7-2.3-2.3z"/></g></svg>