<?xml version="1.0" encoding="utf-8"?>
<!-- Generator: Adobe Illustrator 27.3.1, SVG Export Plug-In . SVG Version: 6.00 Build 0)  -->
<svg version="1.1"
	 id="Layer_1" text-rendering="geometricPrecision" shape-rendering="geometricPrecision" image-rendering="optimizeQuality"
	 xmlns="http://www.w3.org/2000/svg" xmlns:xlink="http://www.w3.org/1999/xlink" x="0px" y="0px" viewBox="0 0 141.7 141.7"
	 style="enable-background:new 0 0 141.7 141.7;" xml:space="preserve">
<style type="text/css">
	.st0{fill-rule:evenodd;clip-rule:evenodd;fill:#889599;}
	.st1{fill-rule:evenodd;clip-rule:evenodd;}
</style>
<path class="st0" d="M72,115.2c-0.6,2.5-1.4,4.1-2.2,5.1c-0.8,0.9-2,1.9-3.4,2.9c-1.6,1.1-3.4,2-5.5,2.8c-2.1,0.7-4.4,0.9-7.1,0.6
	l-18.2-2.5c-0.6-0.1-1.3-0.1-2,0c-0.6,0.1-1.1,0.1-1.7,0.1c-0.9,0-2,0.2-3.4,0.6c-1.4,0.4-2.5,1-3.3,1.7l-6.3-10.3
	c0.7-0.8,1.5-1.5,2-1.8c0.6-0.4,1.3-0.7,2.1-1.1c2.5-1.2,5.2-1.9,8-2.1c1.2-0.1,2.4-0.1,3.6-0.1s2.4,0,3.7-0.1
	c2.3,0.4,4.7,0.7,7,1.1c2.4,0.4,4.7,0.6,7.1,1c2.6,0,4.3-0.3,5.2-0.7c0.5-0.3,1.2-0.7,2.3-1.5c1-0.6,2.1-1.7,3.1-3
	c-2.3-0.3-4.6-0.6-7-1.3c-2.1-0.6-4.2-1.2-6.3-1.9L56.5,88c-3.4-1.9-5.7-3.5-7.1-4.7c-1.3-1.2-2.4-2.6-3.1-4.1
	c-1.1-2-1.8-3.9-2.2-5.8c-0.3-1.7-0.5-3.3-0.5-5c0-2.6,0.6-5.4,1.8-8.6c1.2-3.1,3.4-5.9,6.7-8.4c2.7-2,5.3-4.2,8-6.4
	c2.8-2.4,5.3-5,7.7-7.7c-3.2-1.7-4.8-4.2-4.8-7.8c0-2.4,0.8-4.5,2.6-6.3c1.7-1.7,3.8-2.6,6.3-2.6c2.4,0,4.5,0.8,6.2,2.6
	c1.7,1.7,2.6,3.8,2.6,6.3c0,3.5-1.6,6.2-4.8,7.8c2.3,2.8,4.9,5.3,7.6,7.7c2.6,2.2,5.2,4.3,8.1,6.4c3.2,2.5,5.4,5.2,6.6,8.4
	c1.2,3.1,1.8,6,1.8,8.6c0,1.5-0.1,3.1-0.5,5c-0.3,1.8-1,3.8-2.1,5.8c-0.8,1.6-1.9,2.9-3.3,4.1c-1.3,1.2-3.6,2.8-7,4.7l6.7,16.7
	c-2.1,0.7-4.2,1.4-6.4,1.9c-2.4,0.6-4.7,1.1-6.9,1.3c1,1.4,2,2.4,3,3c1,0.6,1.8,1.2,2.3,1.5c0.9,0.6,2.7,0.7,5.2,0.7
	c2.3-0.4,4.7-0.7,7-1c2.4-0.3,4.7-0.6,7.1-1.1c1.1,0.1,2.3,0.2,3.5,0.1c1.2,0,2.5,0,3.7,0.1c2.8,0.3,5.5,1,8,2.1
	c0.7,0.4,1.5,0.7,2.1,1.1c0.6,0.4,1.3,0.9,2.1,1.8l-6.3,10.3c-0.7-0.7-1.8-1.4-3.3-1.7c-1.4-0.5-2.5-0.6-3.4-0.6
	c-0.6,0-1.1,0-1.7-0.1c-0.6-0.1-1.3-0.1-1.9,0l-18.1,2.5c-2.6,0.4-5,0.2-7.2-0.5c-2.2-0.7-4-1.7-5.5-2.9c-1.2-0.9-2.3-1.9-3.4-3
	C73.3,119.3,72.6,117.6,72,115.2L72,115.2z"/>
<path class="st1" d="M74.3,107.9c0,2.9,0.6,5.2,1.9,7.3c1.3,2,2.8,3.6,4.2,4.7c2.4,1.7,5.8,2.6,10.4,2.6c1.1,0,3.3-0.3,6.6-0.7
	c2.1-0.4,4.3-0.6,6.4-0.9c1.7-0.2,2.8-0.4,3.3-0.5c1.7-0.2,3.5-0.2,5.2,0.1c0.6,0.2,1.5,0.4,2.3,0.5c0.7,0.1,1.5,0.5,2.1,1l3.1-5.1
	c-1.7-0.9-3.7-1.6-5.6-1.8c-3.2-0.6-6.2-0.6-8.6-0.4c-0.7,0.1-1.7,0.3-2.9,0.6c-1.2,0.4-2.8,0.6-4.8,1c-4.4,0.7-6.6,1-6.9,1
	c-1.7,0-3.1-0.2-4.4-0.6c-1.1-0.4-2.3-0.8-3.3-1.4c-2.3-1-4.6-3.5-7-7.4L74.3,107.9z M69.7,107.9h-2.1c-2.4,3.9-4.7,6.3-6.9,7.4
	c-1,0.6-2.2,1-3.4,1.4c-1.3,0.5-2.7,0.6-4.3,0.6c-0.3,0-2.6-0.4-6.9-1c-2-0.3-3.7-0.6-4.9-1c-0.9-0.3-1.8-0.5-2.9-0.6
	c-2.5-0.3-5.3-0.2-8.6,0.4c-1.9,0.4-3.9,0.9-5.5,1.8l3.1,5.1c0.6-0.6,1.2-0.8,2-1c0.8-0.2,1.7-0.3,2.3-0.5c1.7-0.3,3.4-0.4,5.2-0.1
	c0.6,0.1,1.7,0.3,3.3,0.5c1.7,0.2,3.9,0.6,6.5,0.9c3.2,0.5,5.4,0.7,6.6,0.7c4.5,0,8-0.8,10.4-2.6c1.5-1.1,2.9-2.7,4.1-4.7
	C69.1,113.1,69.7,110.7,69.7,107.9L69.7,107.9z M72,83.5c4.1,0,8.2,0.4,12.1,1c4.2-1.5,7.3-3.9,9.2-7.1c1.7-2.8,2.5-5.9,2.5-9.1
	c0-2-0.5-4.1-1.5-6.6c-1-2.4-2.6-4.5-4.9-6.5c-2.6-2.1-5.3-4.4-8.4-7c-3.2-2.8-6.3-5.7-9-8.8c-3,3.3-6.1,6.3-9,8.8
	c-2.8,2.3-5.5,4.6-8.3,7c-2.3,2-4,4.2-4.9,6.6c-1,2.4-1.5,4.6-1.5,6.6c0,3.3,0.8,6.3,2.4,9.1c1.8,3.2,5,5.5,9.3,7.1
	C64,83.9,68,83.5,72,83.5L72,83.5z M72,95.3c5.1,0,9.9,0.5,14.5,1.5l-3.1-8c-3.8-0.6-7.6-0.9-11.5-0.9c-4,0-7.7,0.3-11.5,0.9l-3,8
	C62.1,95.8,66.9,95.3,72,95.3L72,95.3z M72,33.9c2.9,0,4.4-1.5,4.4-4.4s-1.5-4.4-4.4-4.4c-2.9,0-4.4,1.5-4.4,4.4S69.1,33.9,72,33.9
	L72,33.9z M72,104.3c2.9,0,5.7-0.3,8.6-0.7c2.8-0.5,5.5-1.1,8.1-1.7c-5.1-1.3-10.6-2-16.7-2s-11.7,0.6-16.7,2
	c2.5,0.6,5.2,1.3,7.9,1.7C66.2,104.1,69.1,104.4,72,104.3L72,104.3z M69.7,66.9l-5.4-0.1c-1.5,0-2.2-0.7-2.2-2.2s0.7-2.2,2.2-2.2
	h5.4v-5.5c0-1.5,0.7-2.3,2.3-2.3c1.5,0,2.3,0.7,2.3,2.3v5.5h5.5c1.4,0,2.1,0.7,2.1,2.2c0,1.5-0.7,2.2-2.1,2.2h-5.5v5.3
	c0,1.6-0.7,2.3-2.3,2.3s-2.3-0.7-2.3-2.3V66.9z"/>
</svg>
