<svg enable-background="new 0 0 141.7 141.7" image-rendering="optimizeQuality" shape-rendering="geometricPrecision" text-rendering="geometricPrecision" viewBox="0 0 141.7 141.7" xmlns="http://www.w3.org/2000/svg"><g clip-rule="evenodd" fill-rule="evenodd"><path d="m73 37h-4.6v-8.5h-5.4c-1.5 0-2.2-.7-2.2-2.1v-.1c0-1.4.7-2.1 2.2-2.1h5.4v-5.5c0-1.6.7-2.3 2.3-2.3 1.5 0 2.3.7 2.3 2.3v5.5h5.5c1.4 0 2.1.7 2.1 2.1v.1c0 1.5-.7 2.1-2.1 2.1l-5.5.2zm-38.5 67.1-2.2-12.1s-.1-.1-.2-.3c-.2-.3-.8-.7-1.8-1.2-1-.6-2.2-1.4-3.5-2.6-1.5-1.3-3-2.6-4.4-3.9-1.1-1-2-2-2.9-3.2-2.7-3.6-4.1-8-4.4-13.2-.5-5 1.6-9.9 6-14.8 4.5-4.9 10.6-7.2 18.2-6.9 2.9.2 6.2.8 10 2.1 1.3.6 2.6 1 3.9 1.5l3.9 1.6c.6.4 1.3.7 1.8 1-.2-.9-.4-1.8-.4-2.8 0-3.3 1.2-6.3 3.6-8.6 2.4-2.4 5.2-3.6 8.6-3.6 3.3 0 6.3 1.2 8.6 3.6 2.4 2.4 3.6 5.2 3.6 8.6 0 .6-.1 1.6-.3 2.8.6-.4 1.2-.7 1.7-1 2-.8 4.6-1.8 7.8-3 3.7-1.3 7.1-1.9 10-2.1 7.6-.4 13.7 1.9 18.1 6.9 4.3 5 6.3 9.8 6.1 14.8-.4 5.2-1.8 9.5-4.4 13.2-.8 1.2-1.8 2.2-2.9 3.3-1.4 1.3-2.9 2.6-4.3 3.9-1.4 1.2-2.7 2.1-3.6 2.6-1 .5-1.6.9-1.7 1.2 0 .1-.1.2-.1.2l-.1.1-2.1 12.1 4.3 16c-2.2 1.9-7 3.5-14.4 4.8-7.5 1.3-16.2 1.8-26 1.8-10 0-18.8-.6-26.4-1.9s-12.3-2.9-14.4-5z" fill="#889599"/><path d="m72.9 82.7c7.5.1 14.2.6 20.3 1.3 6.2.8 11 1.8 14.5 3 1.8-1.4 3.6-2.9 5.3-4.3s3.4-3 4.9-4.8c2-2.7 3.1-6.1 3.1-10.4 0-3.9-.9-7.1-2.8-9.7-3.3-4.9-8.4-7.3-15.1-7.3-4 0-8.2.8-12.5 2.5-3.8 1.6-6.6 3.2-8.6 5.1-3.6 3.6-6.3 8.3-8 14-.6 2-.9 3.9-1.1 5.5zm-34.5 17.5c8.2-2.2 19.1-3.2 32.6-3.2 13.2 0 24 1 32.1 2.9l1.7-9.5c-8.6-2.3-20-3.4-34-3.4s-25.4 1.2-33.9 3.5zm66 11.5-1.9-7.5c-8.6-1.9-19.1-2.9-31.7-2.9-12.5 0-23.1.9-31.6 2.9l-2 7.5c8.3-2.4 19.5-3.6 33.8-3.6 14 0 25.2 1.2 33.4 3.6zm1.6 6c-8.3-3.3-20.1-5.1-35.1-5.1-15.6 0-27.4 1.7-35.4 5.2 7.6 3 19.3 4.5 35.2 4.5 7.6 0 14.5-.5 20.8-1.3 6.4-.7 11.1-1.8 14.5-3.3zm-37.6-35c0-1.7-.1-3.3-.2-5s-.5-3.5-1-5.5c-1.7-5.8-4.4-10.4-8-14-1.8-1.8-4.7-3.5-8.6-5.1-4.4-1.7-8.6-2.6-12.5-2.6-6.8 0-11.9 2.4-15.1 7.3-1.8 2.6-2.8 5.8-2.8 9.7 0 4.2 1 7.7 3.1 10.4 1.3 1.6 2.9 3.2 4.8 4.8s3.8 3 5.4 4.3c7.7-2.7 19.3-4.1 34.9-4.3zm2.3-12.1c.3-1.2.6-2 .7-2.5.5-1.7.9-3.1 1.5-4.3.3-.7.6-1.6 1.1-2.6s1-2.1 1.6-3.3c.4-.7.7-1.7 1.1-2.7.4-1.1.8-2.1 1.2-3.1.4-.8.6-1.7.6-2.8 0-2.1-.7-3.9-2.3-5.4-1.5-1.5-3.3-2.2-5.5-2.2-5.2 0-7.7 2.6-7.7 7.7 0 1 .2 1.9.6 2.8.9 2.8 1.7 4.8 2.2 5.8.6 1.2 1.1 2.4 1.6 3.3.5 1 .9 1.8 1.2 2.6.6 1.5 1 2.9 1.5 4.3 0 .2.2 1 .6 2.4z"/></g></svg>