<?xml version="1.0" encoding="utf-8"?>
<!-- Generator: Adobe Illustrator 27.3.1, SVG Export Plug-In . SVG Version: 6.00 Build 0)  -->
<svg version="1.1"
	 id="Layer_1" text-rendering="geometricPrecision" shape-rendering="geometricPrecision" image-rendering="optimizeQuality"
	 xmlns="http://www.w3.org/2000/svg" xmlns:xlink="http://www.w3.org/1999/xlink" x="0px" y="0px" viewBox="0 0 141.7 141.7"
	 style="enable-background:new 0 0 141.7 141.7;" xml:space="preserve">
<style type="text/css">
	.st0{fill-rule:evenodd;clip-rule:evenodd;fill:#889599;}
	.st1{fill-rule:evenodd;clip-rule:evenodd;}
</style>
<path class="st0" d="M73,37h-4.6v-8.5H63c-1.5,0-2.2-0.7-2.2-2.1v-0.1c0-1.4,0.7-2.1,2.2-2.1h5.4v-5.5c0-1.6,0.7-2.3,2.3-2.3
	c1.5,0,2.3,0.7,2.3,2.3v5.5h5.5c1.4,0,2.1,0.7,2.1,2.1v0.1c0,1.5-0.7,2.1-2.1,2.1L73,28.7V37z M34.5,104.1L32.3,92
	c0,0-0.1-0.1-0.2-0.3c-0.2-0.3-0.8-0.7-1.8-1.2c-1-0.6-2.2-1.4-3.5-2.6c-1.5-1.3-3-2.6-4.4-3.9c-1.1-1-2-2-2.9-3.2
	c-2.7-3.6-4.1-8-4.4-13.2c-0.5-5,1.6-9.9,6-14.8c4.5-4.9,10.6-7.2,18.2-6.9c2.9,0.2,6.2,0.8,10,2.1c1.3,0.6,2.6,1,3.9,1.5l3.9,1.6
	c0.6,0.4,1.3,0.7,1.8,1c-0.2-0.9-0.4-1.8-0.4-2.8c0-3.3,1.2-6.3,3.6-8.6c2.4-2.4,5.2-3.6,8.6-3.6c3.3,0,6.3,1.2,8.6,3.6
	c2.4,2.4,3.6,5.2,3.6,8.6c0,0.6-0.1,1.6-0.3,2.8c0.6-0.4,1.2-0.7,1.7-1c2-0.8,4.6-1.8,7.8-3c3.7-1.3,7.1-1.9,10-2.1
	c7.6-0.4,13.7,1.9,18.1,6.9c4.3,5,6.3,9.8,6.1,14.8c-0.4,5.2-1.8,9.5-4.4,13.2c-0.8,1.2-1.8,2.2-2.9,3.3c-1.4,1.3-2.9,2.6-4.3,3.9
	c-1.4,1.2-2.7,2.1-3.6,2.6c-1,0.5-1.6,0.9-1.7,1.2c0,0.1-0.1,0.2-0.1,0.2l-0.1,0.1l-2.1,12.1l4.3,16c-2.2,1.9-7,3.5-14.4,4.8
	c-7.5,1.3-16.2,1.8-26,1.8c-10,0-18.8-0.6-26.4-1.9c-7.6-1.3-12.3-2.9-14.4-5L34.5,104.1z"/>
<path class="st1" d="M72.9,82.7c7.5,0.1,14.2,0.6,20.3,1.3c6.2,0.8,11,1.8,14.5,3c1.8-1.4,3.6-2.9,5.3-4.3c1.7-1.4,3.4-3,4.9-4.8
	c2-2.7,3.1-6.1,3.1-10.4c0-3.9-0.9-7.1-2.8-9.7c-3.3-4.9-8.4-7.3-15.1-7.3c-4,0-8.2,0.8-12.5,2.5c-3.8,1.6-6.6,3.2-8.6,5.1
	c-3.6,3.6-6.3,8.3-8,14c-0.6,2-0.9,3.9-1.1,5.5C72.9,79.3,72.9,80.9,72.9,82.7L72.9,82.7z M38.4,100.2C46.6,98,57.5,97,71,97
	c13.2,0,24,1,32.1,2.9l1.7-9.5c-8.6-2.3-20-3.4-34-3.4s-25.4,1.2-33.9,3.5L38.4,100.2z M104.4,111.7l-1.9-7.5
	c-8.6-1.9-19.1-2.9-31.7-2.9c-12.5,0-23.1,0.9-31.6,2.9l-2,7.5c8.3-2.4,19.5-3.6,33.8-3.6C85,108.1,96.2,109.3,104.4,111.7
	L104.4,111.7z M106,117.7c-8.3-3.3-20.1-5.1-35.1-5.1c-15.6,0-27.4,1.7-35.4,5.2c7.6,3,19.3,4.5,35.2,4.5c7.6,0,14.5-0.5,20.8-1.3
	C97.9,120.3,102.6,119.2,106,117.7z M68.4,82.7c0-1.7-0.1-3.3-0.2-5c-0.1-1.7-0.5-3.5-1-5.5c-1.7-5.8-4.4-10.4-8-14
	c-1.8-1.8-4.7-3.5-8.6-5.1c-4.4-1.7-8.6-2.6-12.5-2.6c-6.8,0-11.9,2.4-15.1,7.3c-1.8,2.6-2.8,5.8-2.8,9.7c0,4.2,1,7.7,3.1,10.4
	c1.3,1.6,2.9,3.2,4.8,4.8s3.8,3,5.4,4.3C41.2,84.3,52.8,82.9,68.4,82.7z M70.7,70.6c0.3-1.2,0.6-2,0.7-2.5c0.5-1.7,0.9-3.1,1.5-4.3
	c0.3-0.7,0.6-1.6,1.1-2.6c0.5-1,1-2.1,1.6-3.3c0.4-0.7,0.7-1.7,1.1-2.7c0.4-1.1,0.8-2.1,1.2-3.1c0.4-0.8,0.6-1.7,0.6-2.8
	c0-2.1-0.7-3.9-2.3-5.4c-1.5-1.5-3.3-2.2-5.5-2.2c-5.2,0-7.7,2.6-7.7,7.7c0,1,0.2,1.9,0.6,2.8c0.9,2.8,1.7,4.8,2.2,5.8
	c0.6,1.2,1.1,2.4,1.6,3.3c0.5,1,0.9,1.8,1.2,2.6c0.6,1.5,1,2.9,1.5,4.3C70.1,68.4,70.3,69.2,70.7,70.6L70.7,70.6z"/>
</svg>
