<svg enable-background="new 0 0 141.7 141.7" image-rendering="optimizeQuality" shape-rendering="geometricPrecision" text-rendering="geometricPrecision" viewBox="0 0 141.7 141.7" xmlns="http://www.w3.org/2000/svg"><g clip-rule="evenodd" fill-rule="evenodd"><path d="m73.9 30.1c6.8.5 13.1 2.2 18.9 5.2s10.7 7 14.7 11.8c2.9 3.3 5.5 7.5 8 12.1 2.6 4.8 4.6 9.8 6.1 15.1 1.7 6.3 2.9 12.9 3.3 19.4.5 6.8.6 13.1.6 18.9v14.1h-79.5c-.4 0-.6-1.1-.6-3.1 0-2.1.2-3.9.5-5.2.2-1 .6-2.5 1.2-4.4s1.7-4.2 3.2-6.9c.6-1.4 2.3-3.4 4.9-6.1s5.5-5.7 8.9-9.2c1.9-2 3.4-4.5 4.5-7.5s1.6-5.7 1.4-8.2c-1.6 1.3-3.3 2.4-5.2 3.2-9.1 3.3-15.7 8-19.9 14.3-.3.4-1.3 2.1-2.9 5.2-.8 1.7-1.7 2.8-2.2 3.3-.8.8-2 1.3-3.6 1.4-2.4.1-4.3-1-5.6-3.5-1.8.6-3.4.7-4.9.6-2.4-.9-4.1-1.8-5.2-2.9-2.2-2.2-3.6-4.4-4.3-6.6-.6-2.3-1-4.7-1-7.1 0-3.6 2.2-8.4 6.7-14.4 5.2-6.8 8.1-12.1 8.4-15.6 0-1.6.2-3.3.5-5.2.3-1.4.8-2.7 1.7-3.9.6-.8.9-1.5 1.1-1.7.2-.4.6-.8 1.1-1.5.4-.6.7-.9 1-1.2s.6-.6 1-1.1c.5-.6 1.1-1.2 1.8-1.9-2.3-6.3-3.2-12.9-2.8-19.4 8.7 2.9 15.9 7.8 21.7 14.4 1.5-4.9 4.2-8.8 8.4-11.9 3.3 2.5 6.1 5.6 8.1 9.5z" fill="#889599"/><path d="m117.7 122.2s0-1.2.1-3.5c.1-2.4.2-4.9.2-7.6 0-5.4 0-10.9 0-16.7-.1-5.8-.8-11.6-2.3-17.2-1.5-5.5-3.1-10.2-4.9-14.2-1.7-3.9-3.7-7.3-5.8-10.1-3.1-4.7-7.4-8.6-12.7-11.9-5.3-3.2-10.9-5.3-16.7-6.3.4 2.1.6 4.2.6 6.3-.1 1.6-.8 2.3-2.2 2.3-1.6 0-2.3-.7-2.1-2.3.1-5.7-1.9-10.6-6.1-14.6-3.2 3.4-5.1 7.5-5.3 12.1-.1 1.6-.8 2.2-2.3 2-1.4 0-2-.8-2-2.4 0 0 0-.2.1-.6-1.7.6-3.6 1.4-5.5 2.4-1.2.8-2.2.6-3-.6-.7-1.3-.5-2.3 1-3 1.8-.9 3.2-1.7 4.2-2.1-3.7-3.8-7.9-6.9-12.7-9.2.5 6 2.2 11.8 5 17 .7 1.1.6 2.1-.6 2.9-1.2.9-2.2.8-3-.5-.5-.7-.9-1.6-1.3-2.3-.9.9-1.6 1.6-1.8 2-.3.4-.8 1.3-1.6 2.6-.7 1.4-1.3 2.5-1.7 3.3-.4 1.1-.6 1.9-.5 2.7.1.6.1 1.4.2 2.2-.4 2.6-1.3 5-2.7 7.2-1.7 2.8-3.4 5.5-5.2 8.2-1.6 2.3-3 4.7-4.7 7-1.1 1.6-1.9 3.5-2.5 6-.4 1.5-.4 3.2 0 5.3s1.2 3.8 2.5 4.9c2 2 3.9 2.9 5.8 2.8.6 0 1.4-.3 2.4-.7 1-.5 1.7-1.4 2.4-2.8 1.1-2.5 2-3.7 2.8-3.7 1.1 0 1.7.6 1.7 1.8 0 .3-.4 1.4-1 3.2-.4.8-.9 1.7-1.6 2.8-.8 1.1-1.2 1.6-1.1 1.4.6 2.5 1.8 2.9 3.4 1.3.5-.5 1-1.4 1.7-2.7s1.6-3 2.9-5.2c1.6-2.6 3.1-4.6 4.9-6.3 1.7-1.6 3.2-2.9 4.6-3.9.7-.6 1.7-1.2 2.9-1.9 1.1-.7 2.7-1.5 4.5-2.3 1.5-.6 3.2-1.4 5-2.2 1.8-.9 3.5-2 4.9-3.4 2-1.9 3.5-4.3 4.6-7.2.6-1.6.7-3.6.6-5.9-.4-1.5.4-2.2 2.2-2.2 1.4 0 2.2.7 2.3 2.1 0 4.9-1.4 9.3-4.1 13.3.9 2.8 1.1 5.8.7 9-.4 2.7-1.3 5.4-2.8 8.5-1.5 2.9-4.4 6.3-8.7 9.9-8.9 7.5-13.2 15.1-12.7 22.9h31.7zm-87.7-39.3c-1.3.7-2 1.8-2.3 3.1 0 1.4-.6 2.2-2 2.3-1.6.2-2.3-.5-2.3-1.9.2-2.9 1.5-5.1 3.9-6.8 1.1-.9 2.2-.8 3.1.3s.8 2.1-.4 3zm19.2-30.9c.6.8.7 1.7.6 2.8-.5 2.8-1.9 3.9-4.6 3.5-.6-.1-1.3-.4-1.8-.7-.2.2-.5.6-.7 1.4-.5 1.4-1.4 1.8-2.8 1.5-1.3-.6-1.8-1.5-1.6-2.9 1.9-5 5.4-8.4 10.5-10.2 1.5-.5 2.5 0 2.9 1.3.6 1.4.1 2.3-1.2 2.9-.2.1-.5.3-.7.4-.1-.2-.3-.1-.6 0z"/></g></svg>