<?xml version="1.0" encoding="utf-8"?>
<!-- Generator: Adobe Illustrator 27.3.1, SVG Export Plug-In . SVG Version: 6.00 Build 0)  -->
<svg version="1.1"
	 id="Layer_1" text-rendering="geometricPrecision" shape-rendering="geometricPrecision" image-rendering="optimizeQuality"
	 xmlns="http://www.w3.org/2000/svg" xmlns:xlink="http://www.w3.org/1999/xlink" x="0px" y="0px" viewBox="0 0 141.7 141.7"
	 style="enable-background:new 0 0 141.7 141.7;" xml:space="preserve">
<style type="text/css">
	.st0{fill-rule:evenodd;clip-rule:evenodd;fill:#889599;}
	.st1{fill-rule:evenodd;clip-rule:evenodd;}
</style>
<path class="st0" d="M73.9,30.1c6.8,0.5,13.1,2.2,18.9,5.2c5.8,3,10.7,7,14.7,11.8c2.9,3.3,5.5,7.5,8,12.1c2.6,4.8,4.6,9.8,6.1,15.1
	c1.7,6.3,2.9,12.9,3.3,19.4c0.5,6.8,0.6,13.1,0.6,18.9v14.1H46c-0.4,0-0.6-1.1-0.6-3.1c0-2.1,0.2-3.9,0.5-5.2c0.2-1,0.6-2.5,1.2-4.4
	c0.6-1.9,1.7-4.2,3.2-6.9c0.6-1.4,2.3-3.4,4.9-6.1c2.6-2.7,5.5-5.7,8.9-9.2c1.9-2,3.4-4.5,4.5-7.5c1.1-3,1.6-5.7,1.4-8.2
	c-1.6,1.3-3.3,2.4-5.2,3.2c-9.1,3.3-15.7,8-19.9,14.3c-0.3,0.4-1.3,2.1-2.9,5.2c-0.8,1.7-1.7,2.8-2.2,3.3c-0.8,0.8-2,1.3-3.6,1.4
	c-2.4,0.1-4.3-1-5.6-3.5c-1.8,0.6-3.4,0.7-4.9,0.6c-2.4-0.9-4.1-1.8-5.2-2.9c-2.2-2.2-3.6-4.4-4.3-6.6c-0.6-2.3-1-4.7-1-7.1
	c0-3.6,2.2-8.4,6.7-14.4c5.2-6.8,8.1-12.1,8.4-15.6c0-1.6,0.2-3.3,0.5-5.2c0.3-1.4,0.8-2.7,1.7-3.9c0.6-0.8,0.9-1.5,1.1-1.7
	c0.2-0.4,0.6-0.8,1.1-1.5c0.4-0.6,0.7-0.9,1-1.2c0.3-0.3,0.6-0.6,1-1.1c0.5-0.6,1.1-1.2,1.8-1.9c-2.3-6.3-3.2-12.9-2.8-19.4
	c8.7,2.9,15.9,7.8,21.7,14.4c1.5-4.9,4.2-8.8,8.4-11.9C69.1,23.1,71.9,26.2,73.9,30.1z"/>
<path class="st1" d="M117.7,122.2c0,0,0-1.2,0.1-3.5c0.1-2.4,0.2-4.9,0.2-7.6c0-5.4,0-10.9,0-16.7c-0.1-5.8-0.8-11.6-2.3-17.2
	c-1.5-5.5-3.1-10.2-4.9-14.2c-1.7-3.9-3.7-7.3-5.8-10.1c-3.1-4.7-7.4-8.6-12.7-11.9c-5.3-3.2-10.9-5.3-16.7-6.3
	c0.4,2.1,0.6,4.2,0.6,6.3c-0.1,1.6-0.8,2.3-2.2,2.3c-1.6,0-2.3-0.7-2.1-2.3c0.1-5.7-1.9-10.6-6.1-14.6c-3.2,3.4-5.1,7.5-5.3,12.1
	c-0.1,1.6-0.8,2.2-2.3,2c-1.4,0-2-0.8-2-2.4c0,0,0-0.2,0.1-0.6c-1.7,0.6-3.6,1.4-5.5,2.4c-1.2,0.8-2.2,0.6-3-0.6
	c-0.7-1.3-0.5-2.3,1-3c1.8-0.9,3.2-1.7,4.2-2.1c-3.7-3.8-7.9-6.9-12.7-9.2c0.5,6,2.2,11.8,5,17c0.7,1.1,0.6,2.1-0.6,2.9
	c-1.2,0.9-2.2,0.8-3-0.5c-0.5-0.7-0.9-1.6-1.3-2.3c-0.9,0.9-1.6,1.6-1.8,2c-0.3,0.4-0.8,1.3-1.6,2.6c-0.7,1.4-1.3,2.5-1.7,3.3
	c-0.4,1.1-0.6,1.9-0.5,2.7c0.1,0.6,0.1,1.4,0.2,2.2c-0.4,2.6-1.3,5-2.7,7.2c-1.7,2.8-3.4,5.5-5.2,8.2c-1.6,2.3-3,4.7-4.7,7
	c-1.1,1.6-1.9,3.5-2.5,6c-0.4,1.5-0.4,3.2,0,5.3c0.4,2.1,1.2,3.8,2.5,4.9c2,2,3.9,2.9,5.8,2.8c0.6,0,1.4-0.3,2.4-0.7
	c1-0.5,1.7-1.4,2.4-2.8c1.1-2.5,2-3.7,2.8-3.7c1.1,0,1.7,0.6,1.7,1.8c0,0.3-0.4,1.4-1,3.2c-0.4,0.8-0.9,1.7-1.6,2.8
	c-0.8,1.1-1.2,1.6-1.1,1.4c0.6,2.5,1.8,2.9,3.4,1.3c0.5-0.5,1-1.4,1.7-2.7s1.6-3,2.9-5.2c1.6-2.6,3.1-4.6,4.9-6.3
	c1.7-1.6,3.2-2.9,4.6-3.9c0.7-0.6,1.7-1.2,2.9-1.9c1.1-0.7,2.7-1.5,4.5-2.3c1.5-0.6,3.2-1.4,5-2.2c1.8-0.9,3.5-2,4.9-3.4
	c2-1.9,3.5-4.3,4.6-7.2c0.6-1.6,0.7-3.6,0.6-5.9c-0.4-1.5,0.4-2.2,2.2-2.2c1.4,0,2.2,0.7,2.3,2.1c0,4.9-1.4,9.3-4.1,13.3
	c0.9,2.8,1.1,5.8,0.7,9c-0.4,2.7-1.3,5.4-2.8,8.5c-1.5,2.9-4.4,6.3-8.7,9.9c-8.9,7.5-13.2,15.1-12.7,22.9h31.7L117.7,122.2z
	 M30,82.9c-1.3,0.7-2,1.8-2.3,3.1c0,1.4-0.6,2.2-2,2.3c-1.6,0.2-2.3-0.5-2.3-1.9c0.2-2.9,1.5-5.1,3.9-6.8c1.1-0.9,2.2-0.8,3.1,0.3
	C31.3,81,31.2,82,30,82.9L30,82.9z M49.2,52c0.6,0.8,0.7,1.7,0.6,2.8c-0.5,2.8-1.9,3.9-4.6,3.5c-0.6-0.1-1.3-0.4-1.8-0.7
	c-0.2,0.2-0.5,0.6-0.7,1.4c-0.5,1.4-1.4,1.8-2.8,1.5c-1.3-0.6-1.8-1.5-1.6-2.9c1.9-5,5.4-8.4,10.5-10.2c1.5-0.5,2.5,0,2.9,1.3
	c0.6,1.4,0.1,2.3-1.2,2.9c-0.2,0.1-0.5,0.3-0.7,0.4C49.7,51.8,49.5,51.9,49.2,52z"/>
</svg>
