<?xml version="1.0" encoding="utf-8"?>
<!-- Generator: Adobe Illustrator 27.3.1, SVG Export Plug-In . SVG Version: 6.00 Build 0)  -->
<svg version="1.1"
	 id="Layer_1" text-rendering="geometricPrecision" shape-rendering="geometricPrecision" image-rendering="optimizeQuality"
	 xmlns="http://www.w3.org/2000/svg" xmlns:xlink="http://www.w3.org/1999/xlink" x="0px" y="0px" viewBox="0 0 141.7 141.7"
	 style="enable-background:new 0 0 141.7 141.7;" xml:space="preserve">
<style type="text/css">
	.st0{fill-rule:evenodd;clip-rule:evenodd;fill:#889599;}
	.st1{fill-rule:evenodd;clip-rule:evenodd;}
</style>
<path class="st0" d="M70.9,126.8h-35c-1.7-4.1-2.6-8.6-2.6-13.2c0-7.7,2.2-14.7,6.8-20.9c4.5-6.2,10.4-10.6,17.5-13.2
	c-3-1.4-5.6-3.5-7.5-6.3c-1.9-2.8-2.9-6-2.9-9.5c0-4.4,1.5-8.2,4.5-11.4c3-3.2,6.7-5.2,11.1-5.6c-3.5-2.6-5.2-6-5.2-10.1
	c0-3.5,1.3-6.5,3.9-9.1c2.6-2.5,5.7-3.8,9.4-3.8c3.6,0,6.7,1.3,9.3,3.8c2.6,2.5,3.9,5.5,3.9,9.1c0,4.2-1.7,7.5-5.2,10.1
	c4.4,0.5,8.1,2.4,11.1,5.6c3,3.2,4.5,7.1,4.5,11.4c0,3.5-1,6.7-2.9,9.5c-1.8,2.8-4.4,4.9-7.5,6.3c7.1,2.7,13,7.1,17.5,13.2
	c4.5,6.2,6.8,13.2,6.8,20.9c0,4.5-0.8,8.9-2.5,13.2L70.9,126.8z"/>
<path class="st1" d="M70.9,122.5h31.7c0.9-2.9,1.4-5.9,1.4-8.8c0-6.5-1.8-12.5-5.6-17.8c-3.8-5.3-8.6-9.3-14.4-11.8
	c-4.1-1.7-4.3-1.7-4.3-4.5c0-2.2,1.5-3.9,4.3-4.9c4-2.8,6-6.3,6-10.9c0-3.2-1.1-6.1-3.3-8.5c-2.2-2.4-5-3.9-8.2-4.2
	c-2.6-0.2-3.9-1.7-3.9-4.2c0-1.2,0.5-2.3,1.4-3.3c2.3-1.7,3.5-4,3.5-6.9c0-2.3-0.9-4.3-2.6-6.1c-1.7-1.7-3.8-2.5-6.2-2.5
	c-2.5,0-4.5,0.8-6.3,2.5c-1.7,1.6-2.6,3.8-2.6,6.1c0,2.9,1.1,5.2,3.5,6.9c0.9,0.9,1.4,2,1.4,3.3c0,2.7-1.3,4-3.9,4.2
	c-3.1,0.4-6.1,1.8-8.2,4.2c-2.2,2.5-3.3,5.2-3.3,8.5c0,4.5,2,8.1,6,10.9c2.9,1.1,4.3,2.8,4.3,4.9c0,2.9-0.2,2.9-4.3,4.5
	c-5.9,2.5-10.7,6.4-14.4,11.8c-3.7,5.3-5.5,11.2-5.5,17.8c0,3.1,0.5,6.1,1.4,8.8H70.9z"/>
</svg>
