<svg enable-background="new 0 0 141.7 141.7" image-rendering="optimizeQuality" shape-rendering="geometricPrecision" text-rendering="geometricPrecision" viewBox="0 0 141.7 141.7" xmlns="http://www.w3.org/2000/svg"><g clip-rule="evenodd" fill-rule="evenodd"><path d="m70.9 126.8h-35c-1.7-4.1-2.6-8.6-2.6-13.2 0-7.7 2.2-14.7 6.8-20.9 4.5-6.2 10.4-10.6 17.5-13.2-3-1.4-5.6-3.5-7.5-6.3s-2.9-6-2.9-9.5c0-4.4 1.5-8.2 4.5-11.4s6.7-5.2 11.1-5.6c-3.5-2.6-5.2-6-5.2-10.1 0-3.5 1.3-6.5 3.9-9.1 2.6-2.5 5.7-3.8 9.4-3.8 3.6 0 6.7 1.3 9.3 3.8s3.9 5.5 3.9 9.1c0 4.2-1.7 7.5-5.2 10.1 4.4.5 8.1 2.4 11.1 5.6s4.5 7.1 4.5 11.4c0 3.5-1 6.7-2.9 9.5-1.8 2.8-4.4 4.9-7.5 6.3 7.1 2.7 13 7.1 17.5 13.2 4.5 6.2 6.8 13.2 6.8 20.9 0 4.5-.8 8.9-2.5 13.2z" fill="#889599"/><path d="m70.9 122.5h31.7c.9-2.9 1.4-5.9 1.4-8.8 0-6.5-1.8-12.5-5.6-17.8s-8.6-9.3-14.4-11.8c-4.1-1.7-4.3-1.7-4.3-4.5 0-2.2 1.5-3.9 4.3-4.9 4-2.8 6-6.3 6-10.9 0-3.2-1.1-6.1-3.3-8.5s-5-3.9-8.2-4.2c-2.6-.2-3.9-1.7-3.9-4.2 0-1.2.5-2.3 1.4-3.3 2.3-1.7 3.5-4 3.5-6.9 0-2.3-.9-4.3-2.6-6.1-1.7-1.7-3.8-2.5-6.2-2.5-2.5 0-4.5.8-6.3 2.5-1.7 1.6-2.6 3.8-2.6 6.1 0 2.9 1.1 5.2 3.5 6.9.9.9 1.4 2 1.4 3.3 0 2.7-1.3 4-3.9 4.2-3.1.4-6.1 1.8-8.2 4.2-2.2 2.5-3.3 5.2-3.3 8.5 0 4.5 2 8.1 6 10.9 2.9 1.1 4.3 2.8 4.3 4.9 0 2.9-.2 2.9-4.3 4.5-5.9 2.5-10.7 6.4-14.4 11.8-3.7 5.3-5.5 11.2-5.5 17.8 0 3.1.5 6.1 1.4 8.8z"/></g></svg>