<svg enable-background="new 0 0 141.7 141.7" image-rendering="optimizeQuality" shape-rendering="geometricPrecision" text-rendering="geometricPrecision" viewBox="0 0 141.7 141.7" xmlns="http://www.w3.org/2000/svg"><g clip-rule="evenodd" fill-rule="evenodd"><path d="m79.7 29.7h11v-8.8h17.8v24.3l-14.4 11v30.9l11 11v13.2h9.9v15.5h-88.2v-15.5h9.9v-13.2l11-11v-30.9l-14.4-11v-24.4h17.7v8.8h11v-8.8h17.7z" fill="#889599"/><path d="m92 51.8 8.2-6.6h-58.6l8.3 6.6zm18.7 63.9h-79.5v6.6h79.6v-6.6zm-10-13.2h-59.5v8.8h59.5zm-11-46.3h-37.6v30.9h37.5v-30.9zm14.3-15.5v-15.4h-8.8v8.8h-20v-8.8h-8.7v8.8h-19.9v-8.8h-8.8v15.5h66.2zm-5 57.4-6.6-6.6h-43l-6.8 6.6z"/></g></svg>