<?xml version="1.0" encoding="utf-8"?>
<!-- Generator: Adobe Illustrator 27.3.1, SVG Export Plug-In . SVG Version: 6.00 Build 0)  -->
<svg version="1.1"
	 id="Layer_1" text-rendering="geometricPrecision" shape-rendering="geometricPrecision" image-rendering="optimizeQuality"
	 xmlns="http://www.w3.org/2000/svg" xmlns:xlink="http://www.w3.org/1999/xlink" x="0px" y="0px" viewBox="0 0 141.7 141.7"
	 style="enable-background:new 0 0 141.7 141.7;" xml:space="preserve">
<style type="text/css">
	.st0{fill-rule:evenodd;clip-rule:evenodd;fill:#DAE2E5;}
</style>
<path class="st0" d="M121.8,114.9c-0.6-0.4-1.3-0.7-2.1-1.1c-2.6-1.2-5.2-1.8-8-2.1c-1.2-0.1-2.5-0.1-3.7-0.1c-1.2,0-2.4,0-3.5-0.1
	c-2.4,0.4-4.7,0.7-7.1,1.1c-2.3,0.4-4.7,0.6-7,1c-2.6,0-4.3-0.3-5.2-0.7c-0.6-0.3-1.3-0.7-2.3-1.5c-1-0.6-2-1.7-3-3
	c2.2-0.3,4.5-0.6,6.9-1.3s4.5-1.3,6.4-1.9l-6.7-16.7c3.3-1.9,5.6-3.5,7-4.7c1.3-1.2,2.4-2.6,3.3-4.1c1.1-2,1.7-3.9,2.1-5.8
	c0.3-1.8,0.5-3.5,0.5-5c-0.1-2.6-0.7-5.4-1.8-8.6c-1.1-3.1-3.3-5.9-6.6-8.4c-2.8-2-5.4-4.1-8.1-6.4c-2.8-2.4-5.2-5-7.6-7.7
	c3.2-1.7,4.8-4.3,4.8-7.8c0-2.4-0.8-4.5-2.6-6.3c-1.7-1.7-3.8-2.6-6.2-2.6c-2.5,0-4.5,0.8-6.3,2.6c-1.7,1.7-2.6,3.8-2.6,6.3
	c0,3.6,1.6,6.2,4.8,7.8c-2.4,2.8-5,5.3-7.7,7.7c-2.6,2.2-5.2,4.3-8,6.4c-3.3,2.5-5.5,5.2-6.7,8.4c-1.2,3.1-1.7,6-1.8,8.6
	c0,1.7,0.1,3.3,0.5,5c0.3,1.8,1,3.8,2.2,5.8c0.8,1.6,1.8,2.9,3.1,4.1c1.4,1.2,3.7,2.8,7.1,4.7l-7,16.6c2,0.7,4.1,1.4,6.3,1.9
	c2.4,0.6,4.7,1.1,7,1.3c-1,1.4-2.1,2.4-3.1,3c-1,0.6-1.7,1.2-2.3,1.5c-0.9,0.6-2.7,0.7-5.2,0.7c-2.4-0.4-4.7-0.6-7.1-1
	c-2.3-0.3-4.7-0.6-7-1.1c-1.2,0.1-2.4,0.2-3.7,0.1c-1.2,0-2.3,0-3.6,0.1c-2.8,0.3-5.5,1-8,2.1c-0.8,0.4-1.6,0.7-2.1,1.1
	c-0.6,0.4-1.3,0.9-2,1.8l6.3,10.3c0.7-0.7,1.8-1.4,3.3-1.7c1.4-0.5,2.6-0.6,3.4-0.6c0.6,0,1.1,0,1.7-0.1c0.6-0.1,1.3-0.1,2,0
	l18.2,2.5c2.6,0.4,5,0.2,7.1-0.6c2.1-0.7,4-1.7,5.5-2.8c1.5-1,2.6-2,3.4-2.9s1.7-2.7,2.2-5.1c0.6,2.5,1.3,4.1,2.1,5
	c0.8,0.8,2,1.8,3.4,3s3.2,2.2,5.5,2.9c2.2,0.7,4.6,0.9,7.2,0.5l18.1-2.5c0.6-0.1,1.3-0.1,1.9,0c0.6,0.1,1.1,0.1,1.7,0.1
	c0.8,0,2,0.2,3.4,0.6c1.4,0.4,2.5,1,3.3,1.7l6.3-10.3C123.1,115.9,122.4,115.2,121.8,114.9z M62.8,62.8h5.7V57
	c0-1.6,0.8-2.4,2.4-2.4s2.4,0.8,2.4,2.4v5.8h5.8c1.5,0,2.3,0.7,2.3,2.3c0,1.6-0.7,2.3-2.3,2.3h-5.8v5.5c0,1.6-0.8,2.4-2.4,2.4
	s-2.4-0.8-2.4-2.4v-5.5l-5.7-0.1c-1.6,0-2.3-0.7-2.3-2.3C60.5,63.5,61.2,62.8,62.8,62.8z M61,85.4l0.1-1.7c3.2-0.5,6.5-0.7,9.8-0.7
	c3.3,0,6.6,0.3,9.9,0.7v1.7l1.8,4.5c-3.7-0.6-7.6-1-11.8-1c-3.9,0-7.8,0.3-11.6,1L61,85.4z M67,114.4h-5.8c1.8-1.4,3.6-3.4,5.2-6.2
	h2.1C68.5,110.3,68,112.3,67,114.4z M70.9,101.3c-6.1,0-11.7,0.6-17.1,2l2.8-6.5c4.3-0.9,9.1-1.4,14.4-1.4c5.2,0,10.1,0.5,14.4,1.4
	l2.8,6.6C82.6,101.9,76.8,101.3,70.9,101.3z M74.6,114.4c-1-2-1.5-4-1.5-6.2h2c1.7,2.8,3.5,4.9,5.2,6.2H74.6z"/>
</svg>
