<svg enable-background="new 0 0 141.7 141.7" image-rendering="optimizeQuality" shape-rendering="geometricPrecision" text-rendering="geometricPrecision" viewBox="0 0 141.7 141.7" xmlns="http://www.w3.org/2000/svg"><path clip-rule="evenodd" d="m121.8 114.9c-.6-.4-1.3-.7-2.1-1.1-2.6-1.2-5.2-1.8-8-2.1-1.2-.1-2.5-.1-3.7-.1s-2.4 0-3.5-.1c-2.4.4-4.7.7-7.1 1.1-2.3.4-4.7.6-7 1-2.6 0-4.3-.3-5.2-.7-.6-.3-1.3-.7-2.3-1.5-1-.6-2-1.7-3-3 2.2-.3 4.5-.6 6.9-1.3s4.5-1.3 6.4-1.9l-6.7-16.7c3.3-1.9 5.6-3.5 7-4.7 1.3-1.2 2.4-2.6 3.3-4.1 1.1-2 1.7-3.9 2.1-5.8.3-1.8.5-3.5.5-5-.1-2.6-.7-5.4-1.8-8.6-1.1-3.1-3.3-5.9-6.6-8.4-2.8-2-5.4-4.1-8.1-6.4-2.8-2.4-5.2-5-7.6-7.7 3.2-1.7 4.8-4.3 4.8-7.8 0-2.4-.8-4.5-2.6-6.3-1.7-1.7-3.8-2.6-6.2-2.6-2.5 0-4.5.8-6.3 2.6-1.7 1.7-2.6 3.8-2.6 6.3 0 3.6 1.6 6.2 4.8 7.8-2.4 2.8-5 5.3-7.7 7.7-2.6 2.2-5.2 4.3-8 6.4-3.3 2.5-5.5 5.2-6.7 8.4-1.2 3.1-1.7 6-1.8 8.6 0 1.7.1 3.3.5 5 .3 1.8 1 3.8 2.2 5.8.8 1.6 1.8 2.9 3.1 4.1 1.4 1.2 3.7 2.8 7.1 4.7l-7 16.6c2 .7 4.1 1.4 6.3 1.9 2.4.6 4.7 1.1 7 1.3-1 1.4-2.1 2.4-3.1 3s-1.7 1.2-2.3 1.5c-.9.6-2.7.7-5.2.7-2.4-.4-4.7-.6-7.1-1-2.3-.3-4.7-.6-7-1.1-1.2.1-2.4.2-3.7.1-1.2 0-2.3 0-3.6.1-2.8.3-5.5 1-8 2.1-.8.4-1.6.7-2.1 1.1-.6.4-1.3.9-2 1.8l6.3 10.3c.7-.7 1.8-1.4 3.3-1.7 1.4-.5 2.6-.6 3.4-.6.6 0 1.1 0 1.7-.1s1.3-.1 2 0l18.2 2.5c2.6.4 5 .2 7.1-.6 2.1-.7 4-1.7 5.5-2.8 1.5-1 2.6-2 3.4-2.9s1.7-2.7 2.2-5.1c.6 2.5 1.3 4.1 2.1 5 .8.8 2 1.8 3.4 3s3.2 2.2 5.5 2.9c2.2.7 4.6.9 7.2.5l18.1-2.5c.6-.1 1.3-.1 1.9 0s1.1.1 1.7.1c.8 0 2 .2 3.4.6s2.5 1 3.3 1.7l6.3-10.3c-1-.7-1.7-1.4-2.3-1.7zm-59-52.1h5.7v-5.8c0-1.6.8-2.4 2.4-2.4s2.4.8 2.4 2.4v5.8h5.8c1.5 0 2.3.7 2.3 2.3s-.7 2.3-2.3 2.3h-5.8v5.5c0 1.6-.8 2.4-2.4 2.4s-2.4-.8-2.4-2.4v-5.5l-5.7-.1c-1.6 0-2.3-.7-2.3-2.3 0-1.5.7-2.2 2.3-2.2zm-1.8 22.6.1-1.7c3.2-.5 6.5-.7 9.8-.7s6.6.3 9.9.7v1.7l1.8 4.5c-3.7-.6-7.6-1-11.8-1-3.9 0-7.8.3-11.6 1zm6 29h-5.8c1.8-1.4 3.6-3.4 5.2-6.2h2.1c0 2.1-.5 4.1-1.5 6.2zm3.9-13.1c-6.1 0-11.7.6-17.1 2l2.8-6.5c4.3-.9 9.1-1.4 14.4-1.4 5.2 0 10.1.5 14.4 1.4l2.8 6.6c-5.6-1.5-11.4-2.1-17.3-2.1zm3.7 13.1c-1-2-1.5-4-1.5-6.2h2c1.7 2.8 3.5 4.9 5.2 6.2z" fill="#dae2e5" fill-rule="evenodd"/></svg>