<?xml version="1.0" encoding="utf-8"?>
<!-- Generator: Adobe Illustrator 27.3.1, SVG Export Plug-In . SVG Version: 6.00 Build 0)  -->
<svg version="1.1"
	 id="Layer_1" text-rendering="geometricPrecision" shape-rendering="geometricPrecision" image-rendering="optimizeQuality"
	 xmlns="http://www.w3.org/2000/svg" xmlns:xlink="http://www.w3.org/1999/xlink" x="0px" y="0px" viewBox="0 0 141.7 141.7"
	 style="enable-background:new 0 0 141.7 141.7;" xml:space="preserve">
<style type="text/css">
	.st0{fill:#DAE2E5;}
</style>
<g>
	<path class="st0" d="M63.4,81.9L63.4,81.9L63.4,81.9z"/>
	<path class="st0" d="M63,28.6h5.4V37H73v-8.4l5.5-0.1c1.4,0,2.1-0.7,2.1-2.1v-0.1c0-1.4-0.7-2.1-2.1-2.1H73v-5.5
		c0-1.6-0.7-2.3-2.3-2.3s-2.3,0.7-2.3,2.3v5.5H63c-1.5,0-2.2,0.7-2.2,2.1v0.1C60.9,27.8,61.6,28.6,63,28.6z"/>
	<path class="st0" d="M48.7,82.8c4.5-0.5,9.4-0.7,14.8-0.8c0-1.3-0.2-3-0.5-5.3c-0.3-2.3-0.7-4.1-1.3-5.4c-1.7-3.5-4-6.7-6.9-9.7
		c-0.9-0.8-2.8-2-5.5-3.5c-2.9-1.4-5.8-2.1-8.9-2.1c-2.5,0-5,0.5-7.3,1.3c-2.4,0.8-4.2,2.1-5.3,3.9c-1.1,1.5-1.7,3.9-1.7,7.1
		c0,2.7,1.1,5.1,3.2,7.3c1.5,1.6,2.9,3.1,4.5,4.5c1.6,1.5,3.1,3.1,4.5,4.9C40.8,83.9,44.2,83.2,48.7,82.8z"/>
	<path class="st0" d="M68.1,52.9c0.2,0.5,0.4,0.9,0.5,1.2c0.2,0.5,0.5,1,0.6,1.5s0.4,0.8,0.6,1.1c0.3,0.6,0.5,1.2,0.6,1.8
		c0.2,0.4,0.3,0.7,0.4,1.1c0-0.1,0.1-0.3,0.1-0.5c0-0.2,0.1-0.5,0.3-0.6c0.1-0.6,0.3-1.2,0.6-1.8c0.2-0.4,0.6-1.2,1.2-2.5
		c0-0.1,0.4-1,1-2.7c0.2-0.3,0.3-0.6,0.3-1.2c0-2.2-1.1-3.3-3.4-3.3c-2.2,0-3.3,1.1-3.3,3.4c0,0.5,0.1,0.8,0.2,1.2
		C67.8,51.9,68,52.3,68.1,52.9z"/>
	<path class="st0" d="M120.3,52.9c-4.4-5-10.5-7.3-18.1-6.9c-2.9,0.2-6.3,0.9-10,2.1c-3.2,1.1-5.9,2.2-7.8,3c-0.6,0.3-1.2,0.6-1.7,1
		c0.2-1.1,0.3-2,0.3-2.8c0-3.3-1.2-6.2-3.6-8.6s-5.2-3.6-8.6-3.6c-3.3,0-6.3,1.3-8.6,3.6c-2.4,2.4-3.6,5.2-3.6,8.6
		c0,0.9,0.1,1.8,0.4,2.8c-0.6-0.4-1.1-0.6-1.8-1L53,49.6c-1.3-0.5-2.6-1-3.9-1.5c-3.8-1.2-7.2-1.9-10-2.1c-7.6-0.3-13.7,2-18.2,6.9
		c-4.4,5-6.4,9.8-6,14.8c0.3,5.2,1.7,9.5,4.4,13.2c0.8,1.2,1.8,2.2,2.9,3.2c1.5,1.4,2.9,2.7,4.4,3.9c1.3,1.2,2.5,2,3.5,2.6
		c1,0.5,1.7,0.9,1.8,1.2c0.1,0.2,0.2,0.3,0.2,0.3l2.1,12.1L30,120c1.9,1.9,6.7,3.6,14.4,5c7.5,1.3,16.4,1.9,26.4,1.9
		c9.8,0,18.5-0.6,26-1.8c7.5-1.3,12.3-2.9,14.4-4.8l-4.3-16l2.1-12.1c0,0,0-0.1,0.1-0.1c0.1-0.1,0.1-0.1,0.1-0.2
		c0.2-0.3,0.7-0.7,1.7-1.2c1-0.5,2.2-1.4,3.6-2.6c1.5-1.2,2.9-2.5,4.3-3.9c1.1-1,2-2.1,2.9-3.3c2.7-3.6,4.1-8,4.4-13.2
		C126.7,62.7,124.7,57.7,120.3,52.9z M70.7,41.7c2.2,0,4,0.7,5.5,2.2c1.5,1.5,2.3,3.3,2.3,5.4c0,1-0.2,1.9-0.6,2.8
		c-0.4,1-0.7,2.1-1.2,3.1c-0.4,1.1-0.7,1.9-1.1,2.7c-0.6,1.2-1.1,2.4-1.6,3.3c-0.6,1-0.9,1.8-1.1,2.6c-0.6,1.2-1.1,2.6-1.5,4.3
		c-0.2,0.5-0.5,1.3-0.7,2.5l0,0c-0.5-1.4-0.6-2.2-0.7-2.5c-0.4-1.5-0.8-2.9-1.5-4.3c-0.4-0.7-0.7-1.6-1.2-2.6c-0.5-1-1-2.1-1.6-3.3
		c-0.6-1.1-1.2-3-2.2-5.8c-0.4-0.8-0.6-1.7-0.6-2.8C63,44.3,65.7,41.7,70.7,41.7z M102.7,98.1l-1,6.5c-7.9-2.1-18.1-3.1-30.6-3.1
		c-12.6,0-23,1.1-31.1,3.2l-1-6.5c8.1-2.2,18.8-3.3,32.1-3.3C84.1,94.8,94.7,95.9,102.7,98.1z M29.7,83.7c-3-2.3-5.2-4.2-6.3-5.8
		c-2-2.8-3.1-6.2-3.1-10.4c0-3.9,0.9-7.1,2.8-9.7c3.3-4.9,8.3-7.3,15.1-7.3c4,0,8.1,0.8,12.5,2.6c3.9,1.6,6.6,3.2,8.6,5.1
		c3.6,3.5,6.3,8.2,8,14c0.6,2,0.9,4.6,1,7.6c0.1,3,0.1,5.4,0.1,7.2c-7.5,0.1-13.5,0.5-18.3,1c-4.7,0.6-8.9,1.3-12.7,2.1
		C35.3,88.1,32.7,86,29.7,83.7z M89.8,114.9c-5.9-0.6-12.2-1-19-1c-14.3,0-25.5,1.3-33.7,3.8l2-7.7c8.5-1.9,19-2.9,31.6-2.9
		c12.7,0,23.3,1,31.7,2.9l1.9,7.6C100.6,116.4,95.7,115.5,89.8,114.9z M118.1,78.1c-1.2,1.5-3.2,3.3-6.1,5.4
		c-2.9,2.1-5.5,4.3-7.9,6.6c-3.8-0.8-8.1-1.6-12.8-2.1c-4.8-0.6-10.9-1-18.2-1.1c0-1.7,0-4,0.1-7.1c0.1-3,0.5-5.6,1.1-7.5
		c1.7-5.8,4.3-10.4,8-14c1.7-1.8,4.6-3.5,8.6-5.1c4.3-1.7,8.5-2.6,12.4-2.6c6.8,0,11.9,2.4,15.2,7.3c1.8,2.6,2.8,5.8,2.8,9.7
		C121.2,71.8,120.1,75.3,118.1,78.1z"/>
	<path class="st0" d="M108.2,57.2c-2.4-0.8-4.8-1.3-7.2-1.3c-3.1,0-6.2,0.7-9,2.1c-2.9,1.5-4.7,2.7-5.5,3.5
		c-2.9,2.9-5.2,6.2-6.9,9.7c-0.6,1.3-1,3.1-1.3,5.4c-0.3,2.3-0.5,4-0.5,5.3c5.3,0.1,10.3,0.4,14.7,0.8c4.5,0.5,7.9,1.1,10.5,2
		c1.5-1.9,3-3.7,4.6-5.1c1.6-1.4,3-2.9,4.4-4.3c2.1-2.2,3.2-4.7,3.2-7.3c0-3.3-0.6-5.6-1.7-7.1C112.4,59.3,110.5,58,108.2,57.2z"/>
</g>
</svg>
