<svg enable-background="new 0 0 141.7 141.7" image-rendering="optimizeQuality" shape-rendering="geometricPrecision" text-rendering="geometricPrecision" viewBox="0 0 141.7 141.7" xmlns="http://www.w3.org/2000/svg"><g fill="#dae2e5"><path d="m63 28.6h5.4v8.4h4.6v-8.4l5.5-.1c1.4 0 2.1-.7 2.1-2.1v-.1c0-1.4-.7-2.1-2.1-2.1h-5.5v-5.5c0-1.6-.7-2.3-2.3-2.3s-2.3.7-2.3 2.3v5.5h-5.4c-1.5 0-2.2.7-2.2 2.1v.1c.1 1.4.8 2.2 2.2 2.2z"/><path d="m48.7 82.8c4.5-.5 9.4-.7 14.8-.8 0-1.3-.2-3-.5-5.3s-.7-4.1-1.3-5.4c-1.7-3.5-4-6.7-6.9-9.7-.9-.8-2.8-2-5.5-3.5-2.9-1.4-5.8-2.1-8.9-2.1-2.5 0-5 .5-7.3 1.3-2.4.8-4.2 2.1-5.3 3.9-1.1 1.5-1.7 3.9-1.7 7.1 0 2.7 1.1 5.1 3.2 7.3 1.5 1.6 2.9 3.1 4.5 4.5 1.6 1.5 3.1 3.1 4.5 4.9 2.5-1.1 5.9-1.8 10.4-2.2z"/><path d="m68.1 52.9c.2.5.4.9.5 1.2.2.5.5 1 .6 1.5s.4.8.6 1.1c.3.6.5 1.2.6 1.8.2.4.3.7.4 1.1 0-.1.1-.3.1-.5s.1-.5.3-.6c.1-.6.3-1.2.6-1.8.2-.4.6-1.2 1.2-2.5 0-.1.4-1 1-2.7.2-.3.3-.6.3-1.2 0-2.2-1.1-3.3-3.4-3.3-2.2 0-3.3 1.1-3.3 3.4 0 .5.1.8.2 1.2 0 .3.2.7.3 1.3z"/><path d="m120.3 52.9c-4.4-5-10.5-7.3-18.1-6.9-2.9.2-6.3.9-10 2.1-3.2 1.1-5.9 2.2-7.8 3-.6.3-1.2.6-1.7 1 .2-1.1.3-2 .3-2.8 0-3.3-1.2-6.2-3.6-8.6s-5.2-3.6-8.6-3.6c-3.3 0-6.3 1.3-8.6 3.6-2.4 2.4-3.6 5.2-3.6 8.6 0 .9.1 1.8.4 2.8-.6-.4-1.1-.6-1.8-1l-4.2-1.5c-1.3-.5-2.6-1-3.9-1.5-3.8-1.2-7.2-1.9-10-2.1-7.6-.3-13.7 2-18.2 6.9-4.4 5-6.4 9.8-6 14.8.3 5.2 1.7 9.5 4.4 13.2.8 1.2 1.8 2.2 2.9 3.2 1.5 1.4 2.9 2.7 4.4 3.9 1.3 1.2 2.5 2 3.5 2.6 1 .5 1.7.9 1.8 1.2.1.2.2.3.2.3l2.1 12.1-4.2 15.8c1.9 1.9 6.7 3.6 14.4 5 7.5 1.3 16.4 1.9 26.4 1.9 9.8 0 18.5-.6 26-1.8 7.5-1.3 12.3-2.9 14.4-4.8l-4.3-16 2.1-12.1s0-.1.1-.1c.1-.1.1-.1.1-.2.2-.3.7-.7 1.7-1.2s2.2-1.4 3.6-2.6c1.5-1.2 2.9-2.5 4.3-3.9 1.1-1 2-2.1 2.9-3.3 2.7-3.6 4.1-8 4.4-13.2.6-5-1.4-10-5.8-14.8zm-49.6-11.2c2.2 0 4 .7 5.5 2.2s2.3 3.3 2.3 5.4c0 1-.2 1.9-.6 2.8-.4 1-.7 2.1-1.2 3.1-.4 1.1-.7 1.9-1.1 2.7-.6 1.2-1.1 2.4-1.6 3.3-.6 1-.9 1.8-1.1 2.6-.6 1.2-1.1 2.6-1.5 4.3-.2.5-.5 1.3-.7 2.5-.5-1.4-.6-2.2-.7-2.5-.4-1.5-.8-2.9-1.5-4.3-.4-.7-.7-1.6-1.2-2.6s-1-2.1-1.6-3.3c-.6-1.1-1.2-3-2.2-5.8-.4-.8-.6-1.7-.6-2.8.1-5 2.8-7.6 7.8-7.6zm32 56.4-1 6.5c-7.9-2.1-18.1-3.1-30.6-3.1-12.6 0-23 1.1-31.1 3.2l-1-6.5c8.1-2.2 18.8-3.3 32.1-3.3 13-.1 23.6 1 31.6 3.2zm-73-14.4c-3-2.3-5.2-4.2-6.3-5.8-2-2.8-3.1-6.2-3.1-10.4 0-3.9.9-7.1 2.8-9.7 3.3-4.9 8.3-7.3 15.1-7.3 4 0 8.1.8 12.5 2.6 3.9 1.6 6.6 3.2 8.6 5.1 3.6 3.5 6.3 8.2 8 14 .6 2 .9 4.6 1 7.6s.1 5.4.1 7.2c-7.5.1-13.5.5-18.3 1-4.7.6-8.9 1.3-12.7 2.1-2.1-2-4.7-4.1-7.7-6.4zm60.1 31.2c-5.9-.6-12.2-1-19-1-14.3 0-25.5 1.3-33.7 3.8l2-7.7c8.5-1.9 19-2.9 31.6-2.9 12.7 0 23.3 1 31.7 2.9l1.9 7.6c-3.7-1.2-8.6-2.1-14.5-2.7zm28.3-36.8c-1.2 1.5-3.2 3.3-6.1 5.4s-5.5 4.3-7.9 6.6c-3.8-.8-8.1-1.6-12.8-2.1-4.8-.6-10.9-1-18.2-1.1 0-1.7 0-4 .1-7.1.1-3 .5-5.6 1.1-7.5 1.7-5.8 4.3-10.4 8-14 1.7-1.8 4.6-3.5 8.6-5.1 4.3-1.7 8.5-2.6 12.4-2.6 6.8 0 11.9 2.4 15.2 7.3 1.8 2.6 2.8 5.8 2.8 9.7-.1 4.2-1.2 7.7-3.2 10.5z"/><path d="m108.2 57.2c-2.4-.8-4.8-1.3-7.2-1.3-3.1 0-6.2.7-9 2.1-2.9 1.5-4.7 2.7-5.5 3.5-2.9 2.9-5.2 6.2-6.9 9.7-.6 1.3-1 3.1-1.3 5.4s-.5 4-.5 5.3c5.3.1 10.3.4 14.7.8 4.5.5 7.9 1.1 10.5 2 1.5-1.9 3-3.7 4.6-5.1s3-2.9 4.4-4.3c2.1-2.2 3.2-4.7 3.2-7.3 0-3.3-.6-5.6-1.7-7.1-1.1-1.6-3-2.9-5.3-3.7z"/></g></svg>