<?xml version="1.0" encoding="utf-8"?>
<!-- Generator: Adobe Illustrator 27.3.1, SVG Export Plug-In . SVG Version: 6.00 Build 0)  -->
<svg version="1.1"
	 id="Layer_1" text-rendering="geometricPrecision" shape-rendering="geometricPrecision" image-rendering="optimizeQuality"
	 xmlns="http://www.w3.org/2000/svg" xmlns:xlink="http://www.w3.org/1999/xlink" x="0px" y="0px" viewBox="0 0 141.7 141.7"
	 style="enable-background:new 0 0 141.7 141.7;" xml:space="preserve">
<style type="text/css">
	.st0{fill-rule:evenodd;clip-rule:evenodd;fill:#DAE2E5;}
</style>
<path class="st0" d="M124.9,93.9c-0.4-6.6-1.5-13.1-3.3-19.4c-1.5-5.2-3.5-10.3-6.1-15.1c-2.5-4.8-5.2-8.8-8-12.1
	c-4-4.8-9-8.7-14.7-11.8c-5.8-3-12.1-4.8-18.9-5.2c-2-4-4.8-7.2-8.2-9.6c-4.1,3-7,7-8.4,11.9C51.5,25.9,44.3,21,35.8,18
	c-0.5,6.6,0.5,13.2,2.8,19.4c-0.7,0.7-1.4,1.4-1.8,1.9c-0.4,0.5-0.7,0.8-1,1.1c-0.3,0.3-0.6,0.6-1,1.2c-0.6,0.6-0.9,1.1-1.1,1.5
	c-0.2,0.3-0.6,0.9-1.1,1.7c-0.8,1.2-1.3,2.5-1.7,3.9c-0.3,1.9-0.5,3.7-0.5,5.2c-0.4,3.6-3.1,8.8-8.4,15.6c-4.5,6-6.7,10.8-6.7,14.4
	c0,2.4,0.3,4.8,1,7.1c0.6,2.2,2.1,4.4,4.3,6.6c1.1,1,2.9,2,5.2,2.9c1.5,0.1,3-0.1,4.9-0.6c1.4,2.5,3.2,3.6,5.6,3.5
	c1.6-0.1,2.8-0.6,3.6-1.4c0.6-0.6,1.4-1.7,2.2-3.3c1.7-3.1,2.6-4.9,2.9-5.2c4-6.2,10.7-10.9,19.9-14.3c1.8-0.8,3.7-1.8,5.2-3.2
	c0.2,2.5-0.3,5.2-1.4,8.2c-1.1,3-2.6,5.5-4.5,7.5c-3.4,3.5-6.3,6.6-8.9,9.2c-2.6,2.7-4.2,4.7-4.9,6.1c-1.6,2.8-2.6,5-3.2,6.9
	s-1.1,3.3-1.2,4.4c-0.3,1.3-0.4,3-0.5,5.2c0,2.1,0.2,3.1,0.6,3.1h79.6v-14.1C125.5,107,125.4,100.6,124.9,93.9z M30.3,84.2
	c-1.3,0.6-2.1,1.7-2.5,3c0,1.5-0.7,2.3-2.2,2.4c-1.7,0.1-2.5-0.6-2.6-2c0.2-2.8,1.6-5.1,4.2-6.8c1.3-0.8,2.4-0.7,3.4,0.3
	C31.6,82.4,31.5,83.4,30.3,84.2z M36.7,94c-0.4,0.7-0.6,1.4-0.8,1.7c-0.8,1.4-1.8,1.7-3.2,0.8c-1.5-0.8-1.7-1.8-0.5-3
	c0.4-0.3,0.6-0.6,0.7-0.9c1.2-2.5,2.2-3.7,3-3.7c1.2,0,1.8,0.6,1.8,1.8C37.8,91.1,37.4,92.2,36.7,94z M48,51.3L46.6,52
	c0.6,0.8,0.7,1.7,0.6,2.8c-0.5,2.8-1.9,3.9-4.6,3.5c-0.7-0.1-1.4-0.4-1.8-0.7c-0.2,0.2-0.5,0.6-0.7,1.4c-0.5,1.4-1.4,1.8-2.8,1.5
	c-1.4-0.6-1.8-1.5-1.6-2.9c1.9-5,5.4-8.4,10.5-10.2c1.5-0.5,2.5,0,2.9,1.3C49.7,49.8,49.3,50.8,48,51.3z M57.1,40.2L57.1,40.2
	c-1,0.2-1.8,0.6-2.6,0.9c-0.7,0.4-1.6,0.8-2.5,1.3c-1.3,0.9-2.3,0.6-3-0.6c-0.7-1.3-0.4-2.3,1-3c2.3-1.9,4.7-3.1,7.3-3.6
	C57,36.9,56.9,38.5,57.1,40.2z M74,71.7c-0.7,1.4-1.7,1.7-3.1,1c-1.5-0.6-1.8-1.6-1.2-2.9c1.2-1.2,2.3-3,3.3-5.5
	c0.6-1.6,0.8-3.5,0.7-5.9c-0.5-1.5,0.4-2.2,2.3-2.2c1.5,0,2.3,0.7,2.5,2.1C78.5,63.4,77.1,67.8,74,71.7z M117.8,118.7
	c-0.1,2.3-0.2,3.5-0.1,3.5h-9.1c-0.9-14.9,1.2-29.1-2.1-45.1c-2-12.1-7.7-24.5-18.8-31.1c-3.8-2.1-7.7-4-11.9-5.3
	c-0.1-2,0.1-4-0.2-6.1c11.7,2.5,22.5,8.2,29.4,18.2c5.1,7.4,8.5,15.6,10.6,24.3c1.5,5.6,2.3,11.4,2.3,17.2
	C118.1,102.5,118.2,110.6,117.8,118.7z"/>
</svg>
