<svg enable-background="new 0 0 141.7 141.7" image-rendering="optimizeQuality" shape-rendering="geometricPrecision" text-rendering="geometricPrecision" viewBox="0 0 141.7 141.7" xmlns="http://www.w3.org/2000/svg"><path clip-rule="evenodd" d="m124.9 93.9c-.4-6.6-1.5-13.1-3.3-19.4-1.5-5.2-3.5-10.3-6.1-15.1-2.5-4.8-5.2-8.8-8-12.1-4-4.8-9-8.7-14.7-11.8-5.8-3-12.1-4.8-18.9-5.2-2-4-4.8-7.2-8.2-9.6-4.1 3-7 7-8.4 11.9-5.8-6.7-13-11.6-21.5-14.6-.5 6.6.5 13.2 2.8 19.4-.7.7-1.4 1.4-1.8 1.9s-.7.8-1 1.1-.6.6-1 1.2c-.6.6-.9 1.1-1.1 1.5-.2.3-.6.9-1.1 1.7-.8 1.2-1.3 2.5-1.7 3.9-.3 1.9-.5 3.7-.5 5.2-.4 3.6-3.1 8.8-8.4 15.6-4.5 6-6.7 10.8-6.7 14.4 0 2.4.3 4.8 1 7.1.6 2.2 2.1 4.4 4.3 6.6 1.1 1 2.9 2 5.2 2.9 1.5.1 3-.1 4.9-.6 1.4 2.5 3.2 3.6 5.6 3.5 1.6-.1 2.8-.6 3.6-1.4.6-.6 1.4-1.7 2.2-3.3 1.7-3.1 2.6-4.9 2.9-5.2 4-6.2 10.7-10.9 19.9-14.3 1.8-.8 3.7-1.8 5.2-3.2.2 2.5-.3 5.2-1.4 8.2s-2.6 5.5-4.5 7.5c-3.4 3.5-6.3 6.6-8.9 9.2-2.6 2.7-4.2 4.7-4.9 6.1-1.6 2.8-2.6 5-3.2 6.9s-1.1 3.3-1.2 4.4c-.3 1.3-.4 3-.5 5.2 0 2.1.2 3.1.6 3.1h79.6v-14.1c-.2-5.5-.3-11.9-.8-18.6zm-94.6-9.7c-1.3.6-2.1 1.7-2.5 3 0 1.5-.7 2.3-2.2 2.4-1.7.1-2.5-.6-2.6-2 .2-2.8 1.6-5.1 4.2-6.8 1.3-.8 2.4-.7 3.4.3 1 1.3.9 2.3-.3 3.1zm6.4 9.8c-.4.7-.6 1.4-.8 1.7-.8 1.4-1.8 1.7-3.2.8-1.5-.8-1.7-1.8-.5-3 .4-.3.6-.6.7-.9 1.2-2.5 2.2-3.7 3-3.7 1.2 0 1.8.6 1.8 1.8.1.4-.3 1.5-1 3.3zm11.3-42.7-1.4.7c.6.8.7 1.7.6 2.8-.5 2.8-1.9 3.9-4.6 3.5-.7-.1-1.4-.4-1.8-.7-.2.2-.5.6-.7 1.4-.5 1.4-1.4 1.8-2.8 1.5-1.4-.6-1.8-1.5-1.6-2.9 1.9-5 5.4-8.4 10.5-10.2 1.5-.5 2.5 0 2.9 1.3.6 1.1.2 2.1-1.1 2.6zm9.1-11.1c-1 .2-1.8.6-2.6.9-.7.4-1.6.8-2.5 1.3-1.3.9-2.3.6-3-.6-.7-1.3-.4-2.3 1-3 2.3-1.9 4.7-3.1 7.3-3.6-.3 1.7-.4 3.3-.2 5zm16.9 31.5c-.7 1.4-1.7 1.7-3.1 1-1.5-.6-1.8-1.6-1.2-2.9 1.2-1.2 2.3-3 3.3-5.5.6-1.6.8-3.5.7-5.9-.5-1.5.4-2.2 2.3-2.2 1.5 0 2.3.7 2.5 2.1 0 5.1-1.4 9.5-4.5 13.4zm43.8 47c-.1 2.3-.2 3.5-.1 3.5h-9.1c-.9-14.9 1.2-29.1-2.1-45.1-2-12.1-7.7-24.5-18.8-31.1-3.8-2.1-7.7-4-11.9-5.3-.1-2 .1-4-.2-6.1 11.7 2.5 22.5 8.2 29.4 18.2 5.1 7.4 8.5 15.6 10.6 24.3 1.5 5.6 2.3 11.4 2.3 17.2.2 8.2.3 16.3-.1 24.4z" fill="#dae2e5" fill-rule="evenodd"/></svg>