<?xml version="1.0" encoding="utf-8"?>
<!-- Generator: Adobe Illustrator 27.3.1, SVG Export Plug-In . SVG Version: 6.00 Build 0)  -->
<svg version="1.1"
	 id="Layer_1" text-rendering="geometricPrecision" shape-rendering="geometricPrecision" image-rendering="optimizeQuality"
	 xmlns="http://www.w3.org/2000/svg" xmlns:xlink="http://www.w3.org/1999/xlink" x="0px" y="0px" viewBox="0 0 141.7 141.7"
	 style="enable-background:new 0 0 141.7 141.7;" xml:space="preserve">
<style type="text/css">
	.st0{fill-rule:evenodd;clip-rule:evenodd;fill:#DAE2E5;}
</style>
<path class="st0" d="M70.9,126.8h-35c-1.7-4.1-2.6-8.6-2.6-13.2c0-7.7,2.2-14.7,6.8-20.9c4.5-6.2,10.4-10.6,17.5-13.2
	c-3-1.4-5.6-3.5-7.5-6.3c-1.9-2.8-2.9-6-2.9-9.5c0-4.4,1.5-8.2,4.5-11.4c3-3.2,6.7-5.2,11.1-5.6c-3.5-2.6-5.2-6-5.2-10.1
	c0-3.5,1.3-6.5,3.9-9.1c2.6-2.5,5.7-3.8,9.4-3.8c3.6,0,6.7,1.3,9.3,3.8c2.6,2.5,3.9,5.5,3.9,9.1c0,4.2-1.7,7.5-5.2,10.1
	c4.4,0.5,8.1,2.4,11.1,5.6c3,3.2,4.5,7.1,4.5,11.4c0,3.5-1,6.7-2.9,9.5c-1.8,2.8-4.4,4.9-7.5,6.3c7.1,2.7,13,7.1,17.5,13.2
	c4.5,6.2,6.8,13.2,6.8,20.9c0,4.5-0.8,8.9-2.5,13.2L70.9,126.8z"/>
</svg>
