<svg enable-background="new 0 0 141.7 141.7" image-rendering="optimizeQuality" shape-rendering="geometricPrecision" text-rendering="geometricPrecision" viewBox="0 0 141.7 141.7" xmlns="http://www.w3.org/2000/svg"><path clip-rule="evenodd" d="m70.9 126.8h-35c-1.7-4.1-2.6-8.6-2.6-13.2 0-7.7 2.2-14.7 6.8-20.9 4.5-6.2 10.4-10.6 17.5-13.2-3-1.4-5.6-3.5-7.5-6.3s-2.9-6-2.9-9.5c0-4.4 1.5-8.2 4.5-11.4s6.7-5.2 11.1-5.6c-3.5-2.6-5.2-6-5.2-10.1 0-3.5 1.3-6.5 3.9-9.1 2.6-2.5 5.7-3.8 9.4-3.8 3.6 0 6.7 1.3 9.3 3.8s3.9 5.5 3.9 9.1c0 4.2-1.7 7.5-5.2 10.1 4.4.5 8.1 2.4 11.1 5.6s4.5 7.1 4.5 11.4c0 3.5-1 6.7-2.9 9.5-1.8 2.8-4.4 4.9-7.5 6.3 7.1 2.7 13 7.1 17.5 13.2 4.5 6.2 6.8 13.2 6.8 20.9 0 4.5-.8 8.9-2.5 13.2z" fill="#dae2e5" fill-rule="evenodd"/></svg>