<?xml version="1.0" encoding="utf-8"?>
<!-- Generator: Adobe Illustrator 27.3.1, SVG Export Plug-In . SVG Version: 6.00 Build 0)  -->
<svg version="1.1"
	 id="Layer_1" text-rendering="geometricPrecision" shape-rendering="geometricPrecision" image-rendering="optimizeQuality"
	 xmlns="http://www.w3.org/2000/svg" xmlns:xlink="http://www.w3.org/1999/xlink" x="0px" y="0px" viewBox="0 0 141.7 141.7"
	 style="enable-background:new 0 0 141.7 141.7;" xml:space="preserve">
<style type="text/css">
	.st0{fill:#DAE2E5;}
</style>
<g>
	<path class="st0" d="M70.7,33.7c2.4,0,4.5-0.8,6.3-2.6c1.7-1.7,2.6-3.9,2.6-6.3s-0.9-4.6-2.6-6.3c-1.7-1.7-3.9-2.6-6.3-2.6
		c-2.5,0-4.5,0.8-6.3,2.6c-1.7,1.7-2.6,3.8-2.6,6.3s0.8,4.5,2.6,6.3C66.2,32.8,68.3,33.7,70.7,33.7z"/>
	<path class="st0" d="M43.6,36.9c2.3,0,4.6-0.9,6.2-2.6c1.7-1.7,2.6-3.8,2.6-6.3c0-2.4-0.8-4.5-2.6-6.2c-1.7-1.7-3.8-2.6-6.2-2.6
		c-2.5,0-4.6,0.8-6.3,2.6c-1.7,1.7-2.6,3.8-2.6,6.2c0,2.5,0.8,4.5,2.6,6.3C39,36.1,41.1,36.9,43.6,36.9z"/>
	<path class="st0" d="M28.7,35.3c0-2.4-0.8-4.5-2.6-6.3c-1.7-1.7-3.9-2.7-6.3-2.7c-2.5,0-4.5,0.8-6.3,2.7c-1.7,1.7-2.6,3.9-2.6,6.3
		c0,2.5,0.8,4.5,2.6,6.3s3.8,2.6,6.3,2.6c2.4,0,4.6-0.9,6.3-2.6C27.7,39.8,28.7,37.7,28.7,35.3z"/>
	<path class="st0" d="M97.9,36.9c2.5,0,4.6-0.8,6.3-2.6c1.7-1.7,2.6-3.8,2.6-6.3c0-2.4-0.8-4.5-2.6-6.2c-1.7-1.7-3.9-2.6-6.3-2.6
		c-2.5,0-4.5,0.8-6.3,2.6S89,25.7,89,28.1c0,2.5,0.8,4.5,2.6,6.3C93.3,36.1,95.5,36.9,97.9,36.9z"/>
	<path class="st0" d="M70.7,33.7L70.7,33.7L70.7,33.7z"/>
	<path class="st0" d="M98.5,72.8l-0.4-35.6l-4.4-0.7L80.3,72.1L73,33.7h-4.5l-7.3,38.5L47.8,36.5l-4.4,0.7L43,72.8L25.3,42.9
		l-3.1,1.2l5.5,40.2l5.6,10l1.8,10.1l-4,15.5c1.9,1.9,6.6,3.6,14.1,4.9c7.5,1.3,16,1.9,25.9,1.9c9.6,0,18.1-0.6,25.5-1.8
		c7.4-1.3,12.1-2.9,14.3-4.7l-4.2-15.7l1.8-10.3l5.8-9.9l5.3-40l-3-1.4L98.5,72.8z M89.8,115.5c-5.9-0.6-12.2-1-19-1
		c-14.3,0-25.5,1.3-33.7,3.8l2-7.7c8.5-1.9,19-2.9,31.6-2.9c12.7,0,23.3,1,31.7,2.9l1.9,7.6C100.6,117.1,95.7,116.3,89.8,115.5z
		 M38.9,98.9c8.1-2.2,18.8-3.3,32.1-3.3c13.2,0,23.7,1.1,31.6,3.3l-1,6.5c-7.9-2.1-18.1-3.1-30.6-3.1c-12.6,0-23,1.1-31.1,3.2
		L38.9,98.9z M103.9,93.1c-3.6-1.1-8.4-1.9-14.2-2.4c-5.8-0.5-12.1-0.7-19-0.7s-13.2,0.3-19,0.7S41.3,92,37.7,93l-3.2-5.9
		c3.7-1.3,8.7-2.3,15.1-3.1s13.4-1.2,21.1-1.2c7.8,0,15,0.5,21.5,1.3c6.5,0.8,11.5,1.9,15.1,3.2L103.9,93.1z"/>
	<path class="st0" d="M128,29c-1.7-1.7-3.8-2.7-6.3-2.7c-2.5,0-4.5,0.8-6.3,2.7c-1.7,1.7-2.6,3.9-2.6,6.3c0,2.5,0.8,4.5,2.6,6.3
		c1.7,1.7,3.8,2.6,6.3,2.6c2.3,0,4.6-0.9,6.3-2.6c1.7-1.7,2.6-3.8,2.6-6.3S129.8,30.8,128,29z"/>
</g>
</svg>
