<svg enable-background="new 0 0 141.7 141.7" image-rendering="optimizeQuality" shape-rendering="geometricPrecision" text-rendering="geometricPrecision" viewBox="0 0 141.7 141.7" xmlns="http://www.w3.org/2000/svg"><g fill="#dae2e5"><path d="m70.7 33.7c2.4 0 4.5-.8 6.3-2.6 1.7-1.7 2.6-3.9 2.6-6.3s-.9-4.6-2.6-6.3-3.9-2.6-6.3-2.6c-2.5 0-4.5.8-6.3 2.6-1.7 1.7-2.6 3.8-2.6 6.3s.8 4.5 2.6 6.3c1.8 1.7 3.9 2.6 6.3 2.6z"/><path d="m43.6 36.9c2.3 0 4.6-.9 6.2-2.6 1.7-1.7 2.6-3.8 2.6-6.3 0-2.4-.8-4.5-2.6-6.2-1.7-1.7-3.8-2.6-6.2-2.6-2.5 0-4.6.8-6.3 2.6-1.7 1.7-2.6 3.8-2.6 6.2 0 2.5.8 4.5 2.6 6.3 1.7 1.8 3.8 2.6 6.3 2.6z"/><path d="m28.7 35.3c0-2.4-.8-4.5-2.6-6.3-1.7-1.7-3.9-2.7-6.3-2.7-2.5 0-4.5.8-6.3 2.7-1.7 1.7-2.6 3.9-2.6 6.3 0 2.5.8 4.5 2.6 6.3s3.8 2.6 6.3 2.6c2.4 0 4.6-.9 6.3-2.6 1.6-1.8 2.6-3.9 2.6-6.3z"/><path d="m97.9 36.9c2.5 0 4.6-.8 6.3-2.6 1.7-1.7 2.6-3.8 2.6-6.3 0-2.4-.8-4.5-2.6-6.2-1.7-1.7-3.9-2.6-6.3-2.6-2.5 0-4.5.8-6.3 2.6s-2.6 3.9-2.6 6.3c0 2.5.8 4.5 2.6 6.3 1.7 1.7 3.9 2.5 6.3 2.5z"/><path d="m98.5 72.8-.4-35.6-4.4-.7-13.4 35.6-7.3-38.4h-4.5l-7.3 38.5-13.4-35.7-4.4.7-.4 35.6-17.7-29.9-3.1 1.2 5.5 40.2 5.6 10 1.8 10.1-4 15.5c1.9 1.9 6.6 3.6 14.1 4.9s16 1.9 25.9 1.9c9.6 0 18.1-.6 25.5-1.8 7.4-1.3 12.1-2.9 14.3-4.7l-4.2-15.7 1.8-10.3 5.8-9.9 5.3-40-3-1.4zm-8.7 42.7c-5.9-.6-12.2-1-19-1-14.3 0-25.5 1.3-33.7 3.8l2-7.7c8.5-1.9 19-2.9 31.6-2.9 12.7 0 23.3 1 31.7 2.9l1.9 7.6c-3.7-1.1-8.6-1.9-14.5-2.7zm-50.9-16.6c8.1-2.2 18.8-3.3 32.1-3.3 13.2 0 23.7 1.1 31.6 3.3l-1 6.5c-7.9-2.1-18.1-3.1-30.6-3.1-12.6 0-23 1.1-31.1 3.2zm65-5.8c-3.6-1.1-8.4-1.9-14.2-2.4s-12.1-.7-19-.7-13.2.3-19 .7-10.4 1.3-14 2.3l-3.2-5.9c3.7-1.3 8.7-2.3 15.1-3.1s13.4-1.2 21.1-1.2c7.8 0 15 .5 21.5 1.3s11.5 1.9 15.1 3.2z"/><path d="m128 29c-1.7-1.7-3.8-2.7-6.3-2.7s-4.5.8-6.3 2.7c-1.7 1.7-2.6 3.9-2.6 6.3 0 2.5.8 4.5 2.6 6.3 1.7 1.7 3.8 2.6 6.3 2.6 2.3 0 4.6-.9 6.3-2.6s2.6-3.8 2.6-6.3-.8-4.5-2.6-6.3z"/></g></svg>