<?xml version="1.0" encoding="utf-8"?>
<!-- Generator: Adobe Illustrator 27.3.1, SVG Export Plug-In . SVG Version: 6.00 Build 0)  -->
<svg version="1.1"
	 id="Layer_1" text-rendering="geometricPrecision" shape-rendering="geometricPrecision" image-rendering="optimizeQuality"
	 xmlns="http://www.w3.org/2000/svg" xmlns:xlink="http://www.w3.org/1999/xlink" x="0px" y="0px" viewBox="0 0 141.7 141.7"
	 style="enable-background:new 0 0 141.7 141.7;" xml:space="preserve">
<style type="text/css">
	.st0{fill-rule:evenodd;clip-rule:evenodd;fill:#DAE2E5;}
</style>
<path class="st0" d="M105.1,111.4V98.1l-11-11V56.2l14.4-11V20.8H90.8v8.8h-11v-8.8H62.1v8.8H51v-8.8H33.4v24.3l14.4,11v30.9l-11,11
	v13.2h-9.9v15.5h88.3v-15.5C115.1,111.4,105.1,111.4,105.1,111.4z M42.5,46.2l-4.7-3.6v-2.9h33.1h33v2.9l-4.6,3.6
	C99.3,46.2,42.5,46.2,42.5,46.2z M48.3,50.6h22.6h22.6l-3.9,3v3.7H52.1v-3.7L48.3,50.6z M52.1,88.9V86h18.8h18.8v2.9l3.9,3.8H48.3
	L52.1,88.9z M100.7,116.9H41.2v-6.6h59.5C100.7,110.3,100.7,116.9,100.7,116.9z M100.7,103.6H41.2v-3.8l2.9-2.8h26.8h26.8l2.9,2.8
	L100.7,103.6L100.7,103.6z"/>
</svg>
