<svg enable-background="new 0 0 141.7 141.7" image-rendering="optimizeQuality" shape-rendering="geometricPrecision" text-rendering="geometricPrecision" viewBox="0 0 141.7 141.7" xmlns="http://www.w3.org/2000/svg"><path clip-rule="evenodd" d="m105.1 111.4v-13.3l-11-11v-30.9l14.4-11v-24.4h-17.7v8.8h-11v-8.8h-17.7v8.8h-11.1v-8.8h-17.6v24.3l14.4 11v30.9l-11 11v13.2h-9.9v15.5h88.3v-15.5c-.1.2-10.1.2-10.1.2zm-62.6-65.2-4.7-3.6v-2.9h33.1 33v2.9l-4.6 3.6zm5.8 4.4h22.6 22.6l-3.9 3v3.7h-37.5v-3.7zm3.8 38.3v-2.9h18.8 18.8v2.9l3.9 3.8h-45.3zm48.6 28h-59.5v-6.6h59.5zm0-13.3h-59.5v-3.8l2.9-2.8h26.8 26.8l2.9 2.8z" fill="#dae2e5" fill-rule="evenodd"/></svg>