<svg height="700pt" viewBox="0 0 933.333 933.333" width="700pt" xmlns="http://www.w3.org/2000/svg" xmlns:xlink="http://www.w3.org/1999/xlink"><linearGradient id="a"><stop offset="0" stop-color="#7f899b"/><stop offset="1" stop-color="#1c1c2f"/></linearGradient><linearGradient id="b" gradientTransform="matrix(1.1402574 0 0 1.0926859 -36.622756 -49.02835)" gradientUnits="userSpaceOnUse" x1="130.98332" x2="720.01697" xlink:href="#a" y1="444.83487" y2="623.16821"/><linearGradient id="c" gradientTransform="matrix(1.0836502 -.02393683 .02393683 1.0836502 -20.096124 -4.025119)" gradientUnits="userSpaceOnUse" x1="130.98332" x2="720.01697" xlink:href="#a" y1="444.83487" y2="623.16821"/><linearGradient id="d" gradientTransform="matrix(1.0814596 .07290913 -.07290913 1.0814596 68.647225 -22.462719)" gradientUnits="userSpaceOnUse" x1="130.98332" x2="720.01697" xlink:href="#a" y1="444.83487" y2="623.16821"/><g stroke="#000" stroke-linecap="round" stroke-linejoin="round"><path d="m448.98047 48c-1.33608.08343-2.82978.287653-4.49024.613281-41.89934 8.216856-41.12935 30.06372-19.47265 64.425779 28.66825-41.301596 43.70407-66.27178 23.96289-65.03906zm-23.96289 65.03906c-31.47975 45.35206-79.41392 110.41602-116.17383 182.55078-71.07388 139.46981-87.28572 275.4452 22.35547 408.04883 17.09262 10.53517 18.97485 46.40336 5.70508 77.53516l74.50195-.51172c-118.15154 41.50525-334.670008 62.02493-326.027344 100.38477 0 0 234.233804 13.97337 314.128904-34.36133 28.10407-17.0023 46.84158-45.07943 57.84571-66.33985l39.51171-.27148c6.96827 19.35984 17.38347 39.60297 32.56446 51.0625 83.45408 62.99627 322.10937 48.45703 322.10937 48.45703.75954-52.55491-184.06216-52.9247-296.9414-99.91602l41.82226-.28711c-13.72349-30.81155-11.43553-67.76039 12.31836-87.12304 13.90354-25.50967 23.4521-51.17927 29.48047-76.77539 35.4152-88.17488 52.2918-202.54274 7.08203-302.94727-35.76548-79.4301-81.72646-137.52697-102.85742-177.21875-14.31187 18.90375-31.60168 41.54348-49.51172 66.72461-28.12819-35.54093-52.96731-65.2961-67.91406-89.01172zm117.42578 22.28711c33.05621-43.662113 50.41597-68.263108 23.86719-63.056639-41.90797 8.218542-42.09868 28.811149-23.86719 63.056639z" fill="none" stroke-width="35"/><g fill-rule="evenodd" stroke-width="20"><path d="m469.75049 751.53813c-75.953 62.8607-394.82103 83.12855-384.371216 129.50928 0 0 234.232686 13.97366 314.127866-34.36109 49.83751-30.15053 70.24335-95.14819 70.24335-95.14819z" fill="url(#d)"/><path d="m484.46219 730.27925c71.10282 99.97626 368.03964 82.74001 367.0775 149.31372 0 0-238.6565 14.53966-322.11076-48.45673-35.31391-26.6571-44.96674-100.85699-44.96674-100.85699z" fill="url(#c)"/><path d="m566.30989 72.26992c53.1346-10.420196-69.58553 98.52928-142.08823 240.80286 210.97494 20.90778 152.27428 293.05692 186.19275 360.36421 51.71971-90.89068 90.84776-236.61145 34.88712-360.89216-66.62364-147.96171-169.47272-222.53073-78.99164-240.27491z" fill="url(#b)"/><path d="m444.48939 48.612407c53.1346-10.420194-63.14218 104.703813-135.64486 246.977403-71.07409 139.47023-87.28695 275.44502 22.35457 408.04904 17.09268 10.5352 18.97442 46.40342 5.70459 77.53531l259.51587-1.7828c-13.72355-30.81167-11.43512-67.76076 12.31886-87.12347 79.66855-146.1728 19.12405-297.64715-56.40708-409.93669-91.10853-135.44792-198.32302-215.974611-107.84195-233.718793zm-14.74214 321.674043c-2.29804 92.24636 36.38358 158.97567 35.10195 264.8683-36.7557 21.14764-28.27413-95.53004-52.62473-122.60451-21.33443-23.72088-85.79698-18.79808-68.85612-51.90533 76.57084-.49689 125.41931 28.96733 201.44984 17.07461 6.75486-20.31951-49.36749-22.88862-65.19655-36.02559-21.28497-17.66499-25.34163-85.43147-49.87439-71.40748z" fill="url(#b)"/></g></g></svg>