<svg height="700pt" viewBox="0 0 933.333 933.333" width="700pt" xmlns="http://www.w3.org/2000/svg" xmlns:xlink="http://www.w3.org/1999/xlink"><linearGradient id="a" gradientUnits="userSpaceOnUse" x1="158.41038582791" x2="798.73640318968" y1="247.34666375937" y2="879.37127075938"><stop offset="0" stop-color="#7f899b"/><stop offset="1" stop-color="#1c1c2f"/></linearGradient><g stroke="#000" stroke-linecap="round" stroke-linejoin="round"><path d="m391.90912 61.450044c-1.87108 129.020126 4.71982 80.296336-76.69714 20.735693 12.56487 84.162693 4.03621 86.935523-17.71405 122.949753-11.9034 19.70971-22.39347 81.76996-29.84171 95.44939-45.13264 82.89059-148.78572 191.10338-148.60689 226.38142.22637 44.65606 53.3369 84.62878 101.91888 37.40667-45.45156 66.53561 91.77418-.30152 149.28111-41.34129 76.12165 46.86106 182.46981-4.41788 184.44662-79.71127 34.64031 170.3095-288.83444 199.88929-306.11348 420.79549 241.08215 55.03373 375.36128-124.2696 522.30573 14.38452 75.11753-217.80153 82.0496-581.86666-267.162-718.36584-47.46266-18.55211-67.40146-66.274106-111.81707-98.684536z" fill="none" stroke-width="35"/><path d="m391.90912 61.450044c-1.87108 129.020126 4.71982 80.296336-76.69714 20.735693 12.56487 84.162693 4.03621 86.935523-17.71405 122.949753-11.9034 19.70971-22.39347 81.76996-29.84171 95.44939-45.13264 82.89059-148.78572 191.10338-148.60689 226.38142.22637 44.65606 53.3369 84.62878 101.91888 37.40667-45.45156 66.53561 91.77418-.30152 149.28111-41.34129 76.12165 46.86106 182.46981-4.41788 184.44662-79.71127 34.64031 170.3095-288.83444 199.88929-306.11348 420.79549 241.08215 55.03373 375.36128-124.2696 522.30573 14.38452 75.11753-217.80153 82.0496-581.86666-267.162-718.36584-47.46266-18.55211-67.40146-66.274106-111.81707-98.684536zm-1.45685 240.251656c-7.89238 11.19789-24.48987 29.47575-39.0526 26.79941-13.46457-2.47452-18.88219-7.03827-19.50352-22.98358-.52315-13.4254 47.04822-12.99238 58.55612-3.81583z" fill="url(#a)" fill-rule="evenodd" stroke-width="20"/></g></svg>