<svg height="700pt" viewBox="0 0 933.333 933.333" width="700pt" xmlns="http://www.w3.org/2000/svg" xmlns:xlink="http://www.w3.org/1999/xlink"><linearGradient id="a"><stop offset="0" stop-color="#7f899b"/><stop offset="1" stop-color="#1c1c2f"/></linearGradient><linearGradient id="b" gradientUnits="userSpaceOnUse" x1="334.83347992576" x2="655.50080899092" xlink:href="#a" y1="632.18752801808" y2="731.93900130277"/><linearGradient id="c" gradientUnits="userSpaceOnUse" x1="332.05474228878" x2="597.52189692822" xlink:href="#a" y1="375.78769225968" y2="496.0446838958"/><g stroke="#000" stroke-linecap="round" stroke-linejoin="round"><path d="m460.19531 305.53711c-77.60005.00028-140.50781 64.06205-140.50781 143.08594.17945 39.33506 16.25308 76.86018 44.44141 103.7539-7.67408-88.86141 209.20975-79.89508 188.5664 3.63282 30.42577-27.09729 47.91748-66.22525 48.00781-107.38672 0-79.02449-62.90718-143.0865-140.50781-143.08594zm47.38281 247.43164-101.53906.66016c-25.39235 205.94372-140.79205 212.00633-127.57031 303.5332l355.50195.22266c11.14128-100.85153-107.31178-99.90768-126.39258-304.41602z" fill="none" stroke-width="35"/><g fill-rule="evenodd" stroke-width="20"><path d="m460.19471 305.53759c-77.60005.00028-140.50717 64.06189-140.50717 143.08578.17945 39.33506 16.25255 76.8601 44.44088 103.75382-7.67408-88.86141 209.20934-79.89481 188.56599 3.63309 30.42577-27.09729 47.91862-66.22544 48.00896-107.38691 0-79.02449-62.90803-143.08634-140.50866-143.08578z" fill="url(#c)"/><path d="m278.46955 857.16293c-13.22174-91.52687 102.17811-97.59113 127.57046-303.53485l101.53742-.65856c19.0808 204.50834 137.53505 203.56416 126.39377 304.41569z" fill="url(#b)"/></g></g></svg>