<svg height="700pt" viewBox="0 0 933.333 933.333" width="700pt" xmlns="http://www.w3.org/2000/svg" xmlns:xlink="http://www.w3.org/1999/xlink"><linearGradient id="a"><stop offset="0" stop-color="#7f899b"/><stop offset="1" stop-color="#1c1c2f"/></linearGradient><linearGradient id="b" gradientUnits="userSpaceOnUse" x1="91.66685616364" x2="828.53660820207" xlink:href="#a" y1="294.22216868295" y2="794.86609813683"/><linearGradient id="c" gradientUnits="userSpaceOnUse" x1="57.66685616364" x2="794.53660820207" xlink:href="#a" y1="219.53022268295" y2="720.17415213683"/><linearGradient id="d" gradientUnits="userSpaceOnUse" x1="79.66685616364" x2="816.53660820207" xlink:href="#a" y1="237.53022268295" y2="738.17415213683"/><g stroke="#000" stroke-linecap="round" stroke-linejoin="round"><path d="m654.31513 303.56881 65.05338 1.52243c43.1357-59.53078 53.99335-116.96546 67.25258-174.55608l-114.5957.0859c-6.52338 15.69369-10.59367 43.58287-20.99609 46.60352-21.77889 6.32414-38.79907 12.14471-52.60742 17.56836-12.0911-4.51575-26.49442-9.33484-43.83399-14.49805-13.68706-4.07558-21.49015-35.23982-23.72461-49.57031l-116.05664.084c-5.55605 16.48573-8.34095 45.39985-20.47461 49.17579-21.69756 6.75216-38.72615 12.87486-52.59375 18.51562-14.14089-5.02181-31.54615-10.37498-53.79687-16.13672-22.01676-5.70113-14.88919-38.88625-22.0918-51.44336l-107.94336.0781c5.62884 60.87839 10.4603 115.7276 55.92372 176.37946l56.52954-1.83859m5.46276 48.08999 16 381.60941m345.02148 0 16-381.60937m-373.49337 433.53316-54.55569-2.46971c-28.95975 31.65577-25.95896 54.0053-36.6736 80.34862h554.17969c-6.14651-26.85118-4.74341-54.29594-32.70639-79.43115l-55.58621 1.55224" fill="none" stroke-width="35"/><g fill-rule="evenodd" stroke-width="20"><path d="m275.82227 345.62891 16 397.60937h345.02148l16-397.60937z" fill="url(#c)"/><path d="m157.90542 130.99856c5.76579 62.35953 10.69621 118.39133 59.31586 180.81518l499.10148-2.58661c45.68092-61.00868 56.73166-119.7685 70.2977-178.69166l-114.5949.0859c-6.5234 15.69371-10.59453 43.58337-20.99697 46.60402-292.69769 84.99342 192.12331 88.99504-96.4398 3.06956-13.68708-4.0756-21.49174-35.24053-23.7262-49.57104l-116.05632.0855c-5.55607 16.48575-8.34124 45.39981-20.47492 49.17575-294.979229 91.79605 191.18028 79.4331-106.39003 2.37859-22.0168-5.70115-14.88877-38.88612-22.0914-51.44325z" fill="url(#d)"/><path d="m228.12019 781.16114c-32.52541 33.54793-28.89138 56.56727-40 83.87924h554.18021c-6.51111-28.4439-4.55037-57.55415-38-83.87924z" fill="url(#b)"/></g></g></svg>