<svg height="700pt" viewBox="0 0 933.333 933.333" width="700pt" xmlns="http://www.w3.org/2000/svg" xmlns:xlink="http://www.w3.org/1999/xlink"><linearGradient id="a"><stop offset="0" stop-color="#fff"/><stop offset="1" stop-color="#bfd3d7"/></linearGradient><linearGradient id="b" gradientUnits="userSpaceOnUse" x1="182.28659317078" x2="780.77740770803" xlink:href="#a" y1="821.82498123873" y2="824.23456802325"/><linearGradient id="c" gradientUnits="userSpaceOnUse" x1="143.20753154653" x2="746.51754183624" xlink:href="#a" y1="233.26064307625" y2="770.99699923125"/><linearGradient id="d" gradientUnits="userSpaceOnUse" x1="392.75899643298" x2="570.78958381335" xlink:href="#a" y1="145.81589769226" y2="292.80186726961"/><g stroke="#000" stroke-linecap="round" stroke-linejoin="round"><path d="m493.34766 343.5918v-129.83985h104.71289v-75.45898h-104.71289v-66.132814h-69.60157v66.132814h-87.17382v75.45898h87.17382v129.83985m-2.35836 53.1416c31.21258 112.69935 9.00066 276.09468-65.99906 241.95996-137.19132-62.44007-188.19237-292.18041 30.84375-176.92969-59.33094-121.28653-134.17091-163.98089-195.03711-161.56836-68.98169 2.73421-120.017145 63.40655-110.189451 133.26758 19.372221 137.70914 171.582801 262.11987 179.549611 322.20062m409.32506-.0587c4.98733-68.47566 177.61722-200.39736 183.31674-326.02473 5.64972-126.93961-213.43052-225.25236-309.81836 32.07812 221.54278-118.49588 150.54777 107.24976 40.60156 177.03516-69.35262 44.0197-106.30534-117.67482-72.55607-244.03605m-250.62095 410.86417-39.45189-2v71.94532h483.16016v-71.94532l-32.11913 2" fill="none" stroke-width="35"/><g fill-rule="evenodd" stroke-width="20"><path d="m423.747 72.159496v66.134354h-87.17396v75.45834h87.17396v135.83887h69.60053v-135.83887h104.71274v-75.45834h-104.71274v-66.134354z" fill="url(#d)"/><path d="m543.37829 461.6588c221.54324-118.49612 150.5494 107.24929 40.60297 177.03483-70.8362 44.96138-107.87222-124.68612-70.29376-252.09394l-94.93816 1.14384c35.00837 112.74569 13.65804 286.00409-63.36145 250.9501-137.19159-62.44021-188.19271-292.18056 30.84385-176.9296-126.57294-258.74511-323.724417-159.80521-305.225201-28.30183 20.095741 142.85234 183.137321 271.39506 179.824461 328.66145h409.11106c-6.55443-66.35042 177.36988-202.80354 183.25597-332.54355 5.64974-126.93987-213.4317-225.2523-309.81974 32.0787z" fill="url(#c)"/><path d="m221.35155 801.52142h483.15958v73.944809h-483.15958z" fill="url(#b)"/></g></g></svg>