<svg height="700pt" viewBox="0 0 933.333 933.333" width="700pt" xmlns="http://www.w3.org/2000/svg" xmlns:xlink="http://www.w3.org/1999/xlink"><linearGradient id="a"><stop offset="0" stop-color="#fff"/><stop offset="1" stop-color="#bfd3d7"/></linearGradient><linearGradient id="b" gradientUnits="userSpaceOnUse" x1="214.3603338" x2="713.45468314177" xlink:href="#a" y1="844.21701558354" y2="844.21701558354"/><linearGradient id="c" gradientUnits="userSpaceOnUse" x1="177.60486629375" x2="773.178473286" xlink:href="#a" y1="248.97500626586" y2="795.533703557"/><linearGradient id="d" gradientUnits="userSpaceOnUse" x1="305.82118528545" x2="501.10151414177" xlink:href="#a" y1="299.92272718248" y2="623.5430195445"/><g stroke="#000" stroke-linecap="round" stroke-linejoin="round"><path d="m690.60514 766.18083c88.76861-90.71111 140.97911-241.72246 162.03939-453.66716-110.45093 239.66131-180.87714 345.90196-228.25586 364.75 45.24154-116.61202 78.7799-291.6162 87.42578-525.35742-69.2944 207.62869-120.57771 351.38169-164.13867 431.83203-26.51392-109.69914-38.21888-296.90015-66.01367-478.0039-34.7915 188.52368-47.63633 382.44851-77.36914 488.62304-41.40804-77.70526-87.89206-224.03681-150.94141-439.25-.98811 223.41983 22.96709 393.0059 60.40625 508.8457-48.15476-34.21225-117.28274-142.33678-221.013669-357.23828 11.587899 214.47844 62.837739 367.98427 150.212459 459.81579m8.03387 46.62757-22.00024-2v68.11719h469.83399v-68.11719l-16.78584 2" fill="none" stroke-width="35"/><g fill-rule="evenodd" stroke-width="20"><path d="m711.81425 151.9058c-225.86661 676.77023-260.76394 678.0268-458.46202 3.20249-1.21627 275.00862 35.35703 468.45111 88.35507 580.49382h256.80615c58.08233-112.56544 103.07361-307.20465 113.3008-583.69631z" fill="url(#d)"/><path d="m481.66181 105.73373c-81.96738 444.15427-41.75149 920.21237-388.917373 200.98166 11.880533 219.89466 65.450153 375.69691 156.899483 466.65366h433.71856c93.17967-89.82063 147.65601-243.20998 169.28276-460.85547-331.53598 719.38142-302.75415 237.7847-370.98343-206.77985z" fill="url(#c)"/><path d="m228.9902 809.15814h469.83463v70.117737h-469.83463z" fill="url(#b)"/></g></g></svg>