<svg viewBox="0 0 1081.57 164.87" xmlns="http://www.w3.org/2000/svg"><g fill="#fff"><path d="m150 142.48-50 22.39v-60l50-22.39z" opacity=".25"/><path d="m200 119.97-50 22.39v-60l50-22.39z" opacity=".75"/><path d="m150 82.55-50 22.38v-60l50-22.38z" opacity=".75"/><path d="m200 60.03-50 22.39v-60l50-22.39z" opacity=".25"/><path d="m50 142.45 50 22.39v-60l-50-22.39z"/><path d="m0 119.94 50 22.38v-60l-50-22.38z" opacity=".5"/><path d="m50 82.52 50 22.38v-60l-50-22.38z" opacity=".5"/><path d="m0 60 50 22.39v-60l-50-22.39z"/><path d="m375.17 51.66c-4.13-4.44-8.12-7.41-11.98-8.89s-7.75-2.22-11.67-2.22c-5.82 0-11.09 1.03-15.79 3.1-4.71 2.06-8.76 4.92-12.14 8.57-3.39 3.65-6.01 7.91-7.86 12.78s-2.78 10.11-2.78 15.71c0 6.03.93 11.59 2.78 16.67s4.47 9.47 7.86 13.17c3.38 3.71 7.43 6.61 12.14 8.73s9.97 3.17 15.79 3.17c4.55 0 8.97-1.08 13.25-3.25 4.29-2.17 8.28-5.63 11.98-10.4l16.51 11.75c-5.08 6.98-11.27 12.06-18.57 15.24-7.3 3.17-15.08 4.76-23.33 4.76-8.68 0-16.64-1.4-23.89-4.21-7.25-2.8-13.49-6.77-18.73-11.91-5.24-5.13-9.34-11.3-12.3-18.49s-4.44-15.18-4.44-23.97 1.48-17.17 4.44-24.52 7.06-13.62 12.3-18.81c5.24-5.18 11.48-9.18 18.73-11.98s15.21-4.21 23.89-4.21c7.62 0 14.68 1.35 21.19 4.05s12.56 7.28 18.18 13.73z"/><path d="m424.06 72.13h.32c1.48-3.17 4.1-6.06 7.86-8.65s8.6-3.89 14.52-3.89c5.08 0 9.39.85 12.94 2.54 3.54 1.69 6.43 3.92 8.65 6.67s3.81 5.93 4.76 9.52c.95 3.6 1.43 7.36 1.43 11.27v48.1h-19.05v-38.57c0-2.12-.11-4.47-.32-7.06s-.77-5.03-1.67-7.3-2.3-4.18-4.21-5.71-4.5-2.3-7.78-2.3-5.85.53-8.02 1.59-3.97 2.49-5.4 4.29-2.46 3.86-3.1 6.19c-.63 2.33-.95 4.76-.95 7.3v41.59h-19.05v-120.02h19.05v54.44z"/><path d="m506.76 106.26c.63 5.71 2.86 10.16 6.67 13.33s8.41 4.76 13.81 4.76c4.76 0 8.76-.98 11.98-2.94 3.23-1.96 6.06-4.42 8.49-7.38l13.65 10.32c-4.44 5.5-9.42 9.42-14.92 11.75s-11.27 3.49-17.3 3.49c-5.71 0-11.11-.95-16.19-2.86s-9.47-4.6-13.17-8.1c-3.71-3.49-6.64-7.7-8.81-12.62s-3.25-10.4-3.25-16.43 1.08-11.51 3.25-16.43 5.1-9.13 8.81-12.62c3.7-3.49 8.09-6.19 13.17-8.1 5.08-1.9 10.48-2.86 16.19-2.86 5.29 0 10.13.93 14.52 2.78s8.15 4.52 11.27 8.02c3.12 3.49 5.56 7.8 7.3 12.94 1.75 5.13 2.62 11.03 2.62 17.7v5.24h-58.09zm39.05-14.29c-.11-5.61-1.85-10.02-5.24-13.25s-8.09-4.84-14.13-4.84c-5.71 0-10.24 1.64-13.57 4.92s-5.37 7.67-6.11 13.17z"/><path d="m623.27 82.61c-3.71-5.18-8.68-7.78-14.92-7.78-2.54 0-5.03.63-7.46 1.91-2.44 1.27-3.65 3.33-3.65 6.19 0 2.33 1 4.02 3.02 5.08 2.01 1.06 4.55 1.96 7.62 2.7s6.37 1.51 9.92 2.3c3.54.79 6.85 2.01 9.92 3.65s5.61 3.89 7.62 6.75 3.02 6.77 3.02 11.75c0 4.55-.98 8.39-2.94 11.51s-4.5 5.63-7.62 7.54-6.64 3.28-10.56 4.13-7.83 1.27-11.75 1.27c-5.93 0-11.38-.85-16.35-2.54s-9.42-4.76-13.33-9.21l12.7-11.91c2.43 2.75 5.05 5 7.86 6.75 2.8 1.75 6.22 2.62 10.24 2.62 1.37 0 2.8-.16 4.29-.48 1.48-.32 2.86-.85 4.13-1.59s2.3-1.67 3.1-2.78c.79-1.11 1.19-2.41 1.19-3.89 0-2.64-1.01-4.6-3.02-5.87s-4.55-2.3-7.62-3.1c-3.07-.79-6.38-1.53-9.92-2.22-3.55-.69-6.85-1.8-9.92-3.33s-5.61-3.68-7.62-6.43-3.02-6.56-3.02-11.43c0-4.23.87-7.91 2.62-11.03s4.05-5.69 6.9-7.7c2.86-2.01 6.14-3.49 9.84-4.44s7.46-1.43 11.27-1.43c5.08 0 10.1.87 15.08 2.62 4.97 1.75 8.99 4.74 12.06 8.97l-12.7 11.43z"/><path d="m695.17 82.61c-3.71-5.18-8.68-7.78-14.92-7.78-2.54 0-5.03.63-7.46 1.91-2.44 1.27-3.65 3.33-3.65 6.19 0 2.33 1 4.02 3.02 5.08 2.01 1.06 4.55 1.96 7.62 2.7s6.37 1.51 9.92 2.3c3.54.79 6.85 2.01 9.92 3.65s5.61 3.89 7.62 6.75 3.02 6.77 3.02 11.75c0 4.55-.98 8.39-2.94 11.51s-4.5 5.63-7.62 7.54-6.64 3.28-10.56 4.13-7.83 1.27-11.75 1.27c-5.93 0-11.38-.85-16.35-2.54s-9.42-4.76-13.33-9.21l12.7-11.91c2.43 2.75 5.05 5 7.86 6.75 2.8 1.75 6.22 2.62 10.24 2.62 1.37 0 2.8-.16 4.29-.48 1.48-.32 2.86-.85 4.13-1.59s2.3-1.67 3.1-2.78c.79-1.11 1.19-2.41 1.19-3.89 0-2.64-1.01-4.6-3.02-5.87s-4.55-2.3-7.62-3.1c-3.07-.79-6.38-1.53-9.92-2.22-3.55-.69-6.85-1.8-9.92-3.33s-5.61-3.68-7.62-6.43-3.02-6.56-3.02-11.43c0-4.23.87-7.91 2.62-11.03s4.05-5.69 6.9-7.7c2.86-2.01 6.14-3.49 9.84-4.44s7.46-1.43 11.27-1.43c5.08 0 10.1.87 15.08 2.62 4.97 1.75 8.99 4.74 12.06 8.97l-12.7 11.43z"/><path d="m723.01 17.69h19.05v53.49h.48c.95-1.27 2.17-2.56 3.65-3.89 1.48-1.32 3.28-2.56 5.4-3.73 2.12-1.16 4.55-2.12 7.3-2.86s5.93-1.11 9.52-1.11c5.4 0 10.37 1.03 14.92 3.1 4.55 2.06 8.44 4.9 11.67 8.49 3.23 3.6 5.74 7.83 7.54 12.7s2.7 10.11 2.7 15.71-.85 10.85-2.54 15.71c-1.69 4.87-4.18 9.1-7.46 12.7s-7.25 6.43-11.9 8.49c-4.66 2.06-9.9 3.1-15.71 3.1-5.4 0-10.42-1.06-15.08-3.17-4.66-2.12-8.36-5.5-11.11-10.16h-.32v11.43h-18.1v-120zm63.17 81.9c0-2.96-.5-5.82-1.51-8.57s-2.49-5.18-4.44-7.3c-1.96-2.12-4.31-3.81-7.06-5.08s-5.87-1.9-9.36-1.9-6.62.63-9.37 1.9-5.11 2.96-7.06 5.08c-1.96 2.12-3.44 4.55-4.45 7.3s-1.51 5.61-1.51 8.57.5 5.82 1.51 8.57c1 2.75 2.49 5.19 4.45 7.3 1.96 2.12 4.31 3.81 7.06 5.08s5.87 1.9 9.37 1.9 6.61-.63 9.36-1.9 5.1-2.96 7.06-5.08 3.44-4.55 4.44-7.3 1.51-5.61 1.51-8.57z"/><path d="m817.13 99.59c0-6.03 1.08-11.51 3.25-16.43s5.1-9.13 8.81-12.62c3.7-3.49 8.09-6.19 13.17-8.1 5.08-1.9 10.48-2.86 16.19-2.86s11.11.95 16.19 2.86 9.47 4.6 13.17 8.1c3.7 3.49 6.64 7.7 8.81 12.62s3.25 10.4 3.25 16.43-1.09 11.51-3.25 16.43c-2.17 4.92-5.11 9.13-8.81 12.62-3.71 3.49-8.1 6.19-13.17 8.1-5.08 1.9-10.48 2.86-16.19 2.86s-11.11-.95-16.19-2.86-9.47-4.6-13.17-8.1c-3.71-3.49-6.64-7.7-8.81-12.62s-3.25-10.4-3.25-16.43zm19.05 0c0 2.96.5 5.82 1.51 8.57 1 2.75 2.49 5.19 4.45 7.3 1.96 2.12 4.31 3.81 7.06 5.08s5.87 1.9 9.37 1.9 6.61-.63 9.36-1.9 5.1-2.96 7.06-5.08 3.44-4.55 4.44-7.3 1.51-5.61 1.51-8.57-.5-5.82-1.51-8.57-2.49-5.18-4.44-7.3c-1.96-2.12-4.31-3.81-7.06-5.08s-5.87-1.9-9.36-1.9-6.62.63-9.37 1.9-5.11 2.96-7.06 5.08c-1.96 2.12-3.44 4.55-4.45 7.3s-1.51 5.61-1.51 8.57z"/><path d="m911.74 99.59c0-6.03 1.08-11.51 3.25-16.43s5.1-9.13 8.81-12.62c3.7-3.49 8.09-6.19 13.17-8.1 5.08-1.9 10.48-2.86 16.19-2.86s11.11.95 16.19 2.86 9.47 4.6 13.17 8.1c3.7 3.49 6.64 7.7 8.81 12.62s3.25 10.4 3.25 16.43-1.09 11.51-3.25 16.43c-2.17 4.92-5.11 9.13-8.81 12.62-3.71 3.49-8.1 6.19-13.17 8.1-5.08 1.9-10.48 2.86-16.19 2.86s-11.11-.95-16.19-2.86-9.47-4.6-13.17-8.1c-3.71-3.49-6.64-7.7-8.81-12.62s-3.25-10.4-3.25-16.43zm19.05 0c0 2.96.5 5.82 1.51 8.57 1 2.75 2.49 5.19 4.45 7.3 1.96 2.12 4.31 3.81 7.06 5.08s5.87 1.9 9.37 1.9 6.61-.63 9.36-1.9 5.1-2.96 7.06-5.08 3.44-4.55 4.44-7.3 1.51-5.61 1.51-8.57-.5-5.82-1.51-8.57-2.49-5.18-4.44-7.3c-1.96-2.12-4.31-3.81-7.06-5.08s-5.87-1.9-9.36-1.9-6.62.63-9.37 1.9-5.11 2.96-7.06 5.08c-1.96 2.12-3.44 4.55-4.45 7.3s-1.51 5.61-1.51 8.57z"/><path d="m1006.65 17.69h19.05v75.4l29.37-31.59h24.44l-32.7 34.6 34.76 41.59h-25.24l-30.32-38.89h-.32v38.89h-19.05v-120z"/></g></svg>