<svg viewBox="0 0 1191.69 670" xmlns="http://www.w3.org/2000/svg"><g fill="#fff"><path d="m37.05 35.5c.01 1.68-.38 3.15-1.17 4.41s-1.89 2.23-3.3 2.9c-1.41.68-3 1.01-4.79 1.01-2.21 0-4.09-.46-5.63-1.39s-2.7-2.22-3.47-3.87-1.16-3.55-1.16-5.71v-.34c0-2.16.39-4.07 1.16-5.72.77-1.66 1.92-2.95 3.46-3.88s3.4-1.39 5.6-1.39c1.84 0 3.46.34 4.87 1.02s2.5 1.69 3.28 3.02 1.16 2.94 1.15 4.82h-6.76c.03-.93-.19-1.68-.64-2.25s-1.15-.85-2.07-.85c-.8 0-1.41.22-1.82.66s-.68 1.02-.81 1.76-.2 1.67-.2 2.81v.34c0 1.17.07 2.11.2 2.84s.41 1.3.82 1.73 1.03.64 1.85.64c.9 0 1.58-.22 2.03-.66s.67-1.07.64-1.91h6.76zm14.47-14.01c2.28 0 4.07.69 5.36 2.07s1.94 3.6 1.94 6.64v13.06h-7.2v-13.1c0-1.15-.24-1.93-.72-2.35s-1.21-.63-2.18-.63c-1.21 0-2.09.32-2.62.95v15.14h-7.16v-30.36h7.16v11.22c.68-.84 1.48-1.5 2.4-1.96s1.93-.69 3.02-.69zm29.64 13.58h-13.22c.28.95.81 1.69 1.58 2.22.77.52 1.73.78 2.87.78.97 0 1.88-.16 2.75-.48.86-.32 1.6-.83 2.2-1.55l3.2 4.15c-.48.64-1.14 1.23-1.98 1.78s-1.83 1-2.97 1.34-2.37.52-3.68.52c-2.33 0-4.36-.48-6.09-1.43s-3.05-2.23-3.95-3.83c-.91-1.6-1.36-3.33-1.36-5.2v-.74c0-2.08.39-3.96 1.17-5.63s1.96-3.01 3.56-3.99 3.57-1.48 5.91-1.48c2.04 0 3.81.42 5.32 1.25s2.67 2.04 3.48 3.62 1.22 3.45 1.22 5.62v3.04zm-7.08-5.14c.05-1.85-.97-2.78-3.07-2.78-1 0-1.75.3-2.24.9-.5.6-.83 1.43-.99 2.47h6.31v-.6zm16.15 5.29c-2.3-.49-4.15-1.29-5.54-2.39-1.4-1.11-2.1-2.56-2.1-4.36 0-1.26.36-2.41 1.08-3.47.72-1.05 1.76-1.89 3.13-2.52s3-.94 4.88-.94 3.68.29 5.15.87 2.6 1.41 3.4 2.47c.79 1.07 1.19 2.31 1.19 3.73h-7.24c0-.82-.18-1.41-.55-1.76s-1.02-.53-1.97-.53c-.62 0-1.15.15-1.6.46-.45.3-.68.73-.68 1.27 0 1.05 1.15 1.75 3.45 2.11 1.64.25 3.07.62 4.3 1.1s2.24 1.2 3.02 2.16c.79.95 1.18 2.19 1.18 3.72 0 1.27-.4 2.41-1.19 3.43s-1.92 1.81-3.39 2.39c-1.46.58-3.16.87-5.1.87s-3.76-.36-5.23-1.08-2.59-1.65-3.37-2.78c-.77-1.13-1.16-2.29-1.16-3.47h6.71c.03.83.32 1.46.89 1.89.56.42 1.35.64 2.36.64.82 0 1.45-.16 1.88-.47.44-.31.66-.73.66-1.26 0-.32-.12-.59-.37-.8-.25-.22-.67-.42-1.25-.62-.58-.19-1.43-.41-2.55-.65zm20.24 0c-2.3-.49-4.15-1.29-5.54-2.39-1.4-1.11-2.1-2.56-2.1-4.36 0-1.26.36-2.41 1.08-3.47.72-1.05 1.76-1.89 3.13-2.52s3-.94 4.88-.94 3.68.29 5.15.87 2.6 1.41 3.4 2.47c.79 1.07 1.19 2.31 1.19 3.73h-7.24c0-.82-.18-1.41-.55-1.76s-1.02-.53-1.97-.53c-.62 0-1.15.15-1.6.46-.45.3-.68.73-.68 1.27 0 1.05 1.15 1.75 3.45 2.11 1.64.25 3.07.62 4.3 1.1s2.24 1.2 3.02 2.16c.79.95 1.18 2.19 1.18 3.72 0 1.27-.4 2.41-1.19 3.43-.79 1.01-1.92 1.81-3.39 2.39-1.46.58-3.16.87-5.1.87s-3.76-.36-5.23-1.08-2.59-1.65-3.37-2.78c-.77-1.13-1.16-2.29-1.16-3.47h6.71c.03.83.32 1.46.89 1.89.56.42 1.35.64 2.36.64.82 0 1.45-.16 1.88-.47.44-.31.66-.73.66-1.26 0-.32-.12-.59-.37-.8s-.67-.42-1.25-.62c-.58-.19-1.43-.41-2.55-.65zm31.25 2.56c0 1.5.07 2.61.22 3.33s.39 1.38.71 1.98v.34h-7.23c-.23-.46-.43-1.08-.61-1.85-.58.72-1.28 1.27-2.09 1.66s-1.85.59-3.12.59-2.55-.27-3.69-.81c-1.13-.54-2.04-1.31-2.72-2.3s-1.01-2.11-1.01-3.37c0-2.25.85-3.99 2.54-5.22 1.7-1.23 4.3-1.84 7.81-1.84h1.88v-.99c0-.86-.19-1.52-.56-1.97s-.97-.68-1.79-.68c-.72 0-1.25.16-1.59.49-.34.32-.52.86-.52 1.6h-7.25c0-1.42.4-2.67 1.2-3.77.8-1.09 1.93-1.94 3.4-2.54s3.19-.9 5.15-.9c1.78 0 3.37.29 4.77.88s2.5 1.47 3.29 2.64 1.2 2.6 1.2 4.28v8.45zm-10.38.79c.7 0 1.3-.13 1.8-.39s.87-.58 1.1-.98v-3.13h-1.96c-1.01 0-1.73.29-2.17.86-.43.57-.65 1.26-.65 2.05 0 .48.18.86.54 1.15s.81.44 1.34.44zm24.75-17.05c1.91 0 3.51.46 4.78 1.39s2.22 2.21 2.83 3.84c.61 1.64.92 3.52.92 5.65v.42c0 3.42-.7 6.1-2.11 8.06s-3.53 2.93-6.37 2.93c-2.16 0-3.89-.87-5.21-2.62l-.3 2.23h-6.47v-30.51h7.23v10.69c1.25-1.38 2.82-2.07 4.71-2.07zm1.26 10.78c0-1.64-.2-2.91-.6-3.81s-1.19-1.35-2.37-1.35c-1.33 0-2.26.46-2.77 1.39v8.13c.26.46.61.8 1.07 1.02.45.22 1.03.33 1.74.33.85 0 1.49-.21 1.91-.62s.69-.98.82-1.71.19-1.72.19-2.96v-.42zm40.31 2.75h-13.22c.28.95.81 1.69 1.58 2.22.77.52 1.73.78 2.87.78.97 0 1.88-.16 2.75-.48.86-.32 1.6-.83 2.2-1.55l3.2 4.15c-.48.64-1.14 1.23-1.98 1.78s-1.83 1-2.97 1.34-2.37.52-3.68.52c-2.33 0-4.36-.48-6.09-1.43s-3.05-2.23-3.95-3.83c-.91-1.6-1.36-3.33-1.36-5.2v-.74c0-2.08.39-3.96 1.17-5.63s1.96-3.01 3.56-3.99c1.6-.99 3.57-1.48 5.91-1.48 2.04 0 3.81.42 5.32 1.25s2.67 2.04 3.48 3.62 1.22 3.45 1.22 5.62v3.04zm-7.08-5.14c.05-1.85-.97-2.78-3.07-2.78-1 0-1.75.3-2.24.9-.5.6-.83 1.43-.99 2.47h6.31v-.6zm-14.49 8.74 2.57 1.57c.27.16.35.51.19.78-.1.17-.29.27-.49.27h-14.18c-.31 0-.57-.25-.57-.57 0-.2.11-.39.28-.49l2.55-1.53h-.03l1.24-19.84h6.78l1.65 19.79zm-12.25 3.37h14.88c.43 0 .79.35.79.79s-.35.79-.79.79h-14.88c-.43 0-.79-.35-.79-.79s.35-.79.79-.79zm6.79-25.22h1.09v-3.9h4.86v4.89c0 .71-.58 1.29-1.29 1.29h-8.22c-.71 0-1.29-.58-1.29-1.29v-4.89h4.86v3.9z" opacity=".5"/><g opacity=".5"><path d="m1038.57 605.12c-.66-2.45-2.58-4.37-5.03-5.03-4.43-1.19-22.23-1.19-22.23-1.19s-17.79 0-22.23 1.19c-2.45.66-4.37 2.58-5.03 5.03-1.19 4.43-1.19 13.69-1.19 13.69s0 9.26 1.19 13.69c.66 2.45 2.58 4.37 5.03 5.03 4.44 1.19 22.23 1.19 22.23 1.19s17.79 0 22.23-1.19c2.45-.66 4.37-2.58 5.03-5.03 1.19-4.44 1.19-13.69 1.19-13.69s0-9.26-1.19-13.69zm-32.95 22.23v-17.07l14.78 8.53-14.78 8.53z"/><path d="m1051.78 624.8-6.39-23.07h5.57l2.24 10.46c.57 2.58.99 4.77 1.26 6.59h.16c.19-1.3.61-3.48 1.26-6.55l2.32-10.5h5.57l-6.47 23.07v11.07h-5.54v-11.07z"/><path d="m1065.45 635.13c-1.12-.76-1.92-1.94-2.4-3.54-.47-1.6-.71-3.73-.71-6.39v-3.62c0-2.68.27-4.84.81-6.47s1.39-2.81 2.54-3.56c1.15-.74 2.66-1.12 4.54-1.12s3.32.38 4.43 1.14 1.92 1.95 2.44 3.56c.52 1.62.77 3.77.77 6.45v3.62c0 2.66-.25 4.8-.75 6.41-.5 1.62-1.32 2.8-2.44 3.54s-2.65 1.12-4.58 1.12c-1.99 0-3.54-.38-4.66-1.14zm6.3-3.91c.31-.81.47-2.14.47-3.99v-7.77c0-1.79-.15-3.1-.47-3.92-.31-.83-.86-1.24-1.65-1.24s-1.3.41-1.61 1.24-.47 2.14-.47 3.92v7.77c0 1.85.15 3.18.45 3.99s.84 1.22 1.62 1.22 1.33-.41 1.65-1.22z"/><path d="m1096.01 635.87h-4.39l-.49-3.05h-.12c-1.19 2.3-2.98 3.46-5.37 3.46-1.65 0-2.88-.54-3.66-1.62-.79-1.09-1.18-2.78-1.18-5.09v-18.63h5.62v18.31c0 1.11.12 1.91.37 2.38.24.47.65.71 1.22.71.49 0 .96-.15 1.41-.45s.78-.68 1-1.14v-19.81h5.61v24.95z"/><path d="m1111.26 606.25h-5.57v29.62h-5.49v-29.62h-5.57v-4.51h16.64v4.51z"/><path d="m1124.81 635.87h-4.39l-.49-3.05h-.12c-1.19 2.3-2.98 3.46-5.37 3.46-1.65 0-2.88-.54-3.66-1.62-.79-1.09-1.18-2.78-1.18-5.09v-18.63h5.62v18.31c0 1.11.12 1.91.37 2.38.24.47.65.71 1.22.71.49 0 .96-.15 1.4-.45.45-.3.78-.68 1-1.14v-19.81h5.61v24.95z"/><path d="m1143.39 614.91c-.34-1.57-.89-2.71-1.65-3.42s-1.8-1.06-3.13-1.06c-1.03 0-2 .29-2.89.88s-1.59 1.35-2.07 2.3h-.04v-13.14h-5.41v35.4h4.64l.57-2.36h.12c.44.84 1.09 1.5 1.95 2 .87.49 1.83.73 2.89.73 1.9 0 3.3-.88 4.19-2.62.89-1.75 1.34-4.48 1.34-8.2v-3.95c0-2.79-.17-4.97-.51-6.55zm-5.15 10.18c0 1.82-.07 3.24-.22 4.27s-.4 1.77-.75 2.2c-.35.44-.83.65-1.42.65-.46 0-.89-.11-1.28-.33s-.71-.54-.96-.97v-14.16c.19-.68.52-1.23.98-1.67s.96-.65 1.5-.65c.57 0 1.01.22 1.32.67s.53 1.2.65 2.26.18 2.56.18 4.51z"/><path d="m1151.86 626.53c0 1.6.05 2.8.14 3.6s.29 1.38.59 1.75.76.55 1.38.55c.84 0 1.42-.33 1.73-.98s.48-1.74.51-3.25l4.84.29c.03.22.04.52.04.89 0 2.3-.63 4.03-1.89 5.17s-3.04 1.71-5.35 1.71c-2.77 0-4.71-.87-5.82-2.6-1.11-1.74-1.67-4.42-1.67-8.06v-4.36c0-3.74.58-6.48 1.73-8.2s3.12-2.59 5.92-2.59c1.92 0 3.4.35 4.44 1.06 1.03.71 1.76 1.8 2.18 3.3.42 1.49.63 3.55.63 6.19v4.27h-9.4zm.71-11.75c-.29.35-.47.93-.57 1.73-.09.8-.14 2.01-.14 3.64v1.79h4.11v-1.79c0-1.6-.06-2.81-.16-3.64-.11-.83-.3-1.41-.59-1.75s-.73-.51-1.32-.51c-.6 0-1.04.18-1.32.53z"/></g><g opacity=".25"><path d="m508.75 233.13c.15.12.17-.03-.18-.41l-.38-.17z"/><path d="m506.83 230.23c-.46-.41-1.08-.81-1-.37.57.31.59.48 1.21.82.34.39.52.74.4.72.16.11.48.64.75.78-.31-.61-.82-1.28-1.5-1.88-.08-.18.08-.07.14-.06z"/><path d="m475.07 191.05.15.31c-.02-.1-.07-.21-.15-.31z"/><path d="m453.75 168.14c.19.15.32.15.4.1-.2-.11-.37-.19-.4-.1z"/><path d="m450.72 163.57c.06.1.12.18.18.27-.02-.15-.07-.28-.18-.27z"/><path d="m475.07 191.05-.37-.8c-.23.14.14.46.37.8z"/><path d="m501.85 225.31c.13.12.25.21.36.29l-.3-.3s-.04.01-.06.01z"/><path d="m484.62 201.02.17.19c.11 0 .22 0 .35-.03l-.52-.17z"/><path d="m491.41 209.14c-.13-.2-.56.06-.79.13.24-.03.43.04.59.18.07-.06.14-.16.2-.31z"/><path d="m501.31 222.72.22.21c-.06-.05-.15-.14-.22-.21z"/><path d="m479.75 195.2c.06-.08.1-.16.11-.23-.06.05-.09.13-.11.23z"/><path d="m233.63 37.54s0-.02 0-.02c-.06 0-.08 0 0 .02z"/><path d="m222.01 33.67.17.03s.04-.02.05-.04h-.21z"/><path d="m444.33 156.03s.01.02.02.04c.26.1.14.02-.02-.04z"/><path d="m372.7 101.55c.53 1.03-1.8-.3-.87 1.07.02-.29 1.72-.07.87-1.07z"/><path d="m501.7 225.08-.28-.33c.12.16.21.26.28.33z"/><path d="m371.83 102.62s.1.14.1.14c-.04-.06-.06-.09-.1-.14z"/><path d="m427.04 141.43c-.06.15-.07.29-.07.44.05-.07.08-.19.07-.44z"/><path d="m438.92 153.41-.23-.37c.07.17.15.28.23.37z"/><path d="m419.5 136.82c-.14-.19-.12-.33-.43-.44v.14c.16-.02.31.03.43.3z"/><path d="m412.42 131.13c0 .08.02.15.03.23.08.04.17.1.25.14l-.29-.37z"/><path d="m259.47 46.77c-.16-.14-.25-.25-.31-.36.07.21-1.19-.22.31.36z"/><path d="m501.97 225.21c-.09 0-.17-.03-.27-.13.07.08.14.15.21.22.05 0 .09-.03.06-.09z"/><path d="m415.03 141.65-1.01-1.02c.25.32.62.69 1.01 1.02z"/><path d="m318.06 74.2-.31-.11c.11.07.21.12.31.11z"/><path d="m410.73 137.97c-.01-.39-.11-.69-.26-.96-.09.01-.17 0-.26.05l.52.9z"/><path d="m259.15 46.4s0 0 0 0z"/><path d="m250.15 43.51c1.27.49.69-.03 1.01-.07 1.56.5.64.46 1.11.79.98.29 1.8.32 2.51.59.04.07.17.13-.01.13 1.09.14 2.98 1.16 4.26 1.31.08.06.11.1.12.13-.13-.22-.1-.39-.03-.48.57.22 1.14.21 1.28.5-.35-.14-.41-.07-.6-.07l.63.14c.43.5-.86-.22-.94 0 1.2.36 2.66.65 3.52 1.07.07.37-2.13-.71-1.04 0l-1.34-.65c.89.86-.83-.36-.04.5 1.78.81 2.09.65 3.85 1.49.47 0-.04-.3.43-.3 2.69.74 1.71 1.61 3.75 1.97.57 0 .92-.34 2.18.43l-.61.18c1.73.77 1.21-.11 2.93.92-.38 0-1.42-.47-1.17-.31 1.06.81.92.15 1.83.54l.05.42c1.86.76 4.01 1.37 6.08 2.2-.16.06-.55.01-.13.34 2.64.98 5.44 2.53 7.8 3.9l1.09.1c.22.11.33.35.07.3.89.59.15-.19.67-.11.55.23.63.54.24.48 1.81.52 5.1 1.64 6.69 2.87l-.4-.06c1.31.81 1.92-.02 3.03.96l-.28-.06c2.89 1.65 6.35 2.93 8.32 4.67.72-.37 2.77 1.79 3.38 1.07 1.47 1.29.92 1.19 3.13 2.72.61.37 1.21-.03 2.04.29l-.21.46 1.3.09.28.84.79.27c-.27-.19-.51-.53-.4-.64 1.25.4 2.59 1.84 2.49 2.09l2.88 1.09c-.16.16-.64-.03-1.06-.11 1.68.32 0 .64 1.53.93-.12-.2.25-.23.33-.31.5.65 1.97 1.48 3.14 1.96l-.39.21c1.94 1.17 4.22 2.23 6.41 3.51-.7-.62-.18-1.11.5-.79l-.04.68c.6-.08-.56-.59.52-.49.79.54.21.92-.36.82l1.1.4c-.03.19-.31.14-.49.31.6-.09 1.41 1.55 2.33 1.31l-.04.19c2.19 1.28 3.28 1.7 5.05 2.76.32-.46.94.08 1.7.01 1.21.95 2.42 2.21 4 3.13 1.24.43.57-.22 1.24-.21-.19.5 1.4 1.41.39 1.24 1.93 1.07 2.43 1.4 5 2.53-.14-.35-.37-.61-.13-.68.47.2.85.81.65.99l-.14-.02c3.07.99 5.2 5.26 7.9 5.64l-.15-.03 2.47.93c.93.75-.82-.04-.29.75 2.82.76 3.55 2.58 5.8 3.33.25 1.21 1.56 2.07 2.99 2.91 1.41.85 2.92 1.71 3.57 2.87l.13-.42c.74.02.47.63.78.98.13-.31-.33-.7.11-.66 2.27 1.32 4.39 3.01 6.43 4.82 2.06 1.79 3.96 3.82 5.97 5.6 1.48 1.29 2.27-1.2 3.6 1.17l-1.06.25c1.87.8 3.48 2.02 5.05 3.29 1.55 1.29 3.07 2.59 4.86 3.45-.31.02-.48.23-.77-.01.24 1.03 2.33 1.93 2.67 1.52.43.43-.19.47-.07.92.39.83 2.12.63 2.05 1.43 0 .13-.31.03-.46-.03.62.08 1.88 1.64 1.97.7.9 1.2 2.38 1.48 2.96 2.61 1.14-.2 1.62 1.95 2.61 1.12-.91.95 1.26 2.48 2.36 2.59-.49.11.34.84-.29 1.04.81.67 1.7 1.1 2 .44.43 2.5 3.81 1.5 3.29 3.81 2.82 1.49 5.3 3.03 7.62 4.63-1 .99-2.42-1.95-3.28-.76 2.36 1.33 4.31 1.44 6.07 3.43.39.6-.7.2-1.03.23 2.38 1.32 3.79 3.46 6.02 4.52-.09.09-.38.03-.63-.06.37.28.66.89 1.05.38l-.45-.18c.08-1.2 2.67-.18 3.06-.49-1.82.82 1.41 1.93-1.08 2.78.31.12.8.16 1.03-.21.25.4.19.68-.48.73 1.47.87 1.49-.03 2.59 1.01-.21.22-.52.1-.88.26.97.08 1.95.16 2.72 1.21-.18.08-.24.36-.52.1 1.68 1.41 3.86 1.37 5.23 3.43-1.42.46.29.88-.4 1.79l1.17.65v-.76c.81.8 2.1.91 2.55 1.85l-.93-.25 1.68 1.32-.57-1.14c1.23.39.89-1.1 1.76.18-.3-.13.81.81.78 1.68.65.14 1.32.28 1.74 1.06-.09.4-.97.74-1.04 1 1.04-.26 2.1 1.66 3.28 1.47-.33 0-.73.39-.76.52l.85-.19c.21.53.19.66-.19.92 1.05 1.19.6-1.31 1.54.41-.15-.06-.17.06-.47-.07 1.17 1.5 2.9 2.27 3.87 3.75-.38 1.09-1.24-.9-1.46.13 1.9 1.63 4.52 2.83 6.04 4.73l-.24-.4c1.25-.73.76 1.77 2.1 2.19-.28-.14-.83.25-.66.2 1 1.34 2.65 2.15 4.67 3.71h-.46c.45.92 1.63 2 2.24 2.88.45 0 .82.49.92-.1.43 1.82 1.68 2.77 2.91 3.7 1.23.92 2.43 1.81 2.9 3.33-.24-.25-.76-.43-.57-.23l1.88 1.62c.23-.46 0-.43-.07-1.06.43.04 1.06.41 1.47.86-.98-.61-.57.52-.44 1.04.05-.15.29-.14.37-.27.24 1.5.87-.48 1.6 1.23l-.24.09c.52.42 1.15.67 1.56 1.26-.2.56-.64-.37-.99-.13.68.72 2.02.85 2.22 1.87-.38-.23-.78-.69-1.16-.92.19 1.13.39 1.11.8 1.72l-.04-.06.92 1.43-.17-.42c1.77.13 1.85 1.75 3.54 2.52-1.62-.77-.5.07-.97.3.18.41.49 1 .26.95.83.33.65 1.18 1.84 1.65-.08.14.56.64.15.75.78.69.04-.35.24-.41.73.43 1.22 1.23 1.81 2.07.59.83 1.26 1.72 2.22 2.41 1.46 1.36 2 1.39 3.29 2.7.25.59-.64-.14-.64-.14.5.88 1.01 1.43 1.7 2.08-.19-.09-.13.11-.03.4.51.56.6.16 1.12 1.02-.19-.07-.46-.13-.78-.34.65.62 1.35 1.18 1.99 1.85.04.28-.53-.29-.83-.47.73.74 1.85 1.96 2.21 2.08l-.36-.56c.25.29-.02.26-.23.07-.71-.57-.76-1.03-.72-1.12l.46.47c-.03-.83-1.72-2-2.55-3.02l.67.17-1.13-.83c-.09-.29-.02-.61.44-.14-.41-.88-.64-.56-.95-1.36-.02-.1.02-.08.08-.02l-.68-.64c.19.08.17-.34.46.16-.78-1.5-1.93-1.88-2.01-2.62l.11.09c-1.55-1.71-.44.07-1.88-.98l.07-1.56-.48.1c-.14-.19-.42-.57-.23-.62-.8-.49-.05.24-.6.02-.42-1.14-2.19-2.28-1.77-2.96-.54-.08.49 1.02-.49.25.41-.8-1.02-.99-1.4-2.04.55-.04 1 .88.64-.19-.98 0-1.16-1.68-1.83-2.28-.51.38-1.42-1.31-2.54-2.3.23-.08-1.49-2.39-2.17-3.63l.12-.05c-.71.27-1.55-.89-2.35-1.56.37-.27.63-.25 1.15.04l-.64-.73c-.33-.01-.63-.15-1.11-.57l.59-.2c-.87-.96-2.23-1.5-3.03-3.03-.49.32-.29 2.04-1.76.99.19-.25.54-.66.94-.4-.13-.09-.55-.23-.65-.54l.86.18c-.33-.72-.59 0-.96-.49.34-.29-.06-.55.26-.72.13.09.21.52.5.58-.39-.57-.74-1.37-.67-1.8-.15.22-.45.41-.83.07-.88-.95.11-.7-.21-1.43-.44-.02-.74-.87-1.27-.42-.25-.29-.05-.56 0-.8-.67-.3-2.13-2.3-2.19-1.21l.08.16s-.06-.04-.1-.06 0 0 0 0c-1.97-1.17-2.78-3.65-4.5-5.02l.19-.17c-1.1-.75-2.11-1.99-3.16-2.27-.27-.28-.28-.99.06-1.09-.82-.59-1.12-.46-1.79-1.81 1.02.4.06-.54.95.51-.72-1.1-.61-1.62-2.09-2.12.82-.14-.04-1.33-.61-1.63l.26 1.01c-.55-.43-.92-.92-1.29-1.41l.89-.41c-.97-2.78-4.73-2.04-4.76-4.86-.97-.02.68 1.36-.31 1.47-.77-.95-.69-2.84-.96-3.11-.8-1.58-2.1-.09-3.08-1.59-.09.41-.59 1.23-1.75.55-.78-.95-.03-2.12.72-1.78.23.19.25.37.16.44.37.19.84.44.77-.17l-.36.14c-.18-.69-1.39-1.85-.7-1.99-.89-.41-.69.14-.33.76-.75-1.48-1.72-1.74-2.62-3.13.04.33-.08.8-.26.62-1.38-1.98-1.22-.23-2.49-1.21-.28-1.02 1.15-.74-.35-1.5-.46-.95.51-.85 1-.8-1.55-.49-1.68-2.22-2.21-2.89l.77.31c-.46-.19-.73-.45-1.01-.72l-.18.84c-.24-.41-.52-.67-.31-.89-.67.03-.57 1.14-1.7.99-.19-.69-1.62-.96-1.11-1.82 1.17 1.54.51-.87 1.8.12-.31-.13-.58-.39-.83-.8.02-.13.18-.11.31-.06-.74-1.89-1.36.24-2.73-1.06.55-.25.39-1.08.08-1.2.55.53-.36.93-1.15.77-.6-1.14-1.18-.66-1.61-1.12l.4.64c-.55.24-.95-.22-1.68-.66.24-.37.76.3.67-.05-1.33.08-.89-2.17-2.32-2.54-.21-.68.65-.82.42-1.36-1.59-.42-.7-1.61-2.26-2.18-.15.85.02.76-1.28.6l2.26 1.27-1.94-.25c.57.51 1.53.71 1.79 1.1-.99-.05-.8-.14-.94.56-.05-1.52-1.99-.87-2.4-2.23l1.24-1.36c-.84-1.81-3.06-1.4-4.55-3.29l.37.73c-.71.34-1.17-.88-1.94-1.15.45-.41.23-.89.22-1.39-.26.37-1.28-1.16-2.23-.37l-.31-1.27c-1.28-1.44-2.78-.07-4.06-1.38.84-.15.46-.99 1.71-.57-.47-.39-.83-.82-1.1-.51-.04-.51-1.82-.46-1.9-1.24-.36.04-.82.45-1.32-.02.02-.14.18-.22.18-.22-.19.22-1.08-.38-1.02.5-.32-2.58-4.14-3.23-4.46-5.43-1.18-.66-2.56-1.5-3.55-2.2.16-.08.17-.21.32-.03-1.01-1.41-1.79.61-2.94-.99-.23-1.28 1.09.24.82-.39.89-1.56-1.97-1.2-2.35-2.79l.31.11c-.42-1.06-2.3-.92-3.49-1.99 0 0 .15-.07.17-.2-1.39.02-3.22-.97-4.61-1.68.78-.24.77.13.94-.57-.61-.33-.48.98-1.7.32-.14-.55-.76-1.39-.44-2.03l1.07.73c.01-1.12-1.38-.96-1.84-1.49l.31-.27c-1.69-1.06-2.3-.28-3.98-1.59v.37c-1.51.09-.46-1.02-1.82-1.12l.29-1c-.76-.26-2.72-.84-3.96-1.46 1.06-.14 2.59.49 3.65.74-.61-.46-2.15-1.46-2.76-1.29.31.1.76.13.93.42-1.21.08-2.44-.32-3.67-1.2 1.29-1.35-2.98-2.64-3.08-4.42-2.61-.97-4.22-3.29-6.93-4.89.17 1.74-.79-.47-1.41.8-.66-.33-.88-.5-.88-.61l-1.39-1.9c-.22-.62.75.13.87-.17-1.28-.96-.24-.85-.93-1.73-.09.53-.86.28-1.52-.37l.73 1.23c-2.27-.61-.99-2.01-3.28-2.64l.83.03c-.56-.21-1.45-.79-2.4-1.28-.96-.47-1.98-.85-2.75-.7-.09-.24-.13-.68.36-.5-2.28-1.57-5.83-2.28-7.32-3.95l.34-.16c-.49-.19-1.07.03-1.46-.58.1-.09.34-.16.15-.3-.29-.05-1.44-.26-1.94-.75h.69c-2.12-1.7-4.01-1.37-6.06-2.34.46-.76-1.23-2.07-2.07-2.72l.09-.09c-2.66-1.68-4.99-2.03-7.69-3.15-1.14-1.65-5.15-3.3-7.47-5.09.32.33-.36.51-.85.33-.53-.45-1.92-.4-1.48-.98l.21.12c-.12-.85-1.45-1.33-2.41-1.85l-.59.72c-1.91-2.49-6.83-3.06-7.71-4.74-.72-.11-1.48-.5-2.19-.61l.24-.39c-1.66-.95-2.49-1.42-4.65-2.37l.57-.07c-1.18-.61-2.07.38-3.18-.13l-.05-.73c-2.1-.99-3.99-2.46-6.31-2.94.07-.06.21-.19.56-.06-.98-.49-3.66-2.14-3.65-1.24.2-.49-2.17-1.02-3.4-1.33l.34-.26c-1.17 0-1.25.11-2.65-.38-.3-.19-.16-.39.23-.12-.98-.65-.97-.06-2.18-.82h.57c-1.08-.51-1.05-.36-1.76-.39-.74-.18-2.05-.99-2.08-1.34-.23.11-.93.09-1.54-.28-.04-.14.23-.11.36-.09-1.75-1-2.89-.82-4.03-1.66.02-.11-.04-.2-.14-.27 1.46.63 2.63 1.15 2.51 1.13.13-.29-1.04-.83.08-.83-1.05-.18-2.87-.42-3.97-1.04-.04-.05-.09-.1-.11-.16l.13.02c-.25-.14-.51-.21-.75-.26-.35-.19-.57-.32-.93-.47-.04-.28-1.32-.67-1.91-.91-.07.31-.83-.05-.2.48-.09-.06.13.01.53.16.09.03.2.07.27.07-.01 0-.03 0-.05 0 .39.15.9.35 1.49.58-.53-.04-1.07-.12-1.66-.54-.38.06-.8.11-1.02.12-.64-.73-2.12-1.58-2.24-1.9-1.87-.59-4.34-1.58-5.68-1.53-.54-.14-.54-.37-.7-.52.32.07.67.21.86.2-1.09-.27-3.1-1.13-3.47-.9-1.25-.65.85-.01-.97-.66h.28c-1.67-.93-3.21-1.23-4.77-1.61-1.56-.36-3.14-.82-5.03-1.79.26.13.39.19.43.26-4.44-1.82-9.39-3.04-13.79-4.77-1.26-.46-1.45-.37-2.26-.52l-.23-.25-1.4-.23c-1.94-.44-3.18-1.36-5.68-1.8l.29.18c-.87-.26-2.77-.73-2.6-.78-.09 0-.31 0-.64-.13v-.07s-2.18-.47-2.18-.47c-1.66-.47.32-.16-2.12-.77-.91-.2-2.63-.46-2.29-.35.37.08.93.25.95.3l-.84-.17c-.18.11-.84.07 1.15.7l1.43.29.43.2-1.18-.32c.65.26 1.09.32 1.58.4.1.07.29.16.56.25l1.42.24c.15.12-.65-.04.26.26.66.11-.57-.33.51-.08.65.28.43.28 1.24.45.1.08-.08.06-.39-.01.71.16 1.85.54 2.24.55.66.32 2.36.69 2.23.88.23.02 1.27.23 1.91.43-1.24-.12 2.38.78 1.98.98.93.04 3.12.95 4.69 1.32-.09 0-.27-.02-.4-.08.85.31 1.07.48 1.59.73.19-.2 1.53.22 2.29.31.96.61-.73.07-.48.41.01-.22 1.87.45 1.58.15.74.44.66.32 1 .68.25-.27.76.21 1.49.25 1.09.59.18.43 1.48.8.56.33-.6.03-.6.03zm29.84 11.34c-.25-.1-.47-.19-.61-.25.13.05.3.12.61.25zm2.45 1.1c-.29-.15-.66-.32-1.06-.49-.04-.14.1-.21.34-.09-.16.01.39.33.71.58zm-4.34-4.31c.41.12.52.23.55.31-.19-.07-.41-.14-.71-.24-.02 0-.04.01-.06.02.06-.04.13-.07.22-.08z"/><path d="m277.22 51.74c-.06-.02-.1-.02-.17-.05.07.06.14.11.21.16.06-.01.12-.02.18-.03-.07-.03-.15-.06-.21-.08z"/><path d="m475.24 191.42-.03-.05c.01.05.02.1 0 .16 0-.05.01-.07.02-.1z"/><path d="m315.32 73 .05-.1-.26-.02z"/><path d="m483.59 203.83c-.02.05-.02.13.02.24.02-.03 0-.13-.02-.24z"/><path d="m487.74 208.68.46.8c-.18-.36-.33-.61-.46-.8z"/><path d="m490.81 212.51c.1 0 .16-.03.22-.06s-.21.06-.21.06z"/><path d="m435.22 158.01c-.05-.04-.11-.08-.17-.1-.44-.17-.17-.02.17.1z"/><path d="m453.53 172.37c-.28-.06-.56-.13-.81-.24.25.33.47.57.81.24z"/><path d="m415.14 141.77s0 0 .01 0l-.12-.1.11.11z"/><path d="m451.95 171.37c.18.41.45.62.77.76-.2-.28-.43-.61-.77-.76z"/><path d="m504.7 228.64.15.18s.03 0 .05 0l-.19-.18z"/><path d="m504.89 228.83.19.18c-.08-.09-.15-.17-.19-.18z"/><path d="m505.49 229.4-.4-.39c.12.15.27.33.4.39z"/><path d="m500.56 223.63h-.14s.09.03.14 0z"/><path d="m499.25 222.15c.28.38.57 1.06 1.06 1.51h.11c-.34-.13-.73-1.29-1.17-1.51z"/><path d="m495.3 214.7.96 1.36c-.06-.32-.14-.76.37-.2-.94-1.94 0 .56-1.33-1.16z"/><path d="m492.24 210.55c.63.64.2-.18.31-.21-.48-.33-.6-.41-.31.21z"/><path d="m467.75 182.5.55-.41c-.54-.44-.2.18-.55.41z"/><path d="m460.23 179.92.15.78.69-.23z"/><path d="m460.94 173.3.28.14-.99-.64z"/><path d="m414.13 131.58-.4.83c.46.17 1.18-.56.4-.83z"/><path d="m391.95 116.06c0-.49-.47-1.14-1.08-1.1.46.4.77 1 1.08 1.1z"/><path d="m323.61 72.6.57.09-.98-.34z"/><path d="m484.98 225.74c.27-.78 1.13-1.19 1.91-.92l21.66 7.59-2.28-22.84c-.08-.82.52-1.56 1.34-1.64s1.56.53 1.64 1.34l2.51 25.18c.05.51-.16 1.01-.57 1.33-.4.32-.94.41-1.42.24l-23.88-8.37c-.28-.1-.51-.27-.68-.49-.31-.39-.41-.92-.24-1.43z"/></g><g opacity=".25"><path d="m508.95 426.2c.12-.19-.03-.16-.44.29l-.18.43z"/><path d="m505.84 428.89c-.43.58-.86 1.32-.39 1.13.33-.67.51-.73.87-1.45.41-.45.79-.71.77-.59.12-.19.69-.65.83-.97-.65.47-1.38 1.16-2.01 2.01-.19.13-.08-.07-.07-.13z"/><path d="m460.83 467.67.36-.16c-.12.02-.24.08-.36.16z"/><path d="m430.69 488.72c.22-.17.26-.32.23-.4-.18.2-.33.36-.23.4z"/><path d="m424.83 491.22c.13-.05.23-.1.35-.14-.17 0-.32.03-.35.14z"/><path d="m460.83 467.67-.94.39c.11.25.52-.15.94-.39z"/><path d="m500.59 435.26c.13-.16.23-.31.31-.45l-.32.39s.01.04.01.06z"/><path d="m473.12 457.1.23-.19c.02-.11.02-.24.01-.37l-.25.56z"/><path d="m482.63 449.08c-.23.17.03.6.09.83-.02-.26.08-.47.24-.66-.06-.07-.16-.13-.33-.18z"/><path d="m497.79 436.4.22-.27c-.06.07-.15.19-.22.27z"/><path d="m466.12 462.59c-.08-.06-.16-.1-.23-.11.05.06.13.09.23.11z"/><path d="m148.09 594.5s0-.02 0-.02c-.07.02-.09.03 0 .02z"/><path d="m133.63 595.35.2-.02s.04-.04.04-.05z"/><path d="m414.59 496.44s.03 0 .05-.01c.2-.24.07-.14-.05.01z"/><path d="m321.71 545.47c1.32.08-1.53 1.41.38 1.33-.25-.17 1.14-1.54-.38-1.33z"/><path d="m500.34 435.47-.35.37c.17-.16.27-.28.35-.37z"/><path d="m322.09 546.8s.2 0 .2 0c-.08 0-.13 0-.2 0z"/><path d="m392.23 510.41c.12.1.27.15.42.19-.05-.07-.16-.14-.42-.19z"/><path d="m409.78 501.45-.48.15c.21-.03.35-.09.48-.15z"/><path d="m383.93 516.5c-.26.07-.4.01-.66.28.05.02.09.03.14.04.06-.16.19-.29.52-.32z"/><path d="m374.57 521.57c.08.03.16.03.25.05.09-.06.19-.13.28-.2l-.52.15z"/><path d="m180.3 589.99c-.24-.03-.4-.08-.53-.14.19.15-1.35.45.53.14z"/><path d="m500.47 435.15c0 .1-.03.19-.13.32.08-.09.16-.18.23-.27 0-.05-.03-.09-.1-.05z"/><path d="m386.67 522.49-1.58.67c.46-.15 1.04-.39 1.58-.67z"/><path d="m255.26 573.3-.36.16c.15-.03.28-.08.36-.16z"/><path d="m380.63 525.57c-.41-.12-.77-.12-1.12-.06-.03.09-.08.17-.08.27l1.2-.22z"/><path d="m179.77 589.85s0 0 0 0z"/><path d="m168.79 592.08c1.61-.22.71-.37 1.03-.58 1.9-.36.92.08 1.59.13 1.18-.25 2.05-.67 2.94-.8.07.04.25.03.06.12 1.22-.44 3.74-.6 5.16-1.15.11.01.17.03.21.05-.27-.12-.33-.27-.3-.4.71-.13 1.29-.42 1.6-.26-.44.07-.46.16-.65.26l.73-.22c.73.19-1 .28-.97.5 1.45-.33 3.1-.91 4.23-1.02.29.27-2.6.57-1.05.58l-1.75.19c1.41.24-1.06.15.25.44 2.3-.3 2.53-.59 4.82-.9.48-.26-.22-.23.26-.5 3.17-.91 2.71.38 5-.49.57-.34.72-.82 2.45-.92l-.5.5c2.21-.38 1.14-.81 3.5-.98-.38.24-1.7.46-1.36.45 1.56.03 1.01-.43 2.16-.65l.31.31c1.17-.25 2.38-.56 3.63-.89 1.24-.35 2.51-.7 3.8-1.01-.12.15-.54.36.1.35 3.22-.89 6.99-1.36 10.19-1.84l1.11-.63c.28-.06.56.05.27.19 1.26-.13 0-.25.56-.53.69-.18.97 0 .55.22 2.09-.8 5.98-2.07 8.35-2.21l-.41.23c1.81-.27 1.79-1.3 3.51-1.34l-.3.15c3.87-.78 8-2.16 11.08-2.3.38-.78 3.85-.71 3.85-1.67 2.3-.14 1.72.19 4.87-.31.83-.17 1.06-.9 2.04-1.26l.16.48c.41-.29.82-.59 1.22-.89l.9.38.91-.39c-.38.08-.86 0-.85-.15 1.41-.65 3.69-.68 3.81-.43l3.36-1.42c-.02.23-.58.46-1 .73 1.71-1.05.5.44 2.07-.52-.26-.05.03-.34.04-.46.94.07 2.89-.47 4.28-1.02l-.16.44c2.61-.69 5.38-1.83 8.27-2.71-1.09.14-1.06-.58-.24-.91l.52.47c.43-.53-.95.06.03-.73 1.1-.27.94.44.38.81l1.25-.61c.13.15-.14.34-.15.58.42-.53 2.46-.1 3.03-.97l.13.15c2.9-.88 4.11-1.56 6.45-2.34-.13-.54.82-.73 1.37-1.38 1.77-.4 3.82-.62 5.88-1.35 1.36-.75.26-.6.8-1.14.28.46 2.33-.28 1.38.44 2.44-.95 3.11-1.22 6.08-2.75-.41-.09-.83-.04-.69-.28.53-.29 1.36-.25 1.37.02l-.13.11c1.61-1.01 3.76-1.37 5.81-1.72 2.06-.34 4.02-.71 5.18-1.8l-.13.11 2.64-1.68c1.35-.42-.63.7.47.66 2.74-2.08 4.93-1.75 7.24-3.33 2.64.89 6.89-2.92 9.96-2.97l-.32-.32c.52-.66.92-.12 1.46-.24-.2-.27-.89-.04-.55-.43 2.78-1.44 5.82-2.5 8.91-3.54 3.07-1.07 6.22-2.03 9.24-3.13 2.2-.83.23-2.65 3.39-2.87l-.41 1.1c.97-.71 2.02-1.29 3.08-1.85 1.06-.57 2.15-1.07 3.24-1.58 2.18-1 4.37-1.98 6.26-3.38-.16.3-.04.55-.45.74 1.17.17 3.29-1.51 3.06-2 .68-.25.37.36.9.42 1.07-.07 1.84-1.81 2.61-1.44.13.06-.15.31-.29.43.44-.55 2.7-1.27 1.8-1.68 1.72-.46 2.8-1.82 4.25-2.04.39-1.2 2.85-.97 2.51-2.23.51 1.22 3.22-.44 3.89-1.5-.14.52 1.05-.07.93.62 1.11-.59 2.01-1.33 1.49-1.84 2.84.38 3.43-3.39 5.59-2.17 2.9-2.45 5.65-4.58 8.39-6.51.6 1.27-3.15 1.94-2.3 3.13 2.48-2.07 3.5-3.95 6.36-5.29.79-.26-.08.77-.2 1.12 2.42-2.15 5.31-3.09 7.32-5.23.06.12-.12.4-.31.64.45-.33 1.21-.5.82-1.02l-.37.43c-1.24-.33.86-2.81.69-3.28.16 2.05 2.61-1.07 2.56 1.68.25-.29.48-.79.18-1.11.53-.18.81-.06.6.64 1.51-1.34.55-1.54 2.09-2.48.16.26-.09.56-.05.96.46-.99.92-1.97 2.32-2.61.02.21.3.31-.08.56 2.13-1.54 2.85-3.81 5.55-4.92.02 1.57 1.05-.18 1.8.68l1.1-1.15-.82-.11c1.13-.74 1.67-2.08 2.84-2.42l-.58.94 1.98-1.59-1.43.45c.81-1.23-.91-1.09.76-1.82-.24.3 1.13-.73 2.08-.59.36-.65.7-1.37 1.67-1.72.41.13.52 1.11.79 1.2.02-1.14 2.42-2.07 2.54-3.34-.1.35.22.82.36.86l.03-.92c.64-.18.78-.14.96.29 1.6-1-1.27-.75.88-1.59-.11.15.02.19-.21.49 1.99-1.08 3.25-2.91 5.12-3.84 1.1.48-1.31 1.27-.23 1.57 2.29-1.92 4.26-4.6 6.64-6.22l-.49.24c-.53-1.36 2.1-.77 2.85-2.2-.22.3.09.89.08.71 1.68-1.05 2.95-2.78 5.04-4.94l-.08.49c1.09-.49 2.5-1.76 3.58-2.43.09-.48.69-.89.05-.98 2.11-.45 3.3-1.93 4.5-3.28 1.18-1.38 2.32-2.72 4.06-3.31-.31.27-.58.84-.33.62l2.04-2.12c-.48-.22-.48.03-1.19.14.1-.46.58-1.16 1.14-1.62-.8 1.09.5.58 1.1.4-.17-.05-.12-.3-.25-.38 1.7-.36-.41-.88 1.54-1.8l.07.25c.51-.6.86-1.3 1.54-1.78.6.16-.48.72-.24 1.07.86-.81 1.16-2.21 2.26-2.57-.27.45-.81.93-1.1 1.35 1.28-.3 1.26-.53 1.95-1.05l-.07.05 1.62-1.18-.47.24c.26-1.93 2.04-2.23 2.99-4.16-.94 1.84.05.53.27 1 .46-.24 1.13-.67 1.06-.41.42-.94 1.34-.87 1.92-2.2.14.07.74-.68.84-.26.8-.94-.38.01-.44-.2 1.04-1.65 3.59-2.65 5.12-4.98 1.5-1.82 1.5-2.44 2.92-4.09.64-.39-.14.71-.14.71.94-.73 1.53-1.39 2.23-2.26-.1.22.12.11.43-.05.6-.66.17-.68 1.09-1.42-.07.22-.13.52-.35.91.66-.83 1.26-1.7 1.97-2.53.3-.11-.3.63-.49.98.79-.94 2.09-2.39 2.21-2.8l-.6.51c.31-.32.29-.04.09.23-.61.88-1.1 1.04-1.21 1.02l.51-.59c-.9.22-2.14 2.26-3.24 3.37l.17-.75-.89 1.38c-.32.16-.66.15-.15-.44-.95.63-.59.81-1.45 1.3-.1.05-.08 0-.03-.09l-.68.86c.08-.22-.36-.11.17-.53-1.61 1.15-2.01 2.47-2.8 2.7l.1-.14c-1.88 1.96.07.46-1.1 2.18-.57.07-1.14.13-1.72.18l.09.49c-.22.18-.65.52-.7.33-.57.91.26.02 0 .63-1.28.61-2.62 2.65-3.35 2.3-.12.59 1.15-.66.25.49-.86-.33-1.14 1.22-2.31 1.77-.02-.58 1.02-1.18-.17-.66-.05 1.05-1.91 1.47-2.59 2.26.38.51-1.51 1.7-2.67 3.03-.04-.21-2.77 1.82-4.19 2.64l-.04-.12c.23.75-1.15 1.71-1.99 2.6-.26-.38-.2-.65.18-1.22l-.89.72c-.05.36-.25.68-.76 1.22l-.15-.62c-1.17.97-1.94 2.46-3.71 3.39.28.51 2.2.21.85 1.84-.25-.19-.65-.55-.31-.99-.11.14-.33.6-.68.73l.31-.93c-.83.39-.09.63-.67 1.05-.27-.35-.61.09-.75-.25.11-.15.6-.25.7-.56-.67.45-1.59.86-2.06.8.22.15.38.47-.04.89-1.16.99-.75-.09-1.58.28-.08.49-1.07.8-.66 1.36-.36.27-.63.06-.88.02-.44.71-2.89 2.28-1.71 2.34l.19-.08s-.06.06-.08.1 0 0 0 0c-1.61 2.14-4.53 2.93-6.38 4.73l-.15-.2c-1.04 1.16-2.61 2.2-3.14 3.31-.36.28-1.14.27-1.17-.1-.81.87-.73 1.2-2.38 1.81.69-1.05-.58-.1.78-.97-1.38.69-1.92.53-2.82 2.06.05-.88-1.45-.06-1.92.52l1.17-.2c-.61.55-1.22.9-1.85 1.27l-.22-.97c-3.22.83-3.46 4.79-6.51 4.56-.29 1.02 1.65-.58 1.5.48-1.24.72-3.25.43-3.62.68-1.91.67-.68 2.23-2.61 3.03.42.15 1.15.78.06 1.9-1.27.68-2.3-.27-1.71-.99.27-.21.47-.21.53-.1.32-.36.74-.81.05-.82l.04.39c-.8.09-2.43 1.19-2.36.45-.72.87-.06.74.71.45-1.82.57-2.41 1.55-4.18 2.28.36 0 .83.2.57.36-2.56 1.14-.64 1.24-2.13 2.4-1.19.12-.4-1.32-1.73.1-1.17.31-.73-.68-.51-1.18-1.06 1.53-2.94 1.36-3.83 1.78l.6-.74c-.36.44-.73.68-1.11.92l.83.34c-.51.19-.9.42-1.05.15-.21.69 1.01.82.44 1.94-.81.05-1.63 1.46-2.36.76 2.08-.88-.73-.71.79-1.82-.25.29-.63.51-1.15.68-.13-.05-.04-.21.05-.33-2.28.36-.25 1.45-2.15 2.58-.05-.62-.99-.63-1.24-.34.76-.45.85.56.38 1.35-1.44.37-1.15 1.08-1.81 1.42l.83-.27c.05.62-.6.93-1.35 1.6-.3-.33.61-.72.21-.7-.43 1.41-2.64.43-3.6 1.79-.8.05-.6-.86-1.26-.75-1.09 1.51-1.96.33-3.2 1.77.83.38.81.18.08 1.44.78-.63 1.52-1.31 2.27-1.98l-1.07 1.93c.77-.46 1.37-1.39 1.89-1.56-.46 1-.48.79.2 1.1-1.61-.32-1.74 1.84-3.36 1.88l-.89-1.61c-2.25.35-2.8 2.69-5.42 3.67l.93-.17c.04.81-1.43.94-2.06 1.64-.23-.57-.82-.48-1.33-.62.26.37-1.77.98-1.4 2.15l-1.45-.07c-2.09.83-1.37 2.79-3.35 3.63.26-.87-.79-.77.24-1.87-.63.35-1.25.55-1.06.92-.54-.12-1.37 1.64-2.21 1.46-.14.37.06.95-.67 1.29-.13-.06-.13-.25-.13-.25.13.26-.93.94 0 1.17-2.8-.55-5.39 3.02-7.79 2.58-1.29.9-2.86 1.98-4.11 2.65 0-.19-.12-.25.15-.32-1.98.42-.37 1.95-2.62 2.43-1.41-.28.85-.95.06-.93-1.08-1.46-2.3 1.42-4.1 1.17l.28-.26c-1.28-.02-2.2 1.86-3.93 2.58 0 0 .01-.18-.1-.24-.76 1.37-2.81 2.71-4.33 3.72.22-.84.58-.68 0-1.13-.69.44.68.89-.7 1.73-.63-.11-1.82.1-2.26-.47l1.36-.68c-1.1-.5-1.77.86-2.56 1.06l-.08-.4c-2.05 1.11-1.67 2.02-3.97 3.01l.36.16c-.84 1.46-1.27-.01-2.21 1.21l-.78-.72c-.72.6-2.49 2.19-3.89 3.03.55-1.04 2.12-2.17 3-3.06-.81.37-2.73 1.35-2.96 1.98.29-.24.61-.64.99-.66-.69 1.15-1.84 2.12-3.5 2.79-.45-1.82-4.46 1.41-6.21.63-2.64 1.86-5.84 2.25-9.18 3.78 1.73.78-.98.44-.24 1.65-.76.4-1.07.5-1.18.45l-2.72.2c-.72-.14.64-.59.45-.85-1.77.61-.95-.25-2.23-.12.42.36-.34.9-1.4 1.13l1.63.02c-2.16 1.66-2.52-.22-4.7 1.45l.62-.71c-1.17.74-4.61 1.91-5.48 3.36-.28-.06-.7-.29-.18-.59-3.07 1.01-6.35 3.6-8.93 3.89l.12-.38c-.53.3-.78.92-1.6.9 0-.13.12-.38-.15-.3-.26.22-1.32 1.08-2.13 1.19l.52-.57c-3.08.76-4.28 2.43-6.71 3.52-.28-.84-2.72-.28-3.93 0v-.13c-3.49 1.13-5.64 2.8-8.79 4.15-2.29-.19-6.92 1.89-10.29 2.49.54-.03.1.62-.45.88-.8.1-1.95 1.17-2.04.45l.28-.07c-.78-.49-2.29.17-3.52.54l.06.94c-3.58-.28-8.26 3.05-10.34 2.44-.72.43-1.68.71-2.39 1.13l-.08-.45c-2.18.51-3.27.77-5.9 1.64l.46-.46c-1.5.41-1.56 1.76-2.95 2.18l-.58-.5c-2.63.73-5.43.91-7.89 2.15.02-.1.05-.29.47-.43-1.24.32-4.89.91-4.24 1.57-.16-.49-2.73.68-4.11 1.23l.13-.42c-1.09.77-1.1.9-2.76 1.44-.41.05-.42-.2.13-.24-1.38.14-.96.59-2.62.8l.55-.37c-1.38.31-1.24.4-1.93.85-.83.35-2.62.54-2.89.29-.14.24-.84.66-1.67.75-.14-.09.14-.23.28-.3-2.35.3-3.34 1.16-4.99 1.2-.06-.1-.17-.13-.31-.13 1.83-.41 3.3-.73 3.17-.68-.07-.31-1.55-.01-.47-.71-1.13.51-3.05 1.46-4.52 1.66-.08-.01-.15-.02-.21-.06l.14-.07c-.34.05-.63.14-.9.26-.47.06-.77.09-1.21.19-.22-.2-1.72.27-2.46.41.13.29-.85.45.11.51-.12 0 .13-.07.62-.18.11-.03.24-.07.31-.1-.01.01-.03.02-.04.04.48-.12 1.11-.27 1.83-.44-.55.29-1.13.57-1.98.57-.34.28-.71.57-.93.71-1.1-.22-3.09-.02-3.42-.22-2.22.64-5.28 1.26-6.6 2.06-.63.19-.77 0-1.02-.04.36-.12.8-.2.99-.32-1.26.38-3.8.8-4.04 1.21-1.65.16.85-.49-1.37 0l.28-.16c-2.24.16-3.97.76-5.79 1.26-1.81.52-3.7 1-6.18 1.14.34-.02.52-.04.59 0-5.6.75-11.44 2.13-17 2.62-1.57.18-1.73.34-2.67.57l-.36-.12-1.61.42c-2.31.45-4.07.19-6.98.79l.39.04c-1.06.12-3.35.46-3.18.34-.11.03-.34.13-.76.13l-.04-.06-2.59.4c-2.02.17.29-.27-2.65.05-1.09.14-3.1.45-2.69.44.44-.03 1.13-.07 1.17-.02l-1 .11c-.17.15-.94.35 1.54.28l1.71-.23.56.03-1.45.12c.83 0 1.34-.1 1.92-.19.14.03.39.04.73.03l1.67-.32c.21.05-.74.21.39.15.78-.16-.77-.09.53-.27.83 0 .6.1 1.55-.07.14.04-.06.09-.44.15.85-.13 2.27-.25 2.7-.41.87.03 2.89-.35 2.83-.12.26-.08 1.49-.33 2.27-.44-1.4.44 2.95-.34 2.61.01 1.03-.37 3.83-.56 5.68-.98-.1.04-.3.11-.47.12 1.06-.11 1.38-.07 2.07-.1.1-.26 1.74-.54 2.6-.82 1.33.07-.74.41-.3.59-.1-.19 2.22-.52 1.75-.64 1.01.01.86-.05 1.41.1.12-.37.91-.19 1.7-.52 1.46-.04.42.28 1.98-.06.77 0-.61.33-.61.33zm37.12-7.35c-.32.08-.59.15-.76.19.16-.04.38-.09.76-.19zm3.11-.66c-.38.07-.85.16-1.35.27-.13-.09-.04-.23.27-.29-.15.11.59.02 1.08.02zm-7.03-.75c.48-.16.66-.14.74-.09-.23.06-.5.14-.85.24-.01.01-.04.04-.05.05.03-.07.08-.14.16-.2z"/><path d="m201.19 583.92c-.07.02-.11.04-.2.07h.31c.05-.05.11-.09.15-.13-.09.02-.18.04-.26.06z"/><path d="m461.25 467.48-.06.03c.06-.01.12-.02.17 0-.06 0-.07-.02-.11-.02z"/><path d="m251.91 574.48-.04-.12-.24.17z"/><path d="m476.11 458.02c.06.02.14.01.27-.04-.03-.02-.14 0-.27.04z"/><path d="m481.89 453.12.9-.6c-.4.24-.68.44-.9.6z"/><path d="m486.28 449.29c0-.11-.03-.17-.05-.23h-.01s.06.23.06.23z"/><path d="m413.19 506.26c-.06.05-.12.1-.17.15-.36.42-.09.18.17-.15z"/><path d="m435.23 489.52c-.16.29-.31.57-.52.82.44-.22.77-.42.52-.82z"/><path d="m386.85 522.42s0 0 0-.01c-.06.03-.11.06-.17.09l.17-.07z"/><path d="m433.64 491.03c.5-.14.82-.39 1.07-.7-.37.18-.81.37-1.07.7z"/><path d="m504.16 431.49.2-.2s-.01-.03 0-.05z"/><path d="m504.35 431.24.19-.25c-.1.1-.18.2-.19.25z"/><path d="m504.96 430.48-.41.51c.16-.16.35-.36.41-.51z"/><path d="m498.78 437.01.02.14c.02-.05.01-.1-.02-.14z"/><path d="m497.19 438.73c.41-.38 1.14-.84 1.62-1.46v-.12c-.14.39-1.39 1.05-1.62 1.58z"/><path d="m488.93 444.19 1.55-1.21c-.36.11-.85.25-.2-.36-2.18 1.27.62-.08-1.34 1.57z"/><path d="m484.22 448.02c.73-.75-.19-.19-.21-.3-.39.56-.48.7.21.3z"/><path d="m450.02 475.28-.32-.61c-.59.56.15.22.32.61z"/><path d="m445.35 483.11.9-.11-.07-.75z"/><path d="m438.32 481.77.23-.28-.95.98z"/><path d="m375.9 520.03.63.69c.41-.4.03-1.36-.63-.69z"/><path d="m347.96 535.02c-.48-.21-1.39-.06-1.73.52.67-.25 1.44-.27 1.73-.52z"/><path d="m258.82 568.01.55-.36-1.1.5z"/><path d="m504.48 450.64c-.81-.17-1.32-.97-1.15-1.78l4.86-22.43-22.38 5.08c-.81.18-1.61-.32-1.8-1.13-.18-.81.33-1.61 1.13-1.8l24.68-5.6c.5-.11 1.02.04 1.39.4.36.36.52.88.41 1.38l-5.36 24.73c-.06.29-.21.54-.4.74-.35.35-.86.52-1.38.41z"/></g><g opacity=".25"><path d="m675.84 426.01c-.14-.11-.17.03.17.39l.37.15z"/><path d="m677.66 428.74c.45.38 1.04.74.98.32-.55-.28-.57-.44-1.17-.75-.33-.36-.49-.7-.38-.68-.15-.1-.46-.6-.72-.73.29.58.78 1.21 1.43 1.77.07.17-.08.07-.14.07z"/><path d="m707.89 465.51-.14-.29c.02.1.07.2.14.29z"/><path d="m728.23 486.94c-.18-.14-.31-.13-.38-.08.19.1.36.18.38.08z"/><path d="m731.11 491.26c-.06-.1-.12-.17-.17-.25.02.15.07.26.17.25z"/><path d="m707.89 465.51.34.76c.23-.14-.13-.44-.34-.76z"/><path d="m682.43 433.32c-.12-.11-.24-.2-.35-.27l.29.28s.04-.01.06-.01z"/><path d="m698.78 456.2-.16-.18c-.1 0-.22.01-.34.04z"/><path d="m692.29 448.59c.13.19.55-.08.77-.15-.24.04-.42-.03-.57-.15-.07.06-.14.16-.2.31z"/><path d="m682.9 435.81-.21-.19c.05.05.14.13.21.19z"/><path d="m703.41 461.66c-.06.08-.1.16-.11.23.06-.05.09-.13.11-.23z"/><path d="m937.52 607.74s0 .02 0 .02c.06 0 .08 0 0-.02z"/><path d="m948.49 611.39-.16-.03s-.04.02-.04.04h.2z"/><path d="m737.17 498.36s-.01-.02-.02-.04c-.25-.09-.13-.01.02.04z"/><path d="m805.55 548.81c-.5-1 1.72.23.85-1.09-.02.28-1.66.13-.85 1.09z"/><path d="m682.57 433.53.27.31c-.11-.15-.2-.24-.27-.31z"/><path d="m806.39 547.72s-.09-.14-.09-.14c.04.06.06.09.09.14z"/><path d="m753.7 511.91c.06-.14.07-.29.07-.43-.05.07-.08.19-.07.43z"/><path d="m742.38 500.7.21.35c-.06-.16-.14-.27-.21-.35z"/><path d="m760.93 516.1c.13.18.11.32.41.41 0-.05 0-.09 0-.13-.15.02-.3-.02-.41-.28z"/><path d="m767.7 521.37c0-.08-.02-.15-.03-.22-.08-.04-.17-.09-.24-.13z"/><path d="m913.09 599.15c.15.13.23.25.29.35-.06-.21 1.13.19-.29-.35z"/><path d="m682.3 433.42c.09 0 .17.02.26.11-.07-.07-.13-.14-.2-.2-.05 0-.08.03-.06.09z"/><path d="m765.32 511.2.95.96c-.24-.3-.59-.65-.95-.96z"/><path d="m857.57 573.74.3.09c-.1-.06-.21-.1-.3-.09z"/><path d="m769.41 514.64c0 .38.1.67.24.93.08-.01.16-.01.25-.06l-.48-.86z"/><path d="m913.38 599.5s0 0 0 0z"/><path d="m921.91 602.15c-1.2-.46-.66.04-.96.1-1.47-.46-.6-.44-1.04-.76-.92-.27-1.71-.27-2.37-.53-.03-.06-.16-.13.02-.13-1.04-.12-2.82-1.06-4.04-1.19-.07-.06-.1-.1-.12-.13.12.22.1.38.02.48-.54-.2-1.08-.19-1.21-.46.33.13.39.06.57.06l-.6-.13c-.4-.48.81.19.89-.02-1.14-.33-2.52-.58-3.33-.98-.07-.36 2.02.66.98-.03l1.27.61c-.83-.83.78.34.04-.49-1.68-.76-1.98-.59-3.65-1.37-.45.01.03.3-.42.31-2.55-.67-1.61-1.55-3.55-1.86-.54.02-.88.36-2.07-.37l.58-.19c-1.64-.71-1.16.16-2.78-.82.37-.02 1.34.42 1.11.27-.99-.77-.87-.12-1.73-.48l-.04-.42c-1.77-.7-3.8-1.26-5.77-2.01.15-.06.53-.03.13-.34-2.5-.89-5.15-2.36-7.38-3.64l-1.04-.06c-.21-.1-.32-.33-.06-.29-.85-.55-.14.2-.64.13-.53-.22-.59-.52-.22-.47-1.72-.46-4.84-1.47-6.34-2.65l.38.04c-1.23-.77-1.83.08-2.88-.84l.26.05c-2.74-1.55-6.02-2.71-7.88-4.36-.7.4-2.64-1.65-3.22-.93-1.39-1.23-.86-1.14-2.95-2.59-.58-.35-1.16.07-1.94-.22l.21-.46-1.24-.04-.26-.82-.75-.24c.26.17.48.51.37.62-1.2-.34-2.47-1.7-2.37-1.96l-2.74-.98c.16-.16.61 0 1.01.07-1.6-.26.02-.63-1.45-.87.11.2-.24.23-.32.31-.47-.62-1.87-1.4-2.97-1.84l.38-.23c-1.83-1.1-4.03-2.01-6.1-3.22.66.59.16 1.09-.49.8l.05-.67c-.58.1.53.56-.5.51-.75-.5-.19-.9.35-.82l-1.05-.36c.03-.19.3-.15.47-.32-.57.11-1.33-1.48-2.21-1.22l.04-.19c-2.06-1.21-3.13-1.53-4.81-2.52-.31.46-.9-.04-1.62.05-1.14-.89-2.29-2.09-3.79-2.94-1.19-.38-.55.23-1.19.25.19-.49-1.32-1.34-.36-1.2-1.82-1-2.34-1.25-4.78-2.29.13.34.35.59.11.66-.45-.18-.8-.77-.61-.95l.14.02c-2.93-.86-4.9-5-7.49-5.27l.14.02c-.79-.26-1.59-.52-2.37-.8-.88-.7.79.01.29-.74-2.7-.65-3.37-2.41-5.52-3.07-.43-2.39-5.03-3.15-6.23-5.41l-.13.42c-.71 0-.44-.6-.74-.93-.13.31.31.68-.12.66-4.32-2.43-8.04-6.3-11.79-9.73-1.4-1.21-2.2 1.26-3.44-1.01l1.03-.29c-1.79-.71-3.32-1.86-4.81-3.02-1.51-1.15-2.93-2.41-4.64-3.17.3-.03.46-.24.74-.02-.21-1-2.21-1.81-2.55-1.38-.41-.4.19-.47.08-.91-.36-.8-2.04-.54-1.95-1.32.01-.13.3-.04.44.01-.59-.06-1.78-1.53-1.88-.61-.84-1.15-2.28-1.35-2.84-2.41-1.1.24-1.53-1.85-2.5-.99.89-.97-1.18-2.38-2.24-2.44.48-.13-.32-.81.3-1.03-.77-.62-1.62-1.01-1.93-.36-.37-2.43-3.65-1.32-3.11-3.6-2.75-1.28-5.08-2.74-7.31-4.2.98-1 2.3 1.81 3.16.62-2.26-1.21-4.14-1.24-5.81-3.12-.36-.57.68-.22 1-.26-2.27-1.21-3.61-3.23-5.77-4.15.09-.09.37-.04.6.03-.36-.26-.62-.84-1.01-.33l.43.16c-.09 1.17-2.59.28-2.97.6 1.77-.87-1.33-1.83 1.09-2.76-.29-.1-.77-.12-1 .24-.24-.38-.17-.66.48-.73-1.4-.79-1.44.09-2.49-.88.21-.23.5-.12.86-.29-.94-.04-1.89-.08-2.61-1.08.18-.09.24-.36.5-.12-1.61-1.31-3.71-1.19-5.01-3.13 1.4-.52-.29-.83.4-1.75l-1.12-.59-.02.74c-.77-.75-2.02-.8-2.43-1.71l.9.21-1.61-1.22.54 1.09c-1.18-.33-.89 1.11-1.71-.11.29.12-.77-.75-.72-1.61-.63-.11-1.28-.23-1.66-.97.09-.39.96-.76 1.02-1.02-1.01.3-2-1.54-3.16-1.31.32 0 .72-.41.75-.54l-.83.22c-.2-.51-.17-.64.2-.9-.99-1.12-.6 1.3-1.48-.34.14.05.17-.07.46.05-.54-.72-1.25-1.23-1.94-1.73-.67-.52-1.32-1.04-1.78-1.74.39-1.08 1.19.83 1.42-.18-1.81-1.52-4.34-2.58-5.78-4.36l.22.38c-1.23.75-.71-1.69-2-2.04.27.13.81-.27.65-.22-.95-1.25-2.52-2.01-4.49-3.41l.45-.02c-.43-.87-1.55-1.88-2.13-2.7-.44 0-.79-.44-.9.13-.38-1.75-1.58-2.63-2.76-3.48-1.18-.84-2.34-1.66-2.76-3.12.23.23.73.39.55.2l-1.8-1.5c-.23.46 0 .42.05 1.03-.42-.02-1.03-.35-1.42-.78.95.56.57-.52.45-1.02-.06.15-.28.15-.37.27-.21-1.45-.85.49-1.55-1.12l.24-.09c-.5-.38-1.11-.61-1.5-1.16.2-.55.62.34.97.08-.65-.68-1.95-.75-2.13-1.73.37.21.75.64 1.12.84-.17-1.09-.35-1.06-.74-1.64l.04.06-.87-1.35.16.4c-1.73-.05-1.77-1.63-3.41-2.31 1.57.68.49-.09.95-.33-.16-.39-.46-.95-.23-.91-.81-.29-.61-1.12-1.76-1.53.08-.13-.53-.6-.13-.72-.75-.64-.04.34-.24.4-.7-.39-1.17-1.15-1.73-1.94-.55-.79-1.21-1.61-2.13-2.24-1.4-1.26-1.93-1.27-3.16-2.49-.23-.57.62.11.62.11-.47-.83-.96-1.35-1.62-1.95.18.08.13-.11.04-.39-.48-.52-.59-.14-1.08-.95.19.06.45.11.76.3-.62-.58-1.3-1.1-1.91-1.71-.03-.27.52.26.8.42-.7-.69-1.77-1.82-2.12-1.93l.34.53c-.23-.27.03-.26.23-.08.68.52.72.97.68 1.06l-.44-.44c.01.81 1.64 1.87 2.43 2.83l-.66-.13 1.09.76c.08.28 0 .59-.43.15.38.84.62.51.9 1.28.02.09-.02.08-.08.03l.65.59c-.19-.07-.18.33-.45-.14.73 1.43 1.86 1.75 1.91 2.46l-.11-.08c1.49 1.59.43-.08 1.83.88l-.1 1.51.47-.11c.13.18.39.54.21.59.77.44.05-.23.59-.05.38 1.09 2.09 2.12 1.67 2.81.53.06-.45-.97.49-.26-.42.79.98.92 1.32 1.92-.54.06-.95-.81-.63.21.96-.04 1.1 1.59 1.74 2.14.51-.39 1.36 1.21 2.43 2.14-.23.08 1.41 2.26 2.04 3.44l-.12.05c.71-.3 1.51.79 2.28 1.41-.37.28-.62.27-1.12 0l.61.69c.33 0 .61.13 1.08.51l-.58.22c.83.9 2.15 1.38 2.9 2.82.48-.33.32-1.99 1.73-1.03-.19.25-.54.66-.92.42.13.08.53.2.63.5l-.83-.14c.31.69.57-.02.92.44-.34.29.05.53-.27.71-.13-.08-.2-.5-.47-.54.37.53.7 1.3.61 1.73.15-.22.45-.41.81-.1.84.89-.12.69.17 1.38.43 0 .7.82 1.23.35.24.27.04.54 0 .78.65.26 2.03 2.15 2.11 1.09l-.07-.16s.06.04.09.06 0 0 0 0c.95.53 1.62 1.38 2.25 2.25.63.88 1.22 1.81 2.05 2.43l-.19.18c1.06.68 2.02 1.85 3.03 2.09.25.26.25.95-.08 1.06.79.54 1.08.4 1.71 1.69-.99-.35-.07.53-.91-.46.68 1.04.56 1.56 1.99 1.98-.8.17.01 1.29.56 1.56l-.24-.98c.52.4.87.86 1.23 1.32l-.87.43c.92 2.63 4.57 1.79 4.56 4.52.94-.02-.64-1.29.33-1.44.73.89.62 2.74.87 3 .75 1.5 2.04 0 2.96 1.42.09-.4.6-1.22 1.71-.61.74.89-.01 2.07-.73 1.76-.22-.17-.24-.35-.14-.43-.35-.17-.81-.4-.75.2l.35-.15c.16.66 1.32 1.75.65 1.91.85.36.67-.17.33-.75.71 1.41 1.63 1.64 2.5 2.94-.04-.31.08-.77.26-.61 1.34 1.84 1.19.16 2.41 1.06.26.99-1.12.77.31 1.45.43.91-.51.85-.98.81 1.5.42 1.59 2.1 2.09 2.74l-.74-.28c.44.17.7.41.97.66l.19-.83c.23.39.5.63.28.86.65-.06.57-1.14 1.66-1.03.17.66 1.56.87 1.05 1.74-1.11-1.46-.51.87-1.74-.04.3.11.56.36.79.75-.03.13-.18.11-.31.07.69 1.82 1.33-.29 2.63.93-.54.26-.39 1.06-.1 1.17-.53-.49.36-.92 1.13-.8.56 1.09 1.13.59 1.54 1.03l-.37-.61c.54-.27.9.19 1.63.57-.23.37-.75-.25-.66.08 1.31-.16.85 2.06 2.23 2.36.19.65-.64.82-.43 1.34 1.53.35.65 1.55 2.15 2.04.16-.84 0-.74 1.24-.63l-2.16-1.15 1.87.17c-.54-.47-1.46-.63-1.71-1.01.95.01.77.1.92-.59.02 1.49 1.91.77 2.29 2.08l-1.22 1.37c.78 1.73 2.94 1.25 4.34 3.04l-.34-.7c.69-.36 1.11.81 1.85 1.05-.44.42-.23.88-.24 1.37.25-.36 1.25 1.05 2.17.25l.28 1.23c1.21 1.36 2.68-.04 3.9 1.19-.81.17-.46.99-1.66.63.45.36.79.77 1.05.46.03.49 1.75.38 1.82 1.14.35-.05.8-.48 1.27-.04-.02.14-.18.22-.18.22.18-.22 1.04.33.99-.53.27 2.5 3.93 3.02 4.25 5.11 1.12.6 2.45 1.37 3.38 2.02-.16.09-.17.22-.31.04.95 1.35 1.73-.67 2.81.86.2 1.25-1.05-.19-.79.41-.88 1.57 1.88 1.1 2.22 2.65l-.3-.09c.39 1.02 2.21.81 3.34 1.82 0 0-.15.08-.16.2 1.36-.1 3.12.79 4.43 1.44-.75.27-.74-.1-.91.6.58.3.48-.98 1.64-.37.13.54.71 1.33.4 1.97l-1.02-.68c-.03 1.1 1.31.89 1.74 1.39l-.3.27c1.61.97 2.21.19 3.8 1.41v-.36c1.46-.15.44.98 1.74 1.03l-.29.99c.72.24 2.64.67 3.81 1.25-1.01.17-2.49-.38-3.52-.56.59.41 2.07 1.31 2.65 1.13-.29-.09-.73-.1-.88-.38 1.17-.13 2.34.22 3.51 1.04-1.26 1.38 2.83 2.48 2.9 4.23 1.24.43 2.25 1.19 3.26 2.04 1.03.82 2.07 1.72 3.35 2.47-.14-1.71.75.43 1.36-.84.63.3.84.46.84.57l1.31 1.82c.2.6-.72-.1-.83.2 1.22.9.22.83.87 1.67.09-.52.83-.31 1.45.31l-.68-1.18c2.17.52.92 1.94 3.11 2.47h-.8c1.04.39 3.45 2.08 4.93 1.74.08.23.11.67-.35.5 2.16 1.47 5.56 2.04 6.96 3.63l-.33.17c.47.17 1.03-.06 1.39.51-.09.09-.33.17-.14.3.28.03 1.4.17 1.87.65l-.66.03c2.01 1.6 3.82 1.21 5.77 2.09-.45.76 1.15 2 1.95 2.61l-.09.09c2.52 1.57 4.78 1.78 7.33 2.82 1.07 1.58 4.87 3.1 7.09 4.74-.31-.32.35-.51.82-.36.5.43 1.83.33 1.41.92l-.2-.12c.1.84 1.37 1.27 2.28 1.75l.58-.73c1.78 2.41 6.5 2.77 7.32 4.41.68.09 1.41.44 2.08.54l-.23.39c1.57.89 2.36 1.32 4.41 2.19l-.55.09c1.13.56 1.99-.47 3.05 0l.04.72c1.99.91 3.78 2.32 5.98 2.72-.07.07-.2.2-.54.07.92.46 3.48 1.98 3.47 1.1-.2.49 2.05.95 3.22 1.22l-.32.27c1.11-.04 1.19-.14 2.52.3.28.18.14.39-.22.12.93.62.92.03 2.06.75h-.55c1.02.49.99.34 1.67.34.71.15 1.94.92 1.97 1.27.22-.12.89-.11 1.47.23.04.14-.22.12-.34.1 1.65.94 2.75.73 3.82 1.53-.02.11.04.19.13.27-1.38-.59-2.49-1.07-2.38-1.05-.12.29.98.8-.08.82 1 .15 2.72.34 3.77.91.04.05.08.09.11.15h-.13c.24.11.48.18.71.22.33.18.54.3.88.44.04.27 1.25.63 1.81.86.07-.31.79.03.2-.48.08.06-.12 0-.5-.14-.09-.02-.19-.06-.25-.07.01 0 .03 0 .05-.01-.37-.14-.86-.33-1.41-.53.51.03 1.02.09 1.58.5.37-.07.76-.13.97-.15.6.71 2 1.51 2.11 1.83 1.78.54 4.12 1.43 5.39 1.36.51.12.51.35.66.5-.3-.06-.64-.19-.82-.18 1.03.24 2.93 1.04 3.29.81 1.18.62-.81.04.91.62h-.27c1.59.87 3.04 1.15 4.52 1.48s2.98.73 4.76 1.65c-.25-.12-.37-.18-.41-.25 4.19 1.7 8.88 2.8 13.04 4.43 1.19.43 1.37.34 2.14.47l.21.24 1.32.2c1.83.41 3 1.29 5.36 1.68l-.27-.17c.82.24 2.61.68 2.45.73.09 0 .29-.01.6.11v.07s2.06.43 2.06.43c1.56.44-.31.17 2 .73.86.18 2.48.42 2.17.32-.35-.08-.88-.24-.89-.29l.79.16c.18-.11.8-.08-1.08-.68l-1.35-.27-.41-.19 1.12.31c-.61-.25-1.03-.3-1.49-.38-.1-.07-.27-.15-.53-.24l-1.34-.21c-.14-.12.62.03-.24-.26-.63-.1.54.32-.48.09-.61-.26-.41-.28-1.17-.43-.09-.08.08-.06.37 0-.67-.14-1.75-.51-2.12-.5-.62-.31-2.23-.64-2.1-.83-.22-.02-1.2-.21-1.81-.39 1.18.09-2.25-.73-1.87-.93-.89-.02-2.95-.88-4.43-1.21.09 0 .26.01.38.07-.8-.3-1.01-.46-1.5-.69-.18.2-1.45-.18-2.17-.26-.9-.58.7-.08.46-.42-.02.22-1.77-.4-1.5-.11-.7-.42-.62-.3-.94-.65-.24.28-.72-.19-1.41-.21-1.03-.56-.17-.42-1.39-.76-.53-.32.57-.04.57-.04zm-28.25-10.47c.24.09.45.17.58.22-.12-.05-.29-.11-.58-.22zm-2.32-1.02c.28.14.63.29 1 .46.04.14-.1.21-.33.1.16-.02-.36-.32-.67-.56zm4.09 4.14c-.39-.11-.49-.21-.52-.29.18.06.39.13.67.22.02 0 .04-.01.06-.02-.06.04-.12.08-.21.09z"/><path d="m896.26 594.69c.06.01.09.01.16.04-.07-.06-.13-.11-.2-.15-.06.01-.12.03-.17.04.07.03.14.05.2.08z"/><path d="m707.73 465.16.02.05c-.01-.05-.02-.1 0-.15 0 .05-.02.06-.02.1z"/><path d="m860.17 574.84-.05.1.24.01z"/><path d="m699.84 453.43c.02-.05.02-.13-.02-.23-.02.03 0 .12.02.23z"/><path d="m695.88 448.89-.43-.75c.17.34.31.57.43.75z"/><path d="m692.95 445.3c-.1.01-.16.04-.22.07s.21-.07.21-.07z"/><path d="m746.03 496.07s.1.07.16.09c.42.15.17.01-.16-.09z"/><path d="m728.52 482.81c.27.05.54.1.78.2-.24-.31-.45-.53-.78-.2z"/><path d="m765.21 511.1s0 0-.01 0l.12.1-.1-.11z"/><path d="m730.03 483.72c-.17-.39-.43-.59-.73-.71.19.26.41.58.73.71z"/><path d="m679.71 430.2-.14-.17s-.03.01-.05 0z"/><path d="m679.53 430.03-.18-.17c.08.09.14.16.18.17z"/><path d="m678.95 429.5.39.36c-.12-.14-.26-.31-.39-.36z"/><path d="m683.66 434.9.13-.02s-.09 0-.13.02z"/><path d="m684.9 436.29c-.27-.36-.54-1-1-1.42h-.11c.33.12.68 1.23 1.11 1.42z"/><path d="m688.61 443.34-.91-1.28c.05.31.12.73-.36.2.88 1.84.01-.55 1.27 1.08z"/><path d="m691.51 447.25c-.6-.6-.2.18-.31.22.46.31.58.37.31-.22z"/><path d="m714.87 473.52-.55.42c.52.4.19-.18.55-.42z"/><path d="m722.13 475.74-.13-.75-.67.25z"/><path d="m721.34 482.2-.27-.13.96.58z"/><path d="m766.04 521.02.4-.83c-.45-.14-1.15.6-.4.83z"/><path d="m787.21 535.33c0 .48.44 1.1 1.02 1.04-.44-.38-.73-.96-1.02-1.04z"/><path d="m852.24 575.53-.54-.08.93.31z"/><path d="m699.65 433.25c-.27.78-1.12 1.2-1.91.93l-21.71-7.45 2.43 22.82c.09.82-.51 1.56-1.33 1.65s-1.56-.52-1.65-1.33l-2.67-25.16c-.05-.51.16-1.01.56-1.33s.94-.41 1.42-.25l23.93 8.22c.28.1.51.27.68.48.31.39.42.92.25 1.42z"/></g><g opacity=".25"><path d="m675.37 232.77c-.09.18.05.15.39-.28l.11-.41-.49.69z"/><path d="m677.99 230.16c.34-.56.65-1.27.21-1.08-.22.64-.39.71-.64 1.39-.33.43-.66.69-.66.57-.08.18-.57.63-.67.93.56-.46 1.17-1.13 1.66-1.94.17-.12.09.07.09.13z"/><path d="m715.92 192.71-.32.15c.11-.02.21-.08.32-.15z"/><path d="m741.85 172.35c-.19.17-.21.31-.17.39.15-.19.26-.35.17-.39z"/><path d="m747.03 169.88c-.12.05-.21.09-.31.14.16 0 .29-.03.31-.14z"/><path d="m715.92 192.71.84-.39c-.13-.24-.47.15-.84.39z"/><path d="m682.17 224.03c-.1.16-.18.3-.24.43l.26-.38s-.02-.03-.02-.06z"/><path d="m705.55 202.9-.2.18c0 .11 0 .23.03.35l.16-.53z"/><path d="m697.5 210.63c.19-.16-.1-.57-.19-.79.05.25-.01.45-.14.63.06.07.17.12.33.16z"/><path d="m684.69 222.9-.18.26c.05-.07.12-.18.18-.26z"/><path d="m711.48 197.57c.08.06.17.09.23.1-.05-.06-.14-.09-.23-.1z"/><path d="m989.97 63.53s0 .01 0 .02c.06-.02.08-.04 0-.02z"/><path d="m1002.87 61.95-.18.03s-.03.04-.03.05z"/><path d="m756.04 164.85s-.03 0-.05.01c-.16.23-.05.13.05-.01z"/><path d="m836.92 116.57c-1.21-.06 1.27-1.41-.46-1.3.24.16-.9 1.53.46 1.3z"/><path d="m682.38 223.83.29-.36c-.14.16-.23.27-.29.36z"/><path d="m836.46 115.27s-.18.01-.18.01c.07 0 .12 0 .18-.01z"/><path d="m775.33 151.19c-.12-.1-.26-.15-.4-.18.05.07.16.13.4.18z"/><path d="m759.98 159.94.42-.15c-.19.03-.32.09-.42.15z"/><path d="m782.45 145.29c.24-.07.36-.02.58-.28-.05-.02-.09-.03-.14-.03-.04.16-.15.29-.44.32z"/><path d="m790.58 140.28c-.07-.03-.16-.03-.23-.05-.08.06-.16.13-.24.19z"/><path d="m961.36 69.37c.22.02.37.07.48.12-.19-.14 1.18-.5-.48-.12z"/><path d="m682.29 224.13c-.02-.09 0-.18.09-.3-.07.09-.13.18-.19.26.01.05.04.08.1.04z"/><path d="m779.37 139.47 1.39-.67c-.41.15-.92.39-1.39.67z"/><path d="m895 88.09.31-.16c-.13.03-.25.08-.31.16z"/><path d="m784.64 136.41c.38.11.72.11 1.03.05.02-.09.06-.17.05-.27z"/><path d="m961.85 69.49s0 0 0 0z"/><path d="m971.56 66.84c-1.43.29-.61.4-.88.62-1.68.44-.83-.04-1.44-.06-1.05.29-1.8.72-2.59.89-.07-.03-.23-.02-.06-.12-1.06.48-3.32.75-4.55 1.36-.1 0-.16-.02-.19-.04.25.11.32.26.3.38-.63.15-1.13.48-1.42.32.39-.08.4-.18.57-.28l-.64.24c-.67-.16.88-.31.83-.53-1.28.39-2.73.99-3.74 1.16-.28-.25 2.29-.67.9-.61l1.57-.24c-1.29-.2.94-.18-.26-.43-2.05.36-2.23.68-4.27 1.06-.41.28.21.22-.2.5-2.78 1.02-2.46-.27-4.46.67-.49.35-.59.81-2.14.98l.41-.51c-1.96.46-.97.84-3.08 1.1.32-.25 1.5-.52 1.19-.49-1.41.03-.88.46-1.89.73l-.31-.3c-2.06.59-4.28 1.41-6.55 2.12.09-.15.45-.37-.11-.34-2.84.98-6.18 1.63-9.05 2.13l-.96.66c-.25.07-.51-.03-.26-.18-1.12.17.01.25-.47.54-.61.2-.88.03-.52-.2-1.82.85-5.23 2.27-7.36 2.44l.36-.23c-1.61.3-1.52 1.3-3.08 1.39l.25-.16c-3.43.87-7.04 2.42-9.83 2.57-.29.75-3.43.78-3.35 1.73-2.06.2-1.57-.14-4.38.44-.74.19-.88.92-1.74 1.31l-.19-.47-1.04.9-.85-.36-.8.4c.34-.08.79-.02.78.14-1.23.64-3.3.73-3.42.49l-2.93 1.49c0-.23.49-.47.85-.74-1.46 1.08-.49-.43-1.83.57.24.04 0 .34 0 .45-.86-.04-2.57.54-3.79 1.12l.11-.44c-1.16.35-2.35.81-3.57 1.29-1.21.5-2.45 1.04-3.73 1.51.98-.17 1.01.55.29.89l-.51-.46c-.35.53.86-.08.04.72-.97.29-.89-.41-.41-.8l-1.08.63c-.13-.15.1-.34.09-.58-.34.53-2.22.16-2.67 1.03l-.13-.15c-2.55.94-3.63 1.54-5.68 2.37.16.53-.69.73-1.13 1.39-1.57.44-3.42.69-5.22 1.46-1.17.77-.19.6-.63 1.14-.29-.44-2.09.32-1.29-.4-2.14.96-2.76 1.17-5.33 2.74.38.08.75.02.65.26-.46.29-1.21.27-1.25 0l.11-.11c-2.73 2.07-7.73 1.53-9.71 3.62l.11-.11c-.76.55-1.53 1.08-2.28 1.65-1.19.43.52-.7-.48-.64-2.31 2.09-4.34 1.81-6.3 3.4-2.45-.77-6.1 2.84-8.87 2.97l.32.31c-.42.66-.83.13-1.31.26.21.26.81.03.54.41-2.41 1.45-5.08 2.57-7.82 3.59-2.76.99-5.55 1.98-8.21 3.11-1.94.84.02 2.61-2.84 2.86l.27-1.09c-1.66 1.41-3.59 2.39-5.53 3.34-1.93.96-3.83 1.97-5.44 3.36.12-.3 0-.54.35-.73-1.09-.15-2.87 1.52-2.62 2-.6.26-.37-.35-.86-.4-.97.08-1.52 1.79-2.26 1.44-.12-.06.11-.31.23-.43-.34.56-2.4 1.2-1.52 1.61-1.56.42-2.45 1.72-3.75 1.96-.25 1.18-2.53.98-2.1 2.2-.58-1.19-2.91.47-3.43 1.51.08-.51-.96.08-.92-.6-.97.58-1.72 1.32-1.19 1.81-2.64-.33-2.89 3.24-5.01 2.05-2.44 2.42-4.76 4.52-7.11 6.42-.67-1.23 2.72-1.92 1.82-3.07-2.1 2.02-2.82 3.92-5.38 5.17-.72.24 0-.73.09-1.07-2.09 2-4.66 2.96-6.31 5.05-.07-.11.07-.39.22-.62-.38.32-1.07.5-.66.99l.3-.42c1.18.31-.52 2.74-.31 3.19-.36-1.99-2.31 1.06-2.54-1.61-.2.29-.36.77-.06 1.08-.47.18-.74.07-.62-.62-1.26 1.32-.35 1.5-1.68 2.43-.17-.25.02-.54-.05-.93-.32.97-.65 1.93-1.92 2.51-.04-.2-.31-.3.03-.53-1.88 1.42-2.3 3.64-4.69 4.74-.18-1.52-.95.18-1.74-.64l-.9 1.12.77.1c-.98.73-1.34 2.03-2.39 2.37l.44-.92-1.68 1.56 1.28-.45c-.63 1.2.96 1.04-.51 1.77.19-.29-.97.72-1.87.59-.26.64-.53 1.3-1.41 1.63-.4-.13-.59-1.07-.86-1.16.05.54-.48 1.02-1.01 1.53-.52.52-1.05 1.06-1.04 1.67.05-.33-.29-.79-.42-.82l.07.89c-.58.18-.71.14-.92-.27-1.38.98 1.26.72-.65 1.54.08-.15-.04-.18.14-.48-1.74 1.06-2.71 2.84-4.36 3.75-1.08-.45 1.08-1.23.04-1.51-1.92 1.88-3.47 4.49-5.59 5.97.14-.08.29-.16.43-.23.63 1.29-1.88.76-2.42 2.13.17-.29-.19-.86-.15-.68-1.45 1.03-2.45 2.7-4.17 4.8l.02-.47c-.97.48-2.14 1.72-3.08 2.37-.03.47-.54.86.06.94-1.89.5-2.98 1.77-3.91 3.12-.95 1.33-1.87 2.63-3.43 3.22.26-.26.44-.81.24-.6l-1.67 2.05c.48.2.45-.03 1.1-.15-.04.44-.41 1.11-.88 1.56.62-1.05-.54-.55-1.08-.37.16.04.15.28.28.36-1.56.37.49.83-1.23 1.74l-.1-.24c-.41.58-.65 1.25-1.24 1.73-.59-.15.36-.69.1-1.03-.73.77-.81 2.15-1.85 2.46.22-.41.68-.87.9-1.28-1.16.31-1.14.51-1.75.99l.06-.04c-.49.35-.94.75-1.41 1.13l.42-.23c0 1.85-1.66 2.16-2.32 4 .66-1.77-.11-.5-.38-.95-.41.24-.98.65-.95.41-.28.9-1.16.85-1.55 2.12-.15-.06-.61.66-.76.26-.64.9.36-.02.44.18-.78 1.58-3.08 2.58-4.23 4.82-1.24 1.71-1.14 2.32-2.28 3.9-.56.38.04-.68.04-.68-.8.7-1.28 1.35-1.84 2.19.06-.21-.13-.1-.4.06-.49.64-.07.65-.85 1.37.04-.21.06-.5.22-.87-.52.8-.98 1.63-1.55 2.43-.28.11.2-.6.34-.94-.63.9-1.68 2.31-1.74 2.7l.51-.49c-.25.31-.27.04-.11-.21.46-.84.92-1 1.02-.99l-.41.57c.83-.23 1.74-2.18 2.65-3.26l-.06.72.67-1.33c.28-.16.61-.15.2.41.82-.61.46-.78 1.21-1.26.09-.05.08 0 .04.08l.54-.83c-.05.21.36.1-.09.51 1.39-1.11 1.57-2.39 2.34-2.59l-.08.13c1.56-1.87-.12-.43.78-2.08.53-.07 1.07-.14 1.61-.19l-.15-.46c.19-.17.55-.51.62-.32.43-.88-.25-.01-.08-.6 1.14-.6 2.15-2.56 2.89-2.24.04-.56-1 .65-.29-.46.86.3.93-1.18 1.97-1.72.09.56-.81 1.14.24.62-.08-1.01 1.62-1.42 2.17-2.19-.41-.46 1.19-1.67 2.18-2.89.09.23 2.41-1.76 3.65-2.56l.05.12c-.31-.71.88-1.65 1.56-2.51.29.36.27.62-.03 1.17l.75-.7c0-.34.15-.65.57-1.17l.21.59c.98-.95 1.53-2.38 3.09-3.29-.32-.49-2.09-.17-1.01-1.75.26.18.67.52.41.95.09-.14.24-.58.56-.71l-.18.89c.74-.38 0-.61.5-1.01.29.33.56-.09.74.23-.09.14-.53.25-.59.54.58-.44 1.39-.84 1.84-.78-.22-.15-.41-.45-.05-.84 1.01-.92.73.1 1.49-.25.03-.45.92-.77.47-1.3.3-.26.58-.07.83-.03.33-.69 2.44-2.22 1.33-2.26l-.17.08s.05-.06.07-.1 0 0 0 0c1.26-2.07 3.9-2.86 5.43-4.6l.16.2c.85-1.11 2.17-2.16 2.58-3.19.32-.26 1.06-.24 1.12.11.69-.81.59-1.11 2.05-1.72-.52 1.02.55.09-.62.94 1.21-.68 1.73-.53 2.4-2.01.05.84 1.36.04 1.73-.52l-1.06.21c.5-.53 1.04-.88 1.58-1.24l.31.94c2.9-.82 2.7-4.65 5.57-4.45.16-.99-1.47.57-1.45-.46 1.07-.72 3-.41 3.33-.64 1.74-.61.44-2.1 2.14-2.9-.4-.14-1.15-.75-.25-1.84 1.11-.67 2.16.24 1.69.95-.23.21-.42.21-.48.1-.25.35-.6.79.04.79l-.08-.38c.73-.09 2.12-1.17 2.14-.46.57-.84-.02-.71-.71-.43 1.63-.56 2.07-1.52 3.64-2.24-.33 0-.79-.19-.57-.35 2.26-1.12.47-1.2 1.72-2.34 1.09-.13.51 1.27 1.59-.11 1.05-.31.74.65.59 1.14.82-1.48 2.63-1.26 3.42-1.66l-.49.7c.3-.42.63-.64.96-.86l-.81-.34c.47-.17.8-.39.97-.14.12-.67-1.02-.78-.6-1.88.74-.06 1.36-1.44 2.1-.76-1.83.87.75.68-.55 1.77.2-.28.53-.5 1-.67.12.05.06.2-.01.32 2.07-.37.08-1.4 1.72-2.52.11.6.98.6 1.17.32-.66.45-.84-.54-.48-1.31 1.29-.37.95-1.06 1.52-1.4l-.74.27c-.1-.6.46-.91 1.09-1.56.31.31-.49.71-.13.68.26-1.37 2.39-.45 3.15-1.76.74-.04.63.83 1.24.74.88-1.44 1.81-.28 2.83-1.66-.8-.36-.77-.17-.22-1.4l-1.93 1.89.83-1.83c-.68.43-1.16 1.32-1.63 1.47.34-.95.38-.75-.29-1.05 1.54.33 1.47-1.73 2.95-1.8l.98 1.56c2.04-.36 2.31-2.65 4.63-3.62l-.84.17c-.11-.79 1.22-.93 1.74-1.61.26.55.8.46 1.29.59-.27-.36 1.53-.97 1.08-2.11l1.36.08c1.87-.78 1.05-2.64 2.8-3.48-.16.85.8.75-.05 1.82.55-.33 1.09-.55.89-.9.51.12 1.1-1.61 1.89-1.45.1-.36-.14-.93.5-1.27.13.06.15.25.15.25-.15-.25.76-.93-.11-1.15 2.62.52 4.66-3.02 6.91-2.58 1.12-.87 2.49-1.86 3.58-2.54.01.18.13.24-.1.31 1.77-.44.16-1.91 2.18-2.41 1.32.25-.69.94.03.91 1.12 1.41 1.97-1.42 3.64-1.19l-.23.25c1.18 0 1.84-1.84 3.36-2.57 0 0 0 .17.12.23.57-1.35 2.37-2.61 3.68-3.59-.13.82-.48.65.1 1.1.59-.43-.7-.85.49-1.69.59.1 1.65-.12 2.11.43l-1.18.68c1.05.48 1.54-.87 2.25-1.07l.1.39c1.77-1.11 1.34-2 3.36-3l-.34-.15c.64-1.44 1.16 0 1.91-1.22l.77.69c.59-.61 2.11-2.12 3.33-2.94-.42 1.01-1.77 2.09-2.52 2.95.72-.36 2.4-1.3 2.56-1.91-.25.23-.51.62-.86.63.54-1.12 1.53-2.03 2.98-2.73.57 1.78 3.94-1.45 5.6-.71 1.12-.94 2.4-1.52 3.77-2.03 1.38-.5 2.84-.97 4.31-1.72-1.64-.74.85-.45.08-1.63.66-.41.93-.51 1.03-.46l2.46-.24c.67.13-.53.59-.34.84 1.56-.63.88.23 2.04.08-.41-.35.23-.89 1.18-1.14h-1.48c1.82-1.66 2.31.17 4.15-1.49l-.5.71c.99-.75 4.08-1.84 4.74-3.31.26.05.66.27.21.58 2.71-1.05 5.46-3.67 7.78-4l-.08.38c.46-.31.63-.93 1.38-.9.02.13-.08.37.16.29.22-.21 1.12-1.06 1.85-1.17l-.43.56c2.76-.73 3.69-2.47 5.81-3.57.33.82 2.49.22 3.56-.09v.13c3.08-1.2 4.94-2.77 7.67-4.21 2.09.16 6.1-2.06 9.13-2.65-.49.03-.14-.6.34-.87.72-.1 1.67-1.2 1.81-.49l-.24.08c.75.47 2.06-.23 3.14-.62l-.13-.93c1.64.1 3.43-.72 5.07-1.47 1.65-.73 3.14-1.41 4.1-1.15.61-.45 1.46-.74 2.07-1.19l.11.44c1.93-.56 2.89-.85 5.2-1.79l-.38.47c1.32-.45 1.28-1.77 2.5-2.2l.57.49c2.32-.78 4.83-1.06 6.95-2.36-.01.1-.03.29-.39.44 1.09-.36 4.34-1.03 3.71-1.66.18.49 2.42-.72 3.62-1.32l-.09.42c.92-.8.92-.93 2.37-1.52.37-.06.39.19-.1.24 1.23-.18.82-.62 2.3-.87l-.47.39c1.22-.35 1.09-.44 1.68-.9.72-.37 2.33-.59 2.6-.34.11-.23.7-.67 1.45-.8.13.08-.11.23-.23.3 2.09-.38 2.91-1.27 4.4-1.36.06.1.16.12.29.12-1.61.47-2.92.84-2.8.78.09.3 1.4-.04.48.68.98-.55 2.63-1.56 3.94-1.8.07 0 .14.02.2.05l-.12.07c.3-.06.56-.16.79-.29.42-.07.69-.11 1.08-.21.21.19 1.53-.3 2.19-.48-.14-.29.73-.48-.14-.5.11 0-.11.07-.54.2-.1.04-.21.07-.27.11l.04-.04c-.43.13-.98.29-1.62.47.47-.3.98-.58 1.74-.61.28-.29.6-.59.78-.74 1.01.17 2.79-.09 3.09.09 1.95-.73 4.66-1.44 5.79-2.26.55-.21.69-.03.92 0-.32.14-.71.23-.87.35 1.1-.43 3.36-.94 3.54-1.35 1.47-.22-.73.52 1.23-.05l-.24.17c3.99-.55 6.13-2.38 10.59-2.84-.31.04-.46.06-.53.03 2.49-.47 5.02-1.11 7.55-1.74 2.53-.62 5.06-1.17 7.54-1.56 1.4-.24 1.53-.4 2.35-.68l.33.1 1.41-.49c2.04-.55 3.64-.36 6.21-1.11l-.35-.02c.94-.18 2.97-.61 2.83-.49.09-.03.29-.14.67-.17l.04.06 2.29-.53c1.8-.27-.24.28 2.37-.19.97-.2 2.75-.61 2.38-.58-.39.06-1.01.13-1.05.08l.89-.16c.14-.16.81-.4-1.41-.19l-1.52.32h-.51s1.29-.2 1.29-.2c-.74.04-1.2.17-1.71.29-.13-.02-.35-.02-.66 0-.49.13-.98.26-1.47.4-.19-.04.65-.25-.37-.12-.69.2.7.05-.45.29-.75.04-.55-.07-1.39.15-.13-.03.05-.09.38-.17-.75.18-2.02.35-2.39.54-.78.02-2.57.48-2.53.26-.23.09-1.31.39-2.01.54 1.22-.5-2.62.47-2.34.11-.89.43-3.4.73-5.03 1.22.09-.04.26-.12.41-.14-.95.16-1.24.13-1.85.19-.07.27-1.52.62-2.27.93-1.21-.02.63-.44.22-.6.1.19-1.96.6-1.53.7-.91.03-.77.08-1.28-.04-.08.37-.81.23-1.49.59-1.31.1-.4-.26-1.78.14-.69.03.53-.35.53-.35zm-32.86 8.62c.28-.09.52-.16.67-.21-.14.04-.33.1-.67.21zm-2.75.76c.34-.08.76-.19 1.2-.32.13.08.06.23-.22.3.13-.12-.54 0-.97.02zm6.41.53c-.42.17-.58.15-.66.1.2-.07.44-.15.75-.25.01-.01.03-.04.04-.05-.03.07-.06.14-.13.2z"/><path d="m943.02 76.14c.06-.02.09-.05.17-.07-.1 0-.19 0-.28 0-.04.05-.09.09-.13.14.08-.02.16-.05.23-.07z"/><path d="m715.54 192.9.06-.03c-.06.01-.11.02-.16.01.05 0 .07.01.1.02z"/><path d="m897.96 86.88.04.11.2-.17z"/><path d="m702.62 202.06c-.06-.01-.13-.01-.25.04.03.02.13 0 .25-.04z"/><path d="m697.72 206.78c-.27.18-.53.37-.79.57.35-.24.6-.42.79-.57z"/><path d="m694.02 210.48c.02.11.05.16.08.22s-.09-.22-.09-.22z"/><path d="m756.35 155.3c.06-.04.11-.09.14-.15.29-.41.07-.17-.14.15z"/><path d="m737.56 171.62c.12-.28.23-.55.39-.79-.39.22-.67.41-.39.79z"/><path d="m779.22 139.55s0 0 0 .01c.05-.03.1-.06.15-.09l-.15.07z"/><path d="m738.88 170.13c-.45.14-.72.39-.92.69.32-.18.71-.37.92-.69z"/><path d="m679.25 227.67-.16.19s.01.03 0 .05l.15-.24z"/><path d="m679.09 227.9-.15.24c.08-.1.15-.19.15-.24z"/><path d="m678.62 228.63.32-.5c-.13.16-.29.35-.32.5z"/><path d="m683.66 222.34-.03-.14s0 .1.03.14z"/><path d="m684.96 220.68c-.34.37-.98.82-1.36 1.41l.03.11c.08-.37 1.18-1.02 1.33-1.53z"/><path d="m692.14 215.38-1.31 1.17c.33-.11.77-.25.24.34 1.91-1.24-.58.08 1.08-1.51z"/><path d="m696.13 211.67c-.6.73.2.18.24.29.3-.54.37-.67-.24-.29z"/><path d="m725.22 185.35.37.58c.5-.52-.17-.21-.37-.58z"/><path d="m728.74 177.79-.83.12.16.72z"/><path d="m735.42 179.02-.18.28.78-.96z"/><path d="m789.48 141.77-.64-.66c-.33.4.1 1.33.64.66z"/><path d="m813.81 127.01c.45.2 1.27.05 1.53-.53-.59.26-1.29.29-1.53.53z"/><path d="m892.21 93.39-.47.37.96-.52z"/><path d="m677.84 208.06c.82.11 1.4.86 1.29 1.68l-3.01 22.75 21.89-6.89c.79-.25 1.63.19 1.88.98s-.2 1.63-.98 1.88l-24.14 7.6c-.49.15-1.02.05-1.42-.28-.39-.33-.59-.84-.52-1.35l3.32-25.09c.04-.29.16-.56.34-.77.32-.38.82-.59 1.35-.52z"/></g><g opacity=".5"><path d="m65.76 619.44c-1.19-.08-1.98-.18-3.57-.43-6.12-.95-12.9-4.05-17.21-7.87-2.41-2.13-4.07-3.99-5.58-6.25-4.28-6.41-5.92-14.01-4.73-21.92 2.63-17.53 17.11-27.7 37.85-26.6q1.38.07 1.89-.27c1.97-1.33 4.46-2.34 7.08-2.88 1.01-.21 2.38-.43 3.54-.58.29-.04.77-.1 1.06-.14 1.04-.14 1.24.16.95 1.41-.08.32-.21.9-.3 1.28s-.47 2.02-.85 3.65-.69 3.01-.69 3.07c0 .11.6 1.22 2.39 4.45.26.47.82 1.49 1.25 2.26s.84 1.53.92 1.67.3.54.49.88c1.1 2 2.08 3.76 2.64 4.78.29.52.6 1.1.7 1.28s.5.9.89 1.61c.71 1.29.79 1.43 1.41 2.56.62 1.12.7 1.26 1.41 2.56s.79 1.43 1.41 2.56c.62 1.12.7 1.27 1.41 2.56.39.7.77 1.4.85 1.54.6 1.1.53 3.58-.15 5.26-1.28 3.18-5.1 6.07-10.13 7.68-.92.3-1.04.25-1.58-.65-.99-1.66-3.14-4.22-5.7-6.79-1.98-1.99-2.69-2.6-5.73-4.94-10.49-8.08-14.12-12.23-15.15-17.34-.18-.89-.09-2.73.18-3.59.26-.84 1.35-.72 1.24.13-.61 4.65 2.84 8.57 14.48 16.43 5.21 3.52 5.92 4.07 8.19 6.4 2.46 2.51 3.77 4.15 4.53 5.65.34.67.28.65 1.18.35 2.81-.94 4.56-2.92 5.2-5.9.25-1.17.3-1.02-.82-2.89-1.02-1.69-3.75-6.27-6.81-11.4-.97-1.62-2.1-3.52-2.52-4.23-.42-.7-1.68-2.81-2.8-4.69s-2.46-4.13-2.99-5.01c-1.13-1.89-1.08-1.6-.51-3.26.25-.71.5-1.43.55-1.59.06-.16.28-.81.5-1.44.49-1.4.48-1.34.09-1.29-1.62.23-3.87 1.27-7.78 3.58-1.13.67-1.04.64-1.77.49-3.26-.68-8.1-.74-11.74-.17-14.25 2.26-24.68 16.64-22.31 30.74 2.25 13.35 13.41 23.2 27.79 24.51 1.93.18 5.37-.02 7.4-.42 5.89-1.17 10.73-3.66 14.82-7.62.99-.96 1.33-1.08 1.66-.57.48.72-2.29 4.03-5.2 6.2-3.69 2.76-7.93 4.36-13.48 5.07-.74.1-4.95.18-5.83.12z"/><path d="m29.64 650.69v-15.71h2.38v13.66h6.71v2.05z"/><path d="m42.35 634.32c.35 0 .66.1.92.31s.4.55.4 1.03-.13.81-.4 1.02-.57.32-.92.32-.68-.11-.95-.32c-.26-.21-.4-.55-.4-1.02s.13-.83.4-1.03c.26-.21.58-.31.95-.31zm1.14 4.51v11.86h-2.33v-11.86z"/><path d="m51.92 650.91c-1.64 0-2.96-.49-3.96-1.46s-1.5-2.51-1.5-4.61c0-1.47.24-2.66.73-3.56s1.15-1.58 2-2.01 1.82-.65 2.9-.65c.66 0 1.28.07 1.86.2s1.06.29 1.44.48l-.7 1.89c-.41-.15-.84-.28-1.3-.41-.46-.12-.9-.19-1.32-.19-2.14 0-3.21 1.41-3.21 4.22 0 1.35.26 2.38.79 3.08s1.31 1.06 2.33 1.06c.65 0 1.22-.07 1.74-.22s.98-.34 1.41-.57v2.02c-.43.25-.89.43-1.39.55s-1.11.18-1.83.18z"/><path d="m60.26 633.97v4.47c0 .37-.02.73-.04 1.1-.03.37-.06.67-.09.9h.15c.38-.6.89-1.05 1.53-1.35s1.33-.45 2.08-.45c1.39 0 2.46.34 3.2 1.03s1.11 1.79 1.11 3.3v7.72h-2.31v-7.39c0-1.85-.81-2.77-2.44-2.77-1.22 0-2.05.37-2.51 1.1-.45.73-.68 1.77-.68 3.1v5.96h-2.33v-16.72z"/><path d="m76.45 638.61c1.55 0 2.78.48 3.67 1.44s1.34 2.27 1.34 3.93v1.28h-7.96c.03 1.22.35 2.15.96 2.79.61.65 1.46.97 2.56.97.76 0 1.44-.07 2.04-.21.59-.14 1.21-.35 1.84-.63v1.94c-.6.28-1.2.48-1.8.61-.6.12-1.32.19-2.16.19-1.14 0-2.16-.23-3.04-.68s-1.57-1.13-2.06-2.02-.74-2.01-.74-3.34.22-2.46.67-3.39 1.07-1.63 1.87-2.12 1.73-.74 2.81-.74zm0 1.8c-.84 0-1.51.27-2.01.81-.51.54-.8 1.31-.89 2.31h5.59c-.01-.92-.24-1.67-.67-2.25s-1.1-.87-2.01-.87z"/><path d="m92.25 647.34c0 1.17-.42 2.06-1.27 2.66-.84.6-2.03.9-3.55.9-.84 0-1.55-.06-2.15-.18-.59-.12-1.14-.3-1.64-.55v-2.05c.51.25 1.12.47 1.81.67.7.2 1.38.3 2.04.3.88 0 1.51-.14 1.9-.42s.58-.65.58-1.12c0-.26-.07-.5-.22-.71s-.42-.43-.82-.66-.99-.49-1.77-.78c-.76-.29-1.4-.59-1.93-.9-.52-.31-.92-.67-1.2-1.1-.28-.42-.42-.96-.42-1.61 0-1.03.41-1.82 1.24-2.37s1.93-.83 3.29-.83c.72 0 1.4.07 2.04.22s1.26.35 1.86.62l-.77 1.78c-.51-.22-1.04-.41-1.58-.56s-1.09-.23-1.65-.23c-1.44 0-2.16.42-2.16 1.25 0 .28.08.52.25.73s.46.41.88.62 1 .46 1.75.75c.72.28 1.34.57 1.86.87s.92.66 1.2 1.09.42.96.42 1.61z"/><path d="m102.9 647.34c0 1.17-.42 2.06-1.27 2.66-.84.6-2.03.9-3.55.9-.84 0-1.55-.06-2.15-.18-.59-.12-1.14-.3-1.64-.55v-2.05c.51.25 1.12.47 1.81.67.7.2 1.38.3 2.04.3.88 0 1.51-.14 1.9-.42s.58-.65.58-1.12c0-.26-.07-.5-.22-.71s-.42-.43-.82-.66-.99-.49-1.77-.78c-.76-.29-1.4-.59-1.93-.9-.52-.31-.92-.67-1.2-1.1-.28-.42-.42-.96-.42-1.61 0-1.03.41-1.82 1.24-2.37s1.93-.83 3.29-.83c.72 0 1.4.07 2.04.22s1.26.35 1.86.62l-.77 1.78c-.51-.22-1.04-.41-1.58-.56s-1.09-.23-1.65-.23c-1.44 0-2.16.42-2.16 1.25 0 .28.08.52.25.73s.46.41.88.62 1 .46 1.75.75c.72.28 1.34.57 1.86.87s.92.66 1.2 1.09.42.96.42 1.61z"/></g><g opacity=".5"><path d="m1118.98 63.85-9-.91-8.11 28.97h-57.39l-5.96 6.45 63.97 19.61 23.58-42.11c.93-1.23 1.46-2.75 1.46-4.42 0-4.04-1.99-7.59-8.56-7.59z" opacity=".5"/><path d="m1046.42 23.06h6.91v6.87h-6.91z"/><path d="m1032.58 23.06h6.91v6.87h-6.91z"/><path d="m1053.33 29.93h6.91v6.85h-6.91z"/><path d="m1039.49 29.93h6.93v6.87h-6.93z"/><path d="m1055.48 78.43c-.57 0-.89.36-.89 1.25v.4h1.78v-.4c0-.89-.32-1.25-.89-1.25z"/><path d="m1074.33 77.54c0-.95-.36-1.46-1.16-1.46h-.68v2.77h.65c.68 0 1.2-.46 1.2-1.31z"/><path d="m1092.21 78.43c-.57 0-.89.36-.89 1.25v.4h1.78v-.4c0-.89-.32-1.25-.89-1.25z"/><path d="m1073.06 80.31h-.57v3.19h.74c.97 0 1.31-.55 1.31-1.58 0-1.08-.4-1.61-1.48-1.61z"/><path d="m1101.8 31.16v-.13c0-4.4-3.74-7.97-8.16-7.97h-33.39v6.87h6.91v6.87h-6.91v6.83h-6.91v-6.83h-6.91v6.83h-6.93v-6.83h-6.91v6.85h6.91v6.85h6.93v-6.85h6.91v6.85h6.91v-6.85h6.91v6.87h-6.91v6.85h-6.91v-6.85h-6.91v6.85h-6.93v-6.85h-6.91v41.4h69.27v-60.74zm-56.84 46.91h-1.8s0-.8 0-.8c0-.87-.4-1.23-.85-1.23-.72 0-.97.36-.97 1.14v5.24c0 .78.25 1.14.97 1.14.65 0 .85-.36.85-1.04v-1.25h1.8v1.2c0 1.46-.85 2.64-2.66 2.64s-2.73-1.18-2.73-2.64v-5.33c0-1.46.85-2.64 2.73-2.64s2.66 1.29 2.66 2.83v.76zm6.55 6.87h-1.59v-5.94c0-.4-.23-.57-.59-.57-.34 0-.66.21-1.03.49v6.02h-1.61v-10.33h1.61v3.36c.59-.53.93-.87 1.86-.87.85 0 1.35.61 1.35 1.61zm6.47-3.51h-3.4v1.1c0 .89.32 1.25.89 1.25s.89-.36.89-1.25v-.17h1.61c-.04 1.61-.72 2.73-2.51 2.73s-2.51-1.18-2.51-2.87v-2.26c0-1.67.66-2.85 2.51-2.85s2.51 1.16 2.51 2.85v1.46zm3.55 3.66c-1.42 0-2.22-.8-2.47-2.15l1.39-.38c.11.65.34 1.2 1.08 1.2.42 0 .72-.23.72-.66 0-1.33-3.02-1.82-3.02-3.93 0-1.21.93-2.05 2.15-2.05s2.11.84 2.35 2.05l-1.35.23c-.11-.61-.4-.97-.93-.97-.42 0-.7.21-.7.61 0 1.2 3.02 1.69 3.02 3.99 0 1.37-.95 2.07-2.24 2.07zm5.58 0c-1.42 0-2.2-.8-2.45-2.15l1.4-.38c.09.65.32 1.2 1.06 1.2.42 0 .72-.23.72-.66 0-1.33-3.02-1.82-3.02-3.93 0-1.21.95-2.05 2.15-2.05 1.27 0 2.11.84 2.35 2.05l-1.35.23c-.11-.61-.4-.97-.93-.97-.4 0-.7.21-.7.61 0 1.2 3.02 1.69 3.02 3.99 0 1.37-.95 2.07-2.26 2.07zm6.42-.15h-2.83v-10.33h2.66c1.9 0 2.75.97 2.75 2.71 0 .87-.38 1.84-1.21 2.18.89.38 1.44 1.12 1.44 2.45 0 1.69-.76 2.98-2.81 2.98zm7.65 0c-.02-.23-.08-.42-.09-.61-.61.49-1.1.74-1.88.74-1.1 0-1.63-.74-1.63-1.73 0-1.67 1.1-2.6 3.42-3.47v-.46c0-.63-.27-.99-.8-.99-.74 0-.89.42-.93 1.08s-1.56 0-1.56 0c.08-1.56 1.06-2.39 2.58-2.39s2.33.68 2.33 2.09v4.92c0 .25.04.55.09.82h-1.54zm5.09.15c-1.4 0-2.2-.8-2.45-2.15l1.4-.38c.09.65.32 1.2 1.06 1.2.42 0 .72-.23.72-.66 0-1.33-3.04-1.82-3.04-3.93 0-1.21.95-2.05 2.15-2.05 1.27 0 2.11.84 2.35 2.05l-1.33.23c-.13-.61-.4-.97-.93-.97-.42 0-.7.21-.7.61 0 1.2 3.02 1.69 3.02 3.99 0 1.37-.95 2.07-2.26 2.07zm8.47-3.66h-3.4v1.1c0 .89.32 1.25.89 1.25s.89-.36.89-1.25v-.17h1.59c-.02 1.61-.68 2.73-2.49 2.73s-2.49-1.18-2.49-2.87v-2.26c0-1.67.65-2.85 2.49-2.85s2.49 1.16 2.49 2.85h.02v1.46z"/><path d="m1079.17 83.08c0 .49.27.68.74.68.44 0 .8-.3 1.06-.7h.02v-2.01c-1.46.82-1.82 1.35-1.82 2.03z"/></g><path d="m614.18 329.11-23.84 10.67v-28.59l23.84-10.67z" opacity=".25"/><path d="m638.01 318.38-23.83 10.67v-28.59l23.83-10.68z" opacity=".75"/><path d="m614.18 300.55-23.84 10.67v-28.6l23.84-10.67z" opacity=".75"/><path d="m638.01 289.81-23.83 10.68v-28.6l23.83-10.67z" opacity=".25"/><path d="m566.51 329.1 23.83 10.67v-28.6l-23.83-10.67z"/><path d="m542.68 318.37 23.83 10.67v-28.6l-23.83-10.67z" opacity=".5"/><path d="m566.51 300.53 23.83 10.67v-28.6l-23.83-10.67z" opacity=".5"/><path d="m542.68 289.8 23.83 10.67v-28.6l-23.83-10.67z"/><path d="m515.53 366.48c-.99-1.07-1.95-1.78-2.88-2.13-.93-.36-1.86-.53-2.8-.53-1.4 0-2.66.25-3.79.74-1.13.5-2.1 1.18-2.91 2.06s-1.44 1.9-1.89 3.07c-.44 1.17-.67 2.43-.67 3.77 0 1.45.22 2.78.67 4 .44 1.22 1.07 2.27 1.89 3.16.81.89 1.78 1.59 2.91 2.1s2.39.76 3.79.76c1.09 0 2.15-.26 3.18-.78s1.99-1.35 2.88-2.5l3.96 2.82c-1.22 1.68-2.71 2.9-4.46 3.66s-3.62 1.14-5.6 1.14c-2.08 0-4-.34-5.73-1.01-1.74-.67-3.24-1.63-4.5-2.86s-2.24-2.71-2.95-4.44-1.07-3.65-1.07-5.75.36-4.12 1.07-5.89 1.7-3.27 2.95-4.52c1.26-1.24 2.76-2.2 4.5-2.88 1.74-.67 3.65-1.01 5.73-1.01 1.83 0 3.52.32 5.09.97 1.56.65 3.02 1.75 4.36 3.3l-3.73 2.74z"/><path d="m527.27 371.39h.08c.36-.76.98-1.45 1.89-2.08.9-.62 2.06-.93 3.49-.93 1.22 0 2.25.2 3.11.61.85.41 1.54.94 2.08 1.6.53.66.91 1.42 1.14 2.29.23.86.34 1.77.34 2.71v11.55h-4.57v-9.26c0-.51-.03-1.07-.08-1.7-.05-.62-.18-1.21-.4-1.75-.22-.55-.55-1-1.01-1.37s-1.08-.55-1.87-.55-1.4.13-1.92.38-.95.6-1.3 1.03c-.34.43-.59.93-.74 1.49s-.23 1.14-.23 1.75v9.98h-4.57v-28.81h4.57v13.07z"/><path d="m547.12 379.59c.15 1.37.69 2.44 1.6 3.2s2.02 1.14 3.32 1.14c1.14 0 2.1-.23 2.88-.71.77-.47 1.45-1.06 2.04-1.77l3.28 2.48c-1.07 1.32-2.26 2.26-3.58 2.82s-2.71.84-4.15.84c-1.37 0-2.67-.23-3.89-.69s-2.27-1.11-3.16-1.94c-.89-.84-1.59-1.85-2.12-3.03-.52-1.18-.78-2.5-.78-3.94s.26-2.76.78-3.94 1.23-2.19 2.12-3.03 1.94-1.49 3.16-1.94c1.22-.46 2.51-.69 3.89-.69 1.27 0 2.43.22 3.49.67 1.05.44 1.96 1.09 2.71 1.92.75.84 1.33 1.87 1.75 3.11.42 1.23.63 2.65.63 4.25v1.26h-13.95zm9.37-3.43c-.03-1.35-.44-2.41-1.26-3.18-.81-.77-1.94-1.16-3.39-1.16-1.37 0-2.46.39-3.26 1.18s-1.29 1.84-1.47 3.16h9.37z"/><path d="m575.09 373.91c-.89-1.24-2.08-1.87-3.58-1.87-.61 0-1.21.15-1.79.46-.58.3-.88.8-.88 1.49 0 .56.24.97.72 1.22s1.09.47 1.83.65 1.53.36 2.38.55 1.64.48 2.38.88c.74.39 1.35.93 1.83 1.62s.72 1.63.72 2.82c0 1.09-.24 2.01-.71 2.76s-1.08 1.35-1.83 1.81-1.59.79-2.53.99-1.88.31-2.82.31c-1.42 0-2.73-.2-3.92-.61s-2.26-1.14-3.2-2.21l3.05-2.86c.58.66 1.21 1.2 1.89 1.62.67.42 1.49.63 2.46.63.33 0 .67-.04 1.03-.11.36-.08.69-.2.99-.38s.55-.4.74-.67.29-.58.29-.93c0-.63-.24-1.11-.72-1.41-.48-.31-1.09-.55-1.83-.74s-1.53-.37-2.38-.53-1.65-.43-2.38-.8c-.74-.37-1.35-.88-1.83-1.54s-.72-1.57-.72-2.74c0-1.02.21-1.9.63-2.65s.97-1.37 1.66-1.85 1.47-.84 2.36-1.07 1.79-.34 2.71-.34c1.22 0 2.43.21 3.62.63s2.16 1.14 2.9 2.15l-3.05 2.74z"/><path d="m592.36 373.91c-.89-1.24-2.08-1.87-3.58-1.87-.61 0-1.21.15-1.79.46-.58.3-.88.8-.88 1.49 0 .56.24.97.72 1.22s1.09.47 1.83.65 1.53.36 2.38.55 1.64.48 2.38.88c.74.39 1.35.93 1.83 1.62s.72 1.63.72 2.82c0 1.09-.24 2.01-.71 2.76s-1.08 1.35-1.83 1.81-1.59.79-2.53.99-1.88.31-2.82.31c-1.42 0-2.73-.2-3.92-.61s-2.26-1.14-3.2-2.21l3.05-2.86c.58.66 1.21 1.2 1.89 1.62.67.42 1.49.63 2.46.63.33 0 .67-.04 1.03-.11.36-.08.69-.2.99-.38s.55-.4.74-.67.29-.58.29-.93c0-.63-.24-1.11-.72-1.41-.48-.31-1.09-.55-1.83-.74s-1.53-.37-2.38-.53-1.65-.43-2.38-.8c-.74-.37-1.35-.88-1.83-1.54s-.72-1.57-.72-2.74c0-1.02.21-1.9.63-2.65s.97-1.37 1.66-1.85 1.47-.84 2.36-1.07 1.79-.34 2.71-.34c1.22 0 2.43.21 3.62.63s2.16 1.14 2.9 2.15l-3.05 2.74z"/><path d="m599.04 358.32h4.57v12.84h.11c.23-.3.52-.62.88-.93.36-.32.79-.62 1.3-.9s1.09-.51 1.75-.69 1.42-.27 2.29-.27c1.3 0 2.49.25 3.58.74 1.09.5 2.03 1.18 2.8 2.04s1.38 1.88 1.81 3.05.65 2.43.65 3.77-.2 2.6-.61 3.77-1 2.19-1.79 3.05-1.74 1.54-2.86 2.04-2.38.74-3.77.74c-1.3 0-2.5-.25-3.62-.76s-2.01-1.32-2.67-2.44h-.08v2.74h-4.34v-28.81zm15.17 19.66c0-.71-.12-1.4-.36-2.06s-.6-1.24-1.07-1.75-1.04-.91-1.7-1.22c-.66-.3-1.41-.46-2.25-.46s-1.59.15-2.25.46-1.23.71-1.7 1.22-.83 1.09-1.07 1.75-.36 1.35-.36 2.06.12 1.4.36 2.06.6 1.25 1.07 1.75c.47.51 1.03.91 1.7 1.22.66.3 1.41.46 2.25.46s1.59-.15 2.25-.46 1.23-.71 1.7-1.22.83-1.09 1.07-1.75.36-1.35.36-2.06z"/><path d="m621.64 377.99c0-1.45.26-2.76.78-3.94s1.23-2.19 2.12-3.03 1.94-1.49 3.16-1.94c1.22-.46 2.51-.69 3.89-.69s2.67.23 3.89.69 2.27 1.11 3.16 1.94c.89.84 1.59 1.85 2.11 3.03s.78 2.5.78 3.94-.26 2.76-.78 3.94-1.23 2.19-2.11 3.03c-.89.84-1.94 1.49-3.16 1.94-1.22.46-2.52.69-3.89.69s-2.67-.23-3.89-.69-2.27-1.11-3.16-1.94c-.89-.84-1.59-1.85-2.12-3.03-.52-1.18-.78-2.5-.78-3.94zm4.57 0c0 .71.12 1.4.36 2.06s.6 1.25 1.07 1.75c.47.51 1.03.91 1.7 1.22.66.3 1.41.46 2.25.46s1.59-.15 2.25-.46 1.23-.71 1.7-1.22.83-1.09 1.07-1.75.36-1.35.36-2.06-.12-1.4-.36-2.06-.6-1.24-1.07-1.75-1.04-.91-1.7-1.22c-.66-.3-1.41-.46-2.25-.46s-1.59.15-2.25.46-1.23.71-1.7 1.22-.83 1.09-1.07 1.75-.36 1.35-.36 2.06z"/><path d="m644.35 377.99c0-1.45.26-2.76.78-3.94s1.23-2.19 2.12-3.03 1.94-1.49 3.16-1.94c1.22-.46 2.51-.69 3.89-.69s2.67.23 3.89.69 2.27 1.11 3.16 1.94c.89.84 1.59 1.85 2.11 3.03s.78 2.5.78 3.94-.26 2.76-.78 3.94-1.23 2.19-2.11 3.03c-.89.84-1.94 1.49-3.16 1.94-1.22.46-2.52.69-3.89.69s-2.67-.23-3.89-.69-2.27-1.11-3.16-1.94c-.89-.84-1.59-1.85-2.12-3.03-.52-1.18-.78-2.5-.78-3.94zm4.57 0c0 .71.12 1.4.36 2.06s.6 1.25 1.07 1.75c.47.51 1.03.91 1.7 1.22.66.3 1.41.46 2.25.46s1.59-.15 2.25-.46 1.23-.71 1.7-1.22.83-1.09 1.07-1.75.36-1.35.36-2.06-.12-1.4-.36-2.06-.6-1.24-1.07-1.75-1.04-.91-1.7-1.22c-.66-.3-1.41-.46-2.25-.46s-1.59.15-2.25.46-1.23.71-1.7 1.22-.83 1.09-1.07 1.75-.36 1.35-.36 2.06z"/><path d="m667.13 358.32h4.57v18.1l7.05-7.58h5.87l-7.85 8.31 8.35 9.98h-6.06l-7.28-9.34h-.08v9.34h-4.57z"/></g><path d="m0 0h1191.69v670h-1191.69z" fill="none"/></svg>