<svg viewBox="0 0 1720 1761.82" xmlns="http://www.w3.org/2000/svg" xmlns:xlink="http://www.w3.org/1999/xlink"><clipPath id="a"><path d="m1503.76 445.24h100v100h-100z"/></clipPath><clipPath id="b"><path d="m1403.76 545.24h100v100h-100z"/></clipPath><clipPath id="c"><path d="m1303.76 445.24h100v100h-100z"/></clipPath><clipPath id="d"><path d="m1203.76 345.24h100v100h-100z"/></clipPath><clipPath id="e"><path d="m1303.76 245.24h100v100h-100z"/></clipPath><clipPath id="f"><path d="m1403.76 345.24h100v100h-100z"/></clipPath><clipPath id="g"><path d="m1234.8 1245.11h152.2v152.2h-152.2z"/></clipPath><clipPath id="h"><path d="m1082.6 1397.31h152.2v152.2h-152.2z"/></clipPath><clipPath id="i"><path d="m930.4 1245.11h152.2v152.2h-152.2z"/></clipPath><clipPath id="j"><path d="m778.2 1092.91h152.2v152.2h-152.2z"/></clipPath><clipPath id="k"><path d="m930.4 940.71h152.2v152.2h-152.2z"/></clipPath><clipPath id="l"><path d="m1082.6 1092.91h152.2v152.2h-152.2z"/></clipPath><g fill="none" opacity=".2" stroke="#fff" stroke-miterlimit="10"><g clip-path="url(#a)"><path d="m1493.76 545.24 100-100"/><path d="m1483.76 535.24 100-100"/><path d="m1473.76 525.24 100-100"/><path d="m1463.76 515.24 100-100"/><path d="m1453.76 505.24 100-100"/><path d="m1503.76 555.24 100-100"/><path d="m1513.76 565.24 100-100"/><path d="m1523.76 575.24 100-100"/><path d="m1533.76 585.24 100-100"/><path d="m1553.76 585.24 100-100"/><path d="m1483.76 545.24 100-100"/><path d="m1473.76 535.24 100-100"/><path d="m1463.76 525.24 100-100"/><path d="m1453.76 515.24 100-100"/><path d="m1443.76 505.24 100-100"/><path d="m1503.76 545.24 100-100"/><path d="m1503.76 565.24 100-100"/><path d="m1513.76 575.24 100-100"/><path d="m1523.76 585.24 100-100"/><path d="m1543.76 585.24 100-100"/><path d="m1563.76 585.24 100-100"/></g><g clip-path="url(#b)"><path d="m1393.76 645.24 100-100"/><path d="m1383.76 635.24 100-100"/><path d="m1373.76 625.24 100-100"/><path d="m1363.76 615.24 100-100"/><path d="m1353.76 605.24 100-100"/><path d="m1403.76 655.24 100-100"/><path d="m1413.76 665.24 100-100"/><path d="m1423.76 675.24 100-100"/><path d="m1433.76 685.24 100-100"/><path d="m1453.76 685.24 100-100"/><path d="m1383.76 645.24 100-100"/><path d="m1373.76 635.24 100-100"/><path d="m1363.76 625.24 100-100"/><path d="m1353.76 615.24 100-100"/><path d="m1343.76 605.24 100-100"/><path d="m1403.76 645.24 100-100"/><path d="m1403.76 665.24 100-100"/><path d="m1413.76 675.24 100-100"/><path d="m1423.76 685.24 100-100"/><path d="m1443.76 685.24 100-100"/><path d="m1463.76 685.24 100-100"/></g><g clip-path="url(#c)"><path d="m1283.76 545.24 100-100"/><path d="m1273.76 535.24 100-100"/><path d="m1263.76 525.24 100-100"/><path d="m1253.76 515.24 100-100"/><path d="m1243.76 505.24 100-100"/><path d="m1303.76 545.24 100-100"/><path d="m1303.76 565.24 100-100"/><path d="m1313.76 575.24 100-100"/><path d="m1323.76 585.24 100-100"/><path d="m1343.76 585.24 100-100"/><path d="m1363.76 585.24 100-100"/></g><g clip-path="url(#d)"><path d="m1173.76 435.24 100-100"/><path d="m1153.76 415.24 100-100"/><path d="m1203.76 445.24 100-100"/><path d="m1213.76 475.24 100-100"/><path d="m1243.76 485.24 100-100"/></g><g clip-path="url(#e)"><path d="m1273.76 335.24 100-100"/><path d="m1253.76 315.24 100-100"/><path d="m1303.76 345.24 100-100"/><path d="m1313.76 375.24 100-100"/><path d="m1343.76 385.24 100-100"/></g><g clip-path="url(#f)"><path d="m1383.76 445.24 100-100"/><path d="m1373.76 435.24 100-100"/><path d="m1363.76 425.24 100-100"/><path d="m1353.76 415.24 100-100"/><path d="m1343.76 405.24 100-100"/><path d="m1403.76 445.24 100-100"/><path d="m1403.76 465.24 100-100"/><path d="m1413.76 475.24 100-100"/><path d="m1423.76 485.24 100-100"/><path d="m1443.76 485.24 100-100"/><path d="m1463.76 485.24 100-100"/></g></g><g fill="none" opacity=".2" stroke="#fff" stroke-miterlimit="10"><g clip-path="url(#g)"><path d="m1219.58 1397.31 152.19-152.2"/><path d="m1204.36 1382.09 152.19-152.2"/><path d="m1189.14 1366.87 152.19-152.2"/><path d="m1173.92 1351.65 152.19-152.2"/><path d="m1158.7 1336.43 152.19-152.2"/><path d="m1234.8 1412.53 152.19-152.2"/><path d="m1250.02 1427.74 152.19-152.19"/><path d="m1265.24 1442.96 152.19-152.19"/><path d="m1280.46 1458.18 152.19-152.19"/><path d="m1310.89 1458.18 152.2-152.19"/><path d="m1204.36 1397.31 152.19-152.2"/><path d="m1189.14 1382.09 152.19-152.2"/><path d="m1173.92 1366.87 152.19-152.2"/><path d="m1158.7 1351.65 152.19-152.2"/><path d="m1143.48 1336.43 152.19-152.2"/><path d="m1234.8 1397.31 152.19-152.2"/><path d="m1234.8 1427.74 152.19-152.19"/><path d="m1250.02 1442.96 152.19-152.19"/><path d="m1265.24 1458.18 152.19-152.19"/><path d="m1295.67 1458.18 152.2-152.19"/><path d="m1326.11 1458.18 152.2-152.19"/></g><g clip-path="url(#h)"><path d="m1067.38 1549.5 152.2-152.19"/><path d="m1052.16 1534.28 152.2-152.19"/><path d="m1036.94 1519.06 152.2-152.19"/><path d="m1021.72 1503.84 152.2-152.19"/><path d="m1006.5 1488.62 152.2-152.19"/><path d="m1082.6 1564.72 152.2-152.19"/><path d="m1097.82 1579.94 152.2-152.2"/><path d="m1113.04 1595.16 152.2-152.2"/><path d="m1128.26 1610.38 152.2-152.2"/><path d="m1158.7 1610.38 152.19-152.2"/><path d="m1052.16 1549.5 152.2-152.19"/><path d="m1036.94 1534.28 152.2-152.19"/><path d="m1021.72 1519.06 152.2-152.19"/><path d="m1006.5 1503.84 152.2-152.19"/><path d="m991.28 1488.62 152.2-152.19"/><path d="m1082.6 1549.5 152.2-152.19"/><path d="m1082.6 1579.94 152.2-152.2"/><path d="m1097.82 1595.16 152.2-152.2"/><path d="m1113.04 1610.38 152.2-152.2"/><path d="m1143.48 1610.38 152.19-152.2"/><path d="m1173.92 1610.38 152.19-152.2"/></g><g clip-path="url(#i)"><path d="m899.96 1397.31 152.2-152.2"/><path d="m884.74 1382.09 152.2-152.2"/><path d="m869.52 1366.87 152.2-152.2"/><path d="m854.3 1351.65 152.2-152.2"/><path d="m839.08 1336.43 152.2-152.2"/><path d="m930.4 1397.31 152.2-152.2"/><path d="m930.4 1427.74 152.2-152.19"/><path d="m945.62 1442.96 152.2-152.19"/><path d="m960.84 1458.18 152.2-152.19"/><path d="m991.28 1458.18 152.2-152.19"/><path d="m1021.72 1458.18 152.2-152.19"/></g><g clip-path="url(#j)"><path d="m732.54 1229.89 152.2-152.2"/><path d="m702.1 1199.45 152.2-152.2"/><path d="m778.2 1245.11 152.2-152.2"/><path d="m793.42 1290.77 152.2-152.2"/><path d="m839.08 1305.99 152.2-152.2"/></g><g clip-path="url(#k)"><path d="m884.74 1077.69 152.2-152.2"/><path d="m854.3 1047.25 152.2-152.2"/><path d="m930.4 1092.91 152.2-152.2"/><path d="m945.62 1138.57 152.2-152.2"/><path d="m991.28 1153.79 152.2-152.2"/></g><g clip-path="url(#l)"><path d="m1052.16 1245.11 152.2-152.2"/><path d="m1036.94 1229.89 152.2-152.2"/><path d="m1021.72 1214.67 152.2-152.2"/><path d="m1006.5 1199.45 152.2-152.2"/><path d="m991.28 1184.23 152.2-152.2"/><path d="m1082.6 1245.11 152.2-152.2"/><path d="m1082.6 1275.55 152.2-152.2"/><path d="m1097.82 1290.77 152.2-152.2"/><path d="m1113.04 1305.99 152.2-152.2"/><path d="m1143.48 1305.99 152.19-152.2"/><path d="m1173.92 1305.99 152.19-152.2"/></g></g><g fill="#fff" opacity=".15"><path d="m1431.57 786.63h44.38v44.38h-44.38z" transform="matrix(.70710678 .70710678 -.70710678 .70710678 997.72 -791.07)"/><path d="m1431.57 535.56h44.38v44.38h-44.38z" transform="matrix(.70710678 .70710678 -.70710678 .70710678 820.19 -864.61)"/><circle cx="1453.62" cy="746.2" r="6.66"/><circle cx="1453.62" cy="683.43" r="6.66"/><circle cx="1453.62" cy="620.66" r="6.66"/><circle cx="1453.62" cy="495.13" r="6.66"/></g><path d="m331.64 470.03c-.35-1.33-.73-2.65-1.05-3.98-2.43-10.33-3.72-20.82-4.7-31.37-1.7-18.41-2.12-36.87-2.09-55.35.01-10.37-.02-20.74-.02-31.11 0-.3.11-.61.16-.91-5.47-1.48-10.73-2.9-15.9-4.29-.48.78-.83 1.55-1.36 2.17-1.7 1.99-4.48 2.5-6.77 1.32-2.29-1.17-3.5-3.78-2.92-6.28.58-2.51 2.74-4.29 5.38-4.35 2.12-.05 4.23 0 6.35 0 5.46 0 10.92.02 16.38.03.21 0 .42-.03.66-.05-.35-2.91-.7-5.76-1.03-8.62-1.33-11.52-1.44-23.02.72-34.47.43-2.26.86-4.52 1.35-6.76.15-.68.04-1.08-.49-1.57-2.92-2.66-3.45-6.95-1.3-10.11 2.22-3.28 6.37-4.45 9.91-2.78 5.19 2.45 6.14 9.4 1.75 13.1-.52.44-.38.81-.27 1.28 1.93 8.62 3.18 17.31 3.09 26.17-.08 7.28-.75 14.52-1.71 21.73-.09.67-.18 1.33-.3 2.2 2.78-.03 5.47-.09 8.16-.09 5.06-.01 10.13-.02 15.19.01 2.46.01 4.49 1.46 5.32 3.69.79 2.12.2 4.52-1.48 6.07s-4.11 1.94-6.17.96c-1.52-.72-2.49-1.94-3.08-3.62-5.29 1.42-10.55 2.83-15.85 4.25 0 2.92-.02 5.83-.03 8.74-.03 22.76.4 45.54-1.14 68.27-.87 12.83-2.1 25.62-4.67 38.25-.51 2.51-1.16 5-1.75 7.5h-.33z" fill="#fff" opacity=".1"/><g fill="none" opacity=".2" stroke="#fff" stroke-miterlimit="10"><path d="m703.08 610.29-150.3 67.3v-180.36l150.3-67.31z"/><path d="m552.78 497.8-150.31 67.3v-180.37l150.31-67.3z" opacity=".5"/><path d="m158.33 455.31 93.83 42.01v-112.6l-93.83-42.01z"/></g><g opacity=".2"><circle cx="252.16" cy="684.96" fill="#fff" opacity=".5" r="28.94"/><circle cx="252.16" cy="684.96" fill="none" r="34.97" stroke="#fff" stroke-miterlimit="10"/><circle cx="252.16" cy="684.96" fill="none" r="120.51" stroke="#fff" stroke-miterlimit="10"/><circle cx="252.16" cy="615.55" fill="#fff" r="6.05"/><circle cx="252.16" cy="757.44" fill="#fff" r="6.05"/><circle cx="317.65" cy="684.68" fill="#fff" r="6.05"/><circle cx="186.67" cy="684.68" fill="#fff" r="6.05"/><g fill="none" stroke="#fff" stroke-miterlimit="10"><circle cx="252.16" cy="684.27" r="105.99"/><path d="m147.34 668.55h73.18"/><path d="m283.04 668.55h73.95"/><path d="m283.04 701.39h73.95"/><path d="m220.52 701.39h-73.18"/><path d="m170.28 668.55v-51.24"/><path d="m202.85 590.44v78.11"/><path d="m235.77 654.08v-74.29"/><path d="m268.51 579.54v74.54"/><path d="m301.19 668.55v-78.11"/><path d="m334.02 616.94v51.61"/><path d="m170.28 701.39v50"/><path d="m202.85 701.39v77.46"/><path d="m235.77 715.85v73.33"/><path d="m268.51 715.87v73.31"/><path d="m301.19 701.39v76.03"/><path d="m334.02 701.39v50"/><circle cx="138.82" cy="684.96" r="2.7"/><circle cx="365.56" cy="684.96" r="2.7"/><circle cx="142.68" cy="655.63" r="2.7"/><circle cx="361.69" cy="714.3" r="2.7"/><circle cx="154.12" cy="628.08" r="2.7"/><circle cx="350.25" cy="741.85" r="2.7"/><circle cx="171.98" cy="604.85" r="2.7"/><circle cx="332.4" cy="765.08" r="2.7"/><circle cx="195.39" cy="586.85" r="2.7"/><circle cx="308.99" cy="783.08" r="2.7"/><circle cx="222.91" cy="575.44" r="2.7"/><circle cx="281.47" cy="794.49" r="2.7"/><circle cx="252.19" cy="571.6" r="2.7"/><circle cx="252.19" cy="798.33" r="2.7"/><circle cx="281.65" cy="575.49" r="2.7"/><circle cx="222.72" cy="794.44" r="2.7"/><circle cx="308.87" cy="586.78" r="2.7"/><circle cx="195.5" cy="783.15" r="2.7"/><circle cx="332.25" cy="604.7" r="2.7"/><circle cx="172.12" cy="765.23" r="2.7"/><circle cx="350.39" cy="628.33" r="2.7"/><circle cx="153.98" cy="741.6" r="2.7"/><circle cx="361.67" cy="655.55" r="2.7"/><circle cx="142.7" cy="714.38" r="2.7"/></g></g><g opacity=".15"><path d="m985.34 457.09h127.63v127.63h-127.63z" fill="none" stroke="#fff" stroke-miterlimit="10" transform="matrix(.70710678 .70710678 -.70710678 .70710678 675.62 -589.3)"/><path d="m1165.83 637.58h127.63v127.63h-127.63z" fill="none" stroke="#fff" stroke-miterlimit="10" transform="matrix(.70710678 .70710678 -.70710678 .70710678 856.11 -664.06)"/><path d="m804.85 457.09h127.63v127.63h-127.63z" fill="#fff" opacity=".5" transform="matrix(.70710678 .70710678 -.70710678 .70710678 622.76 -461.67)"/><path d="m388.13 1244.21h127.63v127.63h-127.63z" fill="#fff" opacity=".5" transform="matrix(.70710678 .70710678 -.70710678 .70710678 1057.29 63.54)"/><g fill="none" stroke="#fff" stroke-miterlimit="10"><path d="m985.34 637.58h127.63v127.63h-127.63z" transform="matrix(.70710678 .70710678 -.70710678 .70710678 803.25 -536.43)"/><path d="m804.85 637.58h127.63v127.63h-127.63z" transform="matrix(.70710678 .70710678 -.70710678 .70710678 750.38 -408.8)"/><path d="m804.85 818.07h127.63v127.63h-127.63z" transform="matrix(.70710678 .70710678 -.70710678 .70710678 878.01 -355.94)"/><path d="m624.35 818.07h127.63v127.63h-127.63z" transform="matrix(.70710678 .70710678 -.70710678 .70710678 825.15 -228.31)"/><path d="m959.9 458.08.4.4c-1.12-1.12-1.12-2.94 0-4.06s2.94-1.12 4.06 0l.95.95c.71-.38 1.43-.75 2.16-1.12 1.73-.86 3.46-1.73 5.19-2.58 3.31-1.65 6.6-3.38 9.72-5.4 3.4-2.19 6.61-4.72 9.36-7.71 2.71-2.92 4.96-6.26 6.62-9.86.74-1.56 1.35-3.18 1.88-4.82 1-3.11 1.65-6.33 1.87-9.56.21-3 .06-6.02-.49-8.96-.48-2.59-1.26-5.12-2.34-7.51-1.44-3.22-3.37-6.2-5.65-8.87-.15-.17-.19-.4-.26-.61-.59-2.04-1.22-4.06-1.81-6.1-.11-.36-.64-1.41-.79-1.75-.24.16-.45.38-.67.57-.12.1-.23.22-.34.34-.13.1-.27.2-.39.32-.29.27-.56.55-.84.84-.19.18-.35.39-.53.58-.12.13-.25.26-.36.39-.21-.1-.42-.22-.63-.33-1.68-.88-3.49-1.52-5.37-1.86-.12.27-.17.57-.26.85-.53 1.88-1.05 3.76-1.59 5.64-.02.08-.05.15-.08.23-.31-.05-.6-.15-.9-.22-1.69-.42-3.39-.8-5.13-1.03-.31-.04-.64-.12-.95-.02-.43.13-.81.38-1.19.61-1.08.71-2.06 1.57-3.13 2.31-.23.15-.47.33-.74.38-.49.08-.99.12-1.48.18-2.44.32-4.87.65-7.3 1.08-1.67.29-3.33.61-4.98.98-1.21.27-2.41.57-3.62.85-1.03.19-2.11.43-2.93 1.15-.17.14-.32.29-.46.46-.23.26-.39.57-.55.88-.59 1.21-.98 2.52-1.01 3.84-.06 1.28.22 2.55.75 3.69.06.13.14.24.22.36.23.52.56.98.89 1.43.35.46.74.9 1.15 1.31 1-.22 2.02-.33 3.03-.4 1.83-.12 3.66-.1 5.49 0 .19 0 1.17 1.09 1.29 1.2 1.83 2.02 3.85 3.9 6.2 5.3 1.85 1.1 3.93 1.88 6.13 2.01 1 .07 2.01-.03 3.01-.2-.16.13-.31.29-.51.34-.18.07-.39.08-.53.22-1.46 1.22-3.15 2.15-4.89 2.88-1.73.72-3.52 1.25-5.33 1.67-3.25.75-6.56 1.12-9.86 1.31-1.56.1-3.12.11-4.69.17-3.39.16-6.78.75-10.02 1.86-1.21.41-2.39.91-3.55 1.46l1.12 1.12c1.12 1.12 1.12 2.94 0 4.06s-2.94 1.12-4.06 0l.29.29c-3.36-3.36-8.82-3.36-12.18 0-1.12 1.12-1.12 2.94 0 4.06l36.55 36.55c1.12 1.12 2.94 1.12 4.06 0 3.36-3.36 3.36-8.82 0-12.18z"/><path d="m1039.9 558.58.4.4c-1.12-1.12-1.12-2.94 0-4.06s2.94-1.12 4.06 0l2.73-10.57c4.97 2.58 12.62-.15 18.37-5.9 3.41-3.41 6.28-8.67 8.44-14.39h-22.33c-.35 0-.66-.14-.89-.37s-.37-.54-.37-.89v-2.52c0-.35.13-.66.36-.89s.55-.37.89-.37h24.03c1.89-6.52 1.95-14.11 1.51-19.1 1.93 1.18 3.56 1.92 5.23.25 1.96-1.96 1.96-5.16 0-7.13l-5.32-5.32c-1.96-1.96-5.16-1.96-7.13 0-1.67 1.67-.93 3.3.25 5.24-10.82-.96-30.37 3.48-38.54 11.66-5.75 5.75-8.47 13.4-5.9 18.37l-10.46 2.83c1.12 1.12 1.12 2.94 0 4.06s-2.94 1.12-4.06 0l.29.29c-3.36-3.36-8.82-3.36-12.18 0-1.12 1.12-1.12 2.94 0 4.06l36.55 36.55c1.12 1.12 2.94 1.12 4.06 0 3.36-3.36 3.36-8.82 0-12.18z"/><path d="m1251.4 499.34c2.96 2.96 7.8 2.94 10.79-.04s3.01-7.82.04-10.79-7.89-3.03-10.87-.04-2.92 7.91.04 10.87z"/><path d="m1224.86 554.91 1.2 1.2 37.48-16.18c.42-.17.7-.52 1.01-.82.66-.66 1.03-1.56.94-2.42l-.85-4.89c-.05-.51-.25-.92-.55-1.22-1.79-1.79-5.15 1.54-8.74-2.05-3.05-3.05-1.76-8.21 1.44-11.41.83-1.02.97-2.41.3-3.08l-4.03-4.03c-.62-.62-1.72-.7-2.59-.09-3.32 2.32-7.36 2.32-9.81-.14s-2.38-6.41-.05-9.72c.7-.79.64-1.87 0-2.5l-4.03-4.03c-.86-.86-2.24-.72-3.18.22-2.34 2.34-7.85 5-11.41 1.44-3.59-3.59-.27-6.97-2.04-8.74-.3-.3-.71-.5-1.21-.54l-5.01-.94c-.76-.01-1.67.37-2.31 1.02-.32.32-.56.68-.74 1.09l-16.18 37.48 1.23 1.23c1.12 1.12 1.12 2.94 0 4.06s-2.94 1.12-4.06 0l.29.29c-3.36-3.36-8.82-3.36-12.18 0-1.12 1.12-1.12 2.94 0 4.06l36.55 36.55c1.12 1.12 2.94 1.12 4.06 0 3.36-3.36 3.36-8.82 0-12.18l.4.4c-1.12-1.12-1.12-2.94 0-4.06s2.94-1.12 4.06 0z"/><path d="m1224.86 735.41 1.42 1.42 36.49-17.96c.51-.28.98-.62 1.39-1.03 2.59-2.59 1.79-6.33.01-8.11l-18.15-18.15 6.09-6.09 2.03 2.03c2.23 2.23 4.98 3.13 7.22.9 2.11-2.36 1.32-5-.91-7.23l-2.03-2.03 2.03-2.03c2.23-2.23 3.14-4.98.79-7.33s-5.1-1.44-7.33.79l-2.03 2.03-2.03-2.03c-2.23-2.23-4.87-3.02-7.23-.91-2.23 2.23-1.33 4.98.9 7.22l2.03 2.03-6.09 6.09-18.15-18.15c-1.78-1.78-5.52-2.58-8.11.01-.41.41-.75.88-1.03 1.39l-17.96 36.49 1.53 1.53c1.12 1.12 1.12 2.94 0 4.06s-2.94 1.12-4.06 0l.29.29c-3.36-3.36-8.82-3.36-12.18 0-1.12 1.12-1.12 2.94 0 4.06l36.55 36.55c1.12 1.12 2.94 1.12 4.06 0 3.36-3.36 3.36-8.82 0-12.18l.4.4c-1.12-1.12-1.12-2.94 0-4.06s2.94-1.12 4.06 0z"/><path d="m1310.64 829.32.4.4c-1.12-1.12-1.12-2.94 0-4.06s2.94-1.12 4.06 0l2.73-10.57c4.97 2.58 12.62-.15 18.37-5.9 3.41-3.41 6.28-8.67 8.44-14.39h-22.33c-.35 0-.66-.14-.89-.37s-.37-.54-.37-.89v-2.52c0-.35.13-.66.36-.89s.55-.37.89-.37h24.03c1.89-6.52 1.95-14.11 1.51-19.1 1.93 1.18 3.56 1.92 5.23.25 1.96-1.96 1.96-5.16 0-7.13l-5.32-5.32c-1.96-1.96-5.16-1.96-7.13 0-1.67 1.67-.93 3.3.25 5.24-10.82-.96-30.37 3.48-38.54 11.66-5.75 5.75-8.47 13.4-5.9 18.37l-10.46 2.83c1.12 1.12 1.12 2.94 0 4.06s-2.94 1.12-4.06 0l.29.29c-3.36-3.36-8.82-3.36-12.18 0-1.12 1.12-1.12 2.94 0 4.06l36.55 36.55c1.12 1.12 2.94 1.12 4.06 0 3.36-3.36 3.36-8.82 0-12.18z"/><path d="m1536.23 789.18c1.84-6.43 2.92-16.97 7.99-22.04l.63-.63 2.62 2.62c1.02 1.02 2.66 1.02 3.58.1l.98-.98c1.13-1.13.1-3.79.1-3.79l-.96-6.38c5.51 1.27 11.51-.19 15.8-4.48 6.62-6.62 6.62-17.34-.1-24.07-6.73-6.73-17.44-6.73-24.07-.1-4.29 4.29-5.75 10.29-4.48 15.8l-6.38-.96s-2.66-1.03-3.79.1l-.98.98c-.92.92-.92 2.56.1 3.58l2.62 2.62-.63.63c-5.07 5.07-15.61 6.14-22.04 7.99l-.05-.05c1.12 1.12 1.12 2.94 0 4.06s-2.94 1.12-4.06 0l.23.23c-3.25-3.25-8.71-3.25-11.95 0-1.23 1.23-1.24 3.05-.11 4.18l36.55 36.55c1.12 1.12 2.94 1.12 4.06 0 3.36-3.36 3.36-8.82 0-12.18l.34.34c-1.12-1.12-1.12-2.94 0-4.06s2.94-1.12 4.06 0l-.05-.05z"/><path d="m1134.5 825.55c1.84-6.43 2.92-16.97 7.99-22.04l.63-.63 2.62 2.62c1.02 1.02 2.66 1.02 3.58.1l.98-.98c1.13-1.13.1-3.79.1-3.79l-.96-6.38c5.51 1.27 11.51-.19 15.8-4.48 6.62-6.62 6.62-17.34-.1-24.07-6.73-6.73-17.44-6.73-24.07-.1-4.29 4.29-5.75 10.29-4.48 15.8l-6.38-.96s-2.66-1.03-3.79.1l-.98.98c-.92.92-.92 2.56.1 3.58l2.62 2.62-.63.63c-5.07 5.07-15.61 6.14-22.04 7.99l-.05-.05c1.12 1.12 1.12 2.94 0 4.06s-2.94 1.12-4.06 0l.23.23c-3.25-3.25-8.71-3.25-11.95 0-1.23 1.23-1.24 3.05-.11 4.18l36.55 36.55c1.12 1.12 2.94 1.12 4.06 0 3.36-3.36 3.36-8.82 0-12.18l.34.34c-1.12-1.12-1.12-2.94 0-4.06s2.94-1.12 4.06 0l-.05-.05z"/><path d="m954.01 825.55c1.84-6.43 2.92-16.97 7.99-22.04l.63-.63 2.62 2.62c1.02 1.02 2.66 1.02 3.58.1l.98-.98c1.13-1.13.1-3.79.1-3.79l-.96-6.38c5.51 1.27 11.51-.19 15.8-4.48 6.62-6.62 6.62-17.34-.1-24.07-6.73-6.73-17.44-6.73-24.07-.1-4.29 4.29-5.75 10.29-4.48 15.8l-6.38-.96s-2.66-1.03-3.79.1l-.98.98c-.92.92-.92 2.56.1 3.58l2.62 2.62-.63.63c-5.07 5.07-15.61 6.14-22.04 7.99l-.05-.05c1.12 1.12 1.12 2.94 0 4.06s-2.94 1.12-4.06 0l.23.23c-3.25-3.25-8.71-3.25-11.95 0-1.23 1.23-1.24 3.05-.11 4.18l36.55 36.55c1.12 1.12 2.94 1.12 4.06 0 3.36-3.36 3.36-8.82 0-12.18l.34.34c-1.12-1.12-1.12-2.94 0-4.06s2.94-1.12 4.06 0l-.05-.05z"/><path d="m954.01 645.05c1.84-6.43 2.92-16.97 7.99-22.04l.63-.63 2.62 2.62c1.02 1.02 2.66 1.02 3.58.1l.98-.98c1.13-1.13.1-3.79.1-3.79l-.96-6.38c5.51 1.27 11.51-.19 15.8-4.48 6.62-6.62 6.62-17.34-.1-24.07-6.73-6.73-17.44-6.73-24.07-.1-4.29 4.29-5.75 10.29-4.48 15.8l-6.38-.96s-2.66-1.03-3.79.1l-.98.98c-.92.92-.92 2.56.1 3.58l2.62 2.62-.63.63c-5.07 5.07-15.61 6.14-22.04 7.99l-.05-.05c1.12 1.12 1.12 2.94 0 4.06s-2.94 1.12-4.06 0l.23.23c-3.25-3.25-8.71-3.25-11.95 0-1.23 1.23-1.24 3.05-.11 4.18l36.55 36.55c1.12 1.12 2.94 1.12 4.06 0 3.36-3.36 3.36-8.82 0-12.18l.34.34c-1.12-1.12-1.12-2.94 0-4.06s2.94-1.12 4.06 0l-.05-.05z"/></g><path d="m712.47 667.73c1.08 0 2.1.42 2.86 1.18l5.32 5.32c1.58 1.58 1.57 4.14 0 5.71-.61.61-1.09.68-1.4.68-.71 0-1.55-.43-2.61-1.08l-1.69-1.03.17 1.97c.21 2.39.71 10.56-1.28 18.02h-23.27c-.6 0-1.17.24-1.6.67s-.67 1-.66 1.6v2.51c0 .6.24 1.17.67 1.6s.99.66 1.6.66h20.86c-2.21 5.49-4.85 9.86-7.68 12.69-4.06 4.06-9.18 6.58-13.37 6.58-1.44 0-2.73-.29-3.83-.86l-1.11-.58-.31 1.22-2.38 9.24c-.44-.17-.92-.26-1.41-.26-1.03 0-2.01.4-2.74 1.13s-1.13 1.7-1.13 2.74c0 .84.27 1.65.76 2.31l-.03.03c1.44 1.44 2.23 3.35 2.23 5.38s-.79 3.95-2.23 5.38c-.35.35-.82.55-1.32.55s-.97-.19-1.32-.55l-36.55-36.55c-.73-.73-.73-1.92 0-2.65 1.44-1.44 3.35-2.23 5.38-2.23s3.95.79 5.38 2.23l.02-.02c.69.56 1.54.86 2.43.86 1.03 0 2.01-.4 2.74-1.13 1.12-1.12 1.41-2.77.86-4.16l9.15-2.48 1.2-.32-.57-1.1c-2.27-4.38.13-11.62 5.72-17.2 7.1-7.1 23.55-11.49 34.73-11.49 1.07 0 2.09.04 3.02.12l1.98.17-1.03-1.69c-1.31-2.14-1.4-3.01-.39-4.01.76-.76 1.77-1.18 2.86-1.18m0-1c-1.29 0-2.58.49-3.56 1.47-1.67 1.67-.93 3.3.25 5.24-.97-.09-2.01-.13-3.11-.13-11.13 0-27.99 4.34-35.43 11.78-5.75 5.75-8.47 13.4-5.9 18.37l-10.46 2.83c1.12 1.12 1.12 2.94 0 4.06-.56.56-1.3.84-2.03.84s-1.47-.28-2.03-.84l.29.29c-1.68-1.68-3.89-2.52-6.09-2.52-2.21 0-4.41.84-6.09 2.52-1.12 1.12-1.12 2.94 0 4.06l36.55 36.55c.56.56 1.3.84 2.03.84s1.47-.28 2.03-.84c3.36-3.36 3.36-8.82 0-12.18l.4.4c-1.12-1.12-1.12-2.94 0-4.06.56-.56 1.3-.84 2.03-.84s1.47.28 2.03.84l2.73-10.57c1.28.66 2.73.97 4.29.97 4.49 0 9.81-2.6 14.08-6.87 3.41-3.41 6.28-8.67 8.44-14.39h-22.33c-.35 0-.66-.14-.89-.37s-.37-.54-.37-.89v-2.52c0-.35.13-.66.36-.89s.55-.37.89-.37h24.03c1.89-6.52 1.95-14.11 1.51-19.1 1.12.69 2.15 1.22 3.13 1.22.71 0 1.4-.28 2.1-.98 1.96-1.96 1.96-5.16 0-7.13l-5.32-5.32c-.98-.98-2.27-1.47-3.56-1.47z" fill="#fff"/><path d="m466.77 738.1v1c4.29 0 8.34 1.69 11.42 4.77 3.06 3.06 4.75 7.1 4.77 11.37.01 4.26-1.64 8.26-4.66 11.28-2.98 2.98-6.97 4.63-11.21 4.63-1.23 0-2.46-.14-3.65-.42l-1.43-.33.22 1.45.96 6.38.02.11.04.1c.32.84.55 2.29.12 2.72l-.98.98c-.24.24-.61.38-.99.38-.44 0-.86-.17-1.18-.49l-2.62-2.62-.71-.71-.71.71-.63.63c-4.04 4.04-5.6 11.04-6.97 17.23-.31 1.4-.61 2.75-.93 3.98-.43-.16-.89-.24-1.36-.24-1.03 0-2.01.4-2.74 1.13-1.39 1.39-1.5 3.59-.32 5.11l-.02.02c2.97 2.97 2.97 7.8 0 10.77-.35.35-.82.55-1.32.55s-.97-.19-1.32-.55l-36.55-36.55c-.35-.35-.54-.82-.53-1.32.01-.52.24-1.03.65-1.44 1.38-1.38 3.25-2.14 5.27-2.14s3.89.76 5.27 2.14c.7.58 1.57.9 2.5.9 1.03 0 2.01-.4 2.74-1.13s1.13-1.7 1.13-2.74c0-.47-.08-.93-.24-1.36 1.23-.31 2.58-.61 3.98-.93 6.18-1.38 13.19-2.94 17.22-6.97l.63-.63.71-.71-.71-.71-2.62-2.62c-.61-.61-.65-1.62-.1-2.17l.98-.98c.15-.15.47-.24.89-.24.88 0 1.83.36 1.84.36l.1.04.11.02 6.38.96 1.45.22-.33-1.43c-1.25-5.42.32-10.98 4.21-14.87 3.01-3.01 7-4.66 11.23-4.66v-1m0 0c-4.33 0-8.64 1.66-11.94 4.96-4.29 4.29-5.75 10.29-4.48 15.8l-6.38-.96s-1.11-.43-2.2-.43c-.6 0-1.19.13-1.59.53l-.98.98c-.92.92-.92 2.56.1 3.58l2.62 2.62-.63.63c-5.07 5.07-15.61 6.14-22.04 7.99l-.05-.05c1.12 1.12 1.12 2.94 0 4.06-.56.56-1.3.84-2.03.84s-1.47-.28-2.03-.84l.23.23c-1.62-1.62-3.8-2.44-5.98-2.44s-4.35.81-5.98 2.44c-1.23 1.23-1.24 3.05-.11 4.18l36.55 36.55c.56.56 1.3.84 2.03.84s1.47-.28 2.03-.84c3.36-3.36 3.36-8.82 0-12.18l.34.34c-1.12-1.12-1.12-2.94 0-4.06.56-.56 1.3-.84 2.03-.84s1.47.28 2.03.84l-.05-.05c1.84-6.43 2.92-16.97 7.99-22.04l.63-.63 2.62 2.62c.52.52 1.21.78 1.88.78.64 0 1.25-.23 1.7-.68l.98-.98c1.13-1.13.1-3.79.1-3.79l-.96-6.38c1.28.29 2.58.44 3.88.44 4.32 0 8.63-1.63 11.92-4.92 6.62-6.62 6.62-17.34-.1-24.07-3.38-3.38-7.76-5.06-12.12-5.06z" fill="#fff"/><path d="m679.31 735.41c1.12-1.12 2.94-1.12 4.06 0l-29.12-29.12c1.12 1.12 1.12 2.94 0 4.06s-2.94 1.12-4.06 0l29.12 29.12c-1.12-1.12-1.12-2.94 0-4.06z" fill="none" opacity=".5" stroke="#fff" stroke-miterlimit="10"/></g><path d="m236.13 509.39 32.07 14.36v-38.49l-32.07-14.36z" fill="#fff" opacity=".1"/><path d="m458.39 1598.55-1.26-1.26c3.56 3.56 9.32 3.56 12.88 0s3.56-9.32 0-12.88l-3.03-3.03c1.21-2.27 2.39-4.55 3.55-6.84 2.71-5.5 5.49-10.97 8.18-16.47 5.25-10.51 10.73-20.93 17.12-30.82 6.95-10.77 14.97-20.96 24.43-29.67 9.26-8.59 19.86-15.72 31.28-21 4.96-2.33 10.08-4.28 15.27-5.96 9.86-3.16 20.06-5.22 30.31-5.93 9.53-.68 19.1-.19 28.41 1.54 8.22 1.53 16.23 4.01 23.8 7.41 10.22 4.55 19.67 10.68 28.12 17.92.54.46 1.26.61 1.92.81 6.46 1.88 12.87 3.87 19.33 5.75 1.13.34 4.47 2.02 5.55 2.5-.52.78-1.19 1.44-1.81 2.13-.33.38-.7.74-1.07 1.08-.32.42-.65.85-1.02 1.23-.85.91-1.75 1.79-2.65 2.66-.57.61-1.25 1.1-1.83 1.68-.4.39-.81.78-1.25 1.14.32.68.71 1.32 1.06 1.99 2.79 5.32 4.82 11.07 5.89 17.03-.87.37-1.79.55-2.69.82-5.95 1.69-11.92 3.34-17.87 5.04-.24.07-.48.16-.71.24.16.97.49 1.89.7 2.85 1.33 5.36 2.55 10.76 3.26 16.27.12.99.37 2.02.06 3.03-.41 1.36-1.19 2.57-1.94 3.76-2.25 3.44-4.97 6.54-7.32 9.91-.47.74-1.04 1.48-1.21 2.35-.26 1.56-.37 3.14-.59 4.7-1.03 7.72-2.07 15.44-3.42 23.13-.93 5.28-1.92 10.55-3.12 15.79-.87 3.83-1.82 7.65-2.69 11.49-.6 3.25-1.36 6.69-3.63 9.29-.44.53-.92 1.02-1.45 1.45-.83.74-1.82 1.25-2.8 1.74-3.82 1.86-7.98 3.1-12.19 3.22-4.06.18-8.09-.7-11.71-2.38-.41-.18-.77-.43-1.13-.69-1.64-.72-3.11-1.76-4.54-2.81-1.47-1.11-2.85-2.34-4.16-3.64.69-3.17 1.04-6.39 1.26-9.6.37-5.8.32-11.62 0-17.4.03-.6-3.46-3.71-3.8-4.08-6.39-5.8-12.35-12.2-16.81-19.65-3.5-5.85-5.97-12.47-6.36-19.42-.22-3.17.09-6.38.63-9.53-.42.49-.91.98-1.07 1.62-.22.57-.25 1.23-.7 1.69-3.88 4.64-6.81 9.98-9.12 15.51-2.28 5.47-3.97 11.16-5.29 16.9-2.36 10.3-3.55 20.79-4.17 31.26-.32 4.95-.34 9.9-.55 14.86-.52 10.74-2.39 21.49-5.9 31.77-1.31 3.83-2.87 7.59-4.64 11.26l-3.56-3.56c-3.56-3.56-9.32-3.56-12.88 0s-3.56 9.32 0 12.88l-.92-.92c10.67 10.67 10.66 27.97 0 38.63-3.54 3.54-9.32 3.56-12.88 0l-115.89-115.89c-3.56-3.56-3.56-9.32 0-12.88 10.66-10.66 27.97-10.66 38.63 0z" fill="#fff" opacity=".25"/><path d="m0 0h1720v1761.82h-1720z" fill="none"/></svg>