<svg fill="none" height="512" viewBox="0 0 512 512" width="512" xmlns="http://www.w3.org/2000/svg"><path d="m246.005 34.0002c0-4.4184 3.581-8.0002 8-8.0002h4c4.418 0 8 3.5818 8 8.0002v40.0009h22.001c4.418 0 8 3.5818 8 8.0002v4.0001c0 4.4184-3.582 8.0002-8 8.0002h-22.001v13.7004c22.614 3.673 41.262 19.165 49.4 39.931 54.335-23.589 114.128-10.58 139.014 32.524 21.782 37.728 10.226 87.087-24.911 122.457 2.612 7.532-.911 15.949-4.942 21.816-1.399 2.037-.772 4.968 1.319 6.284 7.91 4.98 12.585 12.181 14.876 20.617.396.102.778.202 1.147.3 3.508.937 5.564 4.117 5.467 7.748-.389 14.636-2.246 36.763-7.355 49.575-1.468 3.68-5.397 5.106-9.237 4.426-5.258 11.908-11.436 22.286-16.66 28.957-.333.424-.74.745-1.19.962-8.828 24.888-32.579 42.712-60.493 42.712-15.174 0-29.118-5.267-40.104-14.073-8.475 5.476-25.948 11.873-55.475 11.873h-2.2c-29.685 0-47.187-6.466-55.611-11.961-11.002 8.858-24.989 14.161-40.214 14.161-27.98 0-51.777-17.908-60.5551-42.888-.3334-.206-.6367-.473-.8942-.802-5.225-6.675-11.4027-17.056-16.6587-28.965-3.8814.736-7.8841-.68-9.3687-4.402-5.1093-12.812-6.9658-34.939-7.3556-49.575-.0967-3.631 1.9593-6.811 5.4679-7.748.4153-.111.8489-.224 1.3001-.339 2.2959-8.423 6.9719-15.613 14.8759-20.585 2.0912-1.315 2.707-4.24 1.3081-6.277-4.0225-5.855-7.5397-14.249-4.9581-21.77-35.1727-35.373-46.7481-84.759-24.9566-122.503 24.8622-43.062 84.564-56.087 138.858-32.592 8.24-20.956 27.187-36.527 50.106-39.978v-13.5854h-22.001c-4.418 0-8-3.5818-8-8.0002v-4.0001c0-4.4184 3.582-8.0002 8-8.0002h22.001z" fill="#00173c"/><path d="m419.745 217.898c1.344 5.816 10.938 8.556 11.2 2.593.427-9.749-1.622-19.185-6.454-27.594-9.963-17.337-29.602-26.562-52.187-26.888-2.429-.035-2.392 3.932-.039 4.536 17.034 4.367 31.826 14.705 40.773 30.275 3.127 5.441 5.346 11.183 6.707 17.078z" fill="#ff9cae"/><path d="m255.897 198.004c9.847-13.624 22.762-25.986 38.325-35.985 3.532-2.269 8.151-1.566 11.026 1.494 1.596 1.699 1.188 4.443-.788 5.681-24.8 15.536-41.771 38.195-48.563 61.811-6.792-23.616-23.762-46.275-48.562-61.811-1.976-1.238-2.385-3.982-.788-5.681 2.874-3.06 7.493-3.763 11.025-1.494 15.564 9.999 28.479 22.361 38.325 35.985z" fill="#ff9cae"/><g fill="#ffe7eb"><path d="m255.639 285.806c-7.537.192-15.861.49-24.613.905-2.817.134-4.988 2.525-4.864 5.342l.181 4.112c.181 4.092 3.677 7.237 7.768 7.045 7.339-.345 14.557-.537 21.528-.537 6.97 0 14.555.192 21.894.537 4.091.192 7.587-2.953 7.768-7.045l.181-4.112c.124-2.817-2.048-5.208-4.864-5.342-8.752-.415-17.443-.713-24.979-.905z"/><path d="m163.555 302.409-.534-5.144c-.288-2.777 1.697-5.278 4.471-5.601 10.684-1.244 21.976-2.276 33.228-3.115 2.395-.179 4.484 1.606 4.692 3.999l.523 6.021c.314 3.625-2.364 6.818-5.985 7.172-9.585.938-19.044 2.034-28.102 3.206-4.11.531-7.866-2.416-8.293-6.538z"/><path d="m106.223 314.783c-6.061-7.92 7.578-13.924 29.848-18.366 4.333-.865 8.484 2.053 9.276 6.399l.81 4.448c.518 2.843-1.414 5.552-4.268 6.007-9.683 1.544-18.227 3.051-25.088 4.359-3.845.732-8.199.26-10.578-2.847z"/><path d="m348.622 297.265-.533 5.144c-.427 4.122-4.183 7.069-8.293 6.538-9.058-1.172-18.518-2.268-28.102-3.206-3.621-.354-6.3-3.547-5.985-7.172l.523-6.021c.208-2.393 2.296-4.178 4.692-3.999 11.252.839 22.544 1.871 33.228 3.115 2.774.323 4.759 2.824 4.47 5.601z"/><path d="m405.421 314.783c6.061-7.92-7.578-13.924-29.849-18.366-4.332-.865-8.483 2.053-9.275 6.399l-.81 4.448c-.518 2.843 1.413 5.552 4.267 6.007 9.684 1.544 18.228 3.051 25.089 4.359 3.844.732 8.199.26 10.578-2.847z"/><path d="m210.16 453.344c-27.448-53.799-75.176-47.885-98.573-37.016-1.72.799-3.779.282-4.741-1.352-.697-1.184-1.455-2.441-2.252-3.763-.687-1.141-1.404-2.33-2.137-3.562 14.701-3.377 31.856-6.541 46.796-8.731 10.861-1.592 18.948-11.231 18.051-22.171l-1.697-20.699c-.921-11.245-10.939-19.465-22.104-17.837-14.004 2.043-30.549 4.732-44.9657 7.358 4.1547-4.424 9.8327-8.623 17.3977-12.464 12.956-4.767 59.035-14.3 139.704-14.3 80.668 0 127.114 9.533 140.07 14.3 7.535 3.827 13.177 8.038 17.293 12.493-14.454-2.635-31.07-5.337-45.126-7.387-11.165-1.628-21.183 6.592-22.105 17.837l-1.696 20.699c-.897 10.94 7.19 20.579 18.05 22.171 15.01 2.2 32.255 5.384 47.001 8.778-.852 1.451-1.684 2.842-2.475 4.164l-.001.002-.001.002c-.649 1.085-1.27 2.123-1.851 3.11-.962 1.634-3.021 2.151-4.741 1.352-23.397-10.869-71.125-16.783-98.573 37.016-.725 1.421-1.868 2.636-3.334 3.266-7.201 3.09-23.13 7.767-42.511 7.767-19.382 0-34.944-4.677-42.145-7.767-1.467-.63-2.609-1.845-3.334-3.266z"/><path d="m88.4775 393.075c-3.1633-6.784-4.3128-18.502-4.5541-26.253-.0599-1.922 1.213-3.606 3.3854-4.102 8.5889-1.963 29.8772-5.115 45.8362-7.106 6.912-.862 13.115 3.491 13.685 9.446l1.051 10.961c.555 5.793-4.452 10.898-11.176 11.741-14.117 1.77-31.428 4.742-41.657 7.479-2.6226.702-5.5525.018-6.5705-2.166z"/><path d="m422.901 393.075c3.163-6.784 4.313-18.502 4.554-26.253.06-1.922-1.213-3.606-3.385-4.102-8.589-1.963-29.878-5.115-45.836-7.106-6.913-.862-13.115 3.491-13.686 9.446l-1.05 10.961c-.555 5.793 4.451 10.898 11.176 11.741 14.117 1.77 31.427 4.742 41.657 7.479 2.622.702 5.552.018 6.57-2.166z"/></g></svg>