<svg fill="none" height="512" viewBox="0 0 512 512" width="512" xmlns="http://www.w3.org/2000/svg"><path clip-rule="evenodd" d="m250.789 286.194v31.197c0 3.412-.32 6.816-1.234 10.102-5.216 18.755-20.472 53.094-49.625 72.53-27.838 18.559-33.823 54.992-33.306 77.157.118 5.052 4.408 8.82 9.46 8.82h285.611c5.318 0 9.713-4.142 9.902-9.457 3.852-108.181-19.056-314.692-140.229-357.698-4.391-1.558-9.077-2.183-13.736-2.183l-25.135-.792-27.176.792-21.797-42.3828c-2.019-3.2292-7.508-7.75-13.321 0-5.812 7.75-20.989 20.1824-27.852 25.4298l-50.859-27.8517c-4.037-1.6146-12.11-2.4219-12.11 7.2656 0 9.6876 1.615 39.5571 2.422 53.2811-9.883 7.578-27.834 24.244-34.099 39.596h-30.4581c-10.0211 0-19.4251 4.166-26.4531 11.739-2.9291 3.145-5.0792 6.815-6.8477 10.667-.4475.588-.7345 1.255-.8843 2.003-2.5672 6.502-3.6743 13.599-2.7259 20.859l.2229 1.629c.9805 7.441 3.5887 14.225 7.2096 20.253.2763.88.7345 1.659 1.4262 2.265 7.0926 10.534 17.7146 18.125 29.8695 20.661-6.5713 11.151-13.0476 21.487-17.182 26.54-10.8985 13.321-31.4846 81.133 33.9064 94.454 9.6875 14.935 35.1175 31.242 59.3365-23.008 3.229-10.091 14.773-32.453 35.117-41.172 25.43-10.899 58.125-29.063 60.547-32.696zm-175.0256 53.649c5.2399-1.839 14.9002-5.884 20.2887-13.069 3.4876-4.65-.082-9.284-3.4956-12.248-2.5949-2.252-6.335-2.237-9.1599-.281-3.2422 2.246-7.1692 5.471-8.2853 8.541-1.7992 4.948-1.1036 12.406-.6471 16.243.0746.626.7037 1.023 1.2992.814zm80.5726-245.9106 1.541 25.9266 22.437-12.465z" fill="#00173c" fill-rule="evenodd"/><path clip-rule="evenodd" d="m233.187 200.834c-1.283-2.78-3.552-7.064-5.677-9.34-5.099-5.48-11.922-8.494-19.199-8.494h-131.2882c-7.2703 0-14.093 3.014-19.1918 8.494-2.1251 2.276-3.685 4.931-4.9681 7.719-.3246.425-.5329.907-.6415 1.449-1.8626 4.704-2.6658 9.84-1.9777 15.093l.1617 1.178c.7114 5.384 2.6037 10.293 5.2306 14.655.2005.637.5329 1.2 1.0348 1.639 6.3753 9.444 16.6813 15.618 28.1631 15.618h9.7732c13.5279 0 26.0519-5.868 35.2709-15.671.023-.022.042-.044.062-.066.019-.022.039-.044.062-.066 4.079-4.368 7.486-9.489 10.02-15.291.146-.241.27-.482.364-.753.064-.151.139-.296.214-.442.089-.171.178-.342.249-.523 1.892-4.771 2.086-9.811 1.027-14.596 0-.026.007-.05.015-.074s.016-.047.016-.072c0-.63-.209-1.193-.502-1.705-.796-2.598-1.863-5.121-3.524-7.389-.494-.659-1.003-1.287-1.536-1.88h12.655c-.533.593-1.051 1.222-1.523 1.873-1.66 2.268-2.727 4.792-3.523 7.389-.3.519-.51 1.082-.51 1.712 0 .026.008.05.016.074.008.023.015.047.015.072-1.058 4.785-.857 9.832 1.043 14.632.065.167.146.323.227.48.072.139.144.28.206.428.093.285.224.549.387.797 2.472 5.677 5.802 10.704 9.781 15.013.021.026.042.052.063.078.108.132.21.259.347.375 9.209 9.76 21.71 15.605 35.207 15.605h9.774c11.48 0 21.787-6.174 28.161-15.627.502-.438.835-1.002 1.035-1.639 2.619-4.36 4.519-9.269 5.231-14.654l.161-1.193c.374-2.841.308-5.652-.128-8.38 19.393-17.584 39.718-16.955 47.752-14.277 5.6-.001 13.439-1.681 0-8.4-13.105-6.553-37.923 7.659-49.535 16.159zm-11.291 1.676c-.551-1.018-1.211-2.064-1.961-2.962-.134-.165-.252-.343-.371-.52-.157-.236-.315-.472-.509-.682-3.323-3.607-7.701-5.591-12.322-5.591h-39.578c-4.075 0-7.891 2.045-10.481 5.612-.151.21-.262.44-.373.671-.083.173-.167.345-.267.51-.351.682-.867 1.784-1.323 2.962zm-64.446 17.42c.404.718.831 1.413 1.276 2.09h64.118c.22-.684.417-1.381.594-2.09.327-1.51.969-4.982.919-6.794.009-.372.012-.744.007-1.115h-70.198c.093.374.197.746.313 1.115.446 1.391 1.666 4.696 2.971 6.794zm12.196 13.587c-.621-.407-1.489-1.134-2.429-1.986h50.259c-.625.767-1.22 1.47-1.667 1.986-4.394 4.239-10.107 6.793-16.24 6.793h-8.978c-7.594 0-14.806-2.466-20.945-6.793zm-106.2019-31.007h67.1849c-.456-1.178-.973-2.28-1.323-2.962-.1-.165-.184-.337-.267-.509-.111-.232-.222-.462-.373-.672-2.59-3.567-6.406-5.612-10.481-5.612h-39.5777c-4.6209 0-8.9997 1.984-12.3221 5.591-.1944.21-.352.446-.5093.681-.1185.178-.2369.355-.3711.521-.7494.898-1.4099 1.944-1.9607 2.962zm64.4459 17.42c-.404.717-.83 1.413-1.275 2.09h-64.1194c-.2193-.684-.4168-1.381-.5934-2.09-.3274-1.51-.9696-4.982-.919-6.794-.0092-.372-.0119-.744-.0075-1.115h70.1983c-.093.374-.197.746-.313 1.115-.446 1.391-1.666 4.696-2.971 6.794zm-9.766 11.601h-50.2604c.6253.767 1.2199 1.47 1.667 1.986 4.394 4.239 10.1076 6.793 16.2403 6.793h8.9784c7.5937 0 14.8057-2.466 20.9447-6.793.621-.407 1.489-1.135 2.43-1.986z" fill="#ff385c" fill-rule="evenodd"/><g fill="#ff9cae"><path d="m156.336 93.9324 1.541 25.9266 22.437-12.465z"/><path d="m124.286 359.868c-1.575 3.077-2.715 5.357-3.336 6.942-3.161 5.523-7.368 6.58-12.901 3.326-5.958-3.243-6.663-7.274-2.01-12.103 1.294-.937 2.345-2.17 3.067-3.595 4.653-9.74 8.6-14.652 12.02-14.652 4.652 0 7.191 2.456 7.46 7.191 0 1.41-1.398 5.71-4.3 12.891z"/><path d="m272.544 271.439c12.02-15.791 17.905-33.334 17.719-52.638-.694-5.699-3.938-8.497-9.74-8.497-7.886 0-10.953 2.891-9.295 8.673.528 9.481-.342 17.284-2.798 23.428-3.958 9.74-8.341 17.025-13.076 21.843-2.632 5.181-1.057 8.953 4.652 11.315 5.44 2.549 9.647 1.233 12.538-4.124z"/><path d="m435.453 458c2.578 0 4.732-1.898 4.937-4.467 6.714-84.042-14.19-253.973-113.89-306.033-.427-.142-.948-.334-1.571-.562-5.421-1.991-18.49-6.79-42.971-6.253-3.554.078-5.76 3.824-4.212 7.024l1.703 3.52c1.576 3.255 4.772 5.344 8.343 5.916 47.421 7.601 127.722 75.488 115.524 295.452-.159 2.878 2.119 5.403 5.002 5.403z"/><path d="m75.7633 339.843c5.2399-1.838 14.9002-5.884 20.2887-13.069 3.4876-4.65-.082-9.284-3.4956-12.247-2.5949-2.253-6.335-2.238-9.1599-.282-3.2421 2.246-7.1692 5.471-8.2853 8.541-1.7992 4.948-1.1036 12.407-.6471 16.243.0746.626.7037 1.023 1.2992.814z"/></g></svg>