<svg fill="none" height="512" viewBox="0 0 512 512" width="512" xmlns="http://www.w3.org/2000/svg"><path d="m328.469 486.071h-197.29c-7.831 0-14.179-7.144-14.179-15.957v-388.8224c0-6.2503 2.925-12.0389 7.698-15.2353l40.073-26.836c5.082-3.4033 11.06-5.2203 17.177-5.2203h193.331c11.366 0 20.58 9.214 20.58 20.58v352.47c0 6.372-2.033 12.533-5.73 17.36l-37.79 49.349c-5.986 7.817-14.701 12.312-23.87 12.312z" fill="#00173c"/><g fill="#ff385c"><path d="m208.899 296.317c-1.634-1.782-3.044-3.638-4.232-5.568-1.188-2.079-2.079-4.158-2.673-6.237-.297 1.04-.52 2.005-.668 2.896l-.891 2.673-.891 2.227c-.446.742-1.04 1.411-1.782 2.005 1.188 1.039 2.079 1.856 2.673 2.45s1.113 1.262 1.559 2.004l1.114 2.228c.445.891 1.113 2.153 2.004 3.786 1.782 3.118 3.341 6.311 4.677 9.578 1.188 3.118 2.079 6.236 2.673 9.354-1.782 1.337-3.563 2.525-5.345 3.564-1.931 1.039-3.787 1.782-5.569 2.227-1.187 9.058-2.821 17.745-4.9 26.06-2.078 8.315-4.454 16.037-7.127 23.164 4.455 4.009 9.28 7.127 14.477 9.355 5.197 2.227 10.617 3.563 16.26 4.009l.223-87.756c-2.228-.891-4.306-2.005-6.237-3.341-2.079-1.485-3.86-3.044-5.345-4.678z"/><path d="m188.853 352.446c1.93-7.573 3.638-15.369 5.123-23.387-2.079-4.455-4.529-8.909-7.351-13.364-2.821-4.455-6.088-8.687-9.8-12.696-1.485 7.87-3.415 15.22-5.791 22.051-2.524 6.83-5.494 12.918-8.909 18.264 1.485 3.266 2.97 6.31 4.455 9.132 1.484 2.821 3.118 5.494 4.9 8.018 1.633 2.376 3.415 4.677 5.345 6.905 1.782 2.227 3.712 4.38 5.791 6.459 2.228-6.682 4.306-13.809 6.237-21.382z"/><path d="m285.964 259.789c.594-1.336.891-2.821.891-4.454v-7.351h10.468c-1.188-4.9-2.524-9.577-4.009-14.032-1.485-4.603-3.044-9.132-4.678-13.586-3.415 6.088-6.236 12.992-8.463 20.714-2.228 7.721-3.564 16.185-4.009 25.391 1.484 0 2.895-.223 4.231-.668 1.188-.594 2.302-1.411 3.341-2.45.891-1.039 1.634-2.227 2.228-3.564z"/><path d="m280.395 290.526c-1.336-.742-2.747-1.113-4.231-1.113.296 4.603.89 9.057 1.781 13.364.743 4.306 1.708 8.463 2.896 12.472 1.039 3.861 2.301 7.573 3.786 11.137s3.119 6.905 4.9 10.023c1.634-4.306 3.119-8.761 4.455-13.364s2.524-9.429 3.564-14.477l-10.691-.446v-7.573c0-1.336-.297-2.673-.891-4.009s-1.337-2.524-2.228-3.564c-1.039-1.039-2.153-1.856-3.341-2.45z"/><path d="m266.809 260.235c.594 1.485 1.485 2.747 2.673 3.786.445-5.197 1.187-10.097 2.227-14.7.891-4.752 2.004-9.206 3.341-13.364 1.336-4.306 2.895-8.315 4.677-12.028 1.782-3.712 3.787-7.053 6.014-10.022-2.673-6.088-5.791-11.805-9.355-17.151-3.563-5.494-7.424-10.542-11.582-15.146-3.118 9.207-5.791 19.452-8.018 30.737-2.376 11.137-4.083 23.09-5.123 35.86l1.782-.223v60.138l-1.782-.223c.446 6.237 1.114 12.325 2.005 18.264.742 5.94 1.707 11.731 2.895 17.373 1.04 5.494 2.302 10.766 3.787 15.814 1.336 5.049 2.821 9.875 4.454 14.478 4.306-4.603 8.241-9.503 11.805-14.7 3.564-5.346 6.608-10.914 9.132-16.705-2.227-2.97-4.232-6.311-6.014-10.023s-3.341-7.647-4.677-11.805c-1.337-4.306-2.45-8.761-3.341-13.364-1.04-4.751-1.782-9.726-2.227-14.923-1.188 1.039-2.079 2.302-2.673 3.787-.743 1.484-1.114 3.044-1.114 4.677v7.35h-6.459v-60.138h6.459v7.573c0 1.485.371 3.044 1.114 4.678z"/><path d="m186.18 250.657c3.267-1.485 6.682-2.45 10.246-2.895-1.337-12.622-3.119-24.426-5.346-35.415-2.376-11.136-5.197-21.233-8.464-30.291-3.86 4.009-7.498 8.538-10.914 13.587-3.563 4.9-6.756 10.394-9.577 16.482 3.712 5.642 6.905 12.25 9.577 19.823 2.525 7.424 4.381 15.442 5.569 24.055 2.672-2.227 5.642-4.009 8.909-5.346z"/><path d="m161.011 288.744c-1.485-.594-2.969-.965-4.454-1.113-.149-1.337 0-2.525.445-3.564.446-1.039 1.114-1.93 2.005-2.673.891-.891 1.93-1.485 3.118-1.782 1.039-.445 2.153-.594 3.341-.445 0-2.821.52-5.568 1.559-8.241.891-2.673 2.153-4.975 3.786-6.905-.445-4.306-.965-8.538-1.559-12.696-.742-4.157-1.633-8.166-2.672-12.027-1.188-3.861-2.451-7.499-3.787-10.914-1.336-3.564-2.821-6.83-4.455-9.8-3.266 8.909-5.791 18.412-7.572 28.51-1.931 9.948-2.896 20.268-2.896 30.959 0 10.394.891 20.417 2.673 30.069s4.232 18.932 7.35 27.842c2.97-5.049 5.568-10.914 7.796-17.596 2.078-6.831 3.563-14.181 4.454-22.051-.445-1.188-1.113-2.301-2.004-3.341-1.04-1.039-2.153-1.856-3.341-2.45-1.188-.742-2.45-1.336-3.787-1.782z"/><path d="m212.24 253.998c2.672 1.337 5.419 2.302 8.241 2.896l-.223-92.211c-5.494.148-10.765 1.262-15.814 3.341-5.197 1.93-10.097 4.751-14.7 8.464 1.93 4.9 3.712 10.171 5.345 15.814 1.485 5.494 2.896 11.285 4.232 17.373 1.188 5.939 2.227 12.176 3.118 18.709.891 6.534 1.634 13.29 2.228 20.269 2.376 2.078 4.9 3.86 7.573 5.345z"/><path d="m228.722 164.906v92.656c2.524-.149 5.123-.594 7.795-1.336 2.525-.891 4.9-2.154 7.128-3.787.445-7.276 1.188-14.329 2.227-21.159.891-6.831 2.005-13.364 3.341-19.601 1.188-6.385 2.599-12.399 4.232-18.041 1.485-5.791 3.192-11.211 5.123-16.259-4.455-3.713-9.132-6.608-14.032-8.687-5.049-2.079-10.32-3.341-15.814-3.786z"/><path d="m246.317 327.945c-.89-6.385-1.559-12.918-2.004-19.6-2.524.297-5.049.371-7.573.223-2.673-.149-5.346-.594-8.018-1.337l-.223 84.861c5.494-.743 10.84-2.227 16.037-4.455 5.197-2.376 10.023-5.42 14.477-9.132-1.93-4.751-3.638-9.8-5.123-15.145-1.633-5.495-3.044-11.137-4.232-16.928-1.336-5.94-2.45-12.102-3.341-18.487z"/><path d="m291.977 292.976v11.137h22.274v-4.455h-8.91v-5.791h-4.677v5.791h-4.009v-6.682z"/><path d="m291.977 285.403v4.678h22.274v-4.678z"/><path clip-rule="evenodd" d="m291.977 275.158v6.904h22.274v-6.904c0-.891-.149-1.782-.446-2.673-.148-.445-.371-.817-.668-1.114l-1.114-1.113c-.891-.594-2.004-1.04-3.341-1.337-1.336-.445-3.192-.668-5.568-.668-.891 0-1.633.074-2.227.223-.743 0-1.485.074-2.228.223-1.336.148-2.524.519-3.563 1.113-1.04.594-1.856 1.262-2.45 2.005-.446.891-.669 2.004-.669 3.341zm17.374 2.45h-12.473v-1.337c0-1.188.445-2.078 1.336-2.672 1.039-.446 2.673-.669 4.9-.669 1.931 0 3.267.075 4.009.223.891.297 1.411.668 1.56 1.114.148.148.296.445.445.891.148.297.223.668.223 1.113z" fill-rule="evenodd"/><path d="m291.977 253.776v12.25h22.274v-12.473h-4.9v8.018h-4.455v-7.35h-4.677v7.35h-3.564v-7.795z"/></g><path d="m323.709 84.2154h-179.101c-4.031 0-12.353-2.1694-9.549-5.3123 3.984-4.4651 10.043-4.4357 15.827-4.4076.456.0023.909.0045 1.36.0045h168.237c6.798 0 15.307-.089 20.839-4.3779l25.178-19.1221c4.574-3.5461 13.04-8.8442 17.526-5.1668 1.974 1.6667-5.877 8.1621-9.273 10.9595l-22.753 18.7072c-8.129 6.696-8.5 16.2309-8.5 27.3091v340.352c0 6.173-.755 16.304-6.012 18.659-3.697 1.656-3.988-5.506-3.988-9.848v-353.5904c0-7.9685-5.287-14.1662-9.791-14.1662z" fill="#ff9cae"/><path d="m185.159 49.0604-5.253 2.8425c-3.466 1.8758-1.895 6.4161 2.221 6.4161h45.727c3.192 0 6.305-.8358 8.912-2.3925l4.352-2.599c3.283-1.9601 1.642-6.3275-2.376-6.3275h-45.255c-2.952 0-5.842.715-8.328 2.0604z" fill="#ff9cae"/><path d="m268.684 49.8011-3.452 2.2993c-3.071 2.0454-1.36 6.2186 2.549 6.2186h48.549c3.206 0 6.332-.8432 8.946-2.4126l4.303-2.5842c3.272-1.9648 1.628-6.3222-2.385-6.3222h-48.95c-3.469 0-6.836.9866-9.56 2.8011z" fill="#ff9cae"/></svg>