<svg fill="none" height="512" viewBox="0 0 512 512" width="512" xmlns="http://www.w3.org/2000/svg"><path d="m246.005 34.0002c0-4.4184 3.581-8.0002 8-8.0002h4c4.418 0 8 3.5818 8 8.0002v40.0009h22.001c4.418 0 8 3.5818 8 8.0002v4.0001c0 4.4184-3.582 8.0002-8 8.0002h-22.001v13.7004c22.614 3.673 41.262 19.165 49.4 39.931 54.335-23.589 114.128-10.58 139.014 32.524 21.782 37.728 10.226 87.087-24.911 122.457 2.612 7.532-.911 15.949-4.942 21.816-1.399 2.037-.772 4.968 1.319 6.284 7.91 4.98 12.585 12.181 14.876 20.617.396.102.778.202 1.147.3 3.508.937 5.564 4.117 5.467 7.748-.389 14.636-2.246 36.763-7.355 49.575-1.468 3.68-5.397 5.106-9.237 4.426-5.258 11.908-11.436 22.286-16.66 28.957-.333.424-.74.745-1.19.962-8.827 24.888-32.579 42.712-60.493 42.712-15.174 0-29.118-5.267-40.104-14.073-8.475 5.476-25.948 11.873-55.475 11.873h-2.2c-29.685 0-47.187-6.466-55.611-11.961-11.002 8.858-24.989 14.161-40.214 14.161-27.98 0-51.777-17.908-60.5554-42.888-.3333-.206-.6365-.473-.8938-.802-5.2251-6.675-11.4028-17.056-16.6587-28.965-3.8815.736-7.8842-.68-9.3688-4.402-5.1093-12.812-6.9657-34.939-7.3555-49.575-.0967-3.631 1.9592-6.811 5.4679-7.748.4152-.111.8488-.224 1.3001-.339 2.2959-8.423 6.9718-15.613 14.8759-20.585 2.0911-1.315 2.707-4.24 1.308-6.277-4.0225-5.855-7.5397-14.249-4.9581-21.77-35.1727-35.373-46.7481-84.759-24.9566-122.503 24.8622-43.062 84.564-56.088 138.858-32.592 8.24-20.956 27.187-36.527 50.106-39.978v-13.5854h-22.001c-4.418 0-8-3.5818-8-8.0002v-4.0001c0-4.4184 3.582-8.0002 8-8.0002h22.001z" fill="#00173c"/><g fill="#ffe7eb"><path d="m255.639 285.806c-7.537.192-15.861.49-24.613.905-2.816.134-4.988 2.525-4.864 5.342l.182 4.112c.18 4.092 3.676 7.237 7.767 7.045 7.339-.345 14.557-.537 21.528-.537s14.555.192 21.894.537c4.091.192 7.588-2.953 7.768-7.045l.181-4.112c.124-2.817-2.047-5.208-4.864-5.342-8.752-.415-17.443-.713-24.979-.905z"/><path d="m163.555 302.409-.533-5.144c-.288-2.777 1.697-5.278 4.47-5.601 10.684-1.244 21.976-2.276 33.228-3.115 2.396-.179 4.484 1.606 4.692 3.999l.523 6.021c.315 3.625-2.364 6.818-5.985 7.172-9.584.938-19.044 2.034-28.102 3.206-4.11.531-7.865-2.416-8.293-6.538z"/><path d="m106.224 314.783c-6.062-7.92 7.577-13.924 29.848-18.366 4.333-.865 8.483 2.053 9.275 6.399l.81 4.448c.518 2.843-1.413 5.552-4.267 6.007-9.684 1.544-18.228 3.051-25.089 4.359-3.844.732-8.199.26-10.577-2.847z"/><path d="m348.623 297.265-.534 5.144c-.427 4.122-4.182 7.069-8.292 6.538-9.059-1.172-18.518-2.268-28.103-3.206-3.621-.354-6.299-3.547-5.985-7.172l.523-6.021c.208-2.393 2.297-4.178 4.692-3.999 11.252.839 22.544 1.871 33.228 3.115 2.774.323 4.759 2.824 4.471 5.601z"/><path d="m405.421 314.783c6.062-7.92-7.578-13.924-29.848-18.366-4.333-.865-8.484 2.053-9.276 6.399l-.81 4.448c-.518 2.843 1.414 5.552 4.268 6.007 9.683 1.544 18.227 3.051 25.088 4.359 3.845.732 8.199.26 10.578-2.847z"/><path d="m210.16 453.344c-27.448-53.799-75.176-47.885-98.573-37.016-1.719.799-3.778.282-4.74-1.352-.698-1.184-1.456-2.441-2.252-3.763-.688-1.141-1.405-2.33-2.137-3.562 14.7-3.377 31.855-6.541 46.796-8.731 10.86-1.592 18.947-11.231 18.05-22.171l-1.696-20.698c-.922-11.246-10.94-19.466-22.105-17.838-14.004 2.043-30.549 4.732-44.9654 7.358 4.1544-4.424 9.8324-8.623 17.3984-12.464 12.956-4.767 59.034-14.3 139.703-14.3 80.668 0 127.114 9.533 140.07 14.3 7.535 3.827 13.177 8.038 17.293 12.493-14.454-2.635-31.07-5.337-45.126-7.387-11.165-1.628-21.183 6.592-22.105 17.838l-1.696 20.698c-.897 10.94 7.19 20.579 18.051 22.171 15.01 2.2 32.254 5.384 47 8.778-.852 1.451-1.684 2.842-2.474 4.164l-.002.002-.001.002c-.649 1.085-1.27 2.123-1.851 3.11-.962 1.634-3.021 2.151-4.741 1.352-23.397-10.869-71.125-16.783-98.573 37.016-.725 1.421-1.867 2.636-3.334 3.266-7.201 3.09-23.129 7.767-42.511 7.767s-34.944-4.677-42.145-7.767c-1.466-.63-2.608-1.845-3.334-3.266z"/><path d="m88.4778 393.075c-3.1634-6.784-4.3128-18.502-4.5541-26.253-.0599-1.922 1.213-3.606 3.3854-4.102 8.5888-1.963 29.8779-5.115 45.8359-7.106 6.912-.862 13.115 3.491 13.686 9.446l1.05 10.961c.555 5.793-4.452 10.898-11.176 11.741-14.117 1.77-31.427 4.742-41.6567 7.479-2.6226.702-5.5526.018-6.5705-2.166z"/><path d="m422.901 393.075c3.164-6.784 4.313-18.502 4.554-26.253.06-1.922-1.213-3.606-3.385-4.102-8.589-1.963-29.878-5.115-45.836-7.106-6.912-.862-13.115 3.491-13.686 9.446l-1.05 10.961c-.555 5.793 4.452 10.898 11.176 11.741 14.117 1.77 31.427 4.742 41.657 7.479 2.622.702 5.552.018 6.57-2.166z"/></g><path d="m297.85 156.68c-17.267 10.383-31.484 23.627-42.12 38.344-10.848-15.01-25.421-28.489-43.157-38.962 6.194-17.513 22.898-30.06 42.532-30.06 19.864 0 36.729 12.843 42.745 30.678z" fill="#ff9cae"/><path clip-rule="evenodd" d="m256 269.673c70.85 0 139.207 9.729 162.589 21.807 27.891-29.45 36.739-69.635 18.911-100.513-22.803-39.496-80.615-48.809-129.127-20.801-26.929 15.548-45.332 39.328-52.476 64.166-7.143-24.838-25.546-48.618-52.475-64.166-48.512-28.008-106.3245-18.695-129.1277 20.801-17.8083 30.845-8.9983 70.977 18.8221 100.419 23.5506-12.034 92.2176-21.713 162.8836-21.713zm169.532-25.342c-.975 5.887-10.324 2.745-11.003-3.184-1.141-9.969-4.243-19.722-9.469-28.773-11.368-19.69-30.639-32.339-52.628-36.886-2.381-.492-2.49-4.397-.06-4.456 28.654-.703 53.873 10.299 66.36 31.927 7.185 12.445 9.216 26.781 6.8 41.372z" fill="#ff9cae" fill-rule="evenodd"/><path d="m323.33 458.193c22.563-32.619 52.635-30.854 73.422-21.992-6.052 18.692-23.603 32.209-44.312 32.209-11.015 0-21.137-3.824-29.11-10.217z" fill="#ff9cae"/><path d="m114.554 436.293c20.767-8.93 50.918-10.827 73.549 21.773-7.997 6.469-18.179 10.344-29.267 10.344-20.674 0-38.202-13.472-44.282-32.117z" fill="#ff9cae"/></svg>