<svg fill="none" height="512" viewBox="0 0 512 512" width="512" xmlns="http://www.w3.org/2000/svg"><path clip-rule="evenodd" d="m245.789 317.391v-31.197c-2.422 3.633-35.117 21.797-60.547 32.696-20.344 8.719-31.888 31.081-35.117 41.172-24.219 54.25-49.649 37.943-59.3365 23.008-65.391-13.321-44.8049-81.133-33.9064-94.454 8.7188-10.656 27.8517-44.805 36.3283-60.547l7.2656-46.016c0-17.437 24.219-40.365 36.328-49.649-.807-13.724-2.422-43.5935-2.422-53.2811 0-9.6875 8.073-8.8802 12.11-7.2656l50.859 27.8517c6.862-5.2474 22.04-17.6798 27.852-25.4298 5.813-7.75 11.302-3.2292 13.321 0l21.797 42.3828 27.176-.792 25.135.792c4.659 0 9.345.625 13.736 2.183 121.173 43.006 144.081 249.517 140.229 357.698-.189 5.315-4.584 9.457-9.902 9.457h-285.611c-5.052 0-9.342-3.768-9.46-8.82-.517-22.165 5.468-58.598 33.306-77.157 29.153-19.436 44.409-53.775 49.625-72.53.914-3.286 1.234-6.69 1.234-10.102z" fill="#00173c" fill-rule="evenodd"/><path clip-rule="evenodd" d="m108.004 352.203c5.248-3.633 15.841-6.285 11.966 10.184-1.614 3.229-5.931 9.374-9.806 13.249s.309 5.081 2.328 5.485c3.632.403 8.646-.783 14.459-10.471 1.369-2.281 4.071-5.868 5.983-9.971 8.237-17.678 21.372-50.516 50.856-61.327 35.646-13.07 83.152-35.311 83.779-81.902.024-1.758.377-3.574 1.62-4.818 3.579-3.583 10.834-6.48 15.782.461.746 1.047 1.116 2.304 1.212 3.586.864 11.646-1.093 37.381-22.12 60.236 3.633 29.87-1.122 99.802-56.341 136.614-9.921 8.014-26.853 23.894-26.217 49.342.064 2.562 2.238 4.506 4.8 4.506h252.829c2.73 0 4.956-2.123 4.985-4.853 1.063-101.848-14.822-292.711-124.462-323.22-5.651-1.614-24.878-4.459-65.566-3.49-2.825-2.422-13.276-15.725-23.932-41.8816-8.88 9.6876-29.657 27.2086-54.845 36.8956-31.485 12.11-48.078 28.217-55.344 51.225-5.812 18.406-7.075 38.347-7.478 46.016-2.826 8.477-14.9997 34.391-33.4061 60.547-23.0079 32.696-29.5623 68.287 16.4535 75.553.8073-1.615 2.7772-3.248 12.4646-11.966zm-16.9519-25.429c-5.3885 7.185-15.0488 11.23-20.2887 13.069-.5955.209-1.2246-.188-1.2992-.814-.4565-3.837-1.1522-11.295.6471-16.243 1.1161-3.07 5.0431-6.295 8.2853-8.541 2.8249-1.956 6.565-1.971 9.1599.281 3.4136 2.964 6.9832 7.598 3.4956 12.248z" fill="#ff9cae" fill-rule="evenodd"/><path d="m151.336 93.9324 1.541 25.9266 22.437-12.465z" fill="#ff9cae"/><path d="m47.0011 182h254.2979v9.688h9.686v9.687h-9.687l.001-9.687h-60.548v12.109h-7.266v7.266h-9.688v7.266h-9.687v9.687h-46.016v-9.687h-9.688v-7.266h-7.265v-19.375h-14.531l-.001 19.375h-9.687v7.266h-7.265v9.687h-48.4381v-9.687h-7.2655v-7.266h-9.6889v-9.688h-7.2645z" fill="#810f23"/><g fill="#ff9cae"><path d="m110.163 191.741h-7.265v7.265h7.265z"/><path d="m93.21 201.428h7.266v7.266h-7.266z"/><path d="m110.163 201.428h7.265v7.266h-7.265z"/><path d="m93.2097 211.116h-7.2656v7.266h7.2656z"/><path d="m100.475 211.116h7.266v7.266h-7.266z"/><path d="m119.85 191.741h7.266v7.265h-7.266z"/><path d="m204.616 191.741h-7.265v7.265h7.265z"/><path d="m187.663 201.428h7.266v7.266h-7.266z"/><path d="m204.616 201.428h7.265v7.266h-7.265z"/><path d="m187.663 211.116h-7.266v7.266h7.266z"/><path d="m194.928 211.116h7.265v7.266h-7.265z"/><path d="m214.303 191.741h7.266v7.265h-7.266z"/></g></svg>