<svg fill="none" height="512" viewBox="0 0 512 512" width="512" xmlns="http://www.w3.org/2000/svg"><path d="m388.25 487.237c9.682 0 16.827-9.035 14.596-18.456l-15.703-66.318c-1.564-7.227-8.838-12.943-16.291-12.943h-22.915l-68.283-251.299c-.519-5.688-16.238-7.221-25.581-7.221s-25.065 1.533-25.59 7.221l-68.272 251.299h-20.459c-7.455 0-14.733 5.716-16.277 12.943l-15.096 66.451c-2.132 9.387 5.002 18.323 14.627 18.323z" fill="#00173c"/><g fill="#ff9cae"><path d="m243.25 144.79c3.626.75 13.099 1.795 21.985-.024l9.988 36.797c-16.218 3.677-34.714 1.532-41.935 0z"/><path d="m230.071 193.437-28.849 106.489c19.921 4.979 69.036 11.951 106.13 0l-28.909-106.501c-18.238 3.974-39.848 1.664-48.372.012z"/><path clip-rule="evenodd" d="m310.679 312.183c-48.138 13.177-95.243 5.491-112.777 0l-25.528 94.231-31.34-.184c-1.139 0-3.806 1.854-5.368 9.272-1.562 7.417-7.483 34.322-10.248 46.848-.488 2.602.878 7.905 10.248 8.296 9.37.39 83.285.162 119.071 0h.403c35.786.162 109.701.39 119.071 0 9.369-.391 10.736-5.694 10.248-8.296-2.766-12.526-8.687-39.431-10.248-46.848-1.562-7.418-4.23-9.272-5.368-9.272l-32.586.184zm-149.076 111.615c1.82 13.14 42.571 23.662 92.608 23.662 50.044 0 90.803-10.519 92.601-23.662.043-7.027-5.332-8.257-8.024-7.993-14.516 8.537-46.893 14.484-84.52 14.484-37.632 0-70.012-5.952-84.528-14.493-2.497-.26-7.619.975-8.137 8.002z" fill-rule="evenodd"/></g></svg>