<svg fill="none" height="512" viewBox="0 0 512 512" width="512" xmlns="http://www.w3.org/2000/svg"><path d="m256.562 123.54c-101.106 0-183.3601 74.844-183.3601 166.836 0 40.362 3.0582 86.159 39.5561 118.871 13.972 12.521 35.31 19.674 52.454 25.424 2.184.733 4.286 1.439 6.267 2.121 1.045.361 1.52.525 2.846 7.779 1.421 7.772 3.366 18.415 13.814 27.921 3.798 3.453 15.352 13.969 68.972 14.508h.138.137c53.62-.539 65.175-11.053 68.973-14.508 10.445-9.507 12.393-20.149 13.814-27.921 1.326-7.254 1.804-7.418 2.849-7.779 1.981-.682 4.079-1.385 6.263-2.121 17.145-5.75 38.483-12.903 52.451-25.424 36.502-32.709 39.56-78.51 39.56-118.871-.007-91.994-82.876-166.836-184.735-166.836z" fill="#00173c"/><path d="m388.395 396.046c-10.568 9.459-29.846 15.916-45.342 21.107-2.347.785-4.602 1.539-6.725 2.272-15.401 5.301-17.689 17.806-19.204 26.081-1.149 6.287-2.142 11.719-7.173 16.288-.874.794-9.789 7.759-53.618 8.213-43.828-.457-52.743-7.419-53.617-8.213-5.027-4.569-6.021-10.001-7.174-16.288-1.513-8.275-3.802-20.78-19.203-26.081-2.126-.733-4.381-1.487-6.728-2.272-15.493-5.19-34.775-11.648-45.343-21.107-27.8324-24.916-33.4277-59.3-33.4277-106.7 0-82.578 73.9167-149.757 164.7767-149.757 91.644 0 166.205 67.179 166.205 149.757.003 47.401-5.592 81.787-33.425 106.7z" fill="#ff9cae"/><path d="m333.108 322.169c-24.678 0-43.289 15.966-43.289 37.136 0 21.173 18.611 37.139 43.289 37.139 23.464 0 43.29-19.07 43.29-41.638 0-20.131-16.587-32.637-43.29-32.637z" fill="#810f23"/><path d="m181.391 322.17c-26.702 0-43.29 12.506-43.29 32.637 0 22.57 19.826 41.637 43.29 41.637 24.678 0 43.29-15.966 43.29-37.138 0-21.171-18.611-37.136-43.29-37.136z" fill="#810f23"/><path d="m256.614 372.258c5.727-.253 10.864 3.057 12.488 8.035l13.228 40.511c1.949 5.959-1.784 12.224-8.333 13.993-1.172.319-2.36.471-3.526.471-4.463 0-8.641-2.216-10.818-5.803-2.515 4.132-7.734 6.527-13.12 5.604-6.712-1.153-11.123-7.04-9.856-13.147l8.415-40.515c1.061-5.103 5.822-8.884 11.522-9.149z" fill="#810f23"/><path d="m293 61.5c0 14.1096-7.792 26.3993-19.309 32.7999 5.346 158.1761 40.545 92.0921 65.296 14.6841-7.373-6.848-11.987-16.6273-11.987-27.484 0-20.7107 16.789-37.5 37.5-37.5s37.5 16.7893 37.5 37.5c0 17.3093-11.727 31.88-27.67 36.198-27.452 123.493 12.949 118.191 48.367 58.682-3.61-5.763-5.697-12.578-5.697-19.88 0-20.711 16.789-37.5 37.5-37.5s37.5 16.789 37.5 37.5c0 20.628-16.656 37.367-37.254 37.499-8.658 33.496-12.713 81.098-13.746 105.501 0-12.469-82.38-22.577-184-22.577s-184 10.108-184 22.577c-1.5498-24.406-6.5224-72.014-15.5692-105.511-.3094.007-.6197.011-.9308.011-20.7107 0-37.5-16.789-37.5-37.5s16.7893-37.5 37.5-37.5 37.5 16.789 37.5 37.5c0 7.385-2.1346 14.271-5.8205 20.075 33.7175 63.177 73.5835 71.681 51.3505-58.222-17.38-3.266-30.53-18.5241-30.53-36.853 0-20.7107 16.789-37.5 37.5-37.5s37.5 16.7893 37.5 37.5c0 9.2642-3.359 17.7438-8.927 24.287 24.178 77.119 59.108 145.002 64.669-10.2489-12.838-5.9534-21.742-18.956-21.742-34.0381 0-20.7107 16.789-37.5 37.5-37.5s37.5 16.7893 37.5 37.5z" fill="#00173c"/><g fill="#66b6ff"><path d="m255.5 80c10.217 0 18.5-8.2827 18.5-18.5s-8.283-18.5-18.5-18.5-18.5 8.2827-18.5 18.5 8.283 18.5 18.5 18.5z"/><path d="m364.5 100c10.217 0 18.5-8.2827 18.5-18.5s-8.283-18.5-18.5-18.5-18.5 8.2827-18.5 18.5 8.283 18.5 18.5 18.5z"/><path d="m56.5 175c10.2173 0 18.5-8.283 18.5-18.5s-8.2827-18.5-18.5-18.5-18.5 8.283-18.5 18.5 8.2827 18.5 18.5 18.5z"/><path d="m473 156.5c0 10.217-8.283 18.5-18.5 18.5s-18.5-8.283-18.5-18.5 8.283-18.5 18.5-18.5 18.5 8.283 18.5 18.5z"/><path d="m146.5 100c10.217 0 18.5-8.2827 18.5-18.5s-8.283-18.5-18.5-18.5-18.5 8.2827-18.5 18.5 8.283 18.5 18.5 18.5z"/><path d="m424.988 268.927c2.177-24.984 6.094-55.893 12.419-80.534-8.846 14.833-18.446 27.37-28.069 36.049-5.428 4.895-11.529 9.169-18.084 11.551-6.645 2.415-14.815 3.213-22.872-.871-16.379-8.3-20.505-29.499-21.043-46.969-.57-18.495 2.392-43.04 9.214-74.089-6.262 19.785-13.365 39.479-20.723 55.496-3.919 8.531-8.157 16.563-12.663 23.154-4.176 6.109-10.079 13.24-17.842 16.827-4.237 1.958-9.355 3.001-14.879 1.784-5.53-1.218-10.055-4.391-13.532-8.211-6.385-7.013-10.102-17.109-12.616-27.032-3.517-13.877-6.046-47.321-7.57-72.828-1.52 24.898-4.011 57.902-7.467 71.476-2.478 9.733-6.162 19.746-12.549 26.683-3.489 3.789-8.032 6.917-13.572 8.064-5.522 1.143-10.604.023-14.775-1.967-7.641-3.645-13.431-10.75-17.519-16.808-4.416-6.542-8.567-14.499-12.405-22.941-7.701-16.938-14.018-32.821-20.441-53.697 6.216 35.086 6.918 58.32 5.601 78.284-.658 9.973-2.271 19.278-5.419 27.17-3.213 8.054-8.549 15.803-16.871 19.818-8.31 4.01-16.613 2.855-23.269.061-6.527-2.74-12.489-7.419-17.717-12.648-8.3621-8.364-16.6139-19.923-24.2825-33.446 5.9109 23.813 9.9529 52.428 12.4161 75.76 9.8602-2.428 22.3214-4.507 36.5364-6.252 34.105-4.184 80.768-6.728 132.005-6.728s97.9 2.544 132.005 6.728c13.951 1.712 26.212 3.746 35.983 6.116z"/></g></svg>