<svg fill="none" height="512" viewBox="0 0 512 512" width="512" xmlns="http://www.w3.org/2000/svg"><path d="m328.469 488.071h-197.29c-7.831 0-14.179-7.144-14.179-15.957v-388.8224c0-6.2503 2.925-12.0389 7.698-15.2353l40.073-26.836c5.082-3.4033 11.06-5.2203 17.177-5.2203h193.331c11.366 0 20.58 9.214 20.58 20.58v352.47c0 6.372-2.033 12.533-5.73 17.36l-37.79 49.349c-5.986 7.817-14.701 12.312-23.87 12.312z" fill="#00173c"/><path d="m375.002 421.131c3.774-4.849 5.855-11.076 5.855-17.522v-345.7289c0-5.683-4.607-10.29-10.29-10.29h-178.939c-5.37 0-10.606 1.6805-14.972 4.806l-35.988 25.7579c-5.146 3.4989-7.784 9.002-7.784 15.2924v368.0306c0 5.875 4.232 10.638 9.453 10.638h181.056c6.662 0 13.015-3.165 17.494-8.715z" fill="#ff9cae"/><path d="m319.149 89.1674h-167.981c-3.893 0-5.875-5.2644-3.166-8.4111 4.151-4.8227 10.214-4.8901 16.181-4.8901h154.864c6.566 0 12.968-2.3083 18.312-6.6024l10.972-8.8175c5.642-4.5342 12.901-8.4259 19.689-5.9117l.871.3229c3.734 1.3829 4.845 5.3826 1.758 7.8964l-16.464 13.1123c-10.451 9.9025-12.464 17.1562-12.464 28.2478v343.321c0 6.181-2.123 11.751-7.2 14.109-3.571 1.657-7.494-1.297-7.494-5.644v-357.8681c0-4.8958-3.527-8.8645-7.878-8.8645z" fill="#00173c"/><path d="m183.383 60.3163 5.249-3.3594c2.484-1.59 5.371-2.435 8.321-2.435h45.218c4.015 0 5.654 5.1615 2.374 7.478l-4.349 3.0715c-2.604 1.8397-5.715 2.8275-8.904 2.8275h-45.69c-4.112 0-5.682-5.3658-2.219-7.5826z" fill="#00173c"/><path d="m268.929 57.8323-3.45 2.7174c-3.068 2.4173-1.359 7.3492 2.548 7.3492h48.509c3.203 0 6.327-.9964 8.938-2.8512l4.3-3.0541c3.269-2.322 1.626-7.4717-2.384-7.4717h-48.91c-3.465 0-6.829 1.1661-9.551 3.3104z" fill="#00173c"/><g fill="#810f23"><path d="m210.956 298.318c-1.633-1.782-3.044-3.638-4.231-5.569-1.188-2.079-2.079-4.157-2.673-6.236-.297 1.039-.52 2.004-.668 2.895l-.891 2.673-.891 2.227c-.446.743-1.04 1.411-1.782 2.005 1.188 1.039 2.079 1.856 2.673 2.45s1.113 1.262 1.559 2.005l1.113 2.227c.446.891 1.114 2.153 2.005 3.786 1.782 3.119 3.341 6.311 4.677 9.578 1.188 3.118 2.079 6.236 2.673 9.355-1.782 1.336-3.564 2.524-5.345 3.563-1.931 1.04-3.787 1.782-5.569 2.228-1.188 9.057-2.821 17.744-4.9 26.059s-4.454 16.037-7.127 23.164c4.454 4.009 9.28 7.128 14.477 9.355s10.617 3.564 16.26 4.009l.223-87.756c-2.228-.891-4.307-2.005-6.237-3.341-2.079-1.485-3.861-3.044-5.346-4.677z"/><path d="m190.911 354.446c1.93-7.573 3.638-15.369 5.122-23.387-2.078-4.455-4.528-8.909-7.35-13.364-2.821-4.455-6.088-8.686-9.8-12.696-1.485 7.87-3.415 15.22-5.791 22.051-2.524 6.83-5.494 12.918-8.909 18.264 1.485 3.267 2.97 6.311 4.454 9.132 1.485 2.821 3.119 5.494 4.901 8.018 1.633 2.376 3.415 4.678 5.345 6.905 1.782 2.227 3.712 4.38 5.791 6.459 2.227-6.682 4.306-13.809 6.237-21.382z"/><path d="m288.022 261.79c.594-1.337.891-2.822.891-4.455v-7.35h10.468c-1.188-4.9-2.524-9.578-4.009-14.032-1.485-4.603-3.044-9.132-4.678-13.587-3.415 6.088-6.236 12.993-8.463 20.714-2.228 7.721-3.564 16.185-4.01 25.391 1.485 0 2.896-.222 4.232-.668 1.188-.594 2.302-1.41 3.341-2.45.891-1.039 1.634-2.227 2.228-3.563z"/><path d="m282.453 292.526c-1.336-.742-2.747-1.113-4.232-1.113.297 4.603.891 9.058 1.782 13.364.743 4.306 1.708 8.464 2.896 12.473 1.039 3.86 2.301 7.573 3.786 11.136 1.485 3.564 3.118 6.905 4.9 10.023 1.634-4.306 3.119-8.761 4.455-13.364s2.524-9.429 3.564-14.477l-10.691-.446v-7.573c0-1.336-.297-2.672-.891-4.009-.594-1.336-1.337-2.524-2.228-3.563-1.039-1.04-2.153-1.857-3.341-2.451z"/><path d="m268.867 262.235c.594 1.485 1.485 2.747 2.672 3.786.446-5.197 1.188-10.097 2.228-14.7.891-4.751 2.004-9.206 3.341-13.364 1.336-4.306 2.895-8.315 4.677-12.027s3.787-7.053 6.014-10.023c-2.673-6.088-5.791-11.805-9.355-17.151-3.564-5.494-7.424-10.542-11.582-15.145-3.118 9.206-5.791 19.452-8.018 30.737-2.376 11.136-4.084 23.09-5.123 35.859l1.782-.222v60.137l-1.782-.222c.445 6.236 1.114 12.324 2.005 18.264.742 5.939 1.707 11.73 2.895 17.373 1.039 5.494 2.302 10.765 3.786 15.814 1.337 5.048 2.822 9.874 4.455 14.477 4.306-4.603 8.241-9.503 11.805-14.7 3.564-5.346 6.608-10.914 9.132-16.705-2.227-2.97-4.232-6.311-6.014-10.023s-3.341-7.647-4.677-11.805c-1.337-4.306-2.45-8.761-3.341-13.364-1.04-4.751-1.782-9.726-2.228-14.923-1.187 1.04-2.078 2.302-2.672 3.787-.743 1.485-1.114 3.044-1.114 4.677v7.35h-6.459v-60.137h6.459v7.573c0 1.484.371 3.044 1.114 4.677z"/><path d="m188.238 252.658c3.267-1.485 6.682-2.451 10.246-2.896-1.337-12.621-3.119-24.426-5.346-35.414-2.376-11.137-5.197-21.234-8.464-30.292-3.861 4.009-7.499 8.538-10.914 13.587-3.563 4.9-6.756 10.394-9.577 16.482 3.712 5.642 6.904 12.25 9.577 19.823 2.525 7.424 4.381 15.443 5.569 24.055 2.672-2.227 5.642-4.009 8.909-5.345z"/><path d="m163.069 290.745c-1.485-.594-2.97-.966-4.454-1.114-.149-1.336 0-2.524.445-3.564.445-1.039 1.114-1.93 2.005-2.673.891-.89 1.93-1.484 3.118-1.781 1.039-.446 2.153-.594 3.341-.446 0-2.821.52-5.568 1.559-8.241.891-2.673 2.153-4.974 3.786-6.905-.445-4.306-.965-8.538-1.559-12.695-.742-4.158-1.633-8.167-2.673-12.028-1.187-3.86-2.45-7.498-3.786-10.914-1.336-3.563-2.821-6.83-4.455-9.8-3.266 8.909-5.791 18.413-7.572 28.51-1.931 9.948-2.896 20.268-2.896 30.96 0 10.394.891 20.417 2.673 30.068 1.782 9.652 4.232 18.932 7.35 27.842 2.97-5.049 5.568-10.914 7.796-17.596 2.078-6.83 3.563-14.181 4.454-22.05-.445-1.188-1.113-2.302-2.004-3.341-1.04-1.04-2.153-1.857-3.341-2.451-1.188-.742-2.45-1.336-3.787-1.781z"/><path d="m214.297 255.999c2.673 1.336 5.42 2.301 8.242 2.895l-.223-92.211c-5.494.149-10.766 1.262-15.814 3.341-5.197 1.93-10.097 4.752-14.7 8.464 1.93 4.9 3.712 10.171 5.345 15.814 1.485 5.494 2.896 11.285 4.232 17.373 1.188 5.939 2.227 12.176 3.118 18.709.891 6.534 1.634 13.29 2.228 20.269 2.375 2.079 4.9 3.861 7.572 5.346z"/><path d="m230.78 166.906v92.656c2.524-.148 5.122-.594 7.795-1.336 2.524-.891 4.9-2.153 7.128-3.787.445-7.276 1.188-14.329 2.227-21.159.891-6.831 2.005-13.364 3.341-19.601 1.188-6.385 2.598-12.398 4.232-18.041 1.485-5.791 3.192-11.211 5.123-16.259-4.455-3.712-9.132-6.608-14.032-8.687-5.049-2.079-10.32-3.341-15.814-3.786z"/><path d="m248.375 329.945c-.891-6.385-1.559-12.918-2.004-19.6-2.524.297-5.049.371-7.573.223-2.673-.149-5.346-.594-8.018-1.337l-.223 84.861c5.494-.742 10.839-2.227 16.037-4.454 5.197-2.376 10.022-5.42 14.477-9.132-1.93-4.752-3.638-9.801-5.123-15.146-1.633-5.494-3.044-11.137-4.232-16.928-1.336-5.939-2.45-12.102-3.341-18.487z"/><path d="m294.035 294.977v11.136h22.274v-4.455h-8.91v-5.791h-4.677v5.791h-4.009v-6.681z"/><path d="m294.035 287.404v4.677h22.274v-4.677z"/><path clip-rule="evenodd" d="m294.035 277.158v6.905h22.273v-6.905c0-.891-.148-1.782-.445-2.673-.148-.445-.371-.816-.668-1.113l-1.114-1.114c-.891-.594-2.004-1.04-3.341-1.337-1.336-.445-3.192-.668-5.568-.668-.891 0-1.633.075-2.227.223-.743 0-1.485.074-2.228.223-1.336.148-2.524.519-3.563 1.113-1.04.594-1.856 1.263-2.45 2.005-.446.891-.669 2.005-.669 3.341zm17.373 2.45h-12.473l.001-1.336c0-1.188.445-2.079 1.336-2.673 1.039-.446 2.673-.668 4.9-.668 1.93 0 3.267.074 4.009.222.891.297 1.411.669 1.559 1.114.149.149.297.446.446.891.148.297.222.668.222 1.114z" fill-rule="evenodd"/><path d="m294.035 255.776v12.25h22.274v-12.473h-4.901v8.018h-4.454v-7.35h-4.678v7.35h-3.563v-7.795z"/></g></svg>