<svg viewBox="0 0 81 81" xmlns="http://www.w3.org/2000/svg"><path d="m0 0h81v81h-81z" fill="none"/><g fill="#010101"><path d="m55.7 50.9 4-34.9-19.2 33.2-19.2-33.2 4.1 34.9-17.5-20.1 10.9 41.2h43.4l10.9-41.2zm-15.2 16-3.6-6.4 3.6-6.4 3.6 6.4z"/><path d="m40.5 11.7-5.6 23.5 5.6 9.5 5.6-9.5z"/><circle cx="40.5" cy="10.6" r="5.4"/></g><path d="m41.6 7.2c-.8-.4-1.7-.6-2.6-.3-1.8.5-2.9 2.4-2.4 4.2 0 .1 0 .1.1.2 2.9.3 5.3-2.8 4.9-4.1z" fill="#6d6e6e"/><circle cx="59.5" cy="16" fill="#010101" r="5.4"/><path d="m60.6 12.6c-.8-.4-1.7-.6-2.6-.3-1.8.5-2.9 2.4-2.4 4.2 0 .1 0 .1.1.2 2.9.2 5.3-2.8 4.9-4.1z" fill="#6d6e6e"/><circle cx="21.5" cy="16" fill="#010101" r="5.4"/><path d="m22.6 12.6c-.8-.4-1.7-.6-2.6-.3-1.8.5-2.9 2.4-2.4 4.2 0 .1 0 .1.1.2 2.9.2 5.3-2.8 4.9-4.1z" fill="#6d6e6e"/><circle cx="73.1" cy="31.4" fill="#010101" r="5.4"/><path d="m74.2 28c-.8-.4-1.7-.6-2.6-.3-1.8.5-2.9 2.4-2.4 4.2 0 .1 0 .1.1.2 2.9.2 5.3-2.8 4.9-4.1z" fill="#6d6e6e"/><circle cx="7.9" cy="31.4" fill="#010101" r="5.4"/><path d="m9 28c-.8-.4-1.7-.6-2.6-.3-1.8.4-2.9 2.3-2.4 4.1 0 .1 0 .1.1.2 2.9.3 5.3-2.7 4.9-4zm31.5-7.1-3.1 13.4 3.1 5.3zm16.1 33.8 1.8 5.6 9.6-22zm-8.7-4.2 8-21.2-12.3 20.8zm-14.6 0-8.3-21.4 3.1 21.9zm-10.2 8.2-10.5-17.8 7.9 26.4z" fill="#6d6e6e"/></svg>