<svg viewBox="0 0 81 81" xmlns="http://www.w3.org/2000/svg"><path d="m29.7 37.8h21.6l-5.1-6h.7c2.6-1.9 4.3-5.1 4.3-8.6 0-6-4.8-10.7-10.7-10.7s-10.7 4.8-10.7 10.7c0 3.5 1.7 6.7 4.3 8.6h.7zm19.7 22.7-4.3-20.7h-10l-3.5 20.7-10.6 9.4h39z" fill="#fff"/><path d="m40.5 59.7 7.3 11.3h13.8l-10.4-11-1.4-.9-2.9-20.2h-6.4zm3.9-21.7h8.1l-5.3-6.5h-6.2zm.6-24.7c3.7 5.5 1.1 17.6-10.2 17.6-.2 0 12.1.6 13.1-.3 1.9-1.9 3.1-4.4 3.1-7.3.1-6-6.2-11.2-6-10z" fill="#cfcecf"/><path d="m31.9 60.6-10.3 9.1h37.8l-10.2-9-.1-.1-4.2-20.6h-9.6zm14.2-28.6h-11.2l-4.7 5.9h20.6zm1.4-2.5c1.6-1.7 2.5-4 2.5-6.4 0-5.3-4.2-9.5-9.5-9.5-5.2 0-9.5 4.2-9.5 9.5 0 2.4.9 4.6 2.5 6.4z" fill="none"/><path d="m15 72.2h51l-14.5-12.8-4.2-20h8.2l-7.1-8c2.9-2.2 3.6-5.6 3.6-8.1 0-6.4-5-11.4-11.4-11.4-6.3 0-11.4 5.1-11.4 11.4 0 2.5.6 5.9 3.6 8.1l-7.1 8h7.3l-3.4 20zm16.4-48.9c0-5 4.1-9.1 9.1-9.1 5.1 0 9.1 4 9.1 9.1 0 2.3-.8 4.4-2.4 6.1h-13.4c-1.5-1.7-2.4-3.9-2.4-6.1zm3.8 8.4h10.7l4.5 5.6h-19.7zm.2 7.7h9.4l4.4 21.2v.1l10.2 9h-37.8l10.2-9.1z" fill="#010101"/></svg>