<svg viewBox="0 0 81 81" xmlns="http://www.w3.org/2000/svg"><path d="m0 0h81v81h-81z" fill="none"/><g fill="#fff"><circle cx="21.9" cy="16.5" r="5.2"/><path d="m59.1 21.8c2.9 0 5.2-2.3 5.2-5.2s-2.3-5.2-5.2-5.2-5.2 2.3-5.2 5.2 2.3 5.2 5.2 5.2z"/><path d="m72.1 26.4c-2.9 0-5.2 2.3-5.2 5.2 0 1.4.6 2.8 1.5 3.7l-13.2 15.2 3.3-28.7-2.1-.6-9.8 16.9-5.1-21.7h-2.2l-5.1 21.7-9.8-16.9-2.1.6 3.3 28.7-13-15.2c.9-.9 1.5-2.3 1.5-3.7 0-2.9-2.3-5.2-5.2-5.2s-5.2 2.3-5.2 5.2 2.3 5.2 5.2 5.2c.5 0 1-.1 1.5-.2l9.1 34.4h42.1l9.1-34.4c.5.1 1 .2 1.5.2 2.9 0 5.2-2.3 5.2-5.2s-2.4-5.2-5.3-5.2z"/><circle cx="40.5" cy="11.3" r="5.2"/></g><path d="m41.4 20.3 5.3 17.9-5.3 7.3zm-14.3 33.3-3.5 6.8-9.7-22.1zm6.9-3.1-9.2-27.7 15.7 28.1zm14.2 0 9.3-24.7-3.6 27.8zm4.7 19.9 15.6-33.7 1.5.3-9.3 33.4zm20.4-33.7c3.4-.9 3.9-3.4 4-6.7 0-.6-.9-1.8-1.3-1.8-.4.1-.8.1-1.2.3.3 2.5-1.3 5-3.8 5.7-1.1.3-2.1.2-3.1-.1-.6 1 3.9 3 5.4 2.6zm-13.3-15.4c3.4-.9 3.9-3.4 4-6.7 0-.6-.9-1.8-1.3-1.8-.4.1-.8.1-1.2.3.3 2.5-1.3 5-3.8 5.7-1.1.3-2.1.2-3.1-.1-.6 1 3.9 3 5.4 2.6zm-49.9 15.4c3.4-.9 3.9-3.4 4-6.7 0-.6-.9-1.8-1.3-1.8-.4.1-.8.1-1.2.3.3 2.5-1.3 5-3.8 5.7-1.1.3-2.1.2-3.1-.1-.6 1 3.9 3 5.4 2.6zm13-15.4c3.4-.9 3.9-3.4 4-6.7 0-.6-.9-1.8-1.3-1.8-.4.1-.8.1-1.2.3.3 2.5-1.3 5-3.8 5.7-1.1.3-2.1.2-3.1-.1-.6 1 3.9 3 5.4 2.6zm18.5-5.2c3.4-.9 3.9-3.4 4-6.7 0-.6-.9-1.8-1.3-1.8-.4.1-.8.1-1.2.3.3 2.5-1.3 5-3.8 5.7-1.1.3-2.1.2-3.1-.1-.6 1.1 3.9 3 5.4 2.6z" fill="#cfcecf"/><path d="m40.5 65.7-3.9-5.9 3.9-5.8 3.9 5.8z" fill="#231f20"/><circle cx="21.9" cy="16.5" fill="#fff" r="5.2"/><path d="m59.1 21.8c2.9 0 5.2-2.3 5.2-5.2s-2.3-5.2-5.2-5.2-5.2 2.3-5.2 5.2 2.3 5.2 5.2 5.2z" fill="#fff"/><path d="m72.1 26.4c-2.9 0-5.2 2.3-5.2 5.2 0 1.4.6 2.8 1.5 3.7l-13.2 15.2 3.3-28.7-2.1-.6-9.8 16.9-5.1-21.7h-2.2l-5.1 21.7-9.8-16.9-2.1.6 3.3 28.7-13-15.2c.9-.9 1.5-2.3 1.5-3.7 0-2.9-2.3-5.2-5.2-5.2s-5.2 2.3-5.2 5.2 2.3 5.2 5.2 5.2c.5 0 1-.1 1.5-.2l9.1 34.4h42.1l9.1-34.4c.5.1 1 .2 1.5.2 2.9 0 5.2-2.3 5.2-5.2s-2.4-5.2-5.3-5.2z" fill="#fff"/><circle cx="40.5" cy="11.3" fill="#fff" r="5.2"/><path d="m41.4 20.3 5.3 17.9-5.3 7.3zm-14.3 33.3-3.5 6.8-9.7-22.1zm6.9-3.1-9.2-27.7 15.7 28.1zm14.2 0 9.3-24.7-3.6 27.8zm-6.1 19.9c19.9-4.7 26.4-33.7 26.4-33.7l1.5.3-9.3 33.4z" fill="#cfcecf"/><path d="m73.3 36.7c3.4-.9 3.9-3.4 4-6.7 0-.6-.9-1.8-1.3-1.8-.4.1-.8.1-1.2.3.3 2.5-1.3 5-3.8 5.7-1.1.3-2.1.2-3.1-.1-.6 1 3.9 3 5.4 2.6zm-13.3-15.4c3.4-.9 3.9-3.4 4-6.7 0-.6-.9-1.8-1.3-1.8-.4.1-.8.1-1.2.3.3 2.5-1.3 5-3.8 5.7-1.1.3-2.1.2-3.1-.1-.6 1 3.9 3 5.4 2.6zm-49.9 15.4c3.4-.9 3.9-3.4 4-6.7 0-.6-.9-1.8-1.3-1.8-.4.1-.8.1-1.2.3.3 2.5-1.3 5-3.8 5.7-1.1.3-2.1.2-3.1-.1-.6 1 3.9 3 5.4 2.6zm13-15.4c3.4-.9 3.9-3.4 4-6.7 0-.6-.9-1.8-1.3-1.8-.4.1-.8.1-1.2.3.3 2.5-1.3 5-3.8 5.7-1.1.3-2.1.2-3.1-.1-.6 1 3.9 3 5.4 2.6zm18.5-5.2c3.4-.9 3.9-3.4 4-6.7 0-.6-.9-1.8-1.3-1.8-.4.1-.8.1-1.2.3.3 2.5-1.3 5-3.8 5.7-1.1.3-2.1.2-3.1-.1-.6 1.1 3.9 3 5.4 2.6z" fill="#cfcecf"/><path d="m40.5 65.7-3.9-5.9 3.9-5.8 3.9 5.8z"/><path d="m72.1 25.1c-3.6 0-6.4 2.9-6.4 6.5 0 1.3.4 2.6 1.1 3.7l-10.5 13 3.4-25.4c3.3-.3 5.9-3.1 5.9-6.4 0-3.6-2.9-6.5-6.5-6.5s-6.5 2.9-6.5 6.5c0 1.9.8 3.7 2.3 5l-7.8 13.4-4.1-17.6c2.3-1 3.9-3.4 3.9-6 0-3.6-2.9-6.4-6.4-6.4-3.6 0-6.5 2.9-6.5 6.4 0 2.6 1.5 4.9 3.9 6l-4.1 17.6-7.8-13.4c1.5-1.2 2.3-3.1 2.3-5 0-3.6-2.9-6.5-6.5-6.5s-6.5 2.9-6.5 6.5c0 3.3 2.6 6.1 5.9 6.4l3.4 25.4-10.4-13c.7-1 1.1-2.3 1.1-3.7 0-3.6-2.9-6.5-6.5-6.5s-6.4 2.9-6.4 6.5 2.9 6.4 6.4 6.4h.5l9 34v.2h44l9-34.2h.5c3.6 0 6.4-2.9 6.4-6.4.1-3.6-2.6-6.5-6.1-6.5zm-59 6.5c0 2.3-1.9 4.1-4.2 4.1s-4.1-1.8-4.1-4.1 1.9-4.2 4.1-4.2c2.3 0 4.2 1.9 4.2 4.2zm8.8-10.8c-2.3 0-4.1-1.9-4.1-4.2s1.9-4.2 4.1-4.2c2.3 0 4.2 1.9 4.2 4.2 0 2.2-1.9 4.2-4.2 4.2zm33.1-4.3c0-2.3 1.9-4.2 4.1-4.2 2.3 0 4.2 1.9 4.2 4.2s-1.9 4.2-4.2 4.2c-2.3.1-4.1-1.8-4.1-4.2zm-34.6 53.3-8.6-32.4c.1-.1.2-.1.3-.1s.2-.1.3-.1l15.1 17.3-3.7-31.6h.1l16.4 28.1.2.4 16.6-28.7h.1l-3.7 31.6 15.1-17.3.6.3-8.6 32.5zm55.9-38.2c0 2.3-1.9 4.1-4.2 4.1s-4.1-1.8-4.1-4.1 1.9-4.2 4.1-4.2c2.3 0 4.2 1.9 4.2 4.2zm-35.8 14.7-4.8-8.3 4.7-20.2h.3l4.6 20.2zm0-30.8c-2.3 0-4.2-1.9-4.2-4.2s1.9-4.1 4.2-4.1 4.2 1.9 4.2 4.1c.1 2.3-1.9 4.2-4.2 4.2z"/></svg>